<?xml version="1.0" encoding="UTF-8"?>
<svg version="1.1" xmlns="http://www.w3.org/2000/svg" width="491" height="394">
<path d="M0 0 C4.95770387 1.04662637 8.54731217 3.3745123 11.4609375 7.51953125 C12.52815606 13.26716587 12.07150192 18.90985348 10.4609375 24.51953125 C11.19699219 25.050625 11.93304688 25.58171875 12.69140625 26.12890625 C13.66722656 26.8353125 14.64304687 27.54171875 15.6484375 28.26953125 C16.61136719 28.965625 17.57429688 29.66171875 18.56640625 30.37890625 C30.36558058 39.10488133 40.19256211 50.69656613 45.4609375 64.51953125 C45.81671875 65.32003906 46.1725 66.12054688 46.5390625 66.9453125 C48.31805287 71.91291695 48.48616522 77.706468 46.66796875 82.6953125 C45.98567998 83.99976499 45.27416838 85.28932471 44.53515625 86.5625 C43.38541084 88.6571271 42.6732089 90.67854981 41.9609375 92.95703125 C40.69339839 96.97554811 39.0955314 100.75168863 37.328125 104.57421875 C36.35859862 106.66415413 36.35859862 106.66415413 35.4609375 109.51953125 C38.7609375 110.17953125 42.0609375 110.83953125 45.4609375 111.51953125 C48.19760483 118.36119957 49.81811966 125.13517794 48.4609375 132.51953125 C45.7200883 136.21935369 42.8346712 137.32669479 38.4609375 138.51953125 C38.65840677 156.04044115 42.16209823 169.67717654 49.04931641 185.67456055 C50.43889268 188.91125651 51.63328744 192.01915217 52.484375 195.44140625 C52.96777344 196.96507812 52.96777344 196.96507812 53.4609375 198.51953125 C56.37760417 199.76953125 56.37760417 199.76953125 59.4609375 200.51953125 C60.4609375 201.85286458 61.4609375 203.18619792 62.4609375 204.51953125 C66.23598362 206.31267816 69.72714974 206.63844337 73.8359375 206.89453125 C81.36209734 207.52681026 86.16939637 209.63383421 91.1484375 215.39453125 C96.85767865 223.29862941 99.71888547 232.8728549 100.4609375 242.51953125 C100.7909375 243.17953125 101.1209375 243.83953125 101.4609375 244.51953125 C102.00737788 249.50020098 102.00298425 253.41536195 99.7734375 257.95703125 C92.75971277 265.72899649 82.03444355 267.87849841 72.05078125 269.125 C69.53666074 269.24629086 69.53666074 269.24629086 68.4609375 270.51953125 C66.88363747 270.6319315 65.3014252 270.67629309 63.72021484 270.69311523 C62.20130142 270.71334999 62.20130142 270.71334999 60.65170288 270.73399353 C59.54460968 270.74443192 58.43751648 270.7548703 57.296875 270.765625 C54.95312199 270.79861474 52.60937207 270.83182537 50.265625 270.86523438 C46.5709897 270.91228271 42.87636194 270.95659643 39.18164062 270.99633789 C16.65569866 271.08984069 16.65569866 271.08984069 -5.41796875 275.125 C-12.32900564 276.96000344 -19.1642566 276.93635209 -26.2565918 276.85571289 C-28.47026155 276.83209847 -30.68271997 276.83517984 -32.89648438 276.84179688 C-57.6962677 276.79376709 -57.6962677 276.79376709 -65.5390625 270.51953125 C-69.3832147 261.7922668 -68.88565382 248.66141853 -65.640625 239.71484375 C-61.16666423 230.79865243 -53.2751421 223.61033811 -45.7265625 217.26953125 C-42.19176812 214.28173037 -42.19176812 214.28173037 -39.5390625 210.51953125 C-39.28781424 207.85191361 -39.28781424 207.85191361 -39.5390625 205.51953125 C-38.5490625 205.18953125 -37.5590625 204.85953125 -36.5390625 204.51953125 C-35.57992861 202.5992446 -35.57992861 202.5992446 -34.96875 200.22265625 C-34.71222656 199.34609375 -34.45570313 198.46953125 -34.19140625 197.56640625 C-33.80662109 196.18195313 -33.80662109 196.18195313 -33.4140625 194.76953125 C-33.14980469 193.86203125 -32.88554687 192.95453125 -32.61328125 192.01953125 C-31.89479352 189.5248835 -31.18827576 187.0331123 -30.5390625 184.51953125 C-30.26098755 183.44554077 -30.26098755 183.44554077 -29.97729492 182.34985352 C-29.31113682 178.04747418 -29.30023594 173.7541489 -29.22265625 169.40625 C-29.20187515 168.43669876 -29.18109406 167.46714752 -29.15968323 166.46821594 C-29.09447309 163.38122418 -29.0354357 160.29414973 -28.9765625 157.20703125 C-28.93335013 155.11001761 -28.88973498 153.01301222 -28.84570312 150.91601562 C-28.73882099 145.78393818 -28.63747354 140.65177784 -28.5390625 135.51953125 C-31.1790625 135.51953125 -33.8190625 135.51953125 -36.5390625 135.51953125 C-39.53117195 128.03925763 -39.06231266 123.08928174 -36.5390625 115.51953125 C-31.9190625 115.18953125 -27.2990625 114.85953125 -22.5390625 114.51953125 C-22.5390625 113.85953125 -22.5390625 113.19953125 -22.5390625 112.51953125 C-23.5290625 111.85953125 -24.5190625 111.19953125 -25.5390625 110.51953125 C-25.5390625 109.85953125 -25.5390625 109.19953125 -25.5390625 108.51953125 C-26.1990625 108.51953125 -26.8590625 108.51953125 -27.5390625 108.51953125 C-28.828125 107.05859375 -28.828125 107.05859375 -30.1640625 105.14453125 C-30.61007813 104.51804687 -31.05609375 103.8915625 -31.515625 103.24609375 C-32.5390625 101.51953125 -32.5390625 101.51953125 -32.5390625 99.51953125 C-33.1990625 99.51953125 -33.8590625 99.51953125 -34.5390625 99.51953125 C-40.34527005 87.03707281 -44.11983176 75.26183902 -39.5390625 61.51953125 C-32.00696815 60.34787213 -27.54625801 64.40501378 -21.5390625 68.51953125 C-19.73661894 69.66057395 -17.92461697 70.78671644 -16.1015625 71.89453125 C-15.31910156 72.37664062 -14.53664062 72.85875 -13.73046875 73.35546875 C-11.33340246 74.74159668 -11.33340246 74.74159668 -7.5390625 75.51953125 C-4.0740625 71.06453125 -4.0740625 71.06453125 -0.5390625 66.51953125 C-4.96325505 61.57484546 -10.20729126 58.29778154 -15.7890625 54.76953125 C-17.60734837 53.60897728 -19.42508737 52.44756589 -21.2421875 51.28515625 C-22.04301758 50.77758789 -22.84384766 50.27001953 -23.66894531 49.74707031 C-25.5390625 48.51953125 -25.5390625 48.51953125 -26.5390625 47.51953125 C-26.9140625 45.26953125 -26.9140625 45.26953125 -26.5390625 42.51953125 C-24.3515625 40.08203125 -24.3515625 40.08203125 -21.5390625 37.51953125 C-19.64072342 35.5861305 -18.14264835 33.73625286 -16.5390625 31.51953125 C-16.87235362 29.70613776 -16.87235362 29.70613776 -17.5390625 27.51953125 C-18.8278432 13.98733386 -18.8278432 13.98733386 -16.1171875 8.796875 C-14.36201928 6.79043269 -12.64867476 5.14461875 -10.5390625 3.51953125 C-9.88808594 2.97167969 -9.23710937 2.42382812 -8.56640625 1.859375 C-5.62979373 -0.08139204 -3.45736232 -0.15506442 0 0 Z " fill="#181818" transform="translate(230.5390625,53.48046875)"/>
<path d="M0 0 C1.19384308 -0.00707977 2.38768616 -0.01415955 3.6177063 -0.02145386 C19.65645663 -0.07334049 35.02723039 1.04570866 50.6875 4.625 C52.1812767 4.95090118 52.1812767 4.95090118 53.70523071 5.28338623 C54.69493866 5.52035217 55.68464661 5.75731812 56.7043457 6.00146484 C58.05614677 6.31825699 58.05614677 6.31825699 59.43525696 6.64144897 C61.6875 7.625 61.6875 7.625 63.06022644 9.6390686 C64.9429299 14.51681384 65.64770326 20.46626091 64.6875 25.625 C63.23730326 28.86005427 62.22831015 30.32217914 59.11328125 32.06640625 C55.65651798 33.311188 52.17710416 34.47668756 48.6875 35.625 C47.60645996 35.98505127 46.52541992 36.34510254 45.41162109 36.71606445 C32.41705675 40.49704019 19.44282872 40.22781559 6 40.25 C2.46066743 40.26647441 -1.0784106 40.2887568 -4.61763 40.32162476 C-6.80147258 40.34088746 -8.98543077 40.35063085 -11.1693573 40.34854126 C-20.48329965 40.41281159 -29.41181036 41.76610342 -38.50292969 43.73339844 C-43.45103362 44.75213305 -48.22556551 44.91467942 -53.265625 44.890625 C-54.62140656 44.89349518 -54.62140656 44.89349518 -56.00457764 44.89642334 C-57.89693483 44.89777324 -59.78930167 44.89416122 -61.68164062 44.88574219 C-64.5692215 44.87497494 -67.45618747 44.88570402 -70.34375 44.8984375 C-72.1927097 44.89711667 -74.04166901 44.89455587 -75.890625 44.890625 C-77.17516571 44.89669769 -77.17516571 44.89669769 -78.48565674 44.90289307 C-84.39405269 44.8568016 -88.93807193 43.99966888 -94.1328125 40.9921875 C-97.08544178 37.7855686 -97.23233465 34.9258229 -97.1875 30.75 C-97.18379395 30.02981689 -97.18008789 29.30963379 -97.17626953 28.56762695 C-96.9953863 25.17470782 -96.63502434 23.03024071 -94.5 20.34765625 C-92.15078293 18.78812533 -89.92118415 17.69001325 -87.3125 16.625 C-86.45140625 16.15320313 -85.5903125 15.68140625 -84.703125 15.1953125 C-76.81810682 11.54349532 -68.13180043 9.73513557 -59.74951172 7.54785156 C-56.61354492 6.70583178 -53.51624511 5.78079121 -50.41015625 4.8359375 C-33.74367677 0.16413986 -17.2095321 0.03700914 0 0 Z " fill="#F9F9F9" transform="translate(263.3125,281.375)"/>
<path d="M0 0 C1.33855056 0.78281305 2.67073644 1.57651877 4 2.375 C5.11375 3.03628906 5.11375 3.03628906 6.25 3.7109375 C7.11625 4.34902344 7.11625 4.34902344 8 5 C8 5.66 8 6.32 8 7 C8.721875 7.226875 9.44375 7.45375 10.1875 7.6875 C14.20596258 9.56278254 17.1093234 12.16625406 19.0625 16.1875 C19.83791017 18.15746456 19.83791017 18.15746456 21.80859375 18.7734375 C28.79721581 22.68507266 32.73437243 32.91573929 35.40625 40.13671875 C37.00856749 47.86368402 35.78478046 53.8843152 32.75 61.0625 C32.44964844 61.81337891 32.14929688 62.56425781 31.83984375 63.33789062 C30.05485593 67.73199894 28.06863744 71.97403408 25.86523438 76.17358398 C24.51199804 79.03011926 23.76537415 81.93850338 23 85 C20.33333333 85.33333333 17.66666667 85.66666667 15 86 C13.28490234 86.25716797 13.28490234 86.25716797 11.53515625 86.51953125 C5.68653348 87.24532748 -0.17674911 87.22341276 -6.0625 87.25 C-7.78049805 87.2809375 -7.78049805 87.2809375 -9.53320312 87.3125 C-18.50042917 87.35399092 -24.20656099 86.24261963 -31 80 C-39.29268924 70.45084269 -45.154063 59.21068973 -45.125 46.4375 C-45.12757813 45.30183594 -45.13015625 44.16617188 -45.1328125 42.99609375 C-45 40 -45 40 -44 37 C-39.50864381 38.28418542 -36.32364312 39.97615051 -32.625 42.8125 C-31.19607422 43.87404297 -31.19607422 43.87404297 -29.73828125 44.95703125 C-28.38283203 45.96830078 -28.38283203 45.96830078 -27 47 C-21.41648572 51.14069466 -18.02351886 52.6270999 -11 52 C-10.7525 51.29875 -10.505 50.5975 -10.25 49.875 C-9 47 -9 47 -6.875 44 C-4.85506222 40.76809955 -4.44120396 39.69144052 -5 36 C-6.79348197 33.88815129 -6.79348197 33.88815129 -9.3125 32.125 C-10.21742188 31.44566406 -11.12234375 30.76632813 -12.0546875 30.06640625 C-20.08270859 24.19801825 -20.08270859 24.19801825 -29 20 C-29.33 19.01 -29.66 18.02 -30 17 C-29.31164062 16.34644531 -29.31164062 16.34644531 -28.609375 15.6796875 C-24.83645414 12.0177349 -21.7376848 8.48980308 -19 4 C-18.19755859 4.23589844 -18.19755859 4.23589844 -17.37890625 4.4765625 C-14.53545464 5.10221524 -11.84781314 5.28123526 -8.9375 5.375 C-7.89464844 5.42398438 -6.85179687 5.47296875 -5.77734375 5.5234375 C-2.76604042 5.28140293 -2.76604042 5.28140293 -1.12890625 2.4765625 C-0.75636719 1.65929687 -0.38382813 0.84203125 0 0 Z " fill="#F7F7F7" transform="translate(238,81)"/>
<path d="M0 0 C0.78243073 -0.00095673 1.56486145 -0.00191345 2.3710022 -0.00289917 C4.01296062 -0.00357429 5.65492183 -0.00176707 7.296875 0.00244141 C9.77610432 0.00778457 12.25515131 0.00248097 14.734375 -0.00390625 C35.97354403 -0.01402699 35.97354403 -0.01402699 42.4140625 2.1328125 C42.4234082 2.72594238 42.43275391 3.31907227 42.44238281 3.93017578 C42.79555435 21.82073768 46.09675816 35.77418002 53.41601562 52.11547852 C53.99512695 53.41376587 53.99512695 53.41376587 54.5859375 54.73828125 C54.9375293 55.51324951 55.28912109 56.28821777 55.65136719 57.08666992 C56.4140625 59.1328125 56.4140625 59.1328125 56.4140625 62.1328125 C54.91355272 61.84377988 53.41368512 61.55141331 51.9140625 61.2578125 C51.07875 61.09539062 50.2434375 60.93296875 49.3828125 60.765625 C46.4140625 60.1328125 46.4140625 60.1328125 42.9375 59.08984375 C27.2896339 55.16129329 8.48111167 56.93192853 -6.57617188 62.40527344 C-8.70662521 63.17650168 -10.85158332 63.88241453 -13.0078125 64.578125 C-16.54759163 65.72434303 -20.07028425 66.91426012 -23.5859375 68.1328125 C-23.30878906 67.03582031 -23.03164062 65.93882812 -22.74609375 64.80859375 C-22.38014513 63.35418257 -22.01426323 61.8997546 -21.6484375 60.4453125 C-21.37483398 59.3634668 -21.37483398 59.3634668 -21.09570312 58.25976562 C-20.91845703 57.55400391 -20.74121094 56.84824219 -20.55859375 56.12109375 C-20.39625244 55.47696533 -20.23391113 54.83283691 -20.06665039 54.16918945 C-19.12792147 50.1925831 -18.45955046 46.43588447 -18.38061523 42.3425293 C-18.36067001 41.42195236 -18.34072479 40.50137543 -18.32017517 39.55290222 C-18.30346268 38.5725148 -18.28675018 37.59212738 -18.26953125 36.58203125 C-18.24875015 35.56808792 -18.22796906 34.55414459 -18.20655823 33.50947571 C-18.14132636 30.27982165 -18.08230048 27.05008829 -18.0234375 23.8203125 C-17.98022721 21.62694502 -17.93661212 19.43358547 -17.89257812 17.24023438 C-17.78567206 11.87117688 -17.68385729 6.502041 -17.5859375 1.1328125 C-11.68498309 0.40073648 -5.94258767 -0.01651518 0 0 Z " fill="#F9F9F9" transform="translate(222.5859375,187.8671875)"/>
<path d="M0 0 C1.12462646 0.00572021 2.24925293 0.01144043 3.40795898 0.01733398 C16.46563117 0.29290626 29.5525614 1.91137108 39.56640625 10.9296875 C43.80631163 14.48802145 49.0538118 15.29220445 54.38671875 16.1640625 C55.44717407 16.34243652 55.44717407 16.34243652 56.52905273 16.52441406 C57.9380486 16.75327031 59.35051825 16.96191746 60.76586914 17.14746094 C67.19905214 18.15591009 69.7382753 21.3638318 73.625 26.25 C75.23606942 29.13881414 75.89760163 31.03793743 76.55078125 34.203125 C76.72005127 35.00911133 76.88932129 35.81509766 77.0637207 36.64550781 C77.24874146 37.56348145 77.24874146 37.56348145 77.4375 38.5 C76.68130371 38.35377197 75.92510742 38.20754395 75.14599609 38.05688477 C71.70164918 37.39130156 68.2570773 36.72688978 64.8125 36.0625 C63.62269531 35.83240234 62.43289063 35.60230469 61.20703125 35.36523438 C60.05332031 35.14287109 58.89960938 34.92050781 57.7109375 34.69140625 C56.65310059 34.48717041 55.59526367 34.28293457 54.50537109 34.07250977 C53.49297363 33.88358154 52.48057617 33.69465332 51.4375 33.5 C50.56577148 33.31824219 49.69404297 33.13648438 48.79589844 32.94921875 C16.65788754 28.65044439 -17.61277133 31.0618153 -48.5625 40.5 C-50.85793981 41.1619201 -53.15350604 41.82340202 -55.44921875 42.484375 C-65.90700186 45.56067115 -65.90700186 45.56067115 -75.5625 50.5 C-76.2225 50.5 -76.8825 50.5 -77.5625 50.5 C-76.30887759 44.48261245 -73.83857593 39.97361205 -69.5625 35.5 C-68.9025 35.5 -68.2425 35.5 -67.5625 35.5 C-67.5625 34.84 -67.5625 34.18 -67.5625 33.5 C-63.09191176 29.5 -63.09191176 29.5 -60.5625 29.5 C-60.5625 28.84 -60.5625 28.18 -60.5625 27.5 C-59.39680877 26.36859381 -58.22825707 25.24001229 -57.046875 24.125 C-54.73089893 21.58961567 -53.09840698 18.64736026 -51.3828125 15.68359375 C-46.98437952 10.40736191 -40.21303888 8.46983572 -33.875 6.4375 C-32.78541992 6.07301758 -32.78541992 6.07301758 -31.67382812 5.70117188 C-29.31355195 4.92808402 -26.94429639 4.20402249 -24.5625 3.5 C-23.6336499 3.22494629 -22.7047998 2.94989258 -21.74780273 2.66650391 C-14.43045703 0.65730395 -7.5761561 -0.04529068 0 0 Z " fill="#F8F8F8" transform="translate(246.5625,247.5)"/>
<path d="M0 0 C1.23556641 0.01740234 1.23556641 0.01740234 2.49609375 0.03515625 C3.32238281 0.04417969 4.14867187 0.05320313 5 0.0625 C5.63808594 0.07410156 6.27617187 0.08570313 6.93359375 0.09765625 C9.54640863 5.97648974 9.11687577 11.80497353 8.93359375 18.09765625 C3.43377379 18.92781775 -1.39878668 19.08659061 -6.92260742 18.60375977 C-13.75002831 18.0683672 -20.52180843 17.96889774 -27.3671875 18 C-28.56957565 18.00141495 -29.77196381 18.0028299 -31.01078796 18.00428772 C-34.80018751 18.00982469 -38.58952498 18.02236489 -42.37890625 18.03515625 C-44.96940018 18.04017941 -47.55989505 18.04474088 -50.15039062 18.04882812 C-56.45574986 18.05977336 -62.76107362 18.07644722 -69.06640625 18.09765625 C-70.05934253 15.1188474 -70.20047036 13.08164427 -70.19140625 9.97265625 C-70.19398438 9.08320313 -70.1965625 8.19375 -70.19921875 7.27734375 C-70.06640625 5.09765625 -70.06640625 5.09765625 -69.06640625 4.09765625 C-66.84111362 3.88544291 -64.61047742 3.72823931 -62.37890625 3.59765625 C-58.94957784 3.39486597 -55.61755163 3.19769161 -52.23632812 2.58398438 C-49.00420675 2.08811363 -46.00195636 1.99990251 -42.734375 2.03515625 C-41.53071289 2.04361572 -40.32705078 2.0520752 -39.08691406 2.06079102 C-37.82202148 2.07295654 -36.55712891 2.08512207 -35.25390625 2.09765625 C-19.13523909 2.22803262 -19.13523909 2.22803262 -3.06640625 1.09765625 C-2.06640625 0.09765625 -2.06640625 0.09765625 0 0 Z " fill="#F9F9F9" transform="translate(266.06640625,167.90234375)"/>
<path d="M0 0 C4.95770387 1.04662637 8.54731217 3.3745123 11.4609375 7.51953125 C12.52815606 13.26716587 12.07150192 18.90985348 10.4609375 24.51953125 C11.19699219 25.050625 11.93304688 25.58171875 12.69140625 26.12890625 C13.66722656 26.8353125 14.64304688 27.54171875 15.6484375 28.26953125 C16.61136719 28.965625 17.57429688 29.66171875 18.56640625 30.37890625 C23.58512342 34.09045417 27.16314648 37.14535329 30.4609375 42.51953125 C29.4709375 43.50953125 28.4809375 44.49953125 27.4609375 45.51953125 C26.7803125 44.44703125 26.0996875 43.37453125 25.3984375 42.26953125 C22.62029453 38.33382871 19.75164444 36.62281897 15.4609375 34.51953125 C15.4609375 33.85953125 15.4609375 33.19953125 15.4609375 32.51953125 C14.6771875 32.23078125 13.8934375 31.94203125 13.0859375 31.64453125 C10.4609375 30.51953125 10.4609375 30.51953125 8.4609375 28.51953125 C7.8421875 29.75703125 7.8421875 29.75703125 7.2109375 31.01953125 C3.35036561 34.52914205 0.38071933 33.91602171 -4.6640625 33.6953125 C-6.0871875 33.60830078 -6.0871875 33.60830078 -7.5390625 33.51953125 C-11.61757664 33.07564056 -11.61757664 33.07564056 -14.1171875 35.8203125 C-15.0192731 36.81393326 -15.90959181 37.81833901 -16.7890625 38.83203125 C-17.47742188 39.58129883 -17.47742188 39.58129883 -18.1796875 40.34570312 C-21.00921704 43.4447867 -21.00921704 43.4447867 -21.5390625 47.51953125 C-20.9409375 47.64328125 -20.3428125 47.76703125 -19.7265625 47.89453125 C-17.5390625 48.51953125 -17.5390625 48.51953125 -14.5390625 50.51953125 C-15.1990625 51.83953125 -15.8590625 53.15953125 -16.5390625 54.51953125 C-18.21919218 53.4784509 -19.8829026 52.41083541 -21.5390625 51.33203125 C-22.4671875 50.74035156 -23.3953125 50.14867187 -24.3515625 49.5390625 C-26.5390625 47.51953125 -26.5390625 47.51953125 -26.98828125 44.93359375 C-26.31839338 41.33367458 -24.20910778 39.95223918 -21.5390625 37.51953125 C-19.64072342 35.5861305 -18.14264835 33.73625286 -16.5390625 31.51953125 C-16.87235362 29.70613776 -16.87235362 29.70613776 -17.5390625 27.51953125 C-18.8278432 13.98733386 -18.8278432 13.98733386 -16.1171875 8.796875 C-14.36201928 6.79043269 -12.64867476 5.14461875 -10.5390625 3.51953125 C-9.88808594 2.97167969 -9.23710937 2.42382812 -8.56640625 1.859375 C-5.62979373 -0.08139204 -3.45736232 -0.15506442 0 0 Z " fill="#232323" transform="translate(230.5390625,53.48046875)"/>
<path d="M0 0 C4.08803327 1.4296947 7.21670936 3.42413355 10.6875 6 C11.64011719 6.70125 12.59273437 7.4025 13.57421875 8.125 C16 10 16 10 18 12 C18 17.63955174 15.91476612 21.40591499 13.05859375 26.1796875 C10.60411593 28.35006068 8.48993604 29.02640847 5.22729492 29.27539062 C0.76232636 28.72332611 -2.53018875 25.92802818 -6.0625 23.3125 C-7.59363335 22.22326336 -9.126166 21.13599078 -10.66015625 20.05078125 C-11.38734863 19.5295166 -12.11454102 19.00825195 -12.86376953 18.47119141 C-15.81030713 16.44195305 -18.86084803 14.71340167 -22 13 C-22.78552193 30.19420234 -19.01664794 43.51901736 -7.296875 56.625 C-6.21779703 57.76908267 -5.1120554 58.8879446 -4 60 C-4.66 61.32 -5.32 62.64 -6 64 C-6.66 63.67 -7.32 63.34 -8 63 C-8 62.34 -8 61.68 -8 61 C-8.99 60.34 -9.98 59.68 -11 59 C-11 58.34 -11 57.68 -11 57 C-11.66 57 -12.32 57 -13 57 C-14.2890625 55.5390625 -14.2890625 55.5390625 -15.625 53.625 C-16.07101563 52.99851563 -16.51703125 52.37203125 -16.9765625 51.7265625 C-18 50 -18 50 -18 48 C-18.66 48 -19.32 48 -20 48 C-25.80620755 35.51754156 -29.58076926 23.74230777 -25 10 C-17.46790565 8.82834088 -13.00719551 12.88548253 -7 17 C-5.19755644 18.1410427 -3.38555447 19.26718519 -1.5625 20.375 C-0.78003906 20.85710937 0.00242188 21.33921875 0.80859375 21.8359375 C3.20566004 23.22206543 3.20566004 23.22206543 7 24 C9.31 21.03 11.62 18.06 14 15 C9.58990583 10.14889642 4.41995647 6.651893 -1 3 C-0.67 2.01 -0.34 1.02 0 0 Z " fill="#1E1E1E" transform="translate(216,105)"/>
<path d="M0 0 C1.42366111 0.50139889 2.84062729 1.02224046 4.25 1.5625 C4.95640625 1.83191406 5.6628125 2.10132813 6.390625 2.37890625 C6.92171875 2.58386719 7.4528125 2.78882813 8 3 C8.53983679 10.88761528 7.62432117 16.92602375 4 24 C2.44909185 25.55090815 0.96303767 25.20677311 -1.1875 25.25 C-5.47998155 25.20215387 -8.35495883 24.40039297 -12 22 C-14.71072193 17.9339171 -14.63535577 14.77311026 -14 10 C-11.86564052 3.77882721 -6.95009014 -2.31234202 0 0 Z " fill="#F6F6F6" transform="translate(230,59)"/>
<path d="M0 0 C0.33 0 0.66 0 1 0 C1.01417969 1.258125 1.02835937 2.51625 1.04296875 3.8125 C1.4112868 19.83433511 5.2970828 32.54183177 11.58837891 47.1550293 C12.97795518 50.39172526 14.17234994 53.49962092 15.0234375 56.921875 C15.34570312 57.93765625 15.66796875 58.9534375 16 60 C18.91666667 61.25 18.91666667 61.25 22 62 C23.5 64 23.5 64 25 66 C30.32525038 68.52949393 36.19891084 68.60775554 42 69 C40.36587557 70.70840281 39.13093906 71.93453047 37 73 C28.94959869 72.18682815 20.66616584 70.71012056 14.6875 65 C10.48235921 61.06868233 5.51487788 60.1368826 0 59 C0.33 58.01 0.66 57.02 1 56 C4.3 56.66 7.6 57.32 11 58 C10.67725098 57.25951416 10.35450195 56.51902832 10.02197266 55.75610352 C8.54805783 52.36175346 7.08646317 48.9622287 5.625 45.5625 C5.11710937 44.39783203 4.60921875 43.23316406 4.0859375 42.03320312 C-2.97572754 25.54049859 -2.97572754 25.54049859 -1 18 C-0.72372518 14.90088543 -0.58711218 11.79501855 -0.4375 8.6875 C-0.39431641 7.85154297 -0.35113281 7.01558594 -0.30664062 6.15429688 C-0.20114693 4.10303065 -0.10012685 2.0515352 0 0 Z " fill="#252525" transform="translate(268,192)"/>
<path d="M0 0 C1.92682617 -0.01160156 1.92682617 -0.01160156 3.89257812 -0.0234375 C10.46055464 -0.00990226 16.28966975 0.2515762 22.5625 2.25 C22.2325 3.24 21.9025 4.23 21.5625 5.25 C19.96728516 5.01216797 19.96728516 5.01216797 18.33984375 4.76953125 C2.26137221 2.78135214 -13.96068005 3.42157706 -29.4375 8.25 C-29.1075 7.26 -28.7775 6.27 -28.4375 5.25 C-26.05966989 4.06108495 -23.93224052 3.10393448 -21.4375 2.25 C-20.50035156 1.89550781 -19.56320313 1.54101562 -18.59765625 1.17578125 C-12.57851831 -0.50749629 -6.19216907 -0.0371716 0 0 Z " fill="#060606" transform="translate(246.4375,244.75)"/>
<path d="M0 0 C-0.33 0.99 -0.66 1.98 -1 3 C-3.81298828 3.91967773 -3.81298828 3.91967773 -7.5703125 4.68359375 C-8.24359589 4.82523453 -8.91687927 4.96687531 -9.61056519 5.11280823 C-11.77966002 5.56693953 -13.95189095 6.00302277 -16.125 6.4375 C-18.9413935 7.01338942 -21.75615021 7.59690555 -24.5703125 8.18359375 C-25.61158295 8.39911392 -25.61158295 8.39911392 -26.67388916 8.61898804 C-33.85993924 10.13179132 -40.92754977 12.02729385 -48 14 C-48.33 13.34 -48.66 12.68 -49 12 C-48 10 -48 10 -46.14013672 9.30151367 C-45.32818848 9.09244385 -44.51624023 8.88337402 -43.6796875 8.66796875 C-42.7621167 8.42892822 -41.8445459 8.1898877 -40.89916992 7.94360352 C-39.90119385 7.69408936 -38.90321777 7.4445752 -37.875 7.1875 C-36.85704346 6.92831787 -35.83908691 6.66913574 -34.7902832 6.40209961 C-27.28075479 4.51449948 -19.7456625 2.74429638 -12.1875 1.0625 C-11.1979834 0.83908936 -10.2084668 0.61567871 -9.18896484 0.38549805 C-8.27453613 0.18738525 -7.36010742 -0.01072754 -6.41796875 -0.21484375 C-5.61125732 -0.39136475 -4.8045459 -0.56788574 -3.97338867 -0.74975586 C-2 -1 -2 -1 0 0 Z " fill="#0A0A0A" transform="translate(236,280)"/>
<path d="M0 0 C1.32 0.33 2.64 0.66 4 1 C2.71039347 5.72855729 -0.01197211 8.16998301 -3.5390625 11.3515625 C-5.33163118 13.00708448 -5.33163118 13.00708448 -5 16 C-4.401875 16.12375 -3.80375 16.2475 -3.1875 16.375 C-1 17 -1 17 2 19 C1.34 20.32 0.68 21.64 0 23 C-1.68012968 21.95891965 -3.3438401 20.89130416 -5 19.8125 C-5.928125 19.22082031 -6.85625 18.62914063 -7.8125 18.01953125 C-10 16 -10 16 -10.44921875 13.4140625 C-9.77933088 9.81414333 -7.67004528 8.43270793 -5 6 C-3.28078596 4.03916669 -1.64664979 2.02302688 0 0 Z " fill="#232323" transform="translate(214,85)"/>
<path d="M0 0 C3.99926986 2.97088618 6.92118304 6.12948725 10 10 C9.34 11.32 8.68 12.64 8 14 C7.34 13.67 6.68 13.34 6 13 C6 12.34 6 11.68 6 11 C5.01 10.34 4.02 9.68 3 9 C3 8.34 3 7.68 3 7 C2.34 7 1.68 7 1 7 C-2 3.53846154 -2 3.53846154 -2 1 C-1.34 0.67 -0.68 0.34 0 0 Z " fill="#212121" transform="translate(202,155)"/>
<path d="M0 0 C0.99 0 1.98 0 3 0 C5.1875 3 5.1875 3 7 6 C6.01 6.99 5.02 7.98 4 9 C2.35 6.69 0.7 4.38 -1 2 C-0.67 1.34 -0.34 0.68 0 0 Z " fill="#1E1E1E" transform="translate(254,90)"/>
<path d="M0 0 C0.33 0.99 0.66 1.98 1 3 C-1.31 5.31 -3.62 7.62 -6 10 C-6.33 9.01 -6.66 8.02 -7 7 C-4.66666667 4.66666667 -2.33333333 2.33333333 0 0 Z " fill="#404040" transform="translate(211,89)"/>
<path d="M0 0 C1.98 0.66 3.96 1.32 6 2 C5.01 2.99 4.02 3.98 3 5 C1.68 4.34 0.36 3.68 -1 3 C-0.67 2.01 -0.34 1.02 0 0 Z " fill="#E7E7E7" transform="translate(194,118)"/>
<path d="M0 0 C1.32 0.33 2.64 0.66 4 1 C4 1.99 4 2.98 4 4 C2.68 4 1.36 4 0 4 C0 2.68 0 1.36 0 0 Z " fill="#F1F1F1" transform="translate(316,273)"/>
<path d="M0 0 C1.32 0.99 2.64 1.98 4 3 C3.34 4.32 2.68 5.64 2 7 C1.34 6.67 0.68 6.34 0 6 C-0.6875 3.5 -0.6875 3.5 -1 1 C-0.67 0.67 -0.34 0.34 0 0 Z " fill="#2C2C2C" transform="translate(208,162)"/>
</svg>
