<?xml version="1.0" encoding="UTF-8"?>
<svg version="1.1" xmlns="http://www.w3.org/2000/svg" width="491" height="394">
<path d="M0 0 C1.45212891 -0.03867187 1.45212891 -0.03867187 2.93359375 -0.078125 C6.00135852 0.3047758 6.63471157 0.93440573 8.5625 3.25 C9.5525 3.91 10.5425 4.57 11.5625 5.25 C11.51238512 7.30888619 11.44535777 9.36968433 11.26635742 11.42138672 C10.5033328 19.27847729 10.5033328 19.27847729 13.82421875 26.078125 C16.65525407 28.0587158 19.50143048 29.65543477 22.5625 31.25 C27.27361592 34.74869638 30.85836459 38.73462833 34.5625 43.25 C35.22765625 44.03117187 35.8928125 44.81234375 36.578125 45.6171875 C40.87684718 51.01520123 43.75605872 56.44199583 46.125 62.875 C46.38869385 63.567146 46.6523877 64.25929199 46.92407227 64.97241211 C49.89911642 73.6955672 47.64830918 81.05539236 44.25 89.3125 C43.95416016 90.06337891 43.65832031 90.81425781 43.35351562 91.58789062 C41.58085288 96.01763317 39.6083318 100.28907457 37.40551758 104.52124023 C36.43286204 106.41961388 36.43286204 106.41961388 35.5625 109.25 C36.24957031 109.19199219 36.93664062 109.13398438 37.64453125 109.07421875 C40.35373709 108.93856467 42.87066837 108.90266689 45.5625 109.25 C49.67877015 113.61574107 49.71392044 119.61670235 49.75 125.375 C49.76417969 126.40882813 49.77835937 127.44265625 49.79296875 128.5078125 C49.5625 131.25 49.5625 131.25 47.5625 134.25 C44.93893538 135.23515378 42.31725877 135.67238929 39.5625 136.25 C38.81110144 155.82810679 43.61388644 170.21741921 51.54785156 187.93579102 C52.19151164 189.40385017 52.81118988 190.88285029 53.39746094 192.37475586 C55.26956619 197.13271749 56.94794881 198.14335706 61.5625 200.25 C62.2421875 202.33203125 62.2421875 202.33203125 62.5625 204.25 C63.61308594 204.35957031 64.66367187 204.46914063 65.74609375 204.58203125 C85.86446262 206.78970642 85.86446262 206.78970642 91.3125 213.0625 C94.8802844 218.08228968 96.74455664 223.60233449 98.6171875 229.40625 C99.28368048 232.12049742 99.28368048 232.12049742 100.5625 233.25 C101.93836169 241.19942312 102.99695801 250.02212376 100.375 257.75 C95.75647909 261.85535192 90.35786018 263.38984517 84.5625 265.25 C83.48347412 265.60803711 82.40444824 265.96607422 81.29272461 266.33496094 C68.29607032 270.1223046 55.3213255 269.85280982 41.875 269.875 C38.33566743 269.89147441 34.7965894 269.9137568 31.25737 269.94662476 C29.07352742 269.96588746 26.88956923 269.97563085 24.7056427 269.97354126 C15.40949825 270.03768877 6.49585767 271.37850855 -2.57543945 273.35620117 C-7.80723064 274.43282907 -12.90218344 274.55598833 -18.23046875 274.55078125 C-19.22073563 274.55506638 -20.2110025 274.5593515 -21.23127747 274.56376648 C-23.3077417 274.56946883 -25.38422589 274.57004057 -27.46069336 274.56567383 C-30.62713557 274.56249786 -33.79265617 274.58607986 -36.95898438 274.61132812 C-38.986978 274.61360003 -41.01497411 274.61430512 -43.04296875 274.61328125 C-43.98166306 274.622491 -44.92035736 274.63170074 -45.88749695 274.64118958 C-52.8810693 274.59214206 -57.16546046 272.96518202 -63.34375 269.7265625 C-66.70476076 265.75103858 -66.08449104 261.65610258 -65.9375 256.625 C-65.94136719 255.20380859 -65.94136719 255.20380859 -65.9453125 253.75390625 C-65.77209677 241.09183635 -61.81552588 232.77883881 -53.1875 223.75 C-50.4375 221.25 -50.4375 221.25 -48.4375 221.25 C-48.4375 220.59 -48.4375 219.93 -48.4375 219.25 C-47.01171875 217.8828125 -47.01171875 217.8828125 -45.125 216.375 C-41.30366242 213.23396551 -41.30366242 213.23396551 -38.4375 209.25 C-38.18625174 206.58238236 -38.18625174 206.58238236 -38.4375 204.25 C-37.4475 203.92 -36.4575 203.59 -35.4375 203.25 C-34.47836611 201.32971335 -34.47836611 201.32971335 -33.8671875 198.953125 C-33.61066406 198.0765625 -33.35414063 197.2 -33.08984375 196.296875 C-32.70505859 194.91242188 -32.70505859 194.91242188 -32.3125 193.5 C-32.04824219 192.5925 -31.78398437 191.685 -31.51171875 190.75 C-29.51259268 183.80887191 -28.29070004 177.64689977 -28.375 170.38671875 C-28.37878662 169.6359053 -28.38257324 168.88509186 -28.38647461 168.11152649 C-28.40271715 164.91843824 -28.43078084 161.7254812 -28.45800781 158.5324707 C-28.47623663 156.19222623 -28.48824205 153.85200332 -28.5 151.51171875 C-28.50829834 150.80311203 -28.51659668 150.09450531 -28.52514648 149.36442566 C-28.54828088 144.57408925 -28.11303967 139.99373796 -27.4375 135.25 C-30.0775 134.92 -32.7175 134.59 -35.4375 134.25 C-36.68341555 130.40348294 -36.58531806 126.55946388 -36.5625 122.5625 C-36.56830078 121.52899414 -36.56830078 121.52899414 -36.57421875 120.47460938 C-36.56419335 115.37669335 -36.56419335 115.37669335 -35.4375 114.25 C-33.08762738 114.01472227 -30.73193961 113.83613583 -28.375 113.6875 C-27.08464844 113.60371094 -25.79429687 113.51992187 -24.46484375 113.43359375 C-23.46582031 113.37300781 -22.46679688 113.31242187 -21.4375 113.25 C-21.4375 112.26 -21.4375 111.27 -21.4375 110.25 C-22.4275 109.92 -23.4175 109.59 -24.4375 109.25 C-33.4176452 100.09590526 -39.69415615 87.24425338 -39.66210938 74.3828125 C-39.64374023 73.20332031 -39.64374023 73.20332031 -39.625 72 C-39.62435547 71.19820313 -39.62371094 70.39640625 -39.62304688 69.5703125 C-39.59786255 66.22359527 -39.50228118 63.44434355 -38.4375 60.25 C-30.90412935 59.07814234 -26.44663833 63.13674893 -20.4375 67.25 C-18.65552368 68.36973831 -16.86431231 69.47496798 -15.0625 70.5625 C-13.90621094 71.26826172 -13.90621094 71.26826172 -12.7265625 71.98828125 C-10.35608975 73.29487289 -7.96865831 74.29746162 -5.4375 75.25 C-5.19 74.54875 -4.9425 73.8475 -4.6875 73.125 C-3.27661974 69.87997541 -1.45854602 67.14683263 0.5625 64.25 C-6.10451594 59.25654112 -12.89007864 54.58232041 -19.92822266 50.13305664 C-24.35318599 47.33431401 -24.35318599 47.33431401 -25.4375 46.25 C-25.8125 44 -25.8125 44 -25.4375 41.25 C-23.0625 38.4375 -23.0625 38.4375 -20.4375 36.25 C-19.7775 36.25 -19.1175 36.25 -18.4375 36.25 C-18.14875 35.6725 -17.86 35.095 -17.5625 34.5 C-16 31.375 -16 31.375 -14.4375 28.25 C-15.0975 27.26 -15.7575 26.27 -16.4375 25.25 C-17.1157824 18.65216215 -17.56506565 11.75342087 -13.4375 6.25 C-9.10777747 2.03573674 -6.05556255 0.09650299 0 0 Z " fill="#040303" transform="translate(229.4375,54.75)"/>
<path d="M0 0 C3.66801041 0.039875 7.3324112 0.02050516 11.00048828 -0.00512695 C29.38606796 0.00085364 49.52202162 1.00606966 66.53564453 8.72729492 C69.01840421 13.79626259 69.37143805 20.13736405 68.53564453 25.72729492 C67.09934588 28.99029554 66.0906226 30.41654089 62.96142578 32.16870117 C59.50466251 33.41348293 56.02524869 34.57898248 52.53564453 35.72729492 C51.45460449 36.08734619 50.37356445 36.44739746 49.25976562 36.81835938 C36.26520128 40.59933512 23.29097325 40.33011051 9.84814453 40.35229492 C6.30881196 40.36876933 2.76973393 40.39105172 -0.76948547 40.42391968 C-2.95332805 40.44318238 -5.13728624 40.45292577 -7.32121277 40.45083618 C-16.63515512 40.51510651 -25.56366583 41.86839835 -34.65478516 43.83569336 C-39.60288909 44.85442797 -44.37742098 45.01697434 -49.41748047 44.99291992 C-50.77326202 44.9957901 -50.77326202 44.9957901 -52.15643311 44.99871826 C-54.0487903 45.00006816 -55.94115714 44.99645614 -57.83349609 44.98803711 C-60.72107697 44.97726986 -63.60804294 44.98799894 -66.49560547 45.00073242 C-68.34456516 44.99941159 -70.19352448 44.99685079 -72.04248047 44.99291992 C-73.32702118 44.99899261 -73.32702118 44.99899261 -74.63751221 45.00518799 C-80.53680374 44.95916754 -85.07497498 44.09123295 -90.27685547 41.12182617 C-93.3224745 37.78796106 -93.4195877 34.73115434 -93.46435547 30.41479492 C-93.56876953 29.31361328 -93.56876953 29.31361328 -93.67529297 28.19018555 C-93.72042153 25.64719112 -93.50904922 24.05684503 -92.46435547 21.72729492 C-85.84225106 15.44032835 -77.1497306 12.94863779 -68.52685547 10.66479492 C-67.475625 10.36508789 -66.42439453 10.06538086 -65.34130859 9.7565918 C-62.21646572 8.89425707 -59.0827183 8.09294984 -55.93237305 7.32943726 C-54.12891693 6.88943339 -52.32815019 6.4383649 -50.52905273 5.98086548 C-33.5550049 1.71245594 -17.49719062 -0.21149937 0 0 Z " fill="#7F7F7F" transform="translate(259.46435546875,281.272705078125)"/>
<path d="M0 0 C1.73152958 1.07955259 3.46011684 2.16382512 5.1875 3.25 C6.15042969 3.85328125 7.11335938 4.4565625 8.10546875 5.078125 C14.06060492 9.03214254 18.5075423 13.49789717 23 19 C23.67675781 19.82757813 24.35351562 20.65515625 25.05078125 21.5078125 C31.99779683 30.48267632 37.34476015 40.37604805 36 52 C35.17283669 55.1402568 34.0132572 58.07451001 32.75 61.0625 C32.44964844 61.81337891 32.14929688 62.56425781 31.83984375 63.33789062 C30.05485593 67.73199894 28.06863744 71.97403408 25.86523438 76.17358398 C24.51199804 79.03011926 23.76537415 81.93850338 23 85 C20.33333333 85.33333333 17.66666667 85.66666667 15 86 C13.28490234 86.25716797 13.28490234 86.25716797 11.53515625 86.51953125 C5.68653348 87.24532748 -0.17674911 87.22341276 -6.0625 87.25 C-7.78049805 87.2809375 -7.78049805 87.2809375 -9.53320312 87.3125 C-18.48316846 87.35391106 -24.23145958 86.2549075 -31 80 C-41.72040028 67.14350507 -45.94584279 55.76121411 -45 39 C-44.67 38.34 -44.34 37.68 -44 37 C-39.20448536 38.34130184 -35.54196727 40.46654109 -31.5625 43.375 C-30.41779173 44.18388618 -29.27196898 44.99119763 -28.125 45.796875 C-27.09375 46.52390625 -26.0625 47.2509375 -25 48 C-20.45878365 51.17009792 -20.45878365 51.17009792 -15.0546875 51.9140625 C-11.0927382 50.72851757 -10.19386322 49.23853324 -8.0625 45.75 C-7.45535156 44.79609375 -6.84820312 43.8421875 -6.22265625 42.859375 C-4.82953443 40.11782842 -4.82953443 40.11782842 -4.99609375 37.38671875 C-6.3567567 34.15183523 -8.11008533 33.02523371 -11 31.0625 C-11.99257812 30.37929687 -12.98515625 29.69609375 -14.0078125 28.9921875 C-14.99523437 28.33476563 -15.98265625 27.67734375 -17 27 C-17.84304687 26.42507812 -18.68609375 25.85015625 -19.5546875 25.2578125 C-23.30259644 22.72134888 -27.08502187 20.27321311 -31 18 C-27 13.33333333 -23 8.66666667 -19 4 C-18.4534375 4.15726562 -17.906875 4.31453125 -17.34375 4.4765625 C-14.69435821 5.06826 -12.21334331 5.27809488 -9.5 5.375 C-8.5615625 5.42398438 -7.623125 5.47296875 -6.65625 5.5234375 C-3.74390985 5.21963975 -3.74390985 5.21963975 -1.65625 2.4765625 C-0.83640625 1.25066406 -0.83640625 1.25066406 0 0 Z " fill="#7F7F7F" transform="translate(238,81)"/>
<path d="M0 0 C0.82349442 -0.0033284 1.64698883 -0.0066568 2.49543762 -0.01008606 C4.22913053 -0.0151191 5.962833 -0.01749551 7.6965332 -0.01733398 C10.30762272 -0.0195109 12.91828237 -0.03767919 15.52929688 -0.05664062 C24.94724411 -0.0872282 33.87898552 0.3085386 43.14453125 2.16796875 C43.15387695 2.72556885 43.16322266 3.28316895 43.17285156 3.85766602 C43.54840819 21.77944929 46.789482 35.84590139 54.14648438 52.20117188 C54.7255957 53.4918457 54.7255957 53.4918457 55.31640625 54.80859375 C55.66799805 55.57719727 56.01958984 56.34580078 56.38183594 57.13769531 C57.14453125 59.16796875 57.14453125 59.16796875 57.14453125 62.16796875 C55.64402147 61.87893613 54.14415387 61.58656956 52.64453125 61.29296875 C51.80921875 61.13054687 50.97390625 60.968125 50.11328125 60.80078125 C47.14453125 60.16796875 47.14453125 60.16796875 43.66796875 59.125 C28.02010265 55.19644954 9.21158042 56.96708478 -5.84570312 62.44042969 C-7.97615646 63.21165793 -10.12111457 63.91757078 -12.27734375 64.61328125 C-15.81712288 65.75949928 -19.3398155 66.94941637 -22.85546875 68.16796875 C-22.57832031 66.99878906 -22.30117187 65.82960938 -22.015625 64.625 C-21.64969474 63.07683352 -21.28381182 61.52865584 -20.91796875 59.98046875 C-20.73556641 59.21154297 -20.55316406 58.44261719 -20.36523438 57.65039062 C-20.18798828 56.89951172 -20.01074219 56.14863281 -19.828125 55.375 C-19.66578369 54.68897705 -19.50344238 54.0029541 -19.33618164 53.29614258 C-18.43728205 49.3166059 -17.73078048 45.55877815 -17.65014648 41.46948242 C-17.63020126 40.56892624 -17.61025604 39.66837006 -17.58970642 38.74052429 C-17.56463768 37.30275383 -17.56463768 37.30275383 -17.5390625 35.8359375 C-17.5182814 34.84419022 -17.49750031 33.85244293 -17.47608948 32.8306427 C-17.41086823 29.67231976 -17.35183673 26.51391587 -17.29296875 23.35546875 C-17.24975744 21.21027819 -17.20614232 19.06509573 -17.16210938 16.91992188 C-17.05521503 11.66935564 -16.95339838 6.41870943 -16.85546875 1.16796875 C-11.19722627 0.3643436 -5.71121533 0.00824323 0 0 Z " fill="#7F7F7F" transform="translate(221.85546875,187.83203125)"/>
<path d="M0 0 C1.21751953 0.00209473 2.43503906 0.00418945 3.68945312 0.00634766 C14.7840857 0.19849425 26.62264079 1.72167007 36.375 7.5 C37.4578125 8.7065625 37.4578125 8.7065625 38.5625 9.9375 C43.8703676 14.77355714 50.11225899 15.52522275 57.0625 16.5 C67.22965738 18.00142905 67.22965738 18.00142905 70.98828125 22.37890625 C74.77062787 27.56947739 76.19082547 32.25509103 77.375 38.5 C76.61880371 38.35377197 75.86260742 38.20754395 75.08349609 38.05688477 C71.63914918 37.39130156 68.1945773 36.72688978 64.75 36.0625 C63.56019531 35.83240234 62.37039063 35.60230469 61.14453125 35.36523438 C59.99082031 35.14287109 58.83710938 34.92050781 57.6484375 34.69140625 C56.59060059 34.48717041 55.53276367 34.28293457 54.44287109 34.07250977 C53.43047363 33.88358154 52.41807617 33.69465332 51.375 33.5 C50.50327148 33.31824219 49.63154297 33.13648438 48.73339844 32.94921875 C16.59538754 28.65044439 -17.67527133 31.0618153 -48.625 40.5 C-50.92043981 41.1619201 -53.21600604 41.82340202 -55.51171875 42.484375 C-65.96950186 45.56067115 -65.96950186 45.56067115 -75.625 50.5 C-76.285 50.5 -76.945 50.5 -77.625 50.5 C-77.17905584 41.58111685 -69.83826443 35.22700895 -63.625 29.5 C-62.40169644 28.45145409 -61.17264747 27.40956796 -59.9375 26.375 C-56.31354772 23.31855702 -53.50474751 20.13952945 -51.25 15.9375 C-47.47353361 10.27280041 -41.19449937 8.40173869 -35 6.4375 C-34.26910156 6.19451172 -33.53820312 5.95152344 -32.78515625 5.70117188 C-30.408782 4.92751635 -28.02253847 4.20532183 -25.625 3.5 C-24.70702637 3.22494629 -23.78905273 2.94989258 -22.84326172 2.66650391 C-15.17341219 0.53944294 -7.9416943 -0.04069843 0 0 Z " fill="#7F7F7F" transform="translate(246.625,247.5)"/>
<path d="M0 0 C0.91652344 0.01160156 1.83304687 0.02320313 2.77734375 0.03515625 C3.69644531 0.04417969 4.61554688 0.05320313 5.5625 0.0625 C6.27277344 0.07410156 6.98304688 0.08570313 7.71484375 0.09765625 C9.66516067 4.17489359 9.93066346 7.41458047 9.83984375 11.91015625 C9.82179688 13.07160156 9.80375 14.23304688 9.78515625 15.4296875 C9.76195312 16.31011719 9.73875 17.19054687 9.71484375 18.09765625 C4.98729525 18.90566585 0.82726207 19.09596339 -3.94140625 18.6640625 C-16.52992496 17.69440376 -29.16913608 17.99213418 -41.78515625 18.03515625 C-44.3619783 18.04018214 -46.93880129 18.04474312 -49.515625 18.04882812 C-55.77215647 18.05974546 -62.02865181 18.07639694 -68.28515625 18.09765625 C-69.33492589 14.94834732 -69.3864722 12.70951169 -69.34765625 9.41015625 C-69.33863281 8.41628906 -69.32960937 7.42242187 -69.3203125 6.3984375 C-69.30871094 5.63917969 -69.29710937 4.87992188 -69.28515625 4.09765625 C-68.36734375 4.03707031 -67.44953125 3.97648438 -66.50390625 3.9140625 C-65.27671875 3.83027344 -64.04953125 3.74648437 -62.78515625 3.66015625 C-60.9753125 3.53833984 -60.9753125 3.53833984 -59.12890625 3.4140625 C-56.62003527 3.20753958 -54.11587297 2.92669381 -51.625 2.5625 C-45.88656155 1.81759987 -40.12218798 2.03672304 -34.34765625 2.09765625 C-26.27200864 2.14088542 -18.22381103 2.13705341 -10.16015625 1.66015625 C-9.462854 1.62083984 -8.76555176 1.58152344 -8.04711914 1.54101562 C-4.9892934 1.33613618 -2.80294734 0.11978407 0 0 Z " fill="#7F7F7F" transform="translate(265.28515625,167.90234375)"/>
<path d="M0 0 C1.45212891 -0.03867187 1.45212891 -0.03867187 2.93359375 -0.078125 C6.00135852 0.3047758 6.63471157 0.93440573 8.5625 3.25 C9.5525 3.91 10.5425 4.57 11.5625 5.25 C11.51238512 7.30888619 11.44535777 9.36968433 11.26635742 11.42138672 C10.5033328 19.27847729 10.5033328 19.27847729 13.82421875 26.078125 C16.65525407 28.0587158 19.50143048 29.65543477 22.5625 31.25 C27.27361592 34.74869638 30.85836459 38.73462833 34.5625 43.25 C35.22765625 44.03117187 35.8928125 44.81234375 36.578125 45.6171875 C40.87684718 51.01520123 43.75605872 56.44199583 46.125 62.875 C46.38869385 63.567146 46.6523877 64.25929199 46.92407227 64.97241211 C49.97704038 73.92404877 47.51025213 81.36704191 44 89.8125 C43.67064453 90.63041016 43.34128906 91.44832031 43.00195312 92.29101562 C42.19881085 94.2814117 41.38208033 96.26631602 40.5625 98.25 C39.5725 97.26 38.5825 96.27 37.5625 95.25 C38.88734509 90.58015596 40.16730228 86.0843063 42.25 81.6875 C45.30272838 73.69225901 43.37650644 67.25205486 40.171875 59.51953125 C37.57585841 54.24558492 34.28436331 49.77950092 30.5625 45.25 C29.85996094 44.37214844 29.15742188 43.49429688 28.43359375 42.58984375 C22.77725898 35.88116762 16.4054205 31.17146025 8.5625 27.25 C7.9128125 28.4875 7.9128125 28.4875 7.25 29.75 C3.58778709 33.15670968 1.05105685 32.69601989 -3.78125 32.5234375 C-6.4375 32.25 -6.4375 32.25 -10.4375 31.25 C-12.7475 33.89 -15.0575 36.53 -17.4375 39.25 C-18.4275 38.92 -19.4175 38.59 -20.4375 38.25 C-20.4375 37.59 -20.4375 36.93 -20.4375 36.25 C-19.7775 36.25 -19.1175 36.25 -18.4375 36.25 C-18.14875 35.6725 -17.86 35.095 -17.5625 34.5 C-16 31.375 -16 31.375 -14.4375 28.25 C-15.0975 27.26 -15.7575 26.27 -16.4375 25.25 C-17.1157824 18.65216215 -17.56506565 11.75342087 -13.4375 6.25 C-9.10777747 2.03573674 -6.05556255 0.09650299 0 0 Z " fill="#070607" transform="translate(229.4375,54.75)"/>
<path d="M0 0 C0.86625 0.33 1.7325 0.66 2.625 1 C3.31464844 1.24878906 4.00429687 1.49757812 4.71484375 1.75390625 C6.69537849 2.47441713 8.66140383 3.23453031 10.625 4 C11.16483679 11.88761528 10.24932117 17.92602375 6.625 25 C5.07409185 26.55090815 3.58803767 26.20677311 1.4375 26.25 C-2.85498155 26.20215387 -5.72995883 25.40039297 -9.375 23 C-12.21606767 18.7383985 -11.88060856 14.99990685 -11.375 10 C-9.56157295 5.46643237 -5.24032146 0 0 0 Z " fill="#7F7F7F" transform="translate(227.375,58)"/>
<path d="M0 0 C1.32 0 2.64 0 4 0 C5.52734375 1.7578125 5.52734375 1.7578125 6.9375 4.125 C10.98121151 11.0399495 10.98121151 11.0399495 17 16 C16.67 17.32 16.34 18.64 16 20 C15.01 19.67 14.02 19.34 13 19 C13 18.34 13 17.68 13 17 C12.01 16.67 11.02 16.34 10 16 C0 5 0 5 0 0 Z " fill="#0C0A0B" transform="translate(195,148)"/>
<path d="M0 0 C-0.50637981 2.02551922 -1.01312179 4.04811323 -1.5625 6.0625 C-2.11013044 8.15667366 -2.11013044 8.15667366 -2 11 C-3.98 11.66 -5.96 12.32 -8 13 C-8.6875 11.3125 -8.6875 11.3125 -9 9 C-7.27354469 5.36535724 -4.4410049 0 0 0 Z " fill="#898989" transform="translate(225,59)"/>
<path d="M0 0 C0.99 0.33 1.98 0.66 3 1 C2 4 2 4 0 6 C-0.69748583 7.31747324 -1.36959957 8.64914193 -2 10 C-4 8 -4 8 -4.375 5.5625 C-4 3 -4 3 -2.1875 1.125 C-1.465625 0.75375 -0.74375 0.3825 0 0 Z " fill="#110F10" transform="translate(208,93)"/>
<path d="M0 0 C-0.33 1.65 -0.66 3.3 -1 5 C-2.8125 5.625 -2.8125 5.625 -5 6 C-5.99 5.34 -6.98 4.68 -8 4 C-7.67 3.01 -7.34 2.02 -7 1 C-4.53721199 -0.231394 -2.7204945 -0.07159196 0 0 Z " fill="#868686" transform="translate(233,249)"/>
<path d="M0 0 C0 0.99 0 1.98 0 3 C-4.22222222 6 -4.22222222 6 -7 6 C-6.625 3.5625 -6.625 3.5625 -6 1 C-4 0 -4 0 0 0 Z " fill="#8D8D8D" transform="translate(176,292)"/>
<path d="M0 0 C3.41021743 0.78697325 6.68885166 1.87119943 10 3 C10 3.66 10 4.32 10 5 C3.375 4.25 3.375 4.25 0 2 C0 1.34 0 0.68 0 0 Z " fill="#898989" transform="translate(226,58)"/>
<path d="M0 0 C2.31 0.33 4.62 0.66 7 1 C6.34 2.32 5.68 3.64 5 5 C3.0625 4.1875 3.0625 4.1875 1 3 C0.67 2.01 0.34 1.02 0 0 Z " fill="#868686" transform="translate(216,77)"/>
</svg>
