<?xml version="1.0" encoding="UTF-8"?>
<svg version="1.1" xmlns="http://www.w3.org/2000/svg" width="491" height="394">
<path d="M0 0 C1.71026367 -0.03577148 1.71026367 -0.03577148 3.45507812 -0.07226562 C5.09186523 -0.06936523 5.09186523 -0.06936523 6.76171875 -0.06640625 C8.25191528 -0.0674939 8.25191528 -0.0674939 9.7722168 -0.06860352 C12.3125 0.5625 12.3125 0.5625 14.08740234 2.90795898 C17.29756212 9.86373165 17.67315313 16.40516568 17.875 23.9375 C17.93463863 25.92460849 17.99821748 27.91160404 18.06640625 29.8984375 C18.09033447 30.77032715 18.1142627 31.6422168 18.13891602 32.54052734 C18.09349235 34.55817021 18.09349235 34.55817021 19.3125 35.5625 C20.66569255 35.76443854 22.02756463 35.90912503 23.390625 36.02734375 C24.22207031 36.10533203 25.05351562 36.18332031 25.91015625 36.26367188 C27.66253995 36.4198121 29.41514374 36.57350377 31.16796875 36.72460938 C41.44883644 37.69883644 41.44883644 37.69883644 44.3125 40.5625 C45.44210108 46.45710846 45.46253313 52.2629096 45.4375 58.25 C45.44136719 59.18650391 45.44523438 60.12300781 45.44921875 61.08789062 C45.44728516 62.44237305 45.44728516 62.44237305 45.4453125 63.82421875 C45.44418457 64.63850342 45.44305664 65.45278809 45.44189453 66.29174805 C45.31383769 68.53902483 45.05465314 70.43681593 44.3125 72.5625 C41.05946956 74.18901522 37.92024398 73.67703156 34.3125 73.5625 C33.9825 73.2325 33.6525 72.9025 33.3125 72.5625 C29.79504713 72.81498627 29.79504713 72.81498627 26.3125 73.5625 C24.99020811 76.20708379 25.21572806 78.24011301 25.25 81.1875 C25.25902344 82.19039063 25.26804687 83.19328125 25.27734375 84.2265625 C25.28894531 84.99742188 25.30054688 85.76828125 25.3125 86.5625 C25.89257812 86.66046875 26.47265625 86.7584375 27.0703125 86.859375 C32.28314439 87.85721081 36.18684281 89.02622241 40.3125 92.5625 C42.125 95.75 42.125 95.75 43.3125 98.5625 C45.21135096 100.46135096 47.88497903 99.68617506 50.40234375 99.6953125 C52.39884367 99.67936861 52.39884367 99.67936861 54.3125 98.5625 C56.70294762 98.19251536 59.10017159 97.86573597 61.5 97.5625 C65.40298744 97.06441187 69.29138479 96.56591601 73.17578125 95.9375 C76.3125 95.5625 76.3125 95.5625 78.3125 96.5625 C78.66300464 102.404244 78.47977335 106.4156808 75.3125 111.5625 C74.6525 111.5625 73.9925 111.5625 73.3125 111.5625 C72.3225 113.5425 72.3225 113.5425 71.3125 115.5625 C70.6525 115.5625 69.9925 115.5625 69.3125 115.5625 C69.044375 116.284375 68.77625 117.00625 68.5 117.75 C67.3125 120.5625 67.3125 120.5625 65.75 122.9375 C63.99103304 126.14952663 63.76439274 128.94735805 63.3125 132.5625 C62.96574219 133.31917969 62.61898437 134.07585937 62.26171875 134.85546875 C61.06666378 138.26358847 61.32603721 140.79651839 61.6875 144.375 C61.79835938 145.53644531 61.90921875 146.69789063 62.0234375 147.89453125 C62.16652344 149.21517578 62.16652344 149.21517578 62.3125 150.5625 C63.15554688 150.90023437 63.99859375 151.23796875 64.8671875 151.5859375 C66.51074219 152.25496094 66.51074219 152.25496094 68.1875 152.9375 C69.82332031 153.59878906 69.82332031 153.59878906 71.4921875 154.2734375 C74.3125 155.5625 74.3125 155.5625 76.3125 157.5625 C76.6792921 161.38325107 76.1505699 165.04309846 74.2890625 168.41796875 C71.19454024 172.04016967 68.23588398 172.98210922 63.5859375 173.72265625 C62.10359619 173.96640991 62.10359619 173.96640991 60.59130859 174.21508789 C59.83930176 174.32973389 59.08729492 174.44437988 58.3125 174.5625 C58.21181556 180.32010083 58.14019797 186.07716295 58.09277344 191.83544922 C58.07295434 193.78443349 58.04589097 195.73336082 58.01074219 197.68212891 C57.65714321 217.82687085 60.63235431 236.83789701 68.3125 255.5625 C70.6225 255.5625 72.9325 255.5625 75.3125 255.5625 C75.44785156 256.68978516 75.44785156 256.68978516 75.5859375 257.83984375 C77.07846478 263.43280886 82.81648921 266.5244517 87.375 269.6875 C94.21621293 273.36148472 102.23288003 275.2894271 109.6171875 277.59375 C114.23258315 279.25261684 116.41018228 281.90659826 118.734375 286.171875 C122.22078369 293.73228936 124.07487554 301.04478219 121.4765625 309.1796875 C120.29531499 311.59767736 119.25602702 312.98109201 117.25 314.75 C116.72277344 315.23855469 116.19554687 315.72710937 115.65234375 316.23046875 C109.64964388 319.64769856 102.39257085 319.88960623 95.625 320.125 C94.77067383 320.16109375 93.91634766 320.1971875 93.03613281 320.234375 C86.62869345 320.48675631 80.21883485 320.64754804 73.80859375 320.80859375 C72.55064751 320.84044518 72.55064751 320.84044518 71.26728821 320.87294006 C67.02898628 320.97927793 62.79067494 321.07978197 58.55200195 321.17016602 C56.95654186 321.20714625 55.36108283 321.24417238 53.765625 321.28125 C53.04745102 321.29478012 52.32927704 321.30831024 51.58934021 321.32225037 C48.14364476 321.40559438 44.83121884 321.62210036 41.40307617 322.04663086 C33.78331475 322.94727693 26.07397543 322.92088521 18.41015625 323.09765625 C16.64683939 323.14081857 14.88352873 323.18423484 13.120224 323.22789001 C9.42273363 323.31856188 5.72519145 323.40650313 2.02758789 323.49243164 C-2.63061476 323.60084605 -7.28863802 323.71549799 -11.94664574 323.83194923 C-22.42927886 324.09315083 -32.91219638 324.32343526 -43.39626312 324.51889801 C-45.56788632 324.56022376 -47.73941148 324.6050326 -49.91094971 324.65057373 C-53.52529933 324.72078889 -57.13910426 324.76956601 -60.75390625 324.80859375 C-61.75703354 324.83019058 -62.76016083 324.85178741 -63.79368591 324.8740387 C-70.3298561 324.90755387 -77.19391824 324.43221592 -82.44020081 320.12278748 C-83.6875 318.5625 -83.6875 318.5625 -83.6484375 315.92578125 C-82.48038893 309.84414171 -81.17845307 304.24187299 -78.6875 298.5625 C-78.36910156 297.77488281 -78.05070313 296.98726563 -77.72265625 296.17578125 C-74.53488997 292.08246907 -70.17304389 290.410214 -65.5625 288.1875 C-55.43749448 283.26800579 -46.38448073 278.33531326 -40.75 268.25 C-40.18236938 267.25746216 -40.18236938 267.25746216 -39.60327148 266.24487305 C-36.73180792 261.03252173 -35.22743334 256.50982541 -34.6875 250.5625 C-34.50832031 249.32242188 -34.32914063 248.08234375 -34.14453125 246.8046875 C-32.55973679 235.00881902 -32.4725053 223.19303729 -32.4375 211.3125 C-32.43232361 210.49623138 -32.42714722 209.67996277 -32.42181396 208.83895874 C-32.40997614 206.47059152 -32.41333044 204.10274789 -32.421875 201.734375 C-32.41791718 201.02974625 -32.41395935 200.32511749 -32.40988159 199.59913635 C-32.45593457 194.58686295 -33.36387045 190.3557395 -34.6875 185.5625 C-35.03986497 183.56576516 -35.37584559 181.56599261 -35.6875 179.5625 C-36.01385698 177.89445323 -36.34475594 176.22725686 -36.6875 174.5625 C-42.33550112 172.7207605 -47.77257728 172.01474761 -53.6875 171.5625 C-53.6875 170.9025 -53.6875 170.2425 -53.6875 169.5625 C-54.30625 169.48 -54.925 169.3975 -55.5625 169.3125 C-57.6875 168.5625 -57.6875 168.5625 -58.82421875 166.85546875 C-60.46723476 162.49143979 -59.70637116 158.02833139 -58.6875 153.5625 C-56.1152411 149.88784442 -54.71683612 148.81497867 -50.375 147.75 C-49.488125 147.688125 -48.60125 147.62625 -47.6875 147.5625 C-47.3575 145.9125 -47.0275 144.2625 -46.6875 142.5625 C-47.3475 142.5625 -48.0075 142.5625 -48.6875 142.5625 C-51.6875 136.8125 -51.6875 136.8125 -51.6875 134.5625 C-52.3475 134.5625 -53.0075 134.5625 -53.6875 134.5625 C-53.6875 133.5725 -53.6875 132.5825 -53.6875 131.5625 C-54.3475 131.5625 -55.0075 131.5625 -55.6875 131.5625 C-57.05113208 129.58303408 -58.38168644 127.5805755 -59.6875 125.5625 C-60.265 124.985 -60.8425 124.4075 -61.4375 123.8125 C-61.85 123.4 -62.2625 122.9875 -62.6875 122.5625 C-62.6875 121.9025 -62.6875 121.2425 -62.6875 120.5625 C-63.3475 120.5625 -64.0075 120.5625 -64.6875 120.5625 C-66.16015625 118.76953125 -66.16015625 118.76953125 -67.75 116.375 C-68.27722656 115.59769531 -68.80445313 114.82039063 -69.34765625 114.01953125 C-71.85660251 109.41857733 -72.06387527 104.73766002 -71.6875 99.5625 C-70.484375 97.35620117 -70.484375 97.35620117 -68.6875 95.5625 C-66.375 95.21606445 -66.375 95.21606445 -63.6875 95.42578125 C-62.718125 95.48830078 -61.74875 95.55082031 -60.75 95.61523438 C-59.739375 95.70095703 -58.72875 95.78667969 -57.6875 95.875 C-55.68784139 96.02165864 -53.68784412 96.1637896 -51.6875 96.30078125 C-50.800625 96.37337158 -49.91375 96.44596191 -49 96.52075195 C-46.52623752 96.69391264 -46.52623752 96.69391264 -43.6875 95.5625 C-42.73110887 93.84759177 -41.77600279 92.13193206 -40.83203125 90.41015625 C-38.35672757 86.4141882 -35.62556881 84.08130611 -31.1484375 82.8828125 C-29.39262591 82.55391408 -27.62898417 82.26352282 -25.859375 82.01953125 C-23.48776204 81.72699118 -23.48776204 81.72699118 -21.6875 79.5625 C-21.91887662 76.83225584 -22.24671048 74.25621375 -22.6875 71.5625 C-23.02354078 69.22955505 -23.3573276 66.89628271 -23.6875 64.5625 C-24.25259277 64.54268066 -24.81768555 64.52286133 -25.39990234 64.50244141 C-27.95457997 64.40731764 -30.50842541 64.29758942 -33.0625 64.1875 C-33.95195312 64.1565625 -34.84140625 64.125625 -35.7578125 64.09375 C-36.60859375 64.05507812 -37.459375 64.01640625 -38.3359375 63.9765625 C-39.12145996 63.9451416 -39.90698242 63.9137207 -40.71630859 63.88134766 C-42.6875 63.5625 -42.6875 63.5625 -44.6875 61.5625 C-45.81618309 53.62245983 -46.16049057 45.4630858 -44.6875 37.5625 C-42.36737794 35.24237794 -41.77489089 35.26882871 -38.625 35.03515625 C-37.82835937 34.96490234 -37.03171875 34.89464844 -36.2109375 34.82226562 C-34.52894486 34.69077858 -32.84664433 34.56317238 -31.1640625 34.43945312 C-30.36742187 34.36791016 -29.57078125 34.29636719 -28.75 34.22265625 C-28.01910156 34.16730713 -27.28820312 34.11195801 -26.53515625 34.05493164 C-24.28362187 33.67291287 -24.28362187 33.67291287 -22.6875 30.5625 C-22.37000967 28.3239282 -22.37000967 28.3239282 -22.37890625 25.8515625 C-22.35376953 24.93632813 -22.32863281 24.02109375 -22.30273438 23.078125 C-22.26772184 21.15891912 -22.23644071 19.23964135 -22.20898438 17.3203125 C-22.01499458 10.5827157 -21.30712822 7.05392456 -16.29296875 2.28515625 C-10.91299197 -0.28534186 -5.88637015 -0.05714922 0 0 Z " fill="#030303" transform="translate(230.6875,38.4375)"/>
<path d="M0 0 C1.17086655 -0.00021904 1.17086655 -0.00021904 2.36538696 -0.0004425 C4.95178991 0.00025553 7.53812131 0.00804282 10.12451172 0.01586914 C11.91527263 0.01773371 13.70603405 0.01915743 15.49679565 0.02015686 C20.21504113 0.02397898 24.93325592 0.03380668 29.65148926 0.04486084 C34.46410711 0.05508151 39.2767299 0.05965589 44.08935547 0.06469727 C53.53598355 0.07542921 62.98258883 0.09250199 72.42919922 0.11352539 C72.45294617 0.82371826 72.47669312 1.53391113 72.50115967 2.265625 C72.61297605 5.52761069 72.73197644 8.78929775 72.85107422 12.05102539 C72.8882959 13.16799805 72.92551758 14.2849707 72.96386719 15.43579102 C73.58816017 32.13256802 76.45520494 50.20864655 84.42919922 65.11352539 C76.90449657 68.67698589 70.10791064 69.6274882 61.88867188 69.52148438 C57.52127193 69.57180004 55.93428409 69.69295146 52.44091797 72.60180664 C46.78248745 77.11902073 38.37543512 75.94474112 31.49169922 75.86352539 C30.69516937 75.86098755 29.89863953 75.85844971 29.07797241 75.85583496 C15.95489699 75.77604439 -0.13135099 75.30138502 -11.57080078 68.11352539 C-12.89503642 65.08466753 -12.40437239 63.20823261 -11.57080078 60.11352539 C-11.3517678 57.65188317 -11.17562554 55.20874598 -11.04345703 52.74243164 C-10.98146873 51.63539635 -10.98146873 51.63539635 -10.91822815 50.5059967 C-10.40169568 40.69454326 -10.21547648 30.8728446 -10.00830078 21.05102539 C-9.96496323 19.10505554 -9.92134499 17.15909193 -9.87744141 15.21313477 C-9.77200436 10.51333023 -9.67032276 5.81345875 -9.57080078 1.11352539 C-6.520611 -0.4115695 -3.34530465 -0.01623405 0 0 Z " fill="#F6F6F6" transform="translate(211.57080078125,230.886474609375)"/>
<path d="M0 0 C11.24846706 0.33491329 21.07014478 0.92371517 31.63536072 5.02235413 C39.05438857 7.73630236 45.51349654 8.57922722 53.37890625 8.49609375 C54.51222885 8.49754898 55.64555145 8.49900421 56.81321716 8.50050354 C59.19052726 8.49885571 61.56784929 8.48742114 63.94506836 8.46655273 C67.55694453 8.43754462 71.16735349 8.4459803 74.77929688 8.45898438 C77.1041737 8.45274684 79.42904596 8.4443558 81.75390625 8.43359375 C82.81879776 8.43652939 83.88368927 8.43946503 84.98085022 8.44248962 C91.22164576 8.36499918 96.64850591 7.54842217 102.61114502 5.68067932 C106.19173993 4.66042613 109.46339212 4.58823158 113.1875 4.5 C120.57624977 4.23246184 127.57613158 3.12700407 134.8046875 1.62109375 C138 1 138 1 141 1 C140.85530851 6.64296814 138.24162521 9.53797797 134.84375 13.72265625 C126.51950052 24.00451525 124.91051189 35.22214704 123.4296875 48.04296875 C123 51 123 51 122 52 C120.53853059 52.12261887 119.07132644 52.17779584 117.60498047 52.20532227 C116.66300308 52.22525742 115.7210257 52.24519257 114.75050354 52.26573181 C113.71650925 52.28245438 112.68251495 52.29917694 111.6171875 52.31640625 C110.54722031 52.33727798 109.47725311 52.35814972 108.37486267 52.37965393 C104.87498409 52.44605747 101.37503137 52.50475146 97.875 52.5625 C95.4865719 52.604634 93.09814416 52.64678897 90.7097168 52.68896484 C77.74459081 52.91052006 64.7796158 53.09811079 51.8125 53.125 C50.61286621 53.12959229 49.41323242 53.13418457 48.17724609 53.13891602 C45.11535948 53.13332945 42.06055865 53.08672564 39 53 C38.13938965 52.98163086 37.2787793 52.96326172 36.39208984 52.94433594 C32.37414812 52.70861669 30.47804714 52.3620357 27.19921875 49.87890625 C24.77496466 46.70541555 22.74832713 43.41894592 20.8125 39.9375 C17.18750051 33.64185333 13.12030939 28.35666388 8.375 22.84765625 C-1.37140308 11.16159071 -1.37140308 11.16159071 -1.5 4.9375 C-1 2 -1 2 0 0 Z " fill="#F9F9F9" transform="translate(164,138)"/>
<path d="M0 0 C3.83672222 1.4561547 4.96544196 3.21358953 6.6875 6.875 C7.10386719 7.73867188 7.52023437 8.60234375 7.94921875 9.4921875 C10.21829903 14.90761329 10.84542581 20.07352605 9.1875 25.8125 C8 28 8 28 5 30 C4.01 29.01 4.01 29.01 3 28 C2.34 29.65 1.68 31.3 1 33 C-5.41277536 34.10021702 -11.78949649 34.2955431 -18.28515625 34.5 C-19.459608 34.54060547 -20.63405975 34.58121094 -21.84410095 34.62304688 C-26.84941447 34.79602745 -31.85500522 34.96025986 -36.8605957 35.125 C-40.52306551 35.24680478 -44.18535386 35.37327641 -47.84765625 35.5 C-48.97591324 35.53544922 -50.10417023 35.57089844 -51.26661682 35.60742188 C-52.3246904 35.64416016 -53.38276398 35.68089844 -54.47290039 35.71875 C-55.86020103 35.76418945 -55.86020103 35.76418945 -57.27552795 35.81054688 C-60.02608675 35.95334567 -60.02608675 35.95334567 -62.80833435 36.49900818 C-66.73797574 37.11583914 -70.6255909 37.22079958 -74.59375 37.29711914 C-75.43710907 37.31677231 -76.28046814 37.33642548 -77.14938354 37.35667419 C-79.93284565 37.42041374 -82.71639741 37.47790748 -85.5 37.53515625 C-87.45654979 37.57825892 -89.41309269 37.62167556 -91.36962891 37.66539001 C-95.47846237 37.75627039 -99.58734468 37.84421589 -103.69628906 37.92993164 C-108.89775138 38.03854289 -114.09906401 38.15296658 -119.300354 38.26950932 C-123.35017838 38.35980841 -127.40005472 38.44757341 -131.44995117 38.53457451 C-133.36321301 38.575836 -135.27646242 38.61767861 -137.18969727 38.66017342 C-142.5489191 38.77817441 -147.90798328 38.87825132 -153.26794434 38.95595169 C-155.15582588 38.98638957 -157.04361219 39.02315755 -158.93127441 39.0650444 C-161.88382034 39.1292477 -164.83609882 39.17278774 -167.7890625 39.21264648 C-168.67951263 39.23627038 -169.56996277 39.25989428 -170.48739624 39.28423405 C-176.51576429 39.33766393 -181.41145814 38.25230784 -187 36 C-186.78356485 32.64311804 -186.45135776 29.33422346 -186 26 C-185.93167969 25.28972656 -185.86335937 24.57945312 -185.79296875 23.84765625 C-185.375 22 -185.375 22 -183 19 C-171.39404709 16.02046663 -158.70546959 16.6069635 -146.8125 16.4375 C-144.02984181 16.39337675 -141.2472896 16.34671133 -138.46476746 16.29469299 C-136.74977341 16.2630349 -135.0346846 16.23605543 -133.3195343 16.21446228 C-129.14871167 16.18539895 -129.14871167 16.18539895 -125.05474854 15.49404907 C-122.68083776 14.9232598 -120.5854501 14.89682392 -118.14428711 14.92163086 C-117.17523941 14.92717484 -116.20619171 14.93271881 -115.20777893 14.93843079 C-114.15823532 14.94714706 -113.10869171 14.95586334 -112.02734375 14.96484375 C-84.82151009 14.99413339 -60.15258764 13.64369504 -34 6 C-25.89711695 3.64644218 -18.69013407 2.58888232 -10.25 2.8125 C-8.75726563 2.83280273 -8.75726563 2.83280273 -7.234375 2.85351562 C-4.82230563 2.88830509 -2.41147495 2.9372347 0 3 C0 2.01 0 1.02 0 0 Z " fill="#F6F6F6" transform="translate(339,320)"/>
<path d="M0 0 C3.19610565 2.1149148 6.23553978 4.33997494 9 7 C9 7.66 9 8.32 9 9 C9.58910156 9.29132813 10.17820312 9.58265625 10.78515625 9.8828125 C12.68855148 10.84290251 14.56597854 11.85417012 16.4375 12.875 C22.01502114 15.6902194 28.01370425 17.28441524 34 19 C34 19.33 34 19.66 34 20 C32.81075928 20.01417969 31.62151855 20.02835937 30.39624023 20.04296875 C17.09220357 20.36348454 4.91932181 22.70530431 -7.9375 26 C-9.82704472 26.4704773 -11.71701866 26.93923414 -13.60742188 27.40625 C-17.72202848 28.42384112 -21.83221983 29.45743525 -25.93882751 30.50683594 C-30.17345708 31.52002971 -34.09782043 32.13105936 -38.46118164 32.18945312 C-39.52901382 32.20617065 -40.59684601 32.22288818 -41.69703674 32.2401123 C-43.4112809 32.26047546 -43.4112809 32.26047546 -45.16015625 32.28125 C-46.34218124 32.29965942 -47.52420624 32.31806885 -48.74205017 32.33703613 C-53.79514644 32.41561246 -58.84837358 32.48347707 -63.90161133 32.55224609 C-67.59202608 32.60399308 -71.28232772 32.6612285 -74.97265625 32.71875 C-76.11750992 32.73232544 -77.26236359 32.74590088 -78.44190979 32.7598877 C-79.50658981 32.77660522 -80.57126984 32.79332275 -81.66821289 32.81054688 C-82.60355362 32.82307495 -83.53889435 32.83560303 -84.50257874 32.84851074 C-86.82067256 32.98912231 -88.75978982 33.433743 -91 34 C-92.67899911 34.11165402 -94.36150062 34.17558208 -96.04394531 34.20532227 C-97.04468079 34.22526749 -98.04541626 34.24521271 -99.07647705 34.26576233 C-100.68604279 34.29083107 -100.68604279 34.29083107 -102.328125 34.31640625 C-103.43226746 34.33718735 -104.53640991 34.35796844 -105.67401123 34.37937927 C-109.19927783 34.44473646 -112.72461859 34.50369564 -116.25 34.5625 C-118.64063265 34.60569836 -121.03125782 34.64931307 -123.421875 34.69335938 C-129.28117173 34.80040372 -135.14054214 34.90219585 -141 35 C-138.82098255 32.82098255 -136.85647385 31.79219948 -134.125 30.375 C-122.50405377 24.03907126 -114.68466234 18.67802457 -108 7 C-107.00133847 5.33253098 -106.00179057 3.66559101 -105 2 C-100.05118908 2.48634746 -95.62313869 3.31941801 -90.89511108 4.83486938 C-81.14805883 7.92980092 -72.03418628 8.78358805 -61.84619141 8.65185547 C-59.33998867 8.62461952 -56.83811448 8.65200651 -54.33203125 8.68359375 C-43.83527541 8.809697 -43.83527541 8.809697 -34.69335938 4.13134766 C-31.47900844 1.98381273 -27.81001845 2.34543536 -24.0625 2.375 C-16.77074507 2.23537636 -16.77074507 2.23537636 -9.75 0.375 C-5.61234689 -1.14213947 -4.09738722 -1.53652021 0 0 Z " fill="#F6F6F6" transform="translate(302,300)"/>
<path d="M0 0 C0.93779297 0.00322266 1.87558594 0.00644531 2.84179688 0.00976562 C4.30649414 0.02233398 4.30649414 0.02233398 5.80078125 0.03515625 C6.78884766 0.03966797 7.77691406 0.04417969 8.79492188 0.04882812 C11.23443599 0.06061322 13.67382814 0.07706614 16.11328125 0.09765625 C19.05863091 7.54394239 19.63987803 14.1931484 19.80078125 22.16015625 C19.83494141 23.31193359 19.86910156 24.46371094 19.90429688 25.65039062 C19.98607946 28.46604835 20.055455 31.28142196 20.11328125 34.09765625 C22.5205439 35.30128758 24.36672845 35.38200782 27.05078125 35.59765625 C28.02789062 35.68015625 29.005 35.76265625 30.01171875 35.84765625 C31.03523438 35.93015625 32.05875 36.01265625 33.11328125 36.09765625 C35.13442065 36.26056925 37.1552759 36.42705949 39.17578125 36.59765625 C40.07425781 36.66984375 40.97273438 36.74203125 41.8984375 36.81640625 C44.11328125 37.09765625 44.11328125 37.09765625 46.11328125 38.09765625 C46.11328125 47.00765625 46.11328125 55.91765625 46.11328125 65.09765625 C39.84328125 65.09765625 33.57328125 65.09765625 27.11328125 65.09765625 C26.78328125 70.70765625 26.45328125 76.31765625 26.11328125 82.09765625 C24.46328125 82.09765625 22.81328125 82.09765625 21.11328125 82.09765625 C18.53504175 76.25364671 17.97352978 70.76066291 17.98828125 64.41015625 C17.98441406 62.73373047 17.98441406 62.73373047 17.98046875 61.0234375 C18.11328125 58.09765625 18.11328125 58.09765625 19.11328125 55.09765625 C27.52828125 54.60265625 27.52828125 54.60265625 36.11328125 54.09765625 C36.71672392 48.41172481 36.71672392 48.41172481 34.36328125 45.78515625 C30.16547636 42.63680259 25.46102445 42.8290715 20.36328125 42.53515625 C19.31720703 42.47038086 19.31720703 42.47038086 18.25 42.40429688 C16.53796203 42.29876029 14.82564564 42.19775715 13.11328125 42.09765625 C10.17312978 32.97634914 8.4323367 24.70122538 8.11328125 15.09765625 C5.14328125 15.09765625 2.17328125 15.09765625 -0.88671875 15.09765625 C-3.01816629 19.91658112 -4.07481346 23.88431141 -4.38671875 29.16015625 C-5.11907722 38.65680462 -5.11907722 38.65680462 -7.88671875 42.09765625 C-12.52239151 43.3057738 -17.11388384 43.78871449 -21.88671875 44.09765625 C-21.55671875 45.41765625 -21.22671875 46.73765625 -20.88671875 48.09765625 C-19.87609375 48.38640625 -18.86546875 48.67515625 -17.82421875 48.97265625 C-17.19 49.16085938 -16.55578125 49.3490625 -15.90234375 49.54296875 C-13.98290716 50.07118579 -12.02757215 50.46339001 -10.07421875 50.84765625 C-6.88671875 52.09765625 -6.88671875 52.09765625 -5.72265625 54.70703125 C-4.81402394 58.39251182 -4.50524072 61.80774942 -4.32421875 65.59765625 C-4.09609176 70.1788187 -3.7290875 74.5864583 -2.88671875 79.09765625 C-5.19671875 79.09765625 -7.50671875 79.09765625 -9.88671875 79.09765625 C-11.34498832 73.16736 -12.17574452 67.58487907 -12.4453125 61.48046875 C-12.97606094 58.61536658 -13.62668112 57.88330662 -15.88671875 56.09765625 C-18.00287719 55.59710874 -18.00287719 55.59710874 -20.3359375 55.5859375 C-21.48195435 55.53626831 -21.48195435 55.53626831 -22.65112305 55.4855957 C-23.61574463 55.46070068 -24.58036621 55.43580566 -25.57421875 55.41015625 C-28.64734375 55.30703125 -31.72046875 55.20390625 -34.88671875 55.09765625 C-34.88671875 48.49765625 -34.88671875 41.89765625 -34.88671875 35.09765625 C-25.57421875 34.72265625 -25.57421875 34.72265625 -22.65112305 34.61962891 C-21.88711182 34.58401855 -21.12310059 34.5484082 -20.3359375 34.51171875 C-19.55565186 34.48029785 -18.77536621 34.44887695 -17.97143555 34.41650391 C-15.58516107 34.20177736 -15.58516107 34.20177736 -12.88671875 32.09765625 C-12.44162734 29.35235876 -12.44162734 29.35235876 -12.515625 26.13671875 C-12.49822266 24.94304687 -12.48082031 23.749375 -12.46289062 22.51953125 C-12.45380421 19.99610473 -12.44857175 17.47266129 -12.44726562 14.94921875 C-12.42857422 13.75296875 -12.40988281 12.55671875 -12.390625 11.32421875 C-12.38877197 10.22674316 -12.38691895 9.12926758 -12.38500977 7.99853516 C-11.77248186 4.43260834 -10.71127211 3.28987556 -7.88671875 1.09765625 C-4.94539984 0.11721661 -3.0617021 -0.01855577 0 0 Z " fill="#F4F4F4" transform="translate(224.88671875,42.90234375)"/>
<path d="M0 0 C14.91637867 -0.05888413 29.82158827 0.07617976 44.73510742 0.37231445 C48.0909171 0.43805671 51.4468032 0.49746558 54.80273438 0.55664062 C65.24109159 0.75272984 75.60142543 1.02179417 86 2 C86 6.95 86 11.9 86 17 C58.61 17 31.22 17 3 17 C0 4 0 4 0 0 Z " fill="#F6F6F6" transform="translate(198,211)"/>
<path d="M0 0 C1.09634766 0.12205811 2.19269531 0.24411621 3.32226562 0.36987305 C4.34900391 0.49402588 5.37574219 0.61817871 6.43359375 0.74609375 C7.35068115 0.85493896 8.26776855 0.96378418 9.21264648 1.07592773 C11.5625 1.5625 11.5625 1.5625 14.5625 3.5625 C14.8925 2.9025 15.2225 2.2425 15.5625 1.5625 C17.16835493 2.18314937 18.77212617 2.8091918 20.375 3.4375 C21.26832031 3.78554687 22.16164063 4.13359375 23.08203125 4.4921875 C25.5625 5.5625 25.5625 5.5625 28.5625 7.5625 C28.75 10.6875 28.75 10.6875 28.5625 13.5625 C22.82625776 16.14943277 17.95588287 17.66504622 11.59545898 17.73950195 C10.15256752 17.75875481 10.15256752 17.75875481 8.68052673 17.77839661 C7.13516991 17.78947701 7.13516991 17.78947701 5.55859375 17.80078125 C4.48432632 17.808853 3.4100589 17.81692474 2.30323792 17.82524109 C0.02956747 17.83905587 -2.24412349 17.84978965 -4.51782227 17.85766602 C-6.826804 17.86915993 -9.13575971 17.88957031 -11.44458008 17.91918945 C-14.7978707 17.96217728 -18.15037315 17.97808035 -21.50390625 17.98828125 C-22.51997452 18.00578934 -23.53604279 18.02329742 -24.582901 18.04133606 C-32.17129602 18.01877455 -41.36528476 17.18093742 -47.27760315 11.92744446 C-47.66036911 11.47701279 -48.04313507 11.02658112 -48.4375 10.5625 C-47.40401869 6.11853038 -45.96351679 3.35036272 -42.23046875 0.6015625 C-30.74226122 -6.05609154 -12.45994052 -1.42135751 0 0 Z " fill="#F8F8F8" transform="translate(239.4375,126.4375)"/>
<path d="M0 0 C1.65 0 3.3 0 5 0 C5.02578125 0.70382813 5.0515625 1.40765625 5.078125 2.1328125 C5.64083371 15.45463197 5.64083371 15.45463197 11 27 C13.39939114 27.1863892 15.78434082 27.33043983 18.1875 27.4375 C23.17821847 27.66769016 27.32538197 28.20430691 32 30 C32.495 32.475 32.495 32.475 33 35 C24.585 35.495 24.585 35.495 16 36 C12.87257245 45.38228265 13.69004286 54.83684182 17 64 C10.59646678 64.2361959 5.15370839 63.823321 -1 62 C-2.97709587 55.82157539 -3.39053545 50.11117153 -3.65625 43.62109375 C-4.09210288 39.02977984 -4.67863541 35.32136459 -8 32 C-10.88717605 31.3162387 -10.88717605 31.3162387 -14.125 30.875 C-15.22070312 30.70742187 -16.31640625 30.53984375 -17.4453125 30.3671875 C-18.28835937 30.24601562 -19.13140625 30.12484375 -20 30 C-20 29.67 -20 29.34 -20 29 C-15.71 28.34 -11.42 27.68 -7 27 C-4.86855246 22.18107513 -3.81190529 18.21334484 -3.5 12.9375 C-3.20186527 7.93264246 -2.31440508 4.42755754 0 0 Z " fill="#F4F4F4" transform="translate(226,60)"/>
<path d="M0 0 C1.90112305 0.02661133 1.90112305 0.02661133 4.01171875 0.58203125 C5.14770508 0.86723633 5.14770508 0.86723633 6.30664062 1.15820312 C7.09232422 1.37412109 7.87800781 1.59003906 8.6875 1.8125 C9.48478516 2.01681641 10.28207031 2.22113281 11.10351562 2.43164062 C13.07310557 2.93878055 15.03714783 3.46737741 17 4 C16.67 5.32 16.34 6.64 16 8 C9.73 6.35 3.46 4.7 -3 3 C-2.01 2.01 -1.02 1.02 0 0 Z " fill="#101010" transform="translate(200,299)"/>
<path d="M0 0 C4.875 1.875 4.875 1.875 6 3 C6.04080783 4.99958364 6.04254356 7.00045254 6 9 C4.02 9.99 4.02 9.99 2 11 C-0.11096433 7.52311757 -0.11096433 7.52311757 0.4375 4.9375 C0.623125 4.298125 0.80875 3.65875 1 3 C0.67 2.01 0.34 1.02 0 0 Z " fill="#EBEBEB" transform="translate(262,131)"/>
<path d="M0 0 C0.99 0 1.98 0 3 0 C3.368 5.52 3.368 5.52 1.5625 7.875 C0 9 0 9 -1 9 C-1.125 2.25 -1.125 2.25 0 0 Z " fill="#EEEEEE" transform="translate(164,138)"/>
<path d="M0 0 C1.9375 0.6875 1.9375 0.6875 2.9375 2.6875 C-0.0325 3.3475 -3.0025 4.0075 -6.0625 4.6875 C-3.4568662 -0.52376761 -3.4568662 -0.52376761 0 0 Z " fill="#0E0E0E" transform="translate(302.0625,324.3125)"/>
<path d="M0 0 C2.31 0.33 4.62 0.66 7 1 C6.67 1.99 6.34 2.98 6 4 C3.03 3.505 3.03 3.505 0 3 C0 2.01 0 1.02 0 0 Z " fill="#080808" transform="translate(217,304)"/>
<path d="M0 0 C0 0.99 0 1.98 0 3 C-3.63 2.67 -7.26 2.34 -11 2 C-11 1.67 -11 1.34 -11 1 C-7.26562152 0.12132271 -3.83225427 -0.08912219 0 0 Z " fill="#EEEEEE" transform="translate(217,88)"/>
</svg>
