<?xml version="1.0" encoding="UTF-8"?>
<svg version="1.1" xmlns="http://www.w3.org/2000/svg" width="491" height="394">
<path d="M0 0 C1.15693359 0.00644531 2.31386719 0.01289062 3.50585938 0.01953125 C5.30313477 0.04466797 5.30313477 0.04466797 7.13671875 0.0703125 C8.96299805 0.08384766 8.96299805 0.08384766 10.82617188 0.09765625 C13.82572149 0.12118213 16.82486919 0.15405597 19.82421875 0.1953125 C22.64504069 6.45017855 23.96609526 11.45500588 23.94921875 18.3828125 C23.95308594 19.95095703 23.95308594 19.95095703 23.95703125 21.55078125 C23.79032452 26.1254101 23.32473877 30.64673706 22.82421875 35.1953125 C23.53553955 35.25066162 24.24686035 35.30601074 24.97973633 35.36303711 C28.19905008 35.61573339 31.41787472 35.87420452 34.63671875 36.1328125 C35.75626953 36.21982422 36.87582031 36.30683594 38.02929688 36.39648438 C39.63901367 36.52700195 39.63901367 36.52700195 41.28125 36.66015625 C42.2710083 36.7387085 43.2607666 36.81726074 44.28051758 36.89819336 C46.82421875 37.1953125 46.82421875 37.1953125 49.82421875 38.1953125 C50.7950998 41.10795564 50.95303293 42.98851893 50.95703125 46.01953125 C50.95832031 46.96634766 50.95960938 47.91316406 50.9609375 48.88867188 C50.95707031 49.87673828 50.95320312 50.86480469 50.94921875 51.8828125 C50.95308594 52.85154297 50.95695313 53.82027344 50.9609375 54.81835938 C50.95342822 60.37147047 50.64519457 65.70259329 49.82421875 71.1953125 C43.407332 71.29881067 37.19727473 70.94038794 30.82421875 70.1953125 C30.77015753 72.13250628 30.7313985 74.07013171 30.69921875 76.0078125 C30.67601562 77.08675781 30.6528125 78.16570312 30.62890625 79.27734375 C30.59398158 82.38934118 30.59398158 82.38934118 32.82421875 85.1953125 C34.80657795 86.02574369 34.80657795 86.02574369 37.07421875 86.5703125 C41.73780063 88.02438569 44.52139524 89.55373786 47.82421875 93.1953125 C47.9765625 96.36328125 47.9765625 96.36328125 47.82421875 99.1953125 C51.32516796 98.91440558 54.82471239 98.61861648 58.32421875 98.3203125 C59.30648437 98.24167969 60.28875 98.16304688 61.30078125 98.08203125 C67.02277662 97.58612498 72.28129123 96.68002523 77.82421875 95.1953125 C81.32421875 95.0703125 81.32421875 95.0703125 83.82421875 95.1953125 C85.32896963 98.20481425 85.24814516 99.80390118 84.82421875 103.1953125 C83.1295039 106.74026982 81.23125892 110.08548688 78.82421875 113.1953125 C77.83421875 113.5253125 76.84421875 113.8553125 75.82421875 114.1953125 C75.82421875 115.1853125 75.82421875 116.1753125 75.82421875 117.1953125 C75.16421875 117.1953125 74.50421875 117.1953125 73.82421875 117.1953125 C71.80981895 120.77949232 70.75507278 124.56204688 69.69921875 128.5078125 C69.51746094 129.14654297 69.33570313 129.78527344 69.1484375 130.44335938 C67.97365282 134.80242883 67.70590372 138.69934135 67.82421875 143.1953125 C67.52729863 145.53355842 67.20401028 147.86908939 66.82421875 150.1953125 C67.99984375 150.2778125 69.17546875 150.3603125 70.38671875 150.4453125 C75.10150553 151.06612072 78.04122132 152.26155939 81.82421875 155.1953125 C83.36808595 159.50188942 83.04139705 161.58514489 81.51171875 165.8828125 C78.61391216 170.38150524 73.84331191 171.95020618 68.82421875 173.1953125 C67.15773423 173.21995241 65.49065064 173.22328618 63.82421875 173.1953125 C63.89406856 179.0082833 63.98247674 184.8205998 64.08666992 190.63305664 C64.11952675 192.60238257 64.14767471 194.57179382 64.1706543 196.54125977 C64.35746773 212.14216875 65.49015617 227.00929863 70.32421875 241.9453125 C70.52402344 242.58984375 70.72382813 243.234375 70.9296875 243.8984375 C72.13491834 247.64463271 73.46109264 251.03051829 75.82421875 254.1953125 C78.95057084 254.61277858 78.95057084 254.61277858 81.82421875 254.1953125 C82.05109375 255.1028125 82.27796875 256.0103125 82.51171875 256.9453125 C84.01272577 260.6620918 85.65543858 261.86042185 88.82421875 264.1953125 C88.82421875 264.8553125 88.82421875 265.5153125 88.82421875 266.1953125 C89.70049927 266.6291626 89.70049927 266.6291626 90.59448242 267.07177734 C91.95323663 267.75643593 93.30470014 268.45617291 94.6418457 269.18212891 C100.35426796 272.22485126 106.082207 273.71367245 112.37695312 275.0859375 C117.9532663 276.46700913 120.56197802 278.22399345 123.82421875 283.1953125 C127.74386266 291.08299098 130.4599487 298.2020316 127.63671875 306.8203125 C125.11262993 311.52033996 122.70394963 314.53174485 117.58203125 316.33984375 C116.38320313 316.56027344 115.184375 316.78070313 113.94921875 317.0078125 C112.77617187 317.24113281 111.603125 317.47445313 110.39453125 317.71484375 C105.27059213 318.40980926 100.14106349 318.25216374 94.98046875 318.21020508 C88.48282037 318.16592398 81.99002074 318.37525474 75.49584961 318.56762695 C73.23236283 318.63366902 70.96875685 318.69290064 68.70507812 318.75195312 C67.24347776 318.79386048 65.78188867 318.83616332 64.3203125 318.87890625 C63.02279053 318.91556396 61.72526855 318.95222168 60.38842773 318.98999023 C56.94050836 319.1163783 56.94050836 319.1163783 54.04931641 319.69750977 C49.28418272 320.43302132 44.54182672 320.41343297 39.7265625 320.4765625 C38.63640839 320.49465469 37.54625427 320.51274689 36.42306519 320.53138733 C34.08428941 320.56986581 31.7454808 320.60638873 29.40664673 320.6411438 C23.26704438 320.73238683 17.12767212 320.8370232 10.98828125 320.94140625 C9.15741722 320.9720945 9.15741722 320.9720945 7.28956604 321.00340271 C-2.18228769 321.16659584 -11.6501295 321.40602374 -21.11898804 321.6913147 C-26.80564646 321.85980885 -32.4929505 322.00468422 -38.18035889 322.14526367 C-39.51717991 322.17879358 -40.85397257 322.21347265 -42.19073486 322.24926758 C-46.60225988 322.36690466 -51.01314033 322.44680825 -55.42578125 322.5078125 C-56.49723389 322.5375415 -57.56868652 322.56727051 -58.67260742 322.59790039 C-65.08163104 322.64714077 -70.79173467 321.96303204 -76.17578125 318.1953125 C-77.42592221 314.44488963 -76.84349955 312.36709895 -76.05078125 308.5078125 C-75.70660156 306.73857422 -75.70660156 306.73857422 -75.35546875 304.93359375 C-73.37435088 298.65568049 -70.93681704 293.9146534 -65.13671875 290.5078125 C-63.61697865 289.71956625 -62.08785595 288.94919808 -60.55078125 288.1953125 C-58.93247471 287.3405055 -57.31657635 286.48112372 -55.703125 285.6171875 C-54.53499268 284.9974707 -54.53499268 284.9974707 -53.34326172 284.36523438 C-42.01899421 278.25283407 -34.57242359 270.10032546 -29.98828125 258.08203125 C-26.27925507 244.61897951 -26.8839316 229.85865845 -26.56323242 216.00073242 C-26.48801826 212.8718722 -26.39738041 209.74367793 -26.30664062 206.61523438 C-26.25816423 204.60418935 -26.2106059 202.59312194 -26.1640625 200.58203125 C-26.1350032 199.65790939 -26.10594391 198.73378754 -26.07600403 197.78166199 C-25.96810618 192.18819259 -26.60967344 187.56764759 -28.17578125 182.1953125 C-28.4314727 180.57119832 -28.68274093 178.94636797 -28.92578125 177.3203125 C-29.36660381 175.0835278 -29.36660381 175.0835278 -30.17578125 173.1953125 C-33.5668516 171.21029571 -36.84233447 171.12628883 -40.67578125 170.7578125 C-44.73110274 170.3611706 -47.71733032 169.47282897 -51.17578125 167.1953125 C-53.97595976 163.75872978 -53.58017184 159.42456404 -53.17578125 155.1953125 C-52.39848374 152.28044682 -51.61031533 150.68199067 -49.61328125 148.4453125 C-47.05478197 147.13326159 -45.35755983 146.89219667 -42.5234375 146.6171875 C-41.71011963 146.5356543 -40.89680176 146.45412109 -40.05883789 146.37011719 C-39.12672485 146.28358887 -39.12672485 146.28358887 -38.17578125 146.1953125 C-43.26729687 138.02565626 -48.29607557 129.97078798 -54.55078125 122.6328125 C-61.31120191 114.69900672 -64.80305432 110.48553276 -64.44921875 99.734375 C-64.17578125 97.1953125 -64.17578125 97.1953125 -63.17578125 95.1953125 C-58.1014766 93.95492692 -58.1014766 93.95492692 -55.4609375 94.640625 C-52.15286208 95.44361083 -48.8124895 95.5625486 -45.42578125 95.7578125 C-44.37970703 95.82258789 -44.37970703 95.82258789 -43.3125 95.88867188 C-41.60046203 95.99420846 -39.88814564 96.0952116 -38.17578125 96.1953125 C-37.66015625 94.9990625 -37.14453125 93.8028125 -36.61328125 92.5703125 C-34.26413378 88.00162569 -31.80104271 84.60298285 -27.17578125 82.1953125 C-22.81397558 81.13543449 -18.66197145 80.65780633 -14.17578125 80.1953125 C-14.67078125 71.2853125 -14.67078125 71.2853125 -15.17578125 62.1953125 C-26.06578125 61.7003125 -26.06578125 61.7003125 -37.17578125 61.1953125 C-37.17578125 52.6153125 -37.17578125 44.0353125 -37.17578125 35.1953125 C-27.16253622 34.08272972 -27.16253622 34.08272972 -22.86328125 34.1953125 C-19.75126737 34.27549321 -17.16956822 34.0722112 -14.17578125 33.1953125 C-14.2840625 32.37353516 -14.2840625 32.37353516 -14.39453125 31.53515625 C-15.02140006 26.18065182 -15.34464575 20.83430377 -15.48828125 15.4453125 C-15.54435547 13.59679687 -15.54435547 13.59679687 -15.6015625 11.7109375 C-15.08822719 7.4723891 -13.94435287 5.42138233 -11.17578125 2.1953125 C-7.36785895 0.24728389 -4.24398889 -0.0418127 0 0 Z " fill="#040404" transform="translate(224.17578125,39.8046875)"/>
<path d="M0 0 C1.13072182 0.00539291 1.13072182 0.00539291 2.2842865 0.01089478 C3.46956436 0.01067574 3.46956436 0.01067574 4.67878723 0.01045227 C7.30309245 0.0111516 9.92732759 0.01894489 12.55162048 0.02676392 C14.36623089 0.02862803 16.18084179 0.03005196 17.99545288 0.03105164 C22.78111653 0.03487737 27.56675003 0.04470813 32.35240173 0.05575562 C37.23195488 0.06596854 42.11151287 0.070549 46.99107361 0.07559204 C56.57246709 0.08633035 66.15383816 0.10340744 75.73521423 0.12442017 C75.75863388 0.80137436 75.78205353 1.47832855 75.80618286 2.17579651 C75.91686713 5.29298512 76.03498083 8.40985168 76.15318298 11.52676392 C76.18988098 12.59132812 76.22657898 13.65589233 76.26438904 14.75271606 C76.91484173 31.48825502 79.31295116 50.38545978 87.73521423 65.12442017 C80.21051159 68.68788067 73.41392565 69.63838298 65.19468689 69.53237915 C60.82728694 69.58269482 59.2402991 69.70384623 55.74693298 72.61270142 C50.0875979 77.13063763 41.68218363 75.9540531 34.79771423 75.87442017 C34.00085205 75.872547 33.20398987 75.87067383 32.38298035 75.8687439 C-0.68905709 75.70014884 -0.68905709 75.70014884 -10.26478577 66.12442017 C-9.78815491 64.62685181 -9.78815491 64.62685181 -9.30189514 63.09902954 C-8.20474967 59.23992068 -7.87168088 55.54555907 -7.67103577 51.53067017 C-7.6340155 50.80504883 -7.59699524 50.07942749 -7.55885315 49.33181763 C-7.05777336 38.82353767 -6.90593438 28.30053003 -6.71253967 17.78311157 C-6.6611355 15.053031 -6.60391501 12.32311994 -6.54603577 9.59317017 C-6.53246033 8.75483643 -6.51888489 7.91650269 -6.50489807 7.05276489 C-6.35123522 0.01278452 -6.35123522 0.01278452 0 0 Z " fill="#7F7F7F" transform="translate(208.26478576660156,230.87557983398438)"/>
<path d="M0 0 C10.70697725 0.22927601 19.68807897 1.69157821 29.62109375 5.71484375 C34.22575107 7.52179958 38.27030473 8.21191787 43.19970703 8.25097656 C44.18488312 8.26058411 45.1700592 8.27019165 46.18508911 8.28009033 C47.76796219 8.28646515 47.76796219 8.28646515 49.3828125 8.29296875 C51.03106522 8.30151886 51.03106522 8.30151886 52.71261597 8.3102417 C55.03756756 8.31967823 57.36253245 8.32622032 59.6875 8.33007812 C63.2163885 8.33975161 66.74468636 8.37077539 70.2734375 8.40234375 C72.53905906 8.40887771 74.80468477 8.41412664 77.0703125 8.41796875 C78.6349675 8.43648895 78.6349675 8.43648895 80.23123169 8.4553833 C86.44235598 8.43681901 91.79635292 7.63553246 97.72941589 5.77423096 C101.31321287 4.75038679 104.58432282 4.67817174 108.3125 4.58984375 C118.1200931 4.22507557 127.62353973 2.57889128 137.125 0.08984375 C136.97359725 7.20577301 133.5139152 10.75247654 129.125 16.08984375 C121.95832144 25.50563951 120.87468187 36.70444018 119.5546875 48.1328125 C119.125 51.08984375 119.125 51.08984375 118.125 52.08984375 C116.66353059 52.21246262 115.19632644 52.26763959 113.72998047 52.29516602 C112.78800308 52.31510117 111.8460257 52.33503632 110.87550354 52.35557556 C109.84150925 52.37229813 108.80751495 52.38902069 107.7421875 52.40625 C106.67222031 52.42712173 105.60225311 52.44799347 104.49986267 52.46949768 C100.99998409 52.53590122 97.50003137 52.59459521 94 52.65234375 C91.6115719 52.69447775 89.22314416 52.73663272 86.8347168 52.77880859 C73.86959081 53.00036381 60.9046158 53.18795454 47.9375 53.21484375 C46.73786621 53.21943604 45.53823242 53.22402832 44.30224609 53.22875977 C41.24035948 53.2231732 38.18555865 53.17656939 35.125 53.08984375 C34.26438965 53.07147461 33.4037793 53.05310547 32.51708984 53.03417969 C28.49914812 52.79846044 26.60304714 52.45187945 23.32421875 49.96875 C20.89996466 46.7952593 18.87332713 43.50878967 16.9375 40.02734375 C13.31205716 33.7309271 9.24202995 28.44620357 4.5 22.93359375 C-5.25419238 11.25423182 -5.25419238 11.25423182 -5.375 4.46484375 C-4.72978795 0.10966242 -4.72978795 0.10966242 0 0 Z " fill="#7F7F7F" transform="translate(167.875,137.91015625)"/>
<path d="M0 0 C3.83672222 1.4561547 4.96544196 3.21358953 6.6875 6.875 C7.10386719 7.73867188 7.52023437 8.60234375 7.94921875 9.4921875 C10.21829903 14.90761329 10.84542581 20.07352605 9.1875 25.8125 C8 28 8 28 5 30 C5 29.34 5 28.68 5 28 C4.01 28 3.02 28 2 28 C1.67 29.65 1.34 31.3 1 33 C-5.41277536 34.10021702 -11.78949649 34.2955431 -18.28515625 34.5 C-19.459608 34.54060547 -20.63405975 34.58121094 -21.84410095 34.62304688 C-26.84941447 34.79602745 -31.85500522 34.96025986 -36.8605957 35.125 C-40.52306551 35.24680478 -44.18535386 35.37327641 -47.84765625 35.5 C-48.97591324 35.53544922 -50.10417023 35.57089844 -51.26661682 35.60742188 C-52.3246904 35.64416016 -53.38276398 35.68089844 -54.47290039 35.71875 C-55.86020103 35.76418945 -55.86020103 35.76418945 -57.27552795 35.81054688 C-60.02608675 35.95334567 -60.02608675 35.95334567 -62.80833435 36.49900818 C-66.73797574 37.11583914 -70.6255909 37.22079958 -74.59375 37.29711914 C-75.43710907 37.31677231 -76.28046814 37.33642548 -77.14938354 37.35667419 C-79.93284565 37.42041374 -82.71639741 37.47790748 -85.5 37.53515625 C-87.45654979 37.57825892 -89.41309269 37.62167556 -91.36962891 37.66539001 C-95.47846237 37.75627039 -99.58734468 37.84421589 -103.69628906 37.92993164 C-108.89775138 38.03854289 -114.09906401 38.15296658 -119.300354 38.26950932 C-123.35017838 38.35980841 -127.40005472 38.44757341 -131.44995117 38.53457451 C-133.36321301 38.575836 -135.27646242 38.61767861 -137.18969727 38.66017342 C-142.55038415 38.77820666 -147.91091242 38.87824438 -153.27233887 38.95595169 C-155.15338585 38.98632824 -157.03433702 39.0230786 -158.91516113 39.0650444 C-161.85224421 39.12932061 -164.78905762 39.17280813 -167.7265625 39.21264648 C-168.60863373 39.23627038 -169.49070496 39.25989428 -170.39950562 39.28423405 C-176.71898966 39.34045681 -182.05486744 38.11191844 -188 36 C-187.52434234 33.54093963 -187.04463948 31.08279007 -186.5625 28.625 C-186.36043945 27.57699219 -186.36043945 27.57699219 -186.15429688 26.5078125 C-185.11328125 21.2265625 -185.11328125 21.2265625 -184 19 C-172.24218167 16.26352008 -159.80923087 16.608442 -147.8125 16.4375 C-145.02984181 16.39337675 -142.2472896 16.34671133 -139.46476746 16.29469299 C-137.74977341 16.2630349 -136.0346846 16.23605543 -134.3195343 16.21446228 C-130.14871167 16.18539895 -130.14871167 16.18539895 -126.05474854 15.49404907 C-123.68083776 14.9232598 -121.5854501 14.89682392 -119.14428711 14.92163086 C-118.17523941 14.92717484 -117.20619171 14.93271881 -116.20777893 14.93843079 C-115.15823532 14.94714706 -114.10869171 14.95586334 -113.02734375 14.96484375 C-85.81609261 14.99413922 -61.15915917 13.6303892 -35 6 C-26.99769285 3.72005784 -19.57026144 2.5103323 -11.25 2.3125 C-10.25484375 2.27833984 -9.2596875 2.24417969 -8.234375 2.20898438 C-5.82302979 2.12783333 -3.41198738 2.05827145 -1 2 C-0.67 1.34 -0.34 0.68 0 0 Z " fill="#7F7F7F" transform="translate(339,320)"/>
<path d="M0 0 C2.4921875 1.5390625 2.4921875 1.5390625 4.875 3.625 C5.73609375 4.35332031 6.5971875 5.08164062 7.484375 5.83203125 C8.31453125 6.54746094 9.1446875 7.26289063 10 8 C15.09791281 12.19554503 19.67047481 15.0805772 26 17 C26.89976562 17.2784375 27.79953125 17.556875 28.7265625 17.84375 C31.14636769 18.57991608 33.5701215 19.29792445 36 20 C36 20.33 36 20.66 36 21 C34.73929688 21.01417969 33.47859375 21.02835937 32.1796875 21.04296875 C18.56950709 21.35321724 6.15006085 23.61428021 -7 27 C-8.88495835 27.4705896 -10.77037533 27.93934604 -12.65625 28.40625 C-16.75711127 29.4228302 -20.8532405 30.45639135 -24.94555664 31.50683594 C-29.17745182 32.52269194 -33.10007925 33.13108959 -37.46118164 33.18945312 C-38.52901382 33.20617065 -39.59684601 33.22288818 -40.69703674 33.2401123 C-42.4112809 33.26047546 -42.4112809 33.26047546 -44.16015625 33.28125 C-45.34218124 33.29965942 -46.52420624 33.31806885 -47.74205017 33.33703613 C-52.79514644 33.41561246 -57.84837358 33.48347707 -62.90161133 33.55224609 C-66.59202608 33.60399308 -70.28232772 33.6612285 -73.97265625 33.71875 C-75.11750992 33.73232544 -76.26236359 33.74590088 -77.44190979 33.7598877 C-78.50658981 33.77660522 -79.57126984 33.79332275 -80.66821289 33.81054688 C-81.60355362 33.82307495 -82.53889435 33.83560303 -83.50257874 33.84851074 C-85.82095751 33.98913959 -87.75915727 34.43521798 -90 35 C-91.70962311 35.11190492 -93.42271769 35.17564115 -95.13574219 35.20532227 C-96.66687653 35.2352401 -96.66687653 35.2352401 -98.22894287 35.26576233 C-99.87131927 35.29083107 -99.87131927 35.29083107 -101.546875 35.31640625 C-102.6732135 35.33718735 -103.799552 35.35796844 -104.96002197 35.37937927 C-108.55661949 35.44474333 -112.15328977 35.50369885 -115.75 35.5625 C-118.1888096 35.6056977 -120.62761184 35.6493124 -123.06640625 35.69335938 C-129.044194 35.8004113 -135.02205407 35.90220217 -141 36 C-138.82098255 33.82098255 -136.85647385 32.79219948 -134.125 31.375 C-123.50073689 25.60276256 -115.26199418 20.55878806 -109 10 C-108.02174664 8.45775364 -107.04266271 6.91603359 -106.0625 5.375 C-105.381875 4.26125 -104.70125 3.1475 -104 2 C-101.56210166 2.60259219 -99.12469018 3.20705528 -96.6875 3.8125 C-96.01654297 3.97814453 -95.34558594 4.14378906 -94.65429688 4.31445312 C-93.96787109 4.48525391 -93.28144531 4.65605469 -92.57421875 4.83203125 C-91.46663208 5.10297607 -91.46663208 5.10297607 -90.33666992 5.37939453 C-88.75750132 5.79881221 -87.19141739 6.27039257 -85.6418457 6.78857422 C-77.53172859 9.38859835 -69.66658918 9.5250282 -61.22875977 9.50097656 C-58.80561916 9.49999722 -56.38558207 9.54189301 -53.96289062 9.5859375 C-43.67496144 9.74391169 -43.67496144 9.74391169 -34.71313477 5.13574219 C-31.48083918 2.99285505 -27.82402591 3.34572586 -24.0625 3.375 C-18.27233066 3.25284702 -13.29476703 3.0205263 -7.921875 0.62109375 C-5.12095973 -0.28408009 -2.92716178 -0.30165408 0 0 Z " fill="#7F7F7F" transform="translate(301,299)"/>
<path d="M0 0 C0.98291016 0.00322266 1.96582031 0.00644531 2.97851562 0.00976562 C4.51475586 0.02233398 4.51475586 0.02233398 6.08203125 0.03515625 C7.63567383 0.04192383 7.63567383 0.04192383 9.22070312 0.04882812 C11.77870391 0.06061615 14.33658858 0.0770711 16.89453125 0.09765625 C20.19143361 7.23947155 20.43210333 13.80140441 20.58203125 21.59765625 C20.61619141 22.80164063 20.65035156 24.005625 20.68554688 25.24609375 C20.7675032 28.19652141 20.83682509 31.14667141 20.89453125 34.09765625 C23.36936674 35.335074 25.32424317 35.38708029 28.0859375 35.59765625 C29.11267578 35.68015625 30.13941406 35.76265625 31.19726562 35.84765625 C33.37432614 36.01462075 35.55140959 36.18128636 37.72851562 36.34765625 C38.75396484 36.43015625 39.77941406 36.51265625 40.8359375 36.59765625 C41.78154541 36.66984375 42.72715332 36.74203125 43.70141602 36.81640625 C45.89453125 37.09765625 45.89453125 37.09765625 46.89453125 38.09765625 C46.98211128 40.09730607 47.00149701 42.10001735 46.9921875 44.1015625 C46.98735352 45.92397461 46.98735352 45.92397461 46.98242188 47.78320312 C46.96985352 49.70229492 46.96985352 49.70229492 46.95703125 51.66015625 C46.95251953 52.94341797 46.94800781 54.22667969 46.94335938 55.54882812 C46.9315268 58.73179045 46.91359069 61.91472899 46.89453125 65.09765625 C40.62453125 65.09765625 34.35453125 65.09765625 27.89453125 65.09765625 C27.56453125 70.70765625 27.23453125 76.31765625 26.89453125 82.09765625 C25.24453125 82.09765625 23.59453125 82.09765625 21.89453125 82.09765625 C19.23059658 76.05940433 18.75557544 70.40688693 18.76953125 63.84765625 C18.76695312 62.625625 18.764375 61.40359375 18.76171875 60.14453125 C18.89453125 57.09765625 18.89453125 57.09765625 19.89453125 55.09765625 C22.58605389 54.81138685 25.19550993 54.63022487 27.89453125 54.53515625 C32.78521748 54.7773561 32.78521748 54.7773561 36.89453125 53.09765625 C37.04411631 49.63816839 37.04411631 49.63816839 35.89453125 46.09765625 C29.7127166 41.68207436 21.25049638 42.37220321 13.89453125 42.09765625 C10.95437978 32.97634914 9.2135867 24.70122538 8.89453125 15.09765625 C5.92453125 15.09765625 2.95453125 15.09765625 -0.10546875 15.09765625 C-2.23691629 19.91658112 -3.29356346 23.88431141 -3.60546875 29.16015625 C-4.33782722 38.65680462 -4.33782722 38.65680462 -7.10546875 42.09765625 C-11.74114151 43.3057738 -16.33263384 43.78871449 -21.10546875 44.09765625 C-20.77546875 45.41765625 -20.44546875 46.73765625 -20.10546875 48.09765625 C-19.09484375 48.38640625 -18.08421875 48.67515625 -17.04296875 48.97265625 C-16.40875 49.16085938 -15.77453125 49.3490625 -15.12109375 49.54296875 C-13.20165716 50.07118579 -11.24632215 50.46339001 -9.29296875 50.84765625 C-6.10546875 52.09765625 -6.10546875 52.09765625 -4.94140625 54.70703125 C-4.03277394 58.39251182 -3.72399072 61.80774942 -3.54296875 65.59765625 C-3.31484176 70.1788187 -2.9478375 74.5864583 -2.10546875 79.09765625 C-4.41546875 79.09765625 -6.72546875 79.09765625 -9.10546875 79.09765625 C-10.56373832 73.16736 -11.39449452 67.58487907 -11.6640625 61.48046875 C-12.19481094 58.61536658 -12.84543112 57.88330662 -15.10546875 56.09765625 C-17.22162719 55.59710874 -17.22162719 55.59710874 -19.5546875 55.5859375 C-20.70070435 55.53626831 -20.70070435 55.53626831 -21.86987305 55.4855957 C-22.83449463 55.46070068 -23.79911621 55.43580566 -24.79296875 55.41015625 C-27.86609375 55.30703125 -30.93921875 55.20390625 -34.10546875 55.09765625 C-34.10546875 48.49765625 -34.10546875 41.89765625 -34.10546875 35.09765625 C-25.41796875 34.72265625 -25.41796875 34.72265625 -22.70825195 34.61962891 C-21.98984131 34.58401855 -21.27143066 34.5484082 -20.53125 34.51171875 C-19.80333252 34.48029785 -19.07541504 34.44887695 -18.32543945 34.41650391 C-15.70304828 34.03985782 -13.52439849 33.15744868 -11.10546875 32.09765625 C-11.1211792 31.26516357 -11.13688965 30.4326709 -11.15307617 29.57495117 C-11.20423517 26.48317769 -11.24183355 23.39162007 -11.27026367 20.29956055 C-11.29275208 18.30437924 -11.33087073 16.30939412 -11.36914062 14.31445312 C-11.37880859 13.06083984 -11.38847656 11.80722656 -11.3984375 10.515625 C-11.41414795 9.35828857 -11.4298584 8.20095215 -11.44604492 7.00854492 C-11.10546875 4.09765625 -11.10546875 4.09765625 -9.7746582 2.2590332 C-6.58443852 0.03936448 -3.75470343 -0.02170349 0 0 Z " fill="#7F7F7F" transform="translate(224.10546875,42.90234375)"/>
<path d="M0 0 C17.9323056 -0.08138204 35.85480388 0.15817761 53.78369141 0.46356201 C57.43194314 0.52528289 61.0802309 0.58479828 64.72851562 0.64453125 C71.81904615 0.76093282 78.90953149 0.8798713 86 1 C86 6.28 86 11.56 86 17 C58.61 17 31.22 17 3 17 C0 4 0 4 0 0 Z " fill="#7F7F7F" transform="translate(198,211)"/>
<path d="M0 0 C0.80308594 0.04374756 1.60617188 0.08749512 2.43359375 0.13256836 C12.7879926 0.77483045 23.07139301 2.14336036 33.35351562 3.49047852 C35.79304268 3.8052557 35.79304268 3.8052557 38.6875 3.75 C40.34518302 4.14020585 41.99081975 4.58330429 43.625 5.0625 C44.47964844 5.30613281 45.33429688 5.54976562 46.21484375 5.80078125 C48.83373715 6.80613843 50.64168294 7.83116469 52.6875 9.75 C52.9375 12.9375 52.9375 12.9375 52.6875 15.75 C46.95125776 18.33693277 42.08088287 19.85254622 35.72045898 19.92700195 C34.27756752 19.94625481 34.27756752 19.94625481 32.80552673 19.96589661 C31.26016991 19.97697701 31.26016991 19.97697701 29.68359375 19.98828125 C28.60932632 19.996353 27.5350589 20.00442474 26.42823792 20.01274109 C24.15456747 20.02655587 21.88087651 20.03728965 19.60717773 20.04516602 C17.298196 20.05665993 14.98924029 20.07707031 12.68041992 20.10668945 C9.3271293 20.14967728 5.97462685 20.16558035 2.62109375 20.17578125 C1.60502548 20.19328934 0.58895721 20.21079742 -0.457901 20.22883606 C-8.14266439 20.20598803 -16.96545607 19.25453416 -23.1565094 14.26338196 C-24.3125 12.75 -24.3125 12.75 -24.25 10.375 C-22.78447405 6.27152734 -20.82859493 3.5479447 -16.9375 1.5 C-11.22647486 -0.13172147 -5.89906324 -0.34549148 0 0 Z " fill="#7F7F7F" transform="translate(215.3125,124.25)"/>
<path d="M0 0 C0.66 0.33 1.32 0.66 2 1 C2 1.99 2 2.98 2 4 C-0.08510776 5.52888073 -2.08768856 6.83408922 -4.3125 8.125 C-4.90740234 8.48464844 -5.50230469 8.84429687 -6.11523438 9.21484375 C-8.71694179 10.76714739 -11.1176169 12.03920563 -14 13 C-7.09476424 12.88235328 -0.1896852 12.75752265 6.71533203 12.62768555 C9.0645859 12.58436114 11.41387075 12.54268427 13.76318359 12.50268555 C17.1390924 12.44492285 20.51484561 12.38124532 23.890625 12.31640625 C25.46738007 12.29133751 25.46738007 12.29133751 27.07598877 12.26576233 C28.05670349 12.24581711 29.03741821 12.22587189 30.04785156 12.20532227 C31.3402475 12.18200584 31.3402475 12.18200584 32.65875244 12.15821838 C34.96127692 12.07309699 34.96127692 12.07309699 36.98420715 11.49702454 C39.43830856 10.89192832 41.6772272 10.86030347 44.20483398 10.84228516 C45.24369247 10.83202301 46.28255096 10.82176086 47.35289001 10.81118774 C48.47264725 10.80388641 49.59240448 10.79658508 50.74609375 10.7890625 C53.13477222 10.76097197 55.52344399 10.73230739 57.91210938 10.703125 C61.6639776 10.66205418 65.41572382 10.62515393 69.16772461 10.59863281 C72.79827553 10.57076648 76.42826457 10.52487424 80.05859375 10.4765625 C81.1601329 10.47330963 82.26167206 10.47005676 83.39659119 10.46670532 C90.30387548 10.35948427 96.53608001 9.39578267 103.22059631 7.63949585 C106 7 106 7 110 7 C110 7.99 110 8.98 110 10 C95.17547865 14.60171523 80.60396476 14.63122433 65.1875 14.6875 C61.49100348 14.71663281 57.79462752 14.75113493 54.09822083 14.78999329 C51.81563337 14.81236035 49.53297082 14.82825248 47.25028992 14.83683777 C46.22434219 14.84387222 45.19839447 14.85090668 44.14135742 14.8581543 C42.79263802 14.86337349 42.79263802 14.86337349 41.41667175 14.86869812 C39.12800916 14.99304505 37.20789982 15.42382474 35 16 C32.05016705 16.14042515 29.11930938 16.23292702 26.16796875 16.28125 C25.2991658 16.29965942 24.43036285 16.31806885 23.53523254 16.33703613 C20.75272278 16.39566737 17.97014846 16.4484025 15.1875 16.5 C3.09214019 16.72908284 -8.93517272 17.08426358 -21 18 C-21.99 23.28 -22.98 28.56 -24 34 C-17.31449125 36.57376555 -11.91567915 37.40171765 -4.7890625 37.21264648 C-3.83440094 37.19976058 -2.87973938 37.18687468 -1.89614868 37.17359829 C1.06968696 37.1302056 4.0345874 37.06580192 7 37 C8.79457376 36.9710665 10.58917063 36.94352657 12.38378906 36.91751099 C17.79807511 36.83381269 23.21141955 36.71789714 28.625 36.59765625 C30.59700341 36.55512793 32.56900866 36.51268491 34.54101562 36.47032166 C38.62145809 36.38204019 42.70185342 36.29186636 46.78222656 36.20043945 C52.00254125 36.08375394 57.22296885 35.97333753 62.44345093 35.86443424 C66.49270342 35.77904834 70.5418616 35.68971034 74.59100342 35.59924126 C76.51744607 35.55680185 78.44391969 35.51574319 80.37042236 35.4761219 C83.04914204 35.42058057 85.72768298 35.35953897 88.40625 35.29711914 C89.19168182 35.28201294 89.97711365 35.26690674 90.78634644 35.25134277 C94.95451342 35.14793525 98.89951454 34.7223676 103 34 C104.9997412 33.86580368 107.00220625 33.76848669 109.00537109 33.70288086 C110.16612152 33.66291489 111.32687195 33.62294891 112.52279663 33.58177185 C113.76050812 33.54318558 114.9982196 33.5045993 116.2734375 33.46484375 C117.55231842 33.42186661 118.83119934 33.37888947 120.14883423 33.33460999 C123.53200424 33.22162749 126.91524949 33.11207746 130.29858398 33.00421143 C133.75774588 32.89307492 137.21675562 32.77739608 140.67578125 32.66210938 C147.45038885 32.4372357 154.22513231 32.21688874 161 32 C160.13783264 33.95326233 160.13783264 33.95326233 159 36 C155.170768 37.29845429 151.29585705 37.08819985 147.28515625 37.03515625 C139.40719461 36.97161394 131.54587511 37.13906132 123.67163086 37.37231445 C121.40814408 37.43835652 119.1445381 37.49758814 116.88085938 37.55664062 C115.41925901 37.59854798 113.95766992 37.64085082 112.49609375 37.68359375 C111.19857178 37.72025146 109.9010498 37.75690918 108.56420898 37.79467773 C105.11628961 37.9210658 105.11628961 37.9210658 102.22509766 38.50219727 C97.45996397 39.23770882 92.71760797 39.21812047 87.90234375 39.28125 C86.26711258 39.30838829 86.26711258 39.30838829 84.59884644 39.33607483 C82.26007066 39.37455331 79.92126205 39.41107623 77.58242798 39.4458313 C71.44282563 39.53707433 65.30345337 39.6417107 59.1640625 39.74609375 C57.94348648 39.76655258 56.72291046 39.78701141 55.46534729 39.80809021 C45.99349356 39.97128334 36.52565175 40.21071124 27.05679321 40.4960022 C21.37013479 40.66449635 15.68283075 40.80937172 9.99542236 40.94995117 C8.65860134 40.98348108 7.32180868 41.01816015 5.98504639 41.05395508 C1.57352137 41.17159216 -2.83735908 41.25149575 -7.25 41.3125 C-8.32145264 41.342229 -9.39290527 41.37195801 -10.49682617 41.40258789 C-16.90584979 41.45182827 -22.61595342 40.76771954 -28 37 C-29.25014096 33.24957713 -28.6677183 31.17178645 -27.875 27.3125 C-27.64554688 26.13300781 -27.41609375 24.95351563 -27.1796875 23.73828125 C-24.7418191 16.01298304 -21.4909372 11.66174974 -14.30859375 7.83984375 C-13.50550781 7.43894531 -12.70242187 7.03804688 -11.875 6.625 C-10.26793321 5.78441975 -8.66115054 4.94329603 -7.0546875 4.1015625 C-6.34812012 3.74400879 -5.64155273 3.38645508 -4.91357422 3.01806641 C-2.77006719 1.91814188 -2.77006719 1.91814188 0 0 Z " fill="#020101" transform="translate(176,321)"/>
<path d="M0 0 C1.65 0 3.3 0 5 0 C5.02578125 0.70382813 5.0515625 1.40765625 5.078125 2.1328125 C5.64083371 15.45463197 5.64083371 15.45463197 11 27 C13.39939114 27.1863892 15.78434082 27.33043983 18.1875 27.4375 C23.17821847 27.66769016 27.32538197 28.20430691 32 30 C32.495 32.475 32.495 32.475 33 35 C24.585 35.495 24.585 35.495 16 36 C12.87257245 45.38228265 13.69004286 54.83684182 17 64 C10.59646678 64.2361959 5.15370839 63.823321 -1 62 C-2.97709587 55.82157539 -3.39053545 50.11117153 -3.65625 43.62109375 C-4.09210288 39.02977984 -4.67863541 35.32136459 -8 32 C-10.88717605 31.3162387 -10.88717605 31.3162387 -14.125 30.875 C-15.22070312 30.70742187 -16.31640625 30.53984375 -17.4453125 30.3671875 C-18.28835937 30.24601562 -19.13140625 30.12484375 -20 30 C-20 29.67 -20 29.34 -20 29 C-15.71 28.34 -11.42 27.68 -7 27 C-4.86855246 22.18107513 -3.81190529 18.21334484 -3.5 12.9375 C-3.20186527 7.93264246 -2.31440508 4.42755754 0 0 Z " fill="#FBFBFB" transform="translate(226,60)"/>
<path d="M0 0 C0.33 0 0.66 0 1 0 C1 2.64 1 5.28 1 8 C-0.65 7.67 -2.3 7.34 -4 7 C-2.68 4.69 -1.36 2.38 0 0 Z " fill="#777677" transform="translate(197,301)"/>
</svg>
