<?xml version="1.0" encoding="UTF-8"?>
<svg version="1.1" xmlns="http://www.w3.org/2000/svg" width="491" height="394">
<path d="M0 0 C0.721875 0.165 1.44375 0.33 2.1875 0.5 C6.1875 7 6.1875 7 6.1875 11.5 C8.91176311 9.14722731 10.0016763 6.87503669 11.1875 3.5 C12.8375 3.83 14.4875 4.16 16.1875 4.5 C16.46464844 5.42683594 16.74179688 6.35367188 17.02734375 7.30859375 C17.57068359 9.10490234 17.57068359 9.10490234 18.125 10.9375 C18.66447266 12.72994141 18.66447266 12.72994141 19.21484375 14.55859375 C19.89639142 17.35867545 19.89639142 17.35867545 21.1875 18.5 C21.57421875 17.778125 21.9609375 17.05625 22.359375 16.3125 C22.88015625 15.384375 23.4009375 14.45625 23.9375 13.5 C24.70320313 12.1078125 24.70320313 12.1078125 25.484375 10.6875 C26.04640625 9.965625 26.6084375 9.24375 27.1875 8.5 C28.5075 8.5 29.8275 8.5 31.1875 8.5 C32.00863177 9.89077301 32.81902495 11.28788893 33.625 12.6875 C34.07746094 13.46480469 34.52992188 14.24210937 34.99609375 15.04296875 C36.21141499 17.54931977 36.76376575 19.75790365 37.1875 22.5 C39.1675 22.5 41.1475 22.5 43.1875 22.5 C43.69583591 23.74663331 44.19381145 24.99749387 44.6875 26.25 C45.10515625 27.29414062 45.10515625 27.29414062 45.53125 28.359375 C46.1875 30.5 46.1875 30.5 46.1875 34.5 C46.8475 34.5 47.5075 34.5 48.1875 34.5 C49.1775 32.025 49.1775 32.025 50.1875 29.5 C51.1775 29.5 52.1675 29.5 53.1875 29.5 C53.5175 30.82 53.8475 32.14 54.1875 33.5 C56.27672903 30.65010742 58.35777731 27.79433535 60.4375 24.9375 C61.31728516 23.73770508 61.31728516 23.73770508 62.21484375 22.51367188 C66.83407647 16.15573919 70.9554183 10.12627914 73.1875 2.5 C74.5075 2.5 75.8275 2.5 77.1875 2.5 C77.0232251 3.4684082 76.8589502 4.43681641 76.68969727 5.43457031 C76.06561403 9.8181936 76.10627948 14.1276927 76.15234375 18.546875 C76.14863006 20.29688087 76.14270048 22.04688318 76.13476562 23.796875 C76.12424128 26.52047791 76.12487944 29.24146099 76.16333008 31.96484375 C76.29856272 42.6900573 76.28569276 50.33218888 69.09985352 58.80566406 C67.1875 60.5 67.1875 60.5 65.1875 60.5 C65.1875 61.16 65.1875 61.82 65.1875 62.5 C63.17011991 64.03555047 61.06518572 65.39170699 58.9375 66.76953125 C56.90407388 68.40923421 56.90407388 68.40923421 56.9375 71.19921875 C57.02 71.95847656 57.1025 72.71773438 57.1875 73.5 C57.991875 73.70625 58.79625 73.9125 59.625 74.125 C60.470625 74.57875 61.31625 75.0325 62.1875 75.5 C63.22056016 79.72503046 63.32256929 83.85267166 63.3125 88.1875 C63.31507813 89.30511719 63.31765625 90.42273438 63.3203125 91.57421875 C63.1875 94.5 63.1875 94.5 62.1875 97.5 C63.22648438 97.21125 64.26546875 96.9225 65.3359375 96.625 C82.62801621 91.96010225 82.62801621 91.96010225 88.1875 93.5 C93.1222664 98.30521406 93.51040144 105.47462325 93.625 112 C93.43972411 121.39348759 93.43972411 121.39348759 89.97265625 125.140625 C81.4060839 131.66396675 72.6387571 132.16021698 62.1875 132.5 C59.50425024 132.76449176 56.85691968 133.11865433 54.1875 133.5 C54.1875 132.84 54.1875 132.18 54.1875 131.5 C52.929375 131.561875 51.67125 131.62375 50.375 131.6875 C44.68184896 131.71469658 39.5822536 130.19405347 34.1875 128.5 C34.62427928 131.11039851 35.0878485 133.71223639 35.58203125 136.3125 C35.96481159 138.32765329 36.32006307 140.34840366 36.63671875 142.375 C38.83216725 153.83492974 45.08328513 164.06345415 54.69091797 170.75073242 C57.2256573 172.38797822 59.80086119 173.93968929 62.41259766 175.45068359 C64.95783272 176.95541816 67.37013167 178.64741093 69.8125 180.3125 C74.68115057 183.40543945 79.71580427 185.4441471 85.14453125 187.359375 C88.31620377 188.54824326 91.25395232 189.8023055 94.1875 191.5 C95.25 194.5625 95.25 194.5625 95.640625 196.45703125 C96.27275262 198.81847944 97.29708927 200.6226301 98.5 202.75 C105.46573748 216.78513176 106.65250644 230.3465912 106.625 245.75 C106.62513092 246.52447479 106.62526184 247.29894958 106.62539673 248.09689331 C106.56859656 266.83276308 106.56859656 266.83276308 102.3671875 271.5390625 C89.75267555 280.21955717 75.87681185 282.33047322 60.9375 282.8125 C60.09040466 282.8463681 59.24330933 282.88023621 58.37054443 282.91513062 C36.99007036 283.76092985 15.57080471 283.74098059 -5.823349 283.80282211 C-8.67591939 283.81246087 -11.52843582 283.82673964 -14.38098145 283.84194946 C-18.94990199 283.86471475 -23.51856635 283.87044759 -28.08753586 283.86383057 C-29.7887371 283.86347006 -31.48994792 283.8680171 -33.19112015 283.87796021 C-43.20069133 283.93091336 -52.08785198 283.16666362 -61.8125 280.5 C-64.16414036 280.0439104 -66.50066753 279.7051853 -68.875 279.375 C-74.52057465 278.57945549 -74.52057465 278.57945549 -76.75 277.97265625 C-80.87759885 277.02674818 -85.18426482 277.09093803 -89.40234375 276.87890625 C-95.91115918 276.15570454 -99.26921913 273.77390648 -103.4296875 268.875 C-105.76145518 264.87015607 -105.39086699 260.98004907 -104.8125 256.5 C-105.4725 256.5 -106.1325 256.5 -106.8125 256.5 C-106.855221 254.83388095 -106.85313832 253.16617115 -106.8125 251.5 C-106.4825 251.17 -106.1525 250.84 -105.8125 250.5 C-105.34279612 248.40278712 -104.91261696 246.29668725 -104.5 244.1875 C-101.80069133 231.39173872 -98.11129892 216.62796294 -87.4921875 207.9921875 C-82.57418179 205.25358957 -77.16706394 204.01090171 -71.73828125 202.640625 C-64.09335532 200.53721145 -61.1385893 196.61828085 -57 190.125 C-56.47664063 189.31716064 -55.95328125 188.50932129 -55.4140625 187.67700195 C-54.36142528 186.04680442 -53.31365797 184.41345112 -52.27099609 182.77685547 C-51.00118036 180.79454855 -49.70607058 178.83369525 -48.39453125 176.87890625 C-39.74260715 163.6169513 -36.42099136 150.06404115 -39.38818359 134.47558594 C-42.14274447 122.05849804 -45.08858413 111.01211361 -53.8125 101.5 C-54.82471343 100.09203395 -55.82545897 98.67572594 -56.8125 97.25 C-58.97557493 94.30415486 -61.29219988 92.28223009 -64.1875 90.0625 C-66.26171875 88.3125 -66.26171875 88.3125 -67.8125 86.5 C-68 82.5625 -68 82.5625 -67.76171875 80.2421875 C-67.82911284 76.60290669 -69.07753627 73.56157512 -70.3125 70.1875 C-74.83944601 57.10461036 -74.27065835 42.55603516 -69.8125 29.5 C-68.1625 29.83 -66.5125 30.16 -64.8125 30.5 C-63.8225 27.2 -62.8325 23.9 -61.8125 20.5 C-60.4925 20.5 -59.1725 20.5 -57.8125 20.5 C-57.4825 18.19 -57.1525 15.88 -56.8125 13.5 C-54.5 12.8125 -54.5 12.8125 -51.8125 12.5 C-50.8225 13.49 -49.8325 14.48 -48.8125 15.5 C-46.8325 11.54 -44.8525 7.58 -42.8125 3.5 C-41.4925 3.5 -40.1725 3.5 -38.8125 3.5 C-38.30882243 4.95706726 -37.80967444 6.41570096 -37.3125 7.875 C-37.0340625 8.68710937 -36.755625 9.49921875 -36.46875 10.3359375 C-35.8125 12.5 -35.8125 12.5 -35.8125 14.5 C-35.1525 14.5 -34.4925 14.5 -33.8125 14.5 C-33.60625 13.84 -33.4 13.18 -33.1875 12.5 C-31.33522295 8.45866825 -29.03049424 4.60251598 -25.8125 1.5 C-24.4925 1.5 -23.1725 1.5 -21.8125 1.5 C-20.8225 2.49 -20.8225 2.49 -19.8125 3.5 C-19.4825 2.84 -19.1525 2.18 -18.8125 1.5 C-17.1625 1.83 -15.5125 2.16 -13.8125 2.5 C-12.8225 5.47 -11.8325 8.44 -10.8125 11.5 C-8.28750978 8.97500978 -7.08005148 7.33854283 -5.4375 4.3125 C-3.18416504 0.56607378 -3.18416504 0.56607378 0 0 Z " fill="#070606" transform="translate(228.8125,35.5)"/>
<path d="M0 0 C0.33 0 0.66 0 1 0 C1.2001353 4.3556369 1.34399943 8.70873385 1.43945312 13.06762695 C1.47929935 14.54498988 1.53360295 16.02204538 1.60351562 17.49829102 C2.03365195 26.82529123 1.43397303 33.4230933 -4.88867188 40.86987305 C-7.28011405 43.28260812 -9.66280981 45.37605339 -12.5 47.25 C-16.41623386 50.12649874 -16.41623386 50.12649874 -17.9375 54.75 C-16.78699609 58.73841357 -15.24268122 59.54821664 -12 62 C-10.79761117 66.7594558 -10.88022033 71.50182229 -10.9375 76.375 C-10.94201172 77.11105469 -10.94652344 77.84710938 -10.95117188 78.60546875 C-10.96284858 80.40368158 -10.98077989 82.20185197 -11 84 C-6.10004356 84.12577428 -2.14133911 84.01420156 2.5625 82.5 C6.9599141 81.23139788 10.45009175 80.24168196 15 81 C19.38426684 86.11497797 19.36497009 92.88861377 19.26953125 99.34375 C18.87177909 103.26362634 17.7419016 105.18955086 15 108 C2.75450447 115.63803544 -13.57513604 115.13906407 -27.3125 112.3203125 C-36.71024576 109.8157246 -45.40317841 105.19403945 -51 97 C-51.99 97.495 -51.99 97.495 -53 98 C-51.94085598 99.08661461 -50.87749011 100.16911452 -49.8125 101.25 C-49.17699219 101.89710938 -48.54148437 102.54421875 -47.88671875 103.2109375 C-45.94786623 105.1569005 -45.94786623 105.1569005 -43.125 106.875 C-40.70110134 109.29889866 -40.71527146 109.80019239 -40.48828125 113.0625 C-39.05185837 128.74083622 -34.0172873 143.67927282 -22.21875 154.56640625 C-18.48466394 157.51685427 -14.46049183 160.02924488 -10.4375 162.5625 C-8.95535767 163.49865767 -7.47484623 164.43740311 -5.99609375 165.37890625 C-5.34825928 165.7869751 -4.7004248 166.19504395 -4.03295898 166.61547852 C-1.58143868 168.28505599 0.69183014 170.13876133 3 172 C1.41291229 172.0154612 1.41291229 172.0154612 -0.20623779 172.03123474 C-10.26589769 172.12976115 -20.32550651 172.23255607 -30.38508224 172.33933926 C-35.5545547 172.39408158 -40.72403305 172.44741321 -45.89355469 172.49731445 C-50.8992234 172.54568939 -55.90483731 172.59803928 -60.91043854 172.65294075 C-62.80299735 172.6730391 -64.69557098 172.69179751 -66.58815765 172.70907402 C-76.33140444 172.7989175 -86.06656413 172.97457759 -95.80175781 173.39477539 C-96.6038203 173.42442855 -97.4058828 173.45408171 -98.23225021 173.48463345 C-104.74027929 173.79997305 -110.59743402 175.14729351 -116.8359375 177.0625 C-119.88685459 177.96647544 -122.85423426 178.54381645 -126 179 C-124.42920257 174.39291257 -121.93549859 170.77205214 -119.1875 166.8125 C-109.04341034 151.86379399 -104.72274562 138.15305133 -107 120 C-109.31595343 109.15966376 -112.1564234 96.91500401 -119 88 C-119.78922524 86.915483 -120.57827983 85.83084179 -121.3671875 84.74609375 C-122.20106151 83.64166814 -123.03701741 82.53881148 -123.875 81.4375 C-124.48794922 80.61088867 -124.48794922 80.61088867 -125.11328125 79.76757812 C-127.29780256 76.8991179 -129.38477826 74.6223361 -132.28125 72.4609375 C-135 70 -135 70 -135.7265625 67.23046875 C-135.16084384 50.28066751 -130.94820853 35.88386956 -118.34375 23.97265625 C-104.59799778 12.4033148 -87.96039434 13.53644293 -71 14 C-69.79778809 14.02320312 -69.79778809 14.02320312 -68.57128906 14.046875 C-54.1542977 14.35567267 -42.31202716 16.61725826 -31.4453125 26.3828125 C-28.29607351 29.75340376 -26.59520344 32.69295071 -25 37 C-22.41813926 35.70906963 -22.3871714 34.78313237 -21.375 32.125 C-19.3017543 27.2874267 -16.52849404 23.38255248 -13.3671875 19.1953125 C-9.96619667 14.6045361 -6.78393406 9.86933168 -3.59350586 5.13061523 C-2.41996933 3.40364598 -1.21320339 1.69933761 0 0 Z " fill="#7F7F7F" transform="translate(300,51)"/>
<path d="M0 0 C2.24498942 -0.00216977 4.48947351 -0.02029461 6.734375 -0.03930664 C14.41635905 -0.06986278 21.67345264 0.24194794 29.1484375 2.18530273 C30.3446875 2.44569336 31.5409375 2.70608398 32.7734375 2.97436523 C43.94386107 5.74111366 55.51212768 9.76109619 65.1484375 16.18530273 C66.13924819 21.41635703 65.38487179 27.44406204 63.1484375 32.18530273 C52.62849173 42.80966484 34.77081676 44.04705124 20.7109375 44.49780273 C19.85934052 44.53167084 19.00774353 44.56553894 18.13034058 44.60043335 C-2.73966827 45.42372776 -23.64527427 45.42549235 -44.52867508 45.48812485 C-47.27849246 45.49776568 -50.02825395 45.51204392 -52.77804565 45.5272522 C-57.17817233 45.54999764 -61.57803302 45.5557558 -65.97821045 45.5491333 C-67.61596336 45.54877264 -69.25372618 45.55332407 -70.89144897 45.56326294 C-80.30604833 45.61498949 -88.76168726 44.88813053 -97.8515625 42.18530273 C-100.17768709 41.76791344 -102.51031581 41.38222415 -104.8515625 41.06030273 C-110.57288133 40.26100084 -110.57288133 40.26100084 -112.79296875 39.65795898 C-116.91866423 38.71069304 -121.2249305 38.77616017 -125.44140625 38.56420898 C-131.29876157 37.91339173 -134.9701018 36.05431026 -138.67578125 31.52514648 C-141.04201582 26.81626108 -140.90922544 21.26757922 -139.8515625 16.18530273 C-137.09617623 13.65927326 -134.57965804 12.61533529 -130.984375 11.72045898 C-130.02772949 11.479646 -129.07108398 11.23883301 -128.08544922 10.99072266 C-127.0595166 10.74555908 -126.03358398 10.50039551 -124.9765625 10.24780273 C-123.37385498 9.85975464 -123.37385498 9.85975464 -121.73876953 9.46386719 C-107.86335346 6.16648522 -94.09484651 3.13752023 -79.8046875 2.61108398 C-78.87044952 2.57265381 -77.93621155 2.53422363 -76.97366333 2.49462891 C-64.0905902 1.99594813 -51.19757816 1.83001196 -38.30712891 1.63305664 C-35.0067577 1.58146615 -31.70651821 1.52430751 -28.40625 1.46655273 C-27.40222137 1.45297729 -26.39819275 1.43940186 -25.36373901 1.42541504 C-24.43401276 1.40869751 -23.5042865 1.39197998 -22.54638672 1.37475586 C-21.73338104 1.36222778 -20.92037537 1.34969971 -20.08273315 1.33679199 C-0.39350869 -0.00004255 -0.39350869 -0.00004255 0 0 Z " fill="#7F7F7F" transform="translate(266.8515625,270.814697265625)"/>
<path d="M0 0 C4.17476197 3.60603894 4.83606242 8.33119004 6.1875 13.5 C6.45578613 14.51779541 6.72407227 15.53559082 7.00048828 16.58422852 C9.3461375 26.15671128 9.61687853 35.20990919 9 45 C7.92621094 44.52949219 6.85242188 44.05898438 5.74609375 43.57421875 C4.30990209 42.94529822 2.87370382 42.31639277 1.4375 41.6875 C0.73302734 41.37876953 0.02855469 41.07003906 -0.69726562 40.75195312 C-2.11315566 40.13209343 -3.52982797 39.51401762 -4.94726562 38.89770508 C-6.8467953 38.06699972 -8.73824477 37.21788341 -10.62890625 36.3671875 C-13.8809218 35.04829359 -16.94980035 34.17751227 -20.375 33.4375 C-21.41398438 33.20933594 -22.45296875 32.98117187 -23.5234375 32.74609375 C-24.67070312 32.49988281 -25.81796875 32.25367188 -27 32 C-28.26457031 31.64421875 -29.52914062 31.2884375 -30.83203125 30.921875 C-37.44618824 29.45198475 -44.24649398 29.73920261 -50.9855957 29.79418945 C-53.32449113 29.81259436 -55.66299235 29.81469761 -58.00195312 29.81445312 C-59.49739925 29.81936436 -60.99284271 29.82519095 -62.48828125 29.83203125 C-63.18311111 29.83314407 -63.87794098 29.8342569 -64.59382629 29.83540344 C-68.29286956 29.86283913 -68.29286956 29.86283913 -71.92208862 30.49723816 C-74.23125468 31.05595331 -76.30409563 31.15272126 -78.67895508 31.18945312 C-79.60545364 31.20617065 -80.53195221 31.22288818 -81.48652649 31.2401123 C-82.98786385 31.26047546 -82.98786385 31.26047546 -84.51953125 31.28125 C-85.56912521 31.29965942 -86.61871918 31.31806885 -87.70011902 31.33703613 C-91.07085587 31.39573106 -94.4416479 31.44838194 -97.8125 31.5 C-129.14996057 31.33541728 -129.14996057 31.33541728 -160.125 35.1875 C-161.18976563 35.4030957 -162.25453125 35.61869141 -163.3515625 35.84082031 C-180.09977822 39.08344798 -180.09977822 39.08344798 -196 45 C-193.50888177 31.22558157 -189.87493196 14.78744965 -178 6 C-174.95510843 4.56415205 -172.38274041 3.77329077 -169 4 C-167.04187986 5.21780179 -165.62508487 6.62491311 -164.01625061 8.27217102 C-156.66220351 14.5742327 -146.76705475 14.55948983 -137.59765625 14.42578125 C-135.6661396 14.42166481 -135.6661396 14.42166481 -133.69560242 14.41746521 C-130.20790609 14.40905231 -126.72090562 14.37526029 -123.23344421 14.33537292 C-120.31574235 14.30463221 -117.39802299 14.28727674 -114.48021507 14.27000237 C-106.91755908 14.22521776 -99.35542306 14.15275812 -91.7931118 14.06886101 C-85.9011296 14.00523148 -80.00925358 13.96760284 -74.11701488 13.93794918 C-67.95700784 13.90600255 -61.7974167 13.85170732 -55.63766479 13.78744507 C-53.06978132 13.76271182 -50.50183704 13.74358186 -47.93386841 13.7303772 C-23.64594924 13.98443613 -23.64594924 13.98443613 -2 4 C-0.75912514 1.93741932 -0.75912514 1.93741932 0 0 Z " fill="#7F7F7F" transform="translate(323,239)"/>
<path d="M0 0 C0.9964535 -0.00282738 1.99290699 -0.00565475 3.01955605 -0.00856781 C8.26898064 -0.02337921 13.51837892 -0.03272816 18.76782227 -0.03710938 C24.15849281 -0.04264142 29.54891684 -0.06681931 34.93950939 -0.09508133 C39.12350689 -0.11372965 43.30744433 -0.11891396 47.49147987 -0.12044525 C49.47968237 -0.12345529 51.46788422 -0.1314275 53.45604515 -0.14463043 C56.23024935 -0.16177616 59.00383981 -0.15979271 61.77807617 -0.15332031 C62.58391647 -0.1625351 63.38975677 -0.17174988 64.22001648 -0.1812439 C70.50865486 -0.13552187 77.0870479 0.80382044 82.08203125 4.890625 C83.51814703 8.43304394 84.11010212 11.53617194 83.01953125 15.203125 C77.49668757 21.52205426 66.27562556 23.72366452 58.28826904 24.45227051 C50.28892283 24.89961374 42.27919411 24.91193878 34.26953125 24.953125 C31.65046159 24.97835126 29.03140214 25.00465893 26.41235352 25.03198242 C20.86169564 25.08647573 15.31110453 25.1239199 9.76025391 25.15185547 C3.81955672 25.18186144 -2.12062876 25.23145976 -8.06103516 25.29736328 C-15.59721403 25.3808976 -23.13329342 25.44158747 -30.6697998 25.48620605 C-33.56861411 25.50389147 -36.46716721 25.52995712 -39.36584473 25.56311035 C-43.43670616 25.60860758 -47.50701836 25.62022993 -51.578125 25.62890625 C-52.77464188 25.64635391 -53.97115875 25.66380157 -55.20393372 25.68177795 C-62.72085015 25.66270229 -69.22695443 24.67153623 -75.98046875 21.203125 C-78.66796875 18.453125 -78.66796875 18.453125 -79.98046875 16.203125 C-78.87638672 15.73132813 -78.87638672 15.73132813 -77.75 15.25 C-76.77417969 14.82203125 -75.79835937 14.3940625 -74.79296875 13.953125 C-73.83003906 13.53546875 -72.86710938 13.1178125 -71.875 12.6875 C-68.93694957 11.3277271 -68.93694957 11.3277271 -66.68359375 9.19921875 C-63.00739962 6.48457251 -59.30649292 5.61718353 -54.91796875 4.515625 C-54.11552734 4.30357422 -53.31308594 4.09152344 -52.48632812 3.87304688 C-50.32074261 3.30334513 -48.15229054 2.74849998 -45.98046875 2.203125 C-45.36101285 2.03400478 -44.74155695 1.86488457 -44.10332966 1.6906395 C-42.02478452 1.21330211 -40.11476572 1.00497114 -37.9875946 0.89385986 C-37.21189778 0.85293591 -36.43620096 0.81201195 -35.63699818 0.76984787 C-34.80119063 0.73139378 -33.96538309 0.69293968 -33.10424805 0.65332031 C-31.77979817 0.59036711 -31.77979817 0.59036711 -30.42859173 0.52614212 C-20.2876022 0.07944233 -10.14931279 0.01982447 0 0 Z " fill="#7F7F7F" transform="translate(236.98046875,225.796875)"/>
<path d="M0 0 C4.28946682 0.70265552 8.14702629 2.03265314 12.1875 3.625 C13.41855469 4.09164062 14.64960938 4.55828125 15.91796875 5.0390625 C19 7 19 7 20.28125 10.4453125 C20.5184375 11.61835938 20.755625 12.79140625 21 14 C21.72738558 15.43945778 22.49721566 16.85843976 23.3125 18.25 C30.27823748 32.28513176 31.46500644 45.8465912 31.4375 61.25 C31.43763092 62.02447479 31.43776184 62.79894958 31.43789673 63.59689331 C31.38109656 82.33276308 31.38109656 82.33276308 27.1796875 87.0390625 C14.56517555 95.71955717 0.68931185 97.83047322 -14.25 98.3125 C-15.09709534 98.3463681 -15.94419067 98.38023621 -16.81695557 98.41513062 C-38.19742964 99.26092985 -59.61669529 99.24098059 -81.010849 99.30282211 C-83.86341939 99.31246087 -86.71593582 99.32673964 -89.56848145 99.34194946 C-94.13740199 99.36471475 -98.70606635 99.37044759 -103.27503586 99.36383057 C-104.9762371 99.36347006 -106.67744792 99.3680171 -108.37862015 99.37796021 C-118.38819133 99.43091336 -127.27535198 98.66666362 -137 96 C-139.35164036 95.5439104 -141.68816753 95.2051853 -144.0625 94.875 C-149.70807465 94.07945549 -149.70807465 94.07945549 -151.9375 93.47265625 C-156.06509885 92.52674818 -160.37176482 92.59093803 -164.58984375 92.37890625 C-171.09865918 91.65570454 -174.45671913 89.27390648 -178.6171875 84.375 C-180.94895518 80.37015607 -180.57836699 76.48004907 -180 72 C-180.66 72 -181.32 72 -182 72 C-182.042721 70.33388095 -182.04063832 68.66617115 -182 67 C-181.505 66.505 -181.505 66.505 -181 66 C-180.53029612 63.90278712 -180.10011696 61.79668725 -179.6875 59.6875 C-176.98819133 46.89173872 -173.29879892 32.12796294 -162.6796875 23.4921875 C-157.76168179 20.75358957 -152.35456394 19.51090171 -146.92578125 18.140625 C-140.37025387 16.38968286 -137.67532121 13.63549252 -134 8 C-133.01 7.67 -132.02 7.34 -131 7 C-130.505 8.485 -130.505 8.485 -130 10 C-128.90300781 9.65066406 -127.80601562 9.30132812 -126.67578125 8.94140625 C-125.22139762 8.48163336 -123.76696811 8.02200559 -122.3125 7.5625 C-121.59126953 7.33240234 -120.87003906 7.10230469 -120.12695312 6.86523438 C-119.42119141 6.64287109 -118.71542969 6.42050781 -117.98828125 6.19140625 C-117.34415283 5.98717041 -116.70002441 5.78293457 -116.03637695 5.57250977 C-110.71033742 4.07513982 -105.51310788 3.70099222 -100.01269531 3.44360352 C-98.69326872 3.38033166 -98.69326872 3.38033166 -97.34718704 3.31578159 C-87.49689138 2.88091737 -77.65477269 2.8738297 -67.796875 2.90234375 C-65.8524784 2.90421578 -63.90808133 2.90563596 -61.96368408 2.90663147 C-56.92019275 2.91039498 -51.8767316 2.92017019 -46.83325195 2.93133545 C-41.65706795 2.94168454 -36.48087893 2.94615758 -31.3046875 2.95117188 C-21.20311195 2.96179998 -11.10155852 2.97879925 -1 3 C-0.67 2.01 -0.34 1.02 0 0 Z M-99.86254883 6.39331055 C-101.06244336 6.440195 -101.06244336 6.440195 -102.28657818 6.48802662 C-109.86702142 6.8690984 -116.78753258 8.61970678 -124 11 C-124.83273438 11.26039063 -125.66546875 11.52078125 -126.5234375 11.7890625 C-129.55215231 12.81364632 -131.88972495 13.91003877 -134.375 15.9375 C-138.1809649 18.92790099 -142.48253228 20.35090499 -147 22 C-144.06547736 27.03061024 -140.43569544 28.36296814 -135.18014526 30.17733765 C-129.66382282 31.60433875 -124.26473477 31.50839569 -118.59765625 31.42578125 C-117.31006912 31.42308228 -116.02248199 31.4203833 -114.69587708 31.41760254 C-111.20822196 31.40929274 -107.72126731 31.37557675 -104.23384857 31.3355751 C-100.57346175 31.29667587 -96.91295801 31.27727853 -93.25244141 31.25463867 C-87.19203018 31.2140219 -81.13195299 31.15655108 -75.07177734 31.08984375 C-68.43409186 31.01730081 -61.79690726 30.97745394 -55.15886593 30.9588747 C-49.02151865 30.94100179 -42.8846534 30.89713486 -36.74752808 30.84237671 C-34.19331476 30.82267085 -31.63903267 30.81032062 -29.08474731 30.80581665 C-5.18880649 31.00571646 -5.18880649 31.00571646 16 21 C16.58397687 17.65540519 16.82077341 16.12764413 16 13 C12.66276583 8.34809782 9.45548047 7.24071967 4 6 C0.99127818 5.73887239 -1.99582255 5.73621624 -5.0144043 5.75708008 C-5.89038269 5.75518173 -6.76636108 5.75328339 -7.66888428 5.75132751 C-10.55408808 5.7476358 -13.43903741 5.75831295 -16.32421875 5.76953125 C-18.35138418 5.77072555 -20.37855017 5.77117568 -22.40571594 5.7709198 C-26.65828921 5.77248266 -30.91077807 5.78074868 -35.16333008 5.79418945 C-40.55656847 5.81103765 -45.94971305 5.81500748 -51.34297466 5.81424427 C-55.53602459 5.81451945 -59.72905487 5.82005786 -63.92209816 5.82724571 C-65.90677556 5.83038326 -67.89145514 5.83238799 -69.87613487 5.83313942 C-79.87907103 5.84106299 -89.86829613 5.95250744 -99.86254883 6.39331055 Z M19 19 C18.62101562 19.91265625 18.62101562 19.91265625 18.234375 20.84375 C14.65826746 27.0906214 5.08353391 29.35318043 -1.42089844 31.1484375 C-11.602187 33.33059244 -22.39527365 32.69675531 -32.75 32.75 C-35.36906966 32.77522626 -37.98812911 32.80153393 -40.60717773 32.82885742 C-46.15783561 32.88335073 -51.70842672 32.9207949 -57.25927734 32.94873047 C-63.19997453 32.97873644 -69.14016001 33.02833476 -75.08056641 33.09423828 C-82.61674528 33.1777726 -90.15282467 33.23846247 -97.68933105 33.28308105 C-100.58814536 33.30076647 -103.48669846 33.32683212 -106.38537598 33.35998535 C-110.45623741 33.40548258 -114.52654961 33.41710493 -118.59765625 33.42578125 C-119.79417313 33.44322891 -120.99069 33.46067657 -122.22346497 33.47865295 C-130.25119234 33.45828101 -138.67312092 32.70889853 -145.01600647 27.27192688 C-145.54697433 26.72844101 -146.0779422 26.18495514 -146.625 25.625 C-148.59193037 23.775709 -149.46526601 23.04504032 -152.1796875 22.81640625 C-157.30324039 23.63582969 -160.88217048 25.79285502 -164.30859375 29.640625 C-170.95735691 38.91511218 -175.0675405 49.78889308 -177 61 C-176.67 61.99 -176.34 62.98 -176 64 C-175.07960937 63.566875 -174.15921875 63.13375 -173.2109375 62.6875 C-168.1762285 60.53518085 -162.93239371 59.29551875 -157.625 58 C-156.55644775 57.73872314 -155.48789551 57.47744629 -154.38696289 57.20825195 C-142.11093258 54.25289425 -130.25287582 51.94593228 -117.609375 51.45703125 C-116.61737595 51.41634521 -115.62537689 51.37565918 -114.60331726 51.33374023 C-101.54099284 50.82680893 -88.47052501 50.64789391 -75.40063477 50.44775391 C-72.10685493 50.39617399 -68.81320745 50.33901965 -65.51953125 50.28125 C-64.51863968 50.26767456 -63.51774811 50.25409912 -62.48652649 50.2401123 C-61.56002792 50.22339478 -60.63352936 50.20667725 -59.67895508 50.18945312 C-58.86896561 50.17692505 -58.05897614 50.16439697 -57.22444153 50.15148926 C-55.03100946 50.00211181 -53.12240104 49.54905834 -51 49 C-48.48658616 48.89362819 -46.00175354 48.83605677 -43.48828125 48.83203125 C-42.76062057 48.82870285 -42.0329599 48.82537445 -41.2832489 48.82194519 C-39.74425893 48.81689095 -38.20525803 48.8145364 -36.66625977 48.81469727 C-34.33786382 48.81252368 -32.00995203 48.79438819 -29.68164062 48.77539062 C-22.22454812 48.74668252 -15.21118393 48.90965158 -8 51 C-6.72898437 51.27199219 -5.45796875 51.54398437 -4.1484375 51.82421875 C4.40055688 53.78004459 11.94904599 56.49428545 19.79296875 60.4140625 C22.49681941 61.7511677 25.18306307 62.92839688 28 64 C28.69154699 53.02489307 28.00056694 43.17191429 25.1875 32.5 C24.79667236 31.00521118 24.79667236 31.00521118 24.39794922 29.48022461 C22.83487257 23.58137778 22.83487257 23.58137778 19 19 Z M-52.92230225 51.49624634 C-55.23657957 52.05736052 -57.31439877 52.15277177 -59.69482422 52.18945312 C-60.62455048 52.20617065 -61.55427673 52.22288818 -62.51217651 52.2401123 C-63.51620514 52.25368774 -64.52023376 52.26726318 -65.5546875 52.28125 C-66.60665314 52.29965942 -67.65861877 52.31806885 -68.74246216 52.33703613 C-72.11991809 52.39573278 -75.49742883 52.44839353 -78.875 52.5 C-109.94735867 52.46544626 -109.94735867 52.46544626 -140.6875 56.25 C-141.810354 56.46962402 -142.93320801 56.68924805 -144.09008789 56.91552734 C-151.07984133 58.31537106 -158.02960656 59.86462978 -164.9375 61.625 C-166.09028442 61.91552246 -166.09028442 61.91552246 -167.26635742 62.21191406 C-172.69776077 63.63108317 -172.69776077 63.63108317 -177 67 C-178.18032484 72.29335863 -178.22251069 77.78482396 -175.56640625 82.59765625 C-172.68953064 86.00659918 -170.51188651 88.33127396 -166 89 C-163.75203467 89.1744111 -161.50150204 89.31705939 -159.25 89.4375 C-154.67799011 89.73884772 -150.50946507 90.19080046 -146.12109375 91.46484375 C-142.25418468 92.44047274 -138.29025673 92.89045946 -134.34375 93.4375 C-131 94 -131 94 -127.26985168 95.01898193 C-123.25064115 96.03295025 -119.49568852 96.25366735 -115.33862305 96.25878906 C-114.61569596 96.26223422 -113.89276888 96.26567938 -113.14793491 96.26922894 C-110.76910214 96.27783861 -108.39055478 96.27203545 -106.01171875 96.265625 C-104.32289533 96.26786839 -102.63407268 96.27077654 -100.94525146 96.27430725 C-96.4517702 96.28019592 -91.95843819 96.27174331 -87.46497726 96.25815201 C-84.68678613 96.2499979 -81.90860017 96.24453058 -79.13040161 96.23959351 C-58.23005873 96.19713438 -37.32358028 96.15260386 -16.4375 95.3125 C-15.62018402 95.28619507 -14.80286804 95.25989014 -13.96078491 95.23278809 C-0.68622926 94.77753371 16.15616537 92.94154019 26 83 C28.43528138 77.83720346 28.22885982 72.6070656 28 67 C14.812265 60.04537379 1.95876412 55.00968286 -12.796875 52.578125 C-16 52 -16 52 -18 51 C-20.43421118 50.90135098 -22.8391176 50.8601376 -25.2734375 50.8671875 C-25.99359039 50.86623077 -26.71374329 50.86527405 -27.45571899 50.86428833 C-28.98057136 50.8636074 -30.50542663 50.86545564 -32.03027344 50.86962891 C-34.35879076 50.87496287 -36.68711382 50.86968909 -39.015625 50.86328125 C-40.49739626 50.86394235 -41.9791674 50.86522418 -43.4609375 50.8671875 C-44.5033107 50.86415115 -44.5033107 50.86415115 -45.56674194 50.86105347 C-49.27921413 50.86825142 -49.27921413 50.86825142 -52.92230225 51.49624634 Z " fill="#020202" transform="translate(304,220)"/>
<path d="M0 0 C4.72268907 4.3871975 5.25378672 9.78155601 6 16 C8.9156164 12.45960866 11.50127818 8.8373228 14 5 C16.65927684 7.65927684 17.1810914 10.59408266 18.125 14.125 C18.30675781 14.78371094 18.48851562 15.44242188 18.67578125 16.12109375 C19.12315437 17.74576456 19.56236535 19.37267893 20 21 C20.66 21 21.32 21 22 21 C23.28006797 19.21601386 24.47660351 17.37146094 25.625 15.5 C26.57246094 13.96859375 26.57246094 13.96859375 27.5390625 12.40625 C28.02117187 11.6121875 28.50328125 10.818125 29 10 C35.18335192 14.51217573 35.69892854 20.77535116 37 28 C37.66 28 38.32 28 39 28 C40.63676257 26.0399719 40.63676257 26.0399719 42 24 C42.48198463 25.24891614 42.96045677 26.49918808 43.4375 27.75 C43.70433594 28.44609375 43.97117187 29.1421875 44.24609375 29.859375 C45 32 45 32 45.47265625 34.203125 C45.73369141 35.09257813 45.73369141 35.09257813 46 36 C46.66 36.33 47.32 36.66 48 37 C47.67 38.65 47.34 40.3 47 42 C46.34644531 41.43732422 46.34644531 41.43732422 45.6796875 40.86328125 C44.43007371 39.78947893 43.17724629 38.71940934 41.921875 37.65234375 C40.2974065 36.25569705 38.70706965 34.81949837 37.125 33.375 C26.4294082 25.24635023 13.96113956 24.43002617 1 24 C0.05866211 23.96600098 -0.88267578 23.93200195 -1.85253906 23.89697266 C-20.19927794 23.31458343 -36.55345977 24.10505534 -50.75 37.25 C-58.74273726 45.89941755 -61.89101261 55.9121954 -65 67 C-70.80645536 58.29031695 -69.25571651 46.02597869 -68.4140625 36.06640625 C-68 34 -68 34 -66 32 C-65.67 32.66 -65.34 33.32 -65 34 C-64.34 34 -63.68 34 -63 34 C-61.02 28.555 -61.02 28.555 -59 23 C-58.01 23.33 -57.02 23.66 -56 24 C-55.87882813 23.37351562 -55.75765625 22.74703125 -55.6328125 22.1015625 C-55.46523437 21.28429687 -55.29765625 20.46703125 -55.125 19.625 C-54.88136719 18.40683594 -54.88136719 18.40683594 -54.6328125 17.1640625 C-54 15 -54 15 -52 13 C-51.34 15.31 -50.68 17.62 -50 20 C-45.4434473 16.28725335 -43.42599607 11.20992598 -41 6 C-40.34 6 -39.68 6 -39 6 C-38.01 9.63 -37.02 13.26 -36 17 C-31.79039294 15.59679765 -30.52644045 12.54971864 -28.3125 8.9375 C-27.89677734 8.27427734 -27.48105469 7.61105469 -27.05273438 6.92773438 C-26.02759346 5.28986556 -25.01279732 3.64553023 -24 2 C-21.50494038 4.49505962 -21.64051624 5.67328888 -21.375 9.125 C-21.30023438 10.03507812 -21.22546875 10.94515625 -21.1484375 11.8828125 C-21.09945312 12.58148438 -21.05046875 13.28015625 -21 14 C-18.77174356 11.77174356 -18.30760631 10.34238372 -17.375 7.375 C-17.11460937 6.55773438 -16.85421875 5.74046875 -16.5859375 4.8984375 C-16.39257812 4.27195312 -16.19921875 3.64546875 -16 3 C-13.65085508 5.34914492 -13.26859643 6.95679446 -12.375 10.125 C-11.98441406 11.49011719 -11.98441406 11.49011719 -11.5859375 12.8828125 C-11.29589844 13.93082031 -11.29589844 13.93082031 -11 15 C-6.12694031 10.70024145 -3.1799558 5.62775683 0 0 Z " fill="#828282" transform="translate(228,39)"/>
<path d="M0 0 C0.99 0 1.98 0 3 0 C3 0.66 3 1.32 3 2 C4.134375 2 5.26875 2 6.4375 2 C12.32344815 2.69370103 16.19057781 6.715442 20 11 C21.28317892 14.84953676 21.06643637 17.94738135 21 22 C18.78125 22.69140625 18.78125 22.69140625 16 23 C9.53176982 19.53329444 3.53329924 13.65071249 0.6875 6.875 C0 4 0 4 0 0 Z " fill="#0C0C0C" transform="translate(251,95)"/>
<path d="M0 0 C0.70703125 1.703125 0.70703125 1.703125 1 4 C-0.36328125 6.359375 -0.36328125 6.359375 -2.3125 8.75 C-3.26576172 9.94882813 -3.26576172 9.94882813 -4.23828125 11.171875 C-4.81964844 11.77515625 -5.40101563 12.3784375 -6 13 C-6.66 13 -7.32 13 -8 13 C-8 13.66 -8 14.32 -8 15 C-8.99 15.33 -9.98 15.66 -11 16 C-10.45986777 11.87601744 -9.22091818 9.53822955 -6.625 6.3125 C-6.01914062 5.54550781 -5.41328125 4.77851562 -4.7890625 3.98828125 C-3 2 -3 2 0 0 Z " fill="#0E0B0B" transform="translate(302,83)"/>
<path d="M0 0 C1.875 0.75 1.875 0.75 2.875 1.75 C3.125 4.1875 3.125 4.1875 2.875 6.75 C-0.125 8.75 -0.125 8.75 -2.3125 8.375 C-2.910625 8.16875 -3.50875 7.9625 -4.125 7.75 C-4.8125 5.4375 -4.8125 5.4375 -5.125 2.75 C-3.57413519 0.30126608 -2.92569791 -0.34419975 0 0 Z " fill="#030303" transform="translate(308.125,141.25)"/>
<path d="M0 0 C0.99 0.33 1.98 0.66 3 1 C2.814375 1.598125 2.62875 2.19625 2.4375 2.8125 C1.77906313 5.16408762 1.77906313 5.16408762 3 8 C0.03 8.66 -2.94 9.32 -6 10 C-4.6302836 6.00499382 -2.74277578 3.19990508 0 0 Z " fill="#858485" transform="translate(180,220)"/>
<path d="M0 0 C0.66 0 1.32 0 2 0 C2.66 2.97 3.32 5.94 4 9 C1.69 8.67 -0.62 8.34 -3 8 C-1.125 1.125 -1.125 1.125 0 0 Z " fill="#939292" transform="translate(187,45)"/>
<path d="M0 0 C2.3129482 2.3129482 2.49580975 3.47904875 3.125 6.625 C3.29257813 7.44226562 3.46015625 8.25953125 3.6328125 9.1015625 C3.81457031 10.04128906 3.81457031 10.04128906 4 11 C2.02 10.01 0.04 9.02 -2 8 C-1.125 2.25 -1.125 2.25 0 0 Z " fill="#8E8E8E" transform="translate(212,42)"/>
<path d="M0 0 C0.8971875 0.7734375 0.8971875 0.7734375 1.8125 1.5625 C2.534375 2.036875 3.25625 2.51125 4 3 C4.99 2.67 5.98 2.34 7 2 C6.34 3.65 5.68 5.3 5 7 C3.68 7 2.36 7 1 7 C0.67 4.69 0.34 2.38 0 0 Z " fill="#050304" transform="translate(246,53)"/>
<path d="M0 0 C2.7839183 1.39195915 2.97898997 3.15575779 4 6 C1 8 1 8 -2 8 C-1.125 2.25 -1.125 2.25 0 0 Z " fill="#8C8B8B" transform="translate(169,62)"/>
<path d="M0 0 C0.66 0.33 1.32 0.66 2 1 C2.59355614 3.64860427 2.74209269 6.29197322 3 9 C1.68 8.34 0.36 7.68 -1 7 C-1.04254356 5.00045254 -1.04080783 2.99958364 -1 1 C-0.67 0.67 -0.34 0.34 0 0 Z " fill="#E5E5E5" transform="translate(266,106)"/>
<path d="M0 0 C2.31 0.33 4.62 0.66 7 1 C7 1.99 7 2.98 7 4 C3.94736336 4.98120464 2.05263664 4.98120464 -1 4 C-0.67 2.68 -0.34 1.36 0 0 Z " fill="#878787" transform="translate(242,66)"/>
<path d="M0 0 C0.99 0.33 1.98 0.66 3 1 C3.33 3.31 3.66 5.62 4 8 C3.01 8.33 2.02 8.66 1 9 C0.67 6.03 0.34 3.06 0 0 Z " fill="#070404" transform="translate(261,50)"/>
<path d="M0 0 C-0.66 1.98 -1.32 3.96 -2 6 C-2.99 5.67 -3.98 5.34 -5 5 C-5.6875 2.9375 -5.6875 2.9375 -6 1 C-3.92446352 0.4465236 -2.15634036 0 0 0 Z " fill="#878787" transform="translate(149,280)"/>
<path d="M0 0 C-0.33 0.99 -0.66 1.98 -1 3 C-0.34 3.33 0.32 3.66 1 4 C0.01 4.33 -0.98 4.66 -2 5 C-3.32 3.35 -4.64 1.7 -6 0 C-3.50907189 -1.24546405 -2.58919267 -0.7767578 0 0 Z " fill="#8A8A8A" transform="translate(163,242)"/>
<path d="M0 0 C1.231394 2.46278801 1.07159196 4.2795055 1 7 C-0.65 6.67 -2.3 6.34 -4 6 C-2.84826645 3.53199953 -1.95216435 1.95216435 0 0 Z " fill="#959595" transform="translate(179,78)"/>
<path d="M0 0 C1.5 1.375 1.5 1.375 3 3 C3 3.66 3 4.32 3 5 C1.02 5.33 -0.96 5.66 -3 6 C-2.01 4.02 -1.02 2.04 0 0 Z " fill="#9D9D9D" transform="translate(323,239)"/>
<path d="M0 0 C0.66 0.33 1.32 0.66 2 1 C1.67 2.98 1.34 4.96 1 7 C0.34 7 -0.32 7 -1 7 C-1.33 7.66 -1.66 8.32 -2 9 C-1.125 2.25 -1.125 2.25 0 0 Z " fill="#8F8E8F" transform="translate(175,52)"/>
<path d="M0 0 C0.6875 1.8125 0.6875 1.8125 1 4 C-0.4375 5.75 -0.4375 5.75 -2 7 C-2.66 5.68 -3.32 4.36 -4 3 C-2.68 2.01 -1.36 1.02 0 0 Z " fill="#110E0E" transform="translate(302,83)"/>
</svg>
