<?xml version="1.0" encoding="UTF-8"?>
<svg version="1.1" xmlns="http://www.w3.org/2000/svg" width="491" height="394">
<path d="M0 0 C2.29331338 0.22193355 3.74324806 0.83834137 5.6875 2.0625 C7.78620286 5.16058518 7.69694743 8.3027586 8 12 C11.24732932 10.37633534 11.70155136 7.24612161 13 4 C17 4 17 4 18.6875 5.5 C20.52591496 9.00174278 20.67212164 12.0654597 21 16 C21.99 16 22.98 16 24 16 C25.46090788 14.4645122 25.46090788 14.4645122 26.6875 12.5 C27.12449219 11.8503125 27.56148437 11.200625 28.01171875 10.53125 C28.33785156 10.0259375 28.66398438 9.520625 29 9 C31.3125 9.1875 31.3125 9.1875 34 10 C37.04833319 13.70154745 37.53992345 17.3072192 38 22 C39.0725 21.979375 40.145 21.95875 41.25 21.9375 C45 23 45 23 46.35546875 25.0703125 C47.34791864 27.35617182 48.2293813 29.63070647 49 32 C49.721875 31.484375 50.44375 30.96875 51.1875 30.4375 C54.48217259 28.75355623 55.53318353 29.12018607 59 30 C68.67087132 17.41188394 68.67087132 17.41188394 75 3 C76.32 3 77.64 3 79 3 C79.33 3.99 79.66 4.98 80 6 C79.69771484 6.54148682 79.39542969 7.08297363 79.08398438 7.64086914 C77.43796016 11.22319616 77.68127464 14.8729816 77.65625 18.74609375 C77.6343158 20.01828514 77.6343158 20.01828514 77.61193848 21.31617737 C77.56550515 24.0232373 77.53127017 26.730225 77.5 29.4375 C77.45878299 32.99896639 77.40507994 36.55992323 77.34375 40.12109375 C77.3384729 40.9358165 77.3331958 41.75053925 77.32775879 42.58995056 C77.25357141 46.83469941 76.94930948 50.12521242 75 54 C74.34 54 73.68 54 73 54 C72.835 54.680625 72.67 55.36125 72.5 56.0625 C70.2823247 60.40544746 66.71681845 62.92958476 63 66 C60.55789478 68.01917822 60.55789478 68.01917822 59 70 C59 71.32 59 72.64 59 74 C59.804375 74.20625 60.60875 74.4125 61.4375 74.625 C62.283125 75.07875 63.12875 75.5325 64 76 C65.16028101 80.58587254 65.12171872 85.17394456 65.0625 89.875 C65.05798828 90.56335938 65.05347656 91.25171875 65.04882812 91.9609375 C65.03716336 93.64066335 65.01923271 95.32034375 65 97 C68.71684766 96.50590408 72.19418596 95.9458826 75.8125 94.9375 C80.42859968 93.7474118 85.27522717 93.21953131 90 94 C93.61169041 96.34294671 94.10217536 99.98449987 95 104 C95.27566968 106.63966722 95.48427667 109.28721063 95.625 111.9375 C95.66367187 112.62134766 95.70234375 113.30519531 95.7421875 114.00976562 C95.83522412 115.67279513 95.91863787 117.33635847 96 119 C95.34 119 94.68 119 94 119 C93.6596875 120.36125 93.6596875 120.36125 93.3125 121.75 C91.33354882 126.65026007 88.45894187 128.27769831 83.8203125 130.57421875 C79.96585445 132.18936736 76.20708609 132.51025894 72.0625 132.625 C66.66006874 132.86337917 61.35329285 133.21931146 56 134 C56 133.34 56 132.68 56 132 C55.43152344 132.02320313 54.86304688 132.04640625 54.27734375 132.0703125 C50.35046184 132.16209271 46.88964859 132.13864056 43.125 130.9375 C40.01104291 129.67660047 40.01104291 129.67660047 37 131 C37.25220024 134.02640286 37.58040984 136.99436435 38 140 C38.12632812 140.90492188 38.25265625 141.80984375 38.3828125 142.7421875 C40.59510649 154.23988441 46.86122307 164.53900696 56.50292969 171.25048828 C59.04059863 172.88953291 61.61913379 174.44244456 64.23388672 175.95507812 C66.73642332 177.43570525 69.10239278 179.10633484 71.5 180.75 C76.93871599 184.20951408 82.70555448 186.48320295 88.71484375 188.73828125 C94.15392003 190.82724872 94.15392003 190.82724872 96 192 C96.49954437 193.66514791 96.98654712 195.33615707 97.37988281 197.02954102 C98.07210037 199.22910318 99.05347975 200.75660086 100.359375 202.65234375 C108.69150974 215.71717905 109.56204901 231.37328748 109.5 246.4375 C109.49753769 247.51920975 109.49753769 247.51920975 109.49502563 248.62277222 C109.45109453 255.68080168 109.34839173 262.24766237 107 269 C104.86328125 271.109375 104.86328125 271.109375 102.3125 272.75 C101.41917969 273.32621094 100.52585937 273.90242188 99.60546875 274.49609375 C96.45753075 276.31311943 93.39631361 277.70940083 90 279 C89.34 279.37125 88.68 279.7425 88 280.125 C63.49585322 290.84556422 21.97477545 284.24785472 -4.55085754 284.30460739 C-7.36511696 284.31247238 -10.17930009 284.32593893 -12.99353027 284.34085083 C-17.50465914 284.3635651 -22.01553508 284.36968298 -26.52671432 284.3635788 C-28.20580091 284.36338358 -29.88489653 284.36803616 -31.5639534 284.37802887 C-40.49170269 284.42587305 -48.63141096 284.05650215 -57.32369995 281.71138 C-61.09750643 280.70827481 -64.87342838 280.26727213 -68.75 279.875 C-75.87732919 279.12267081 -75.87732919 279.12267081 -77 278 C-80.09327022 277.79629684 -83.17876629 277.65389648 -86.27734375 277.5703125 C-92.33106629 277.28487175 -96.13246901 275.36215848 -100.1875 270.9375 C-104.63542859 265.55196178 -105.27530302 258.79786692 -105 252 C-104.7132589 250.32468856 -104.37789732 248.65713081 -104 247 C-103.80921875 246.11183594 -103.6184375 245.22367188 -103.421875 244.30859375 C-101.67285499 236.83458381 -99.22973462 229.96080117 -96 223 C-95.61972656 222.17242187 -95.23945313 221.34484375 -94.84765625 220.4921875 C-91.34025216 213.52461708 -86.36424877 208.09558252 -79 205.1875 C-76.32118684 204.31557258 -73.6221355 203.67877755 -70.875 203.0625 C-57.55091627 199.87517017 -49.74393156 182.62509604 -43.0625 171.75 C-36.84264846 160.70389574 -34.88474257 147.8280328 -37.57421875 135.33203125 C-38.05466568 133.93644732 -38.57271625 132.55306799 -39.1328125 131.1875 C-40.23619679 128.40418828 -40.95500309 125.58958301 -41.6875 122.6875 C-41.93886719 121.70136719 -42.19023437 120.71523437 -42.44921875 119.69921875 C-43 117 -43 117 -43 113 C-43.99 112.505 -43.99 112.505 -45 112 C-45.95888192 110.65409947 -46.86862287 109.27288309 -47.75 107.875 C-50.20228234 104.08785461 -52.84284949 100.72429402 -55.8984375 97.41015625 C-57 96 -57 96 -57 94 C-57.556875 93.773125 -58.11375 93.54625 -58.6875 93.3125 C-61.8355962 91.5257427 -63.79525985 89.89765848 -66 87 C-66.1285806 84.11229411 -65.63051833 81.86158318 -65 79 C-65.66 79 -66.32 79 -67 79 C-67.12375 78.484375 -67.2475 77.96875 -67.375 77.4375 C-67.87966499 75.46930655 -68.4324403 73.51348647 -69 71.5625 C-70.73328966 65.38765559 -71.33695538 59.5095861 -71.6875 53.125 C-71.74744141 52.25230469 -71.80738281 51.37960938 -71.86914062 50.48046875 C-72.16268915 45.13225585 -71.7868638 41.05317398 -70 36 C-69.62875 34.865625 -69.2575 33.73125 -68.875 32.5625 C-68.58625 31.716875 -68.2975 30.87125 -68 30 C-66.02 30 -64.04 30 -62 30 C-61.34 27.03 -60.68 24.06 -60 21 C-58.68 20.67 -57.36 20.34 -56 20 C-55.34 17.69 -54.68 15.38 -54 13 C-49.25 13.75 -49.25 13.75 -47 16 C-46.59007812 15.14535156 -46.18015625 14.29070313 -45.7578125 13.41015625 C-45.21898437 12.30542969 -44.68015625 11.20070313 -44.125 10.0625 C-43.59132812 8.96035156 -43.05765625 7.85820313 -42.5078125 6.72265625 C-41 4 -41 4 -39 3 C-35.87729874 5.51830747 -35.05476902 6.7261549 -34.25 10.75 C-34.1675 11.8225 -34.085 12.895 -34 14 C-30.11024581 10.40945767 -27.10267805 6.26101118 -24 2 C-22.63875 2.309375 -22.63875 2.309375 -21.25 2.625 C-17.88972103 3.0127245 -16.75924185 2.80411967 -14 1 C-13.401875 1.78375 -12.80375 2.5675 -12.1875 3.375 C-10.08914751 6.14574323 -10.08914751 6.14574323 -7 8 C-6.67 7.34 -6.34 6.68 -6 6 C-5.34 6 -4.68 6 -4 6 C-3.71125 5.38125 -3.4225 4.7625 -3.125 4.125 C-2 2 -2 2 0 0 Z M-23 6 C-22 8 -22 8 -22 8 Z M54 35 C55 37 55 37 55 37 Z " fill="#060606" transform="translate(227,35)"/>
<path d="M0 0 C0.33 0 0.66 0 1 0 C1.17501796 4.08888118 1.30096671 8.17626986 1.38452148 12.26806641 C1.41940004 13.65517208 1.46692532 15.0420267 1.52807617 16.42822266 C1.90277008 25.15008922 1.29217274 31.30522484 -4.28881836 38.36181641 C-6 40 -6 40 -8 40 C-8.33 40.99 -8.66 41.98 -9 43 C-10.84765625 44.359375 -10.84765625 44.359375 -13.0625 45.75 C-16.64211184 48.3023718 -16.64211184 48.3023718 -17.6875 52.6875 C-17.0017309 55.99166022 -16.71548234 57.12005069 -14 59 C-13.34 59.33 -12.68 59.66 -12 60 C-10.83166258 64.77622216 -10.88013048 69.49417737 -10.9375 74.375 C-10.94201172 75.11105469 -10.94652344 75.84710938 -10.95117188 76.60546875 C-10.96284858 78.40368158 -10.98077989 80.20185197 -11 82 C-4.62750465 82.31340141 0.36899585 81.49275475 6.46875 79.66796875 C9.37833296 78.90016213 12.00333552 78.7570272 15 79 C18.72454976 86.12522563 19.80575215 91.95415612 19 100 C16.49468362 105.74135005 12.57203277 107.76889858 7 110 C1.73073795 111.75642068 -3.85969988 111.26989984 -9.375 111.3125 C-11.19451172 111.35600586 -11.19451172 111.35600586 -13.05078125 111.40039062 C-23.50674728 111.47292401 -34.44419335 110.22882262 -42.5625 103 C-43.32691406 102.34 -44.09132813 101.68 -44.87890625 101 C-46.96001894 99.03769853 -48.99347275 97.03837689 -51 95 C-51.99 95.495 -51.99 95.495 -53 96 C-50.28179273 99.54190644 -48.12619004 102.02019171 -44.25 104.25 C-42.03542463 105.75083889 -41.11692007 106.44504769 -40.55615234 109.10668945 C-40.52473145 109.91323975 -40.49331055 110.71979004 -40.4609375 111.55078125 C-40.07924668 116.93242704 -38.93777005 121.78503058 -37.375 126.9375 C-37.11211182 127.80705322 -36.84922363 128.67660645 -36.57836914 129.57250977 C-30.77053177 147.82060188 -17.98067172 156.35466397 -2.47094727 166.06738281 C-0.96430336 167.01956337 0.520318 168.00643831 2 169 C2 169.33 2 169.66 2 170 C0.43170441 170.0154612 0.43170441 170.0154612 -1.16827393 170.03123474 C-11.11020503 170.12977333 -21.05208462 170.23256898 -30.99393082 170.33933926 C-36.10286895 170.39407501 -41.21181304 170.44740528 -46.32080078 170.49731445 C-51.26811515 170.54569946 -56.21537425 170.59804916 -61.16262054 170.65294075 C-63.03285054 170.67303471 -64.90309547 170.69179361 -66.77335358 170.70907402 C-76.45031234 170.79938947 -86.11912575 170.97761017 -95.78808594 171.39477539 C-96.59097172 171.42442855 -97.3938575 171.45408171 -98.22107315 171.48463345 C-104.73362599 171.79971878 -110.593064 173.14595193 -116.8359375 175.0625 C-119.88685459 175.96647544 -122.85423426 176.54381645 -126 177 C-125.38125 176.03513672 -125.38125 176.03513672 -124.75 175.05078125 C-123.51906994 173.12470542 -122.29436311 171.19464521 -121.07421875 169.26171875 C-119.70248846 167.10466641 -118.30946458 164.96099401 -116.89453125 162.83203125 C-107.72065824 148.70116869 -104.74749422 134.68972459 -107 118 C-109.33165066 107.13592664 -112.14447065 94.94370783 -119 86 C-119.78914583 84.91542521 -120.57820429 83.83078685 -121.3671875 82.74609375 C-122.20106151 81.64166814 -123.03701741 80.53881148 -123.875 79.4375 C-124.48794922 78.61088867 -124.48794922 78.61088867 -125.11328125 77.76757812 C-127.29698351 74.90019338 -129.39743199 72.60559705 -132.28125 70.4296875 C-135 68 -135 68 -135.7265625 65.44921875 C-135.25902653 52.73583693 -132.71453889 40.36699536 -125 30 C-124.49855469 29.29488281 -123.99710938 28.58976562 -123.48046875 27.86328125 C-117.13017773 19.75159565 -107.65590543 14.56648633 -97.6484375 12.42578125 C-89.12948173 11.43159905 -80.55702618 11.74887671 -72 12 C-71.22978516 12.01546875 -70.45957031 12.0309375 -69.66601562 12.046875 C-53.94203465 12.38963208 -41.64353587 15.24824193 -30.32324219 26.45556641 C-28.08183848 29.07164018 -26.58428834 31.94891839 -25 35 C-24.34 35 -23.68 35 -23 35 C-22.525625 33.783125 -22.05125 32.56625 -21.5625 31.3125 C-16.88484661 20.80425049 -8.21248215 8.21248215 0 0 Z " fill="#F9F9F9" transform="translate(300,53)"/>
<path d="M0 0 C2.18355204 -0.00217269 4.36658698 -0.02030714 6.55004883 -0.03930664 C13.78005767 -0.06895734 20.52431252 0.1946502 27.52075195 2.18530273 C28.79176758 2.45729492 30.0627832 2.72928711 31.37231445 3.00952148 C41.16070338 5.24889411 49.56844417 8.62449345 58.52075195 13.18530273 C59.65254883 13.75120117 60.7843457 14.31709961 61.95043945 14.90014648 C62.79864258 15.32424805 63.6468457 15.74834961 64.52075195 16.18530273 C64.74961177 21.79236834 64.95603334 27.0225062 62.52075195 32.18530273 C52.00080618 42.80966484 34.14313121 44.04705124 20.08325195 44.49780273 C19.23165497 44.53167084 18.38005798 44.56553894 17.50265503 44.60043335 C-3.36735382 45.42372776 -24.27295982 45.42549235 -45.15636063 45.48812485 C-47.906178 45.49776568 -50.6559395 45.51204392 -53.4057312 45.5272522 C-57.80585788 45.54999764 -62.20571857 45.5557558 -66.605896 45.5491333 C-68.2436489 45.54877264 -69.88141173 45.55332407 -71.51913452 45.56326294 C-80.93373388 45.61498949 -89.3893728 44.88813053 -98.47924805 42.18530273 C-100.80537264 41.76791344 -103.13800136 41.38222415 -105.47924805 41.06030273 C-111.20056688 40.26100084 -111.20056688 40.26100084 -113.4206543 39.65795898 C-117.54634977 38.71069304 -121.85261604 38.77616017 -126.0690918 38.56420898 C-131.97667079 37.90781132 -135.58263218 36.02877433 -139.29956055 31.45483398 C-141.59460251 27.03953802 -141.68368146 21.95593565 -140.47924805 17.18530273 C-136.37935657 12.38774065 -130.43323315 11.55625085 -124.54174805 10.18530273 C-123.47778809 9.93111572 -122.41382813 9.67692871 -121.31762695 9.41503906 C-107.45539814 6.16463499 -93.69874846 3.13664407 -79.43237305 2.61108398 C-78.49813507 2.57265381 -77.56389709 2.53422363 -76.60134888 2.49462891 C-63.71827574 1.99594813 -50.82526371 1.83001196 -37.93481445 1.63305664 C-34.63444325 1.58146615 -31.33420376 1.52430751 -28.03393555 1.46655273 C-27.02990692 1.45297729 -26.0258783 1.43940186 -24.99142456 1.42541504 C-24.0616983 1.40869751 -23.13197205 1.39197998 -22.17407227 1.37475586 C-21.36106659 1.36222778 -20.54806091 1.34969971 -19.7104187 1.33679199 C-0.02178519 -0.00000243 -0.02178519 -0.00000243 0 0 Z " fill="#F9F9F9" transform="translate(267.479248046875,270.814697265625)"/>
<path d="M0 0 C4.04899635 3.53695686 4.8040557 7.9615934 6.1875 13 C6.45578613 13.9708252 6.72407227 14.94165039 7.00048828 15.94189453 C9.41716205 25.3799646 9.60307115 34.32852566 9 44 C7.92621094 43.52949219 6.85242188 43.05898438 5.74609375 42.57421875 C4.30990209 41.94529822 2.87370382 41.31639277 1.4375 40.6875 C0.73302734 40.37876953 0.02855469 40.07003906 -0.69726562 39.75195312 C-2.11315566 39.13209343 -3.52982797 38.51401762 -4.94726562 37.89770508 C-6.8467953 37.06699972 -8.73824477 36.21788341 -10.62890625 35.3671875 C-13.8809218 34.04829359 -16.94980035 33.17751227 -20.375 32.4375 C-21.41398438 32.20933594 -22.45296875 31.98117187 -23.5234375 31.74609375 C-24.67070312 31.49988281 -25.81796875 31.25367188 -27 31 C-28.26457031 30.64421875 -29.52914062 30.2884375 -30.83203125 29.921875 C-37.44618824 28.45198475 -44.24649398 28.73920261 -50.9855957 28.79418945 C-53.32449113 28.81259436 -55.66299235 28.81469761 -58.00195312 28.81445312 C-59.49739925 28.81936436 -60.99284271 28.82519095 -62.48828125 28.83203125 C-63.18311111 28.83314407 -63.87794098 28.8342569 -64.59382629 28.83540344 C-68.29286956 28.86283913 -68.29286956 28.86283913 -71.92208862 29.49723816 C-74.23125468 30.05595331 -76.30409563 30.15272126 -78.67895508 30.18945312 C-79.60545364 30.20617065 -80.53195221 30.22288818 -81.48652649 30.2401123 C-82.98786385 30.26047546 -82.98786385 30.26047546 -84.51953125 30.28125 C-85.56912521 30.29965942 -86.61871918 30.31806885 -87.70011902 30.33703613 C-91.07085587 30.39573106 -94.4416479 30.44838194 -97.8125 30.5 C-129.14996057 30.33541728 -129.14996057 30.33541728 -160.125 34.1875 C-161.18976563 34.4030957 -162.25453125 34.61869141 -163.3515625 34.84082031 C-180.09977822 38.08344798 -180.09977822 38.08344798 -196 44 C-193.44571852 30.27073705 -189.41714906 17.69437373 -180 7 C-175.94564644 4.4439945 -172.78922034 3.18481356 -168 4 C-167.278125 4.7425 -166.55625 5.485 -165.8125 6.25 C-159.30027979 12.61750421 -150.68244046 13.45717444 -141.91856384 13.47865295 C-140.05815208 13.45248146 -140.05815208 13.45248146 -138.16015625 13.42578125 C-136.8145441 13.42133088 -135.4689253 13.418607 -134.12330627 13.41746521 C-130.51720936 13.40905344 -126.91178545 13.37527063 -123.30591583 13.33537292 C-120.29256478 13.30465006 -117.27919676 13.28728763 -114.26574326 13.27000237 C-106.48806099 13.22535404 -98.71088708 13.15308702 -90.93354416 13.06886101 C-84.95859678 13.00577315 -78.98375317 12.96782884 -73.00855923 12.93794918 C-66.83978027 12.90611798 -60.67142079 12.85189394 -54.50289917 12.78744507 C-51.94185173 12.76271555 -49.38074338 12.74358389 -46.8196106 12.7303772 C-23.79510232 12.92050007 -23.79510232 12.92050007 -3 4 C-1.09667779 1.91444964 -1.09667779 1.91444964 0 0 Z " fill="#F8F8F8" transform="translate(323,240)"/>
<path d="M0 0 C1.4781314 -0.00424107 1.4781314 -0.00424107 2.98612404 -0.00856781 C8.17719396 -0.02337694 13.36823729 -0.03272736 18.55932617 -0.03710938 C23.88946377 -0.04264186 29.21935209 -0.06682129 34.54941082 -0.09508133 C38.68708526 -0.11373068 42.82469897 -0.11891401 46.96241188 -0.12044525 C48.92828584 -0.12345493 50.89415916 -0.1314259 52.85999107 -0.14463043 C55.60306441 -0.16177881 58.34551716 -0.15979212 61.08862305 -0.15332031 C61.88511261 -0.1625351 62.68160217 -0.17174988 63.50222778 -0.1812439 C69.76658568 -0.13519254 76.32745224 0.82153763 81.30078125 4.890625 C82.73689703 8.43304394 83.32885212 11.53617194 82.23828125 15.203125 C76.71543757 21.52205426 65.49437556 23.72366452 57.50701904 24.45227051 C49.50767283 24.89961374 41.49794411 24.91193878 33.48828125 24.953125 C30.86921159 24.97835126 28.25015214 25.00465893 25.63110352 25.03198242 C20.08044564 25.08647573 14.52985453 25.1239199 8.97900391 25.15185547 C3.03830672 25.18186144 -2.90187876 25.23145976 -8.84228516 25.29736328 C-16.37846403 25.3808976 -23.91454342 25.44158747 -31.4510498 25.48620605 C-34.34986411 25.50389147 -37.24841721 25.52995712 -40.14709473 25.56311035 C-44.21795616 25.60860758 -48.28826836 25.62022993 -52.359375 25.62890625 C-53.55589188 25.64635391 -54.75240875 25.66380157 -55.98518372 25.68177795 C-63.50210015 25.66270229 -70.00820443 24.67153623 -76.76171875 21.203125 C-79.44921875 18.453125 -79.44921875 18.453125 -80.76171875 16.203125 C-80.12105469 15.97238281 -79.48039063 15.74164063 -78.8203125 15.50390625 C-77.95535156 15.17777344 -77.09039062 14.85164062 -76.19921875 14.515625 C-75.35230469 14.20238281 -74.50539062 13.88914063 -73.6328125 13.56640625 C-71.22023851 12.42084391 -69.57207539 11.3416156 -67.49609375 9.73046875 C-63.48150393 6.76863494 -59.37088368 5.63153073 -54.57421875 4.453125 C-53.78080078 4.24558594 -52.98738281 4.03804687 -52.16992188 3.82421875 C-50.03718924 3.26909943 -47.90111198 2.73188731 -45.76171875 2.203125 C-45.14307607 2.03433208 -44.52443338 1.86553917 -43.88704395 1.69163132 C-41.80493286 1.21305777 -39.89207959 1.00493882 -37.76115417 0.89385986 C-36.98430676 0.85293591 -36.20745935 0.81201195 -35.40707111 0.76984787 C-34.57044028 0.73139378 -33.73380945 0.69293968 -32.87182617 0.65332031 C-31.98849956 0.61135151 -31.10517294 0.56938271 -30.19507885 0.52614212 C-20.13179105 0.08265159 -10.07157059 0.01990149 0 0 Z " fill="#F9F9F9" transform="translate(237.76171875,225.796875)"/>
<path d="M0 0 C1 3 1 3 1 5 C7.13559572 9.78875764 13.17189447 11.2303865 20.85327148 11.31884766 C21.82040825 11.33391609 21.82040825 11.33391609 22.80708313 11.34928894 C24.91174528 11.37987148 27.01628177 11.39708546 29.12109375 11.4140625 C30.59083621 11.43279431 32.06056815 11.4523692 33.5302887 11.4727478 C37.3787106 11.52386263 41.22716728 11.56359812 45.07574463 11.60089111 C49.01086893 11.64106101 52.94585111 11.6920938 56.88085938 11.7421875 C64.58714173 11.83870193 72.29349343 11.92318413 80 12 C80 12.99 80 13.98 80 15 C71.45431869 15.09314209 62.90885346 15.16398697 54.3627882 15.20724869 C50.39344903 15.22802399 46.42446 15.25615443 42.45532227 15.30175781 C38.61679511 15.34557889 34.77860234 15.3692125 30.93984413 15.37950897 C29.48356178 15.38683596 28.02729539 15.40114185 26.57115746 15.42292023 C17.86677389 15.54779436 9.84202004 15.22263054 2 11 C1.13375 10.071875 0.2675 9.14375 -0.625 8.1875 C-2.72780152 5.82697472 -2.72780152 5.82697472 -5.1171875 5.73046875 C-9.16011763 5.97569566 -11.47545211 6.60658908 -14.75 9.0625 C-17.44638009 12.582774 -19.79816918 16.15403893 -22 20 C-22.350625 20.57105469 -22.70125 21.14210938 -23.0625 21.73046875 C-26.92374485 28.56306218 -28.2702252 36.41843387 -30 44 C-29.07960937 43.566875 -28.15921875 43.13375 -27.2109375 42.6875 C-22.1762285 40.53518085 -16.93239371 39.29551875 -11.625 38 C-10.55644775 37.73872314 -9.48789551 37.47744629 -8.38696289 37.20825195 C3.88906742 34.25289425 15.74712418 31.94593228 28.390625 31.45703125 C29.87862358 31.3960022 29.87862358 31.3960022 31.39668274 31.33374023 C44.45900716 30.82680893 57.52947499 30.64789391 70.59936523 30.44775391 C73.89314507 30.39617399 77.18679255 30.33901965 80.48046875 30.28125 C81.48136032 30.26767456 82.48225189 30.25409912 83.51347351 30.2401123 C84.43997208 30.22339478 85.36647064 30.20667725 86.32104492 30.18945312 C87.13103439 30.17692505 87.94102386 30.16439697 88.77555847 30.15148926 C90.96899054 30.00211181 92.87759896 29.54905834 95 29 C97.51341384 28.89362819 99.99824646 28.83605677 102.51171875 28.83203125 C103.23937943 28.82870285 103.9670401 28.82537445 104.7167511 28.82194519 C106.25574107 28.81689095 107.79474197 28.8145364 109.33374023 28.81469727 C111.66213618 28.81252368 113.99004797 28.79438819 116.31835938 28.77539062 C123.77952541 28.74651393 130.78377004 28.92084032 138 31 C139.43445245 31.31787741 140.8707086 31.62771703 142.30859375 31.9296875 C143.68515385 32.24366257 145.06145874 32.5587588 146.4375 32.875 C147.14326172 33.02324219 147.84902344 33.17148437 148.57617188 33.32421875 C153.66915971 34.520852 153.66915971 34.520852 155.47265625 37.1328125 C155.64667969 37.74898438 155.82070313 38.36515625 156 39 C152.27533034 39 148.95170142 38.0571902 145.375 37.125 C143.29540345 36.58820165 141.21533027 36.05591314 139.13061523 35.53930664 C137.76181241 35.19283186 136.39837449 34.82397856 135.04321289 34.42749023 C128.07211225 32.55938491 121.02761356 32.73189753 113.86889648 32.79418945 C111.67485067 32.81260618 109.48122498 32.81469749 107.28710938 32.81445312 C100.62724921 32.61008012 100.62724921 32.61008012 94.09037781 33.49723816 C91.77162575 34.05492684 89.68912677 34.15271744 87.30517578 34.18945312 C86.37544952 34.20617065 85.44572327 34.22288818 84.48782349 34.2401123 C83.48379486 34.25368774 82.47976624 34.26726318 81.4453125 34.28125 C80.39334686 34.29965942 79.34138123 34.31806885 78.25753784 34.33703613 C74.88008191 34.39573278 71.50257117 34.44839353 68.125 34.5 C37.05264133 34.46544626 37.05264133 34.46544626 6.3125 38.25 C5.189646 38.46962402 4.06679199 38.68924805 2.90991211 38.91552734 C-4.07984133 40.31537106 -11.02960656 41.86462978 -17.9375 43.625 C-18.70602295 43.81868164 -19.4745459 44.01236328 -20.26635742 44.21191406 C-25.68823191 45.63994757 -25.68823191 45.63994757 -30 49 C-31.08077796 53.80033849 -31.10437396 58.89456448 -28.7890625 63.30859375 C-26.13905642 66.54375346 -24.19584338 68.33516566 -20 69 C-17.75203467 69.1744111 -15.50150204 69.31705939 -13.25 69.4375 C-8.67799011 69.73884772 -4.50946507 70.19080046 -0.12109375 71.46484375 C3.74581532 72.44047274 7.70974327 72.89045946 11.65625 73.4375 C15 74 15 74 18.73312378 75.01898193 C22.73603187 76.02885642 26.47335309 76.25365187 30.61376953 76.25878906 C31.3319004 76.26224838 32.05003126 76.2657077 32.78992367 76.26927185 C35.15431587 76.27791858 37.51841709 76.27211616 39.8828125 76.265625 C41.56408271 76.26765679 43.24535225 76.270336 44.92662048 76.27362061 C49.40397991 76.27899486 53.88119972 76.27014111 58.35853958 76.25714111 C61.1228095 76.25000565 63.8870587 76.24676533 66.65133667 76.24462891 C94.47387737 76.21785995 122.22413608 75.73613579 150 74 C149.01 75.98 149.01 75.98 148 78 C120.16762172 79.94281523 92.33432218 80.25083726 64.44601822 80.30505371 C61.63343884 80.31247773 58.82094163 80.32574326 56.00839233 80.34057617 C51.49677008 80.36327947 46.98539909 80.36949151 42.47372627 80.36351585 C40.79445268 80.36336194 39.11517023 80.36804107 37.43592644 80.37804604 C28.50822681 80.42588314 20.36853855 80.05648853 11.67630005 77.71138 C7.90249357 76.70827481 4.12657162 76.26727213 0.25 75.875 C-6.87732919 75.12267081 -6.87732919 75.12267081 -8 74 C-11.09327022 73.79629684 -14.17876629 73.65389648 -17.27734375 73.5703125 C-23.33106629 73.28487175 -27.13246901 71.36215848 -31.1875 66.9375 C-35.63542859 61.55196178 -36.27530302 54.79786692 -36 48 C-35.7132589 46.32468856 -35.37789732 44.65713081 -35 43 C-34.80921875 42.11183594 -34.6184375 41.22367187 -34.421875 40.30859375 C-32.67285499 32.83458381 -30.22973462 25.96080117 -27 19 C-26.61972656 18.17242187 -26.23945313 17.34484375 -25.84765625 16.4921875 C-22.29830249 9.44128272 -17.26310254 4.09967409 -9.875 1.0625 C-6.53471143 -0.02012317 -3.52107184 -0.26408039 0 0 Z " fill="#040404" transform="translate(158,239)"/>
<path d="M0 0 C0.99 0 1.98 0 3 0 C4.539221 3.88151384 5.88754458 7.31277244 6.5625 11.4375 C6.7790625 12.7059375 6.7790625 12.7059375 7 14 C7.99 14.495 7.99 14.495 9 15 C9.268125 14.0925 9.53625 13.185 9.8125 12.25 C10.89576294 9.28528037 11.98359457 7.3830246 14 5 C14.99 5.33 15.98 5.66 17 6 C17.92731227 9.04176343 18.46673844 12.09178334 19.05859375 15.21484375 C19.72452074 18.12719794 19.72452074 18.12719794 22.09765625 19.37890625 C22.72542969 19.58386719 23.35320312 19.78882812 24 20 C24.37125 18.9790625 24.37125 18.9790625 24.75 17.9375 C26.24197908 14.43134917 28.06835511 11.28379632 30 8 C33.96984271 11.29024542 34.87792053 14.2389321 36.0625 19.1875 C36.88729426 22.88192119 36.88729426 22.88192119 38 26 C39.485 26.495 39.485 26.495 41 27 C41.33 25.35 41.66 23.7 42 22 C42.66 22.33 43.32 22.66 44 23 C44.8908402 25.81505503 45.53765624 28.65881108 46.21875 31.53125 C46.4765625 32.3459375 46.734375 33.160625 47 34 C47.66 34.33 48.32 34.66 49 35 C48.67 36.65 48.34 38.3 48 40 C47.34644531 39.43732422 47.34644531 39.43732422 46.6796875 38.86328125 C45.43007371 37.78947893 44.17724629 36.71940934 42.921875 35.65234375 C41.2974065 34.25569705 39.70706965 32.81949837 38.125 31.375 C27.4294082 23.24635023 14.96113956 22.43002617 2 22 C1.05866211 21.96600098 0.11732422 21.93200195 -0.85253906 21.89697266 C-19.19927794 21.31458343 -35.55345977 22.10505534 -49.75 35.25 C-57.74273726 43.89941755 -60.89101261 53.9121954 -64 65 C-68.75704572 57.86443142 -68.15149104 49.20029432 -67.75 40.9375 C-67.71156982 40.091875 -67.67313965 39.24625 -67.63354492 38.375 C-67.254749 32.254749 -67.254749 32.254749 -65 30 C-64.67 30.66 -64.34 31.32 -64 32 C-63.01 32.33 -62.02 32.66 -61 33 C-60.87882813 32.30132812 -60.75765625 31.60265625 -60.6328125 30.8828125 C-60.46523437 29.97273438 -60.29765625 29.06265625 -60.125 28.125 C-59.96257812 27.22007813 -59.80015625 26.31515625 -59.6328125 25.3828125 C-59 23 -59 23 -57 21 C-56.01 21.66 -55.02 22.32 -54 23 C-53.95101562 22.37351562 -53.90203125 21.74703125 -53.8515625 21.1015625 C-53.77679688 20.28429687 -53.70203125 19.46703125 -53.625 18.625 C-53.55539063 17.81289063 -53.48578125 17.00078125 -53.4140625 16.1640625 C-53 14 -53 14 -51 12 C-50.34 13.98 -49.68 15.96 -49 18 C-48.34 18 -47.68 18 -47 18 C-45.02 14.04 -43.04 10.08 -41 6 C-40.01 6 -39.02 6 -38 6 C-36.68373308 9.61973402 -36 12.09567131 -36 16 C-32.39588346 14.55366256 -30.88597432 12.80863332 -28.8125 9.5625 C-28.04873047 8.38880859 -28.04873047 8.38880859 -27.26953125 7.19140625 C-25.86928132 4.94439088 -25.86928132 4.94439088 -25 2 C-23.68 2 -22.36 2 -21 2 C-20.95101562 2.71027344 -20.90203125 3.42054687 -20.8515625 4.15234375 C-20.77679688 5.07144531 -20.70203125 5.99054687 -20.625 6.9375 C-20.52058594 8.31228516 -20.52058594 8.31228516 -20.4140625 9.71484375 C-20.20910156 10.84599609 -20.20910156 10.84599609 -20 12 C-19.34 12.33 -18.68 12.66 -18 13 C-17.34 9.7 -16.68 6.4 -16 3 C-15.01 3.33 -14.02 3.66 -13 4 C-12.05078125 6.06640625 -12.05078125 6.06640625 -11.3125 8.5625 C-11.06113281 9.38878906 -10.80976563 10.21507812 -10.55078125 11.06640625 C-10.36902344 11.70449219 -10.18726563 12.34257813 -10 13 C-5.16530362 11.38843454 -4.02649323 6.92698398 -1.71875 2.58984375 C-0.86796875 1.30787109 -0.86796875 1.30787109 0 0 Z " fill="#F5F5F5" transform="translate(227,41)"/>
<path d="M0 0 C0.66 0.33 1.32 0.66 2 1 C2 1.66 2 2.32 2 3 C3.134375 3 4.26875 3 5.4375 3 C11.32344815 3.69370103 15.19057781 7.715442 19 12 C19.96070434 14.88211302 20.10581883 16.69850044 20.0625 19.6875 C20.05347656 20.49574219 20.04445313 21.30398437 20.03515625 22.13671875 C20.02355469 22.75160156 20.01195312 23.36648437 20 24 C13.31457977 24.14533522 9.95867417 20.9922086 5.24609375 16.48046875 C1.57254364 12.42359167 -0.72105492 8.62208379 -1.3125 3.0625 C-1 1 -1 1 0 0 Z " fill="#0F0F0F" transform="translate(252,94)"/>
<path d="M0 0 C-0.33 0.99 -0.66 1.98 -1 3 C-2.8984375 3.703125 -2.8984375 3.703125 -5.375 4.25 C-16.14976444 7.25154152 -24.0130529 13.62850798 -30 23 C-31.14241359 25.40375351 -32.14912808 27.76966264 -33.015625 30.28515625 C-34 32 -34 32 -36.109375 32.74609375 C-36.73328125 32.82988281 -37.3571875 32.91367188 -38 33 C-34.91497543 21.55293516 -28.30967051 11.81264438 -18.32421875 5.23828125 C-4.88137508 -2.44068754 -4.88137508 -2.44068754 0 0 Z " fill="#121212" transform="translate(203,64)"/>
<path d="M0 0 C3.53571429 0.53571429 3.53571429 0.53571429 5 2 C5.04080783 3.99958364 5.04254356 6.00045254 5 8 C2.125 8.625 2.125 8.625 -1 9 C-1.66 8.34 -2.32 7.68 -3 7 C-2.67028521 3.70285207 -2.3773161 2.3773161 0 0 Z " fill="#070707" transform="translate(306,141)"/>
<path d="M0 0 C0.66 0 1.32 0 2 0 C2.28875 1.134375 2.5775 2.26875 2.875 3.4375 C3.24625 4.613125 3.6175 5.78875 4 7 C4.66 7.33 5.32 7.66 6 8 C5.67 9.65 5.34 11.3 5 13 C4.52949219 12.59007813 4.05898438 12.18015625 3.57421875 11.7578125 C2.95160156 11.21898438 2.32898438 10.68015625 1.6875 10.125 C1.07261719 9.59132813 0.45773437 9.05765625 -0.17578125 8.5078125 C-2.13498212 6.8359553 -2.13498212 6.8359553 -5 5 C-5 4.34 -5 3.68 -5 3 C-3.68 3 -2.36 3 -1 3 C-0.67 2.01 -0.34 1.02 0 0 Z " fill="#E6E6E6" transform="translate(270,68)"/>
<path d="M0 0 C5.34844008 0.53484401 9.35796103 2.46690767 14 5 C13.67 6.32 13.34 7.64 13 9 C8.71 7.02 4.42 5.04 0 3 C0 2.01 0 1.02 0 0 Z " fill="#0D0D0D" transform="translate(313,276)"/>
<path d="M0 0 C-0.33 0.99 -0.66 1.98 -1 3 C-3.06640625 3.73046875 -3.06640625 3.73046875 -5.5625 4.1875 C-6.38878906 4.34605469 -7.21507812 4.50460938 -8.06640625 4.66796875 C-9.02353516 4.83232422 -9.02353516 4.83232422 -10 5 C-8.63978541 1.78910882 -8.35808746 1.15666326 -5 -0.3125 C-2 -1 -2 -1 0 0 Z " fill="#0D0D0D" transform="translate(203,64)"/>
<path d="M0 0 C0.99 0.33 1.98 0.66 3 1 C3.625 3.375 3.625 3.375 4 6 C3.34 6.66 2.68 7.32 2 8 C1.01 8 0.02 8 -1 8 C-0.67 5.36 -0.34 2.72 0 0 Z " fill="#F0F0F0" transform="translate(211,44)"/>
<path d="M0 0 C0.66 0.33 1.32 0.66 2 1 C2.59355614 3.64860427 2.74209269 6.29197322 3 9 C2.01 8.67 1.02 8.34 0 8 C-0.38063221 5.6739143 -0.71269945 3.33944736 -1 1 C-0.67 0.67 -0.34 0.34 0 0 Z " fill="#E9E9E9" transform="translate(266,106)"/>
<path d="M0 0 C1.65 0.33 3.3 0.66 5 1 C5 1.66 5 2.32 5 3 C0.375 5.125 0.375 5.125 -3 4 C-2.01 2.68 -1.02 1.36 0 0 Z " fill="#F0F0F0" transform="translate(177,225)"/>
</svg>
