<?xml version="1.0" encoding="UTF-8"?>
<svg version="1.1" xmlns="http://www.w3.org/2000/svg" width="491" height="394">
<path d="M0 0 C0.96357422 -0.020625 1.92714844 -0.04125 2.91992188 -0.0625 C18.64676933 -0.14733802 29.79706407 6.97389978 40.79296875 17.578125 C48.36041174 25.22381334 50.48977668 31.87421455 50.75 42.5 C50.5937578 52.31396346 49.23034213 62.6276689 42.4375 70.25 C41.7775 70.25 41.1175 70.25 40.4375 70.25 C40.19 70.806875 39.9425 71.36375 39.6875 71.9375 C38.22143985 74.64971127 36.40760529 76.88587365 34.4375 79.25 C38.13893228 80.86937662 41.80165296 82.38196686 45.625 83.6875 C49.0514734 84.9915559 51.37992733 86.0779088 53.4375 89.25 C54.00999316 92.80973308 53.77497325 96.03509631 52.8125 99.5 C49.0742674 104.25775059 43.13494165 106.64645566 37.4375 108.25 C36.4475 108.25 35.4575 108.25 34.4375 108.25 C30.60397043 112.73407318 29.94686487 115.9979009 30.01171875 121.80859375 C30.01500687 122.51597183 30.01829498 123.22334991 30.02168274 123.9521637 C30.03733166 126.19791522 30.08129527 128.44213907 30.125 130.6875 C30.13650482 132.1907429 30.146286 133.69400004 30.15429688 135.19726562 C30.21382053 141.64024592 30.48195476 147.86877433 31.4375 154.25 C31.53870397 155.89291955 31.61153336 157.53797382 31.6484375 159.18359375 C32.0921571 174.31951488 34.10867304 188.130524 38.3125 202.6875 C38.66090942 203.91267334 38.66090942 203.91267334 39.01635742 205.16259766 C41.62834118 213.78486762 45.58046608 220.82154429 51.75 227.375 C52.22783936 227.88506592 52.70567871 228.39513184 53.19799805 228.9206543 C56.50585179 232.40572438 60.00052712 235.57473106 63.65625 238.68359375 C70.57521824 244.76803731 73.87487172 250.57370579 74.7890625 259.796875 C75.06950258 266.91119692 75.06950258 266.91119692 74.4375 270.25 C72.0390625 272.55859375 72.0390625 272.55859375 69.4375 274.25 C68.385625 275.11625 68.385625 275.11625 67.3125 276 C65.4375 277.25 65.4375 277.25 62.4375 277.25 C62.4375 277.91 62.4375 278.57 62.4375 279.25 C60.18907909 280.23293267 57.93890453 281.21144466 55.6875 282.1875 C55.05328125 282.46529297 54.4190625 282.74308594 53.765625 283.02929688 C49.16403346 285.01852655 45.35484756 286.39203898 40.33886719 286.33520508 C39.53130478 286.32783829 38.72374237 286.3204715 37.89170837 286.31288147 C37.01478836 286.2985759 36.13786835 286.28427032 35.234375 286.26953125 C34.30464371 286.25703842 33.37491241 286.24454559 32.41700745 286.23167419 C29.3402535 286.18478468 26.26395933 286.12577669 23.1875 286.0625 C22.13138519 286.04110962 21.07527039 286.01971924 19.9871521 285.99768066 C3.53592807 285.63846946 -12.84735103 284.8062534 -29.25 283.5 C-30.2236853 283.42754059 -31.19737061 283.35508118 -32.20056152 283.28042603 C-42.61029027 282.49022275 -52.7687941 281.24440692 -62.95703125 278.921875 C-64.23002327 278.64044647 -64.23002327 278.64044647 -65.5287323 278.35333252 C-72.10332986 276.73765608 -78.06363057 274.18022189 -82.53125 268.94140625 C-83.90760491 265.34932847 -84.09513335 261.98483501 -84.0625 258.1875 C-84.05822998 257.43597656 -84.05395996 256.68445313 -84.04956055 255.91015625 C-83.83891843 248.93142674 -81.8969917 243.37558475 -78.5625 237.25 C-78.21533936 236.58170166 -77.86817871 235.91340332 -77.51049805 235.22485352 C-74.42984795 229.43333178 -70.75170833 224.36949813 -66.75 219.1875 C-53.36174379 201.23597147 -47.22516218 181.37634511 -40.5625 160.25 C-40.24748535 159.26483398 -39.9324707 158.27966797 -39.60791016 157.26464844 C-37.11245324 149.27254383 -36.39349682 141.77610262 -36.4375 133.4375 C-36.43943359 132.55545898 -36.44136719 131.67341797 -36.44335938 130.76464844 C-36.48257198 124.86750767 -36.78234349 119.10117383 -37.5625 113.25 C-38.16835937 113.06824219 -38.77421875 112.88648438 -39.3984375 112.69921875 C-41.16640725 112.16882782 -42.93325516 111.63468902 -44.69921875 111.09765625 C-46.52707044 110.55653235 -48.36275425 110.04077548 -50.20703125 109.55859375 C-55.61274765 108.10544418 -60.72789152 106.53642035 -64.5625 102.25 C-65.8125 98.875 -65.8125 98.875 -65.5625 95.25 C-63.34747424 90.65622919 -59.85237565 86.97040895 -55.5625 84.25 C-52.25 83.5 -52.25 83.5 -49.5625 83.25 C-49.706875 82.528125 -49.85125 81.80625 -50 81.0625 C-50.52083333 78.45833333 -51.04166667 75.85416667 -51.5625 73.25 C-52.2225 73.25 -52.8825 73.25 -53.5625 73.25 C-58.40570485 62.6830076 -58.72704 50.71725658 -58.9375 39.25 C-58.97653442 38.08537231 -58.97653442 38.08537231 -59.01635742 36.8972168 C-59.04531432 27.60405012 -54.44343079 21.32592366 -48.25 14.71484375 C-34.04119527 1.68322197 -18.39828825 0.0988491 0 0 Z " fill="#212121" transform="translate(230.5625,55.75)"/>
<path d="M0 0 C0.83496002 0.00141495 1.66992004 0.0028299 2.53018188 0.00428772 C5.17901292 0.00985451 7.8277573 0.02240078 10.4765625 0.03515625 C12.27994669 0.04017555 14.08333221 0.0447377 15.88671875 0.04882812 C20.29169971 0.05981305 24.69661644 0.07705462 29.1015625 0.09765625 C28.77704102 0.95818604 28.45251953 1.81871582 28.11816406 2.70532227 C27.09142354 6.1314893 26.84344877 8.81224181 26.8359375 12.375 C26.83182861 13.59558105 26.82771973 14.81616211 26.82348633 16.07373047 C26.83275146 17.38100098 26.8420166 18.68827148 26.8515625 20.03515625 C26.85433197 20.70983948 26.85710144 21.38452271 26.85995483 22.07965088 C26.99480743 50.37379975 28.79419373 77.1932959 38.39306641 103.9855957 C39.07124135 106.00726746 39.61483626 108.02246458 40.1015625 110.09765625 C39.18661011 109.87831421 39.18661011 109.87831421 38.25317383 109.65454102 C35.47369868 108.9887874 32.69388481 108.32445875 29.9140625 107.66015625 C28.95435547 107.43005859 27.99464844 107.19996094 27.00585938 106.96289062 C26.07451172 106.74052734 25.14316406 106.51816406 24.18359375 106.2890625 C22.90319214 105.98270874 22.90319214 105.98270874 21.59692383 105.67016602 C20.77345459 105.48123779 19.94998535 105.29230957 19.1015625 105.09765625 C17.94974487 104.81849365 17.94974487 104.81849365 16.7746582 104.53369141 C13.26395063 103.96102507 9.79686555 103.93556826 6.25 103.9296875 C5.48599884 103.925634 4.72199768 103.92158051 3.93484497 103.91740417 C1.44870839 103.90794098 -1.03728531 103.90801075 -3.5234375 103.91015625 C-4.79199585 103.9090686 -4.79199585 103.9090686 -6.08618164 103.90795898 C-20.29908672 103.90930401 -34.32593446 104.61935825 -48.484375 105.91015625 C-51.29542952 106.12849058 -54.08021176 106.17486791 -56.8984375 106.09765625 C-56.39054688 105.11667969 -55.88265625 104.13570313 -55.359375 103.125 C-48.18502471 89.13195097 -42.74793919 74.97846699 -38.0859375 59.97265625 C-37.88485382 59.32551666 -37.68377014 58.67837708 -37.47659302 58.0116272 C-34.91801563 49.74296278 -32.77331259 42.51881881 -32.765625 33.8203125 C-32.76466827 33.13134384 -32.76371155 32.44237518 -32.76272583 31.73252869 C-32.76204796 30.28107613 -32.76387474 28.82962049 -32.76806641 27.37817383 C-32.77341205 25.1706655 -32.76811232 22.96336137 -32.76171875 20.75585938 C-32.76237976 19.33984331 -32.7636614 17.92382736 -32.765625 16.5078125 C-32.76675293 15.23043213 -32.76788086 13.95305176 -32.76904297 12.63696289 C-32.8887323 9.36312091 -33.2758776 6.30968203 -33.8984375 3.09765625 C-31.94550781 2.89849609 -31.94550781 2.89849609 -29.953125 2.6953125 C-28.22655237 2.51702511 -26.49999043 2.33863423 -24.7734375 2.16015625 C-23.9175 2.07314453 -23.0615625 1.98613281 -22.1796875 1.89648438 C-21.34179688 1.80947266 -20.50390625 1.72246094 -19.640625 1.6328125 C-18.8760498 1.55426025 -18.11147461 1.47570801 -17.32373047 1.39477539 C-15.59303313 1.18275016 -13.8704218 0.89982001 -12.15820312 0.5703125 C-8.07845957 -0.02123809 -4.11580157 -0.02654571 0 0 Z " fill="#FEFEFE" transform="translate(229.8984375,163.90234375)"/>
<path d="M0 0 C7.02033869 6.5366051 10.69115792 12.30870247 11.40625 22.0390625 C11.87681288 38.46954989 6.41958668 48.59779529 -4.4296875 60.46875 C-5.89946371 62.02944797 -5.89946371 62.02944797 -6.8125 64.0625 C-9.49899477 64.52958375 -12.1038393 64.86542002 -14.8125 65.125 C-15.5240625 65.20298828 -16.235625 65.28097656 -16.96875 65.36132812 C-30.53435495 66.76666905 -44.19609413 67.30438952 -57.82885742 67.41259766 C-59.38304302 67.42945326 -60.9371427 67.45711009 -62.4909668 67.49462891 C-64.78212796 67.54917472 -67.07156073 67.57119081 -69.36328125 67.5859375 C-70.05488846 67.60860687 -70.74649567 67.63127625 -71.45906067 67.65463257 C-75.11713419 67.63848264 -76.52347785 67.34887967 -79.16235352 64.73413086 C-81.07779967 61.63297281 -82.80548172 58.5104418 -84.4375 55.25 C-85.02789062 54.08855469 -85.61828125 52.92710938 -86.2265625 51.73046875 C-89.74453037 43.59408493 -90.17711676 36.33634153 -90.1875 27.5625 C-90.21199219 26.47324219 -90.23648438 25.38398437 -90.26171875 24.26171875 C-90.29939724 13.87501498 -87.15581186 7.76012049 -80.140625 0.23828125 C-59.1545438 -19.37454967 -21.1378954 -18.05820203 0 0 Z " fill="#FDFDFD" transform="translate(265.8125,72.9375)"/>
<path d="M0 0 C1.1029541 0.16781982 2.2059082 0.33563965 3.34228516 0.50854492 C10.2899174 1.80338643 14.41485659 3.99844657 18.625 9.75 C22.50768353 16.39629788 24.58373071 25.20280031 22.625 32.75 C20.10772264 35.76580907 17.17105592 37.15850225 13.625 38.75 C12.59246094 39.245 11.55992187 39.74 10.49609375 40.25 C2.45510229 43.88077897 2.45510229 43.88077897 -0.73046875 43.37890625 C-1.27316406 43.17136719 -1.81585938 42.96382813 -2.375 42.75 C-2.87 43.74 -2.87 43.74 -3.375 44.75 C-27.65488487 45.18380773 -51.78434736 45.03709637 -76 43.0625 C-76.97509521 42.98817749 -77.95019043 42.91385498 -78.95483398 42.83728027 C-89.41558722 42.02209346 -99.6047866 40.72492116 -109.8359375 38.35546875 C-110.69273102 38.15971756 -111.54952454 37.96396637 -112.43228149 37.76228333 C-117.65901153 36.46368352 -121.91059484 34.79718617 -126.375 31.75 C-128.47162624 25.46012129 -127.62137486 18.33693607 -127 11.8125 C-124.82314151 7.70995901 -122.02627784 6.330928 -117.98046875 4.20703125 C-115.29976984 2.82590258 -115.29976984 2.82590258 -113.046875 0.71484375 C-88.94593153 -17.00851088 -27.8096837 -4.57215163 0 0 Z " fill="#FEFEFE" transform="translate(278.375,292.25)"/>
<path d="M0 0 C0.66 0 1.32 0 2 0 C2.04898438 1.14597656 2.09796875 2.29195312 2.1484375 3.47265625 C2.22352801 5.00262535 2.29907306 6.53257218 2.375 8.0625 C2.4059375 8.81466797 2.436875 9.56683594 2.46875 10.34179688 C2.72026548 15.18346983 3.58032415 19.3375394 5 24 C5.33126852 25.59985904 5.64654247 27.20307986 5.94921875 28.80859375 C6.95507529 33.98674716 8.30859951 39.00892317 9.8125 44.0625 C10.04775391 44.89587891 10.28300781 45.72925781 10.52539062 46.58789062 C13.12760639 55.3643926 17.04172354 62.46400156 23.3125 69.125 C23.79033936 69.63506592 24.26817871 70.14513184 24.76049805 70.6706543 C28.06835179 74.15572438 31.56302712 77.32473106 35.21875 80.43359375 C42.13771824 86.51803731 45.43737172 92.32370579 46.3515625 101.546875 C46.63200258 108.66119692 46.63200258 108.66119692 46 112 C43.6015625 114.30859375 43.6015625 114.30859375 41 116 C40.29875 116.5775 39.5975 117.155 38.875 117.75 C37 119 37 119 34 119 C34 119.66 34 120.32 34 121 C31.75157909 121.98293267 29.50140453 122.96144466 27.25 123.9375 C26.61578125 124.21529297 25.9815625 124.49308594 25.328125 124.77929688 C20.72653346 126.76852655 16.91734756 128.14203898 11.90136719 128.08520508 C11.09380478 128.07783829 10.28624237 128.0704715 9.45420837 128.06288147 C8.57728836 128.0485759 7.70036835 128.03427032 6.796875 128.01953125 C5.40227806 128.00079201 5.40227806 128.00079201 3.97950745 127.98167419 C0.9027535 127.93478468 -2.17354067 127.87577669 -5.25 127.8125 C-6.30611481 127.79110962 -7.36222961 127.76971924 -8.4503479 127.74768066 C-24.90157193 127.38846946 -41.28485103 126.5562534 -57.6875 125.25 C-59.14802795 125.14131088 -59.14802795 125.14131088 -60.63806152 125.03042603 C-71.04779027 124.24022275 -81.2062941 122.99440692 -91.39453125 120.671875 C-92.2431926 120.48425598 -93.09185394 120.29663696 -93.9662323 120.10333252 C-100.54082986 118.48765608 -106.50113057 115.93022189 -110.96875 110.69140625 C-112.34510491 107.09932847 -112.53263335 103.73483501 -112.5 99.9375 C-112.49572998 99.18597656 -112.49145996 98.43445313 -112.48706055 97.66015625 C-112.27595636 90.66611783 -110.30856171 85.15760096 -107 79 C-106.6390625 78.26007813 -106.278125 77.52015625 -105.90625 76.7578125 C-103.34972495 71.77258865 -100.17910692 67.16591701 -97 62.5625 C-96.37702026 61.63848389 -96.37702026 61.63848389 -95.74145508 60.69580078 C-93.21037192 57.11893479 -91.27318813 55.15223466 -87 54 C-86.505 54.495 -86.505 54.495 -86 55 C-84.1677879 55.06155078 -84.1677879 55.06155078 -81.984375 54.9140625 C-81.14390625 54.87023437 -80.3034375 54.82640625 -79.4375 54.78125 C-78.550625 54.7296875 -77.66375 54.678125 -76.75 54.625 C-75.90953125 54.58117187 -75.0690625 54.53734375 -74.203125 54.4921875 C-69.45684073 54.23485883 -64.72760681 53.89086178 -59.9921875 53.48046875 C-51.45899955 52.81672048 -42.9302529 52.71502034 -34.375 52.6875 C-33.53638428 52.68421692 -32.69776855 52.68093384 -31.83374023 52.67755127 C-17.07086632 52.65885605 -4.02880069 54.1938368 10 59 C9.7733667 58.36199463 9.5467334 57.72398926 9.31323242 57.06665039 C2.6936639 38.27436524 -2.26560344 21.05494685 -1 1 C-0.67 0.67 -0.34 0.34 0 0 Z M-99.87109375 83.1953125 C-102 85 -102 85 -104.20703125 86.06640625 C-106.31814534 86.92903225 -106.31814534 86.92903225 -107.25 89.8125 C-108.66426684 95.79787932 -109.25470633 103.42654717 -107.203125 109.26953125 C-102.40494029 116.17081639 -89.36024201 117.02390129 -81.61541748 118.54077148 C-73.41541069 119.98057105 -65.10441006 120.59198166 -56.8125 121.25 C-55.79605408 121.3340509 -54.77960815 121.41810181 -53.73236084 121.50469971 C-37.36362206 122.83562328 -21.04560927 123.37691466 -4.625 123.375 C-3.07675034 123.37771912 -3.07675034 123.37771912 -1.4972229 123.38049316 C1.40580092 123.37991124 4.30804484 123.36236378 7.2109375 123.3359375 C8.07631638 123.33353058 8.94169525 123.33112366 9.83329773 123.3286438 C14.39368654 123.45294356 14.39368654 123.45294356 18 121 C19.485 121.495 19.485 121.495 21 122 C25.50094832 120.36217202 29.71769236 118.13611581 34 116 C34.86882812 115.6390625 35.73765625 115.278125 36.6328125 114.90625 C38.95235211 113.80883341 40.38328492 112.99850494 42 111 C43.82431829 103.38146324 41.91256989 94.69745672 38 88 C33.78985659 82.24844657 29.6649174 80.05338643 22.71728516 78.75854492 C21.61433105 78.5907251 20.51137695 78.42290527 19.375 78.25 C18.18567871 78.05446533 16.99635742 77.85893066 15.77099609 77.6574707 C-44.67672619 67.1082386 -44.67672619 67.1082386 -99.87109375 83.1953125 Z " fill="#202020" transform="translate(259,214)"/>
<path d="M0 0 C-0.33 1.32 -0.66 2.64 -1 4 C2.12197478 2.6910428 2.12197478 2.6910428 4 0 C10.3681639 0.41084928 19.21094407 1.21094407 24 6 C24.39362593 9.4639082 24.22580208 11.53764336 22.6875 14.6875 C18.6480237 18.16332844 14.12261809 18.88507724 9 20 C8.36984482 20.17334366 7.73968964 20.34668732 7.09043884 20.52528381 C4.96287479 21.00843074 3.07549072 21.14389467 0.89672852 21.17358398 C0.09811905 21.18707382 -0.70049042 21.20056366 -1.52330017 21.21446228 C-2.80920799 21.23011986 -2.80920799 21.23011986 -4.12109375 21.24609375 C-5.9628947 21.27907013 -7.80469146 21.31228106 -9.64648438 21.34570312 C-12.52918224 21.39277654 -15.41186805 21.43714738 -18.29467773 21.47680664 C-28.11527224 21.6183724 -37.65938455 21.82962663 -47.35522461 23.5612793 C-50.97850995 24.16231721 -54.39040997 24.23070106 -58.0625 24.1875 C-59.29097656 24.18105469 -60.51945312 24.17460937 -61.78515625 24.16796875 C-64.42910179 24.02982822 -66.49586124 23.76486247 -69 23 C-69.76957031 22.79761719 -70.53914063 22.59523437 -71.33203125 22.38671875 C-76.73927635 20.8624717 -81.34030487 19.17255839 -86 16 C-87 13 -87 13 -85.875 10.5625 C-83.64496403 7.51478417 -82.34413512 5.8426867 -79 4 C-71.21281111 3.05432939 -63.59984137 4.32444442 -56 6 C-56.33 5.01 -56.66 4.02 -57 3 C-55.69853027 2.94465088 -54.39706055 2.88930176 -53.05615234 2.83227539 C-48.2141903 2.62537885 -43.37245033 2.41363128 -38.53076172 2.20043945 C-36.43771997 2.10895186 -34.34462076 2.01876888 -32.25146484 1.92993164 C-29.23779395 1.80179694 -26.22436284 1.66892709 -23.2109375 1.53515625 C-22.27945892 1.49656998 -21.34798035 1.4579837 -20.38827515 1.41822815 C-13.52613231 1.10674069 -6.87307387 -0.13746148 0 0 Z " fill="#FCFCFC" transform="translate(256,140)"/>
<path d="M0 0 C17.55451119 -0.58888579 34.53498147 -0.87178435 51.5536499 4.08209229 C52.57845459 4.29736572 53.60325928 4.51263916 54.65911865 4.73443604 C63.88218857 6.81882259 67.57229632 13.58959936 72.5536499 21.08209229 C71.36223389 20.88510742 70.17081787 20.68812256 68.94329834 20.48516846 C56.25326588 18.44838573 43.62682219 17.19715292 30.8036499 16.39459229 C29.83307648 16.33238495 28.86250305 16.27017761 27.86251831 16.20608521 C-12.88203648 11.41620091 -12.88203648 11.41620091 -50.1963501 22.83209229 C-52.10434707 24.57055427 -52.10434707 24.57055427 -53.4463501 26.08209229 C-53.7763501 25.42209229 -54.1063501 24.76209229 -54.4463501 24.08209229 C-53.29400635 21.83209229 -53.29400635 21.83209229 -51.5088501 19.08209229 C-50.66000244 17.75177979 -50.66000244 17.75177979 -49.79400635 16.39459229 C-49.43733887 15.90072021 -49.08067139 15.40684814 -48.7131958 14.89801025 C-47.3515943 13.00378322 -47.3515943 13.00378322 -45.99786377 10.55133057 C-43.15384796 6.15650107 -41.00355668 3.55727756 -35.89727783 1.99908447 C-31.49877418 1.28604033 -27.08059727 1.11849039 -22.6338501 0.95709229 C-20.99193266 0.86597951 -19.35016648 0.77210287 -17.70855713 0.67559814 C-11.80814965 0.35413463 -5.90530016 0.19816443 0 0 Z " fill="#FCFCFC" transform="translate(210.44635009765625,269.91790771484375)"/>
<path d="M0 0 C0.66 0 1.32 0 2 0 C2.04898438 1.14597656 2.09796875 2.29195312 2.1484375 3.47265625 C2.22352801 5.00262535 2.29907306 6.53257218 2.375 8.0625 C2.4059375 8.81466797 2.436875 9.56683594 2.46875 10.34179688 C2.72026548 15.18346983 3.58032415 19.3375394 5 24 C5.33126852 25.59985904 5.64654247 27.20307986 5.94921875 28.80859375 C6.95507529 33.98674716 8.30859951 39.00892317 9.8125 44.0625 C10.04775391 44.89587891 10.28300781 45.72925781 10.52539062 46.58789062 C12.64448833 53.73497869 15.87546937 59.81320406 20 66 C19.67 66.66 19.34 67.32 19 68 C16.53199953 66.84826645 14.95216435 65.95216435 13 64 C10.19121374 63.08619258 7.41156905 62.26500634 4.5625 61.5 C3.80517578 61.28730469 3.04785156 61.07460938 2.26757812 60.85546875 C-9.1612202 57.72718306 -20.04616546 56.63195168 -31.875 56.6875 C-32.61758057 56.68832581 -33.36016113 56.68915161 -34.12524414 56.69000244 C-46.62378829 56.7215309 -59.04354287 57.37686575 -71.5 58.375 C-72.71668365 58.46954971 -72.71668365 58.46954971 -73.95794678 58.56600952 C-76.25437927 58.74859324 -78.54906087 58.94521609 -80.84375 59.1484375 C-82.15537109 59.26364746 -83.46699219 59.37885742 -84.81835938 59.49755859 C-88.14688758 59.79594796 -88.14688758 59.79594796 -91 62 C-91.99 62 -92.98 62 -94 62 C-93.49396008 59.83125748 -93.00016187 58.00032373 -92 56 C-90.35636866 55.27840576 -88.68949614 54.60648579 -87 54 C-86.67 54.33 -86.34 54.66 -86 55 C-84.1677879 55.06155078 -84.1677879 55.06155078 -81.984375 54.9140625 C-81.14390625 54.87023437 -80.3034375 54.82640625 -79.4375 54.78125 C-78.550625 54.7296875 -77.66375 54.678125 -76.75 54.625 C-75.90953125 54.58117187 -75.0690625 54.53734375 -74.203125 54.4921875 C-69.45684073 54.23485883 -64.72760681 53.89086178 -59.9921875 53.48046875 C-51.45899955 52.81672048 -42.9302529 52.71502034 -34.375 52.6875 C-33.53638428 52.68421692 -32.69776855 52.68093384 -31.83374023 52.67755127 C-17.07086632 52.65885605 -4.02880069 54.1938368 10 59 C9.7733667 58.36199463 9.5467334 57.72398926 9.31323242 57.06665039 C2.6936639 38.27436524 -2.26560344 21.05494685 -1 1 C-0.67 0.67 -0.34 0.34 0 0 Z " fill="#101010" transform="translate(259,214)"/>
<path d="M0 0 C0.734375 1.66015625 0.734375 1.66015625 1 4 C-0.546875 6.62109375 -0.546875 6.62109375 -2.75 9.4375 C-8.57978782 16.9579898 -8.57978782 16.9579898 -11 26 C-11.99 26.33 -12.98 26.66 -14 27 C-15.41829062 34.62331207 -16.29682018 43.50799133 -14 51 C-14.99 51.66 -15.98 52.32 -17 53 C-20.11031167 48.77295408 -20.54386537 45.04183369 -20.5 39.9375 C-20.49572998 39.18597656 -20.49145996 38.43445313 -20.48706055 37.66015625 C-20.27598996 30.66723101 -18.31022558 25.15537815 -15 19 C-14.60425781 18.20207031 -14.20851562 17.40414063 -13.80078125 16.58203125 C-6.2976335 2.09921117 -6.2976335 2.09921117 0 0 Z " fill="#2E2E2E" transform="translate(167,274)"/>
<path d="M0 0 C0.66 0 1.32 0 2 0 C0.84122802 2.8442585 -0.29275847 4.27847757 -2.5625 6.4375 C-5.25037895 9.2632189 -5.46706699 10.26946891 -6 14 C-6.49371094 14.9590625 -6.98742187 15.918125 -7.49609375 16.90625 C-9.77711971 22.12566203 -9.4871761 27.51911506 -9.4375 33.125 C-9.43500244 34.2385083 -9.43250488 35.3520166 -9.42993164 36.49926758 C-9.31084524 43.74130874 -8.5981419 49.73438949 -5.77734375 56.44921875 C-4.81240745 59.6155675 -5.25783295 61.8119491 -6 65 C-6.33 64.01 -6.66 63.02 -7 62 C-7.66 62 -8.32 62 -9 62 C-13.84320485 51.4330076 -14.16454 39.46725658 -14.375 28 C-14.40102295 27.22358154 -14.4270459 26.44716309 -14.45385742 25.6472168 C-14.48005683 17.23901376 -11.01335742 11.60258199 -5.3125 5.5625 C-4.52488281 4.71816406 -3.73726562 3.87382813 -2.92578125 3.00390625 C-1.95725505 1.99608893 -0.98836702 0.98836702 0 0 Z " fill="#262626" transform="translate(186,67)"/>
<path d="M0 0 C-0.33 0.99 -0.66 1.98 -1 3 C-3.972313 3.68153035 -6.86917998 4.2143748 -9.875 4.6875 C-18.69865961 6.26548693 -24.33367737 8.82803388 -31 15 C-31.33 14.01 -31.66 13.02 -32 12 C-30.35697047 10.31002677 -28.68528688 8.64783606 -27 7 C-26.32710937 6.33097656 -25.65421875 5.66195313 -24.9609375 4.97265625 C-20.80323271 2.20268142 -16.67823636 1.55923435 -11.8125 0.6875 C-10.89791016 0.50638672 -9.98332031 0.32527344 -9.04101562 0.13867188 C-2.28532972 -1.14266486 -2.28532972 -1.14266486 0 0 Z " fill="#0F0F0F" transform="translate(188,285)"/>
<path d="M0 0 C4.20626034 1.50223584 5.73900021 4.28550034 8 8 C7.01 8.99 6.02 9.98 5 11 C2.69 8.36 0.38 5.72 -2 3 C-1.34 2.67 -0.68 2.34 0 2 C0 1.34 0 0.68 0 0 Z " fill="#323232" transform="translate(278,280)"/>
<path d="M0 0 C-1.6616804 4.12417063 -4.62338018 7.06554039 -7.625 10.25 C-8.140625 10.80429688 -8.65625 11.35859375 -9.1875 11.9296875 C-10.45425035 13.2902712 -11.72657815 14.64565837 -13 16 C-13 10.40887144 -7.99349783 5.91111714 -4.25 2 C-2 0 -2 0 0 0 Z " fill="#4E4E4E" transform="translate(188,67)"/>
<path d="M0 0 C1.5 1.375 1.5 1.375 3 3 C3 3.66 3 4.32 3 5 C-0.3 5 -3.6 5 -7 5 C-7 4.67 -7 4.34 -7 4 C-5.02 3.67 -3.04 3.34 -1 3 C-0.67 2.01 -0.34 1.02 0 0 Z " fill="#C3C3C3" transform="translate(182,136)"/>
</svg>
