<?xml version="1.0" encoding="UTF-8"?>
<svg version="1.1" xmlns="http://www.w3.org/2000/svg" width="491" height="394">
<path d="M0 0 C2.02077806 0.01618781 4.03958193 -0.00000489 6.06030273 -0.01904297 C22.3194396 0.02903728 33.30637084 5.06974035 45.12475586 16.16455078 C53.83613222 24.9842391 54.73845266 34.01362664 54.6875 45.87475586 C54.44932051 57.36135875 50.77791677 64.79041079 43.32397461 73.39111328 C41.65206397 75.38677716 39.98870075 77.38944428 38.32397461 79.39111328 C39.44416992 79.71724609 40.56436523 80.04337891 41.71850586 80.37939453 C43.19131258 80.82029845 44.66396068 81.26173249 46.13647461 81.70361328 C46.87446289 81.91695313 47.61245117 82.13029297 48.37280273 82.35009766 C49.08500977 82.56601563 49.7972168 82.78193359 50.53100586 83.00439453 C51.18560791 83.19815674 51.84020996 83.39191895 52.51464844 83.59155273 C54.68238561 84.54949893 55.83788153 85.54807318 57.32397461 87.39111328 C58.57300833 91.99692514 58.8778161 95.2059185 56.82397461 99.57861328 C53.70564434 104.14505704 48.90496181 105.24472015 43.75756836 106.40551758 C39.89345345 107.38177141 38.45941016 108.20130262 36.1184082 111.48217773 C34.02831005 115.42200566 33.87273936 119.0431326 34.11694336 123.43017578 C34.14197433 124.18501251 34.16700531 124.93984924 34.1927948 125.71755981 C34.27853201 128.15169736 34.39420581 130.5833089 34.51147461 133.01611328 C34.57839673 134.69736332 34.64365633 136.37868033 34.70727539 138.06005859 C34.83547543 141.3582086 34.9757517 144.65547428 35.12719727 147.95263672 C35.29344229 151.60075394 35.42036985 155.24839387 35.52319336 158.89892578 C35.99616516 174.33689123 38.40182155 188.22941164 43.13647461 202.95361328 C43.45559814 203.96528564 43.77472168 204.97695801 44.10351562 206.01928711 C46.25659082 212.40948687 48.9196455 217.29367692 53.32397461 222.39111328 C54.14639648 223.36177734 54.96881836 224.33244141 55.81616211 225.33251953 C60.2150455 230.17129126 64.66707766 234.67954526 69.64038086 238.92236328 C76.4081397 244.826487 78.29413599 251.6380542 79.03735352 260.38256836 C79.24968165 264.95285296 79.39743855 268.93101021 76.57788086 272.76611328 C73.92072839 274.72080015 71.34004626 276.05273148 68.32397461 277.39111328 C67.16897461 277.94154297 66.01397461 278.49197266 64.82397461 279.05908203 C57.48584888 282.38812398 50.46890438 285.39111328 42.32397461 285.39111328 C42.32397461 284.73111328 42.32397461 284.07111328 42.32397461 283.39111328 C41.30303711 283.41206055 40.28209961 283.43300781 39.23022461 283.45458984 C17.62636863 283.85461438 -3.76373945 283.40430725 -25.30102539 281.57861328 C-26.80898682 281.45431946 -26.80898682 281.45431946 -28.34741211 281.32751465 C-67.65922644 278.03221228 -67.65922644 278.03221228 -76.67602539 269.39111328 C-79.60921524 260.59154374 -78.68363922 248.44420408 -74.99243164 240.02001953 C-74.55801758 239.15248047 -74.12360352 238.28494141 -73.67602539 237.39111328 C-73.19004883 236.36888672 -72.70407227 235.34666016 -72.20336914 234.29345703 C-69.22092872 228.377931 -65.85000447 223.11486498 -61.73852539 217.95361328 C-47.44830583 199.91840782 -41.0915261 178.37597595 -34.24243164 156.70751953 C-33.96343018 155.82523682 -33.68442871 154.9429541 -33.39697266 154.03393555 C-31.38952472 146.67510591 -31.49255807 139.4644849 -31.48852539 131.89111328 C-31.4762793 130.68068359 -31.4640332 129.47025391 -31.45141602 128.22314453 C-31.44948242 127.05138672 -31.44754883 125.87962891 -31.44555664 124.67236328 C-31.44144775 123.61082031 -31.43733887 122.54927734 -31.43310547 121.45556641 C-31.70164101 118.06797026 -32.25217667 115.4819675 -33.67602539 112.39111328 C-35.62110977 111.01819293 -35.62110977 111.01819293 -38.03540039 110.41455078 C-38.90422852 110.13611328 -39.77305664 109.85767578 -40.66821289 109.57080078 C-41.57829102 109.30525391 -42.48836914 109.03970703 -43.42602539 108.76611328 C-55.19812338 105.17002571 -55.19812338 105.17002571 -59.67602539 101.39111328 C-60.54328532 96.58176279 -60.23645513 93.70535607 -57.61352539 89.57861328 C-53.72282202 84.74003317 -48.56139469 83.49965887 -42.67602539 82.39111328 C-43.23032227 81.32892578 -43.78461914 80.26673828 -44.35571289 79.17236328 C-45.08791773 77.74550258 -45.81966412 76.31840655 -46.55102539 74.89111328 C-46.91583008 74.19501953 -47.28063477 73.49892578 -47.65649414 72.78173828 C-52.31743085 63.62935348 -53.04911701 55.61778239 -53.04663086 45.40966797 C-53.05101732 43.39481814 -53.08746677 41.38214174 -53.12524414 39.36767578 C-53.15832737 28.31787862 -50.78375068 21.77054782 -43.19555664 13.63330078 C-30.77358224 2.57870651 -16.25893865 -0.15463934 0 0 Z " fill="#0F0F0F" transform="translate(225.676025390625,56.60888671875)"/>
<path d="M0 0 C-0.32452148 0.86052979 -0.64904297 1.72105957 -0.98339844 2.60766602 C-2.01013896 6.03383305 -2.25811373 8.71458556 -2.265625 12.27734375 C-2.26981445 13.49768311 -2.27400391 14.71802246 -2.27832031 15.9753418 C-2.26897461 17.282854 -2.25962891 18.59036621 -2.25 19.9375 C-2.24689819 20.61318024 -2.24379639 21.28886047 -2.24060059 21.98501587 C-2.09384047 49.52552014 -0.56529074 76.23597877 8.73046875 102.375 C9.62889786 104.94036067 10.37624081 107.37029208 11 110 C10.08504761 109.78065796 10.08504761 109.78065796 9.15161133 109.55688477 C6.37213618 108.89113115 3.59232231 108.2268025 0.8125 107.5625 C-0.14720703 107.33240234 -1.10691406 107.10230469 -2.09570312 106.86523438 C-3.02705078 106.64287109 -3.95839844 106.42050781 -4.91796875 106.19140625 C-6.19837036 105.88505249 -6.19837036 105.88505249 -7.50463867 105.57250977 C-8.32810791 105.38358154 -9.15157715 105.19465332 -10 105 C-11.15181763 104.7208374 -11.15181763 104.7208374 -12.3269043 104.43603516 C-15.83761187 103.86336882 -19.30469695 103.83791201 -22.8515625 103.83203125 C-23.61556366 103.82797775 -24.37956482 103.82392426 -25.16671753 103.81974792 C-27.65285411 103.81028473 -30.13884781 103.8103545 -32.625 103.8125 C-33.89355835 103.81141235 -33.89355835 103.81141235 -35.18774414 103.81030273 C-49.40064922 103.81164776 -63.42749696 104.521702 -77.5859375 105.8125 C-80.39699202 106.03083433 -83.18177426 106.07721166 -86 106 C-84.67646894 102.45864874 -83.06538935 99.15227403 -81.30361938 95.80970764 C-76.75100296 87.10441507 -73.38412251 78.24659807 -70.37939453 68.90649414 C-69.61627409 66.53538756 -68.8350364 64.17083198 -68.05078125 61.80664062 C-67.54583296 60.26857088 -67.04188939 58.73017083 -66.5390625 57.19140625 C-66.31199615 56.50059464 -66.08492981 55.80978302 -65.85098267 55.09803772 C-63.44540099 47.59395021 -61.74267527 40.48172072 -61.76953125 32.55078125 C-61.76998947 31.88966843 -61.77044769 31.2285556 -61.7709198 30.54740906 C-61.77390864 29.16692277 -61.78169171 27.78643881 -61.79418945 26.40600586 C-61.81255375 24.30635507 -61.81469776 22.20714504 -61.81445312 20.10742188 C-61.83554204 14.30333157 -61.90541474 8.72296124 -63 3 C-42.00062976 -0.55276355 -21.22295785 -0.31581783 0 0 Z " fill="#7F7F7F" transform="translate(259,164)"/>
<path d="M0 0 C0.92208252 -0.02151123 1.84416504 -0.04302246 2.79418945 -0.06518555 C16.60520872 -0.13038409 26.62768522 5.64285034 36.66015625 14.7109375 C43.76961337 22.04003639 45.98776999 28.53431564 46.3125 38.625 C45.87256334 53.60044375 40.20829478 62.83711244 30.3203125 73.65625 C28.85053629 75.21694797 28.85053629 75.21694797 27.9375 77.25 C25.25100523 77.71708375 22.6461607 78.05292002 19.9375 78.3125 C19.2259375 78.39048828 18.514375 78.46847656 17.78125 78.54882812 C4.21564505 79.95416905 -9.44609413 80.49188952 -23.07885742 80.60009766 C-24.63304302 80.61695326 -26.1871427 80.64461009 -27.7409668 80.68212891 C-30.03212796 80.73667472 -32.32156073 80.75869081 -34.61328125 80.7734375 C-35.30488846 80.79610687 -35.99649567 80.81877625 -36.70906067 80.84213257 C-40.36713419 80.82598264 -41.77347785 80.53637967 -44.41235352 77.92163086 C-46.32779967 74.82047281 -48.05548172 71.6979418 -49.6875 68.4375 C-50.27789062 67.27605469 -50.86828125 66.11460938 -51.4765625 64.91796875 C-55.06327948 56.62258146 -55.42735426 49.19854256 -55.4375 40.25 C-55.46199219 39.11304688 -55.48648438 37.97609375 -55.51171875 36.8046875 C-55.53554616 29.95827772 -54.92683056 24.97565569 -51.0625 19.25 C-50.55589844 18.49589844 -50.04929688 17.74179688 -49.52734375 16.96484375 C-40.87925259 6.90120825 -30.2579313 2.11847264 -17.25 0.5625 C-11.50878163 0.17256176 -5.75274149 0.07805684 0 0 Z " fill="#7F7F7F" transform="translate(231.0625,59.75)"/>
<path d="M0 0 C0.94596039 0.05867249 1.89192078 0.11734497 2.86654663 0.17779541 C14.02257391 0.88512609 24.95632544 2.00985371 35.95703125 4.01733398 C39.0937231 4.58083 42.21477655 5.03645799 45.375 5.4375 C50.63556526 6.56929115 53.70154106 9.28380458 56.6875 13.6875 C60.35744148 20.61356167 62.70108982 28.92892229 60.6875 36.6875 C58.17013041 39.70341956 55.23267554 41.09416268 51.6875 42.6875 C50.6665625 43.1825 49.645625 43.6775 48.59375 44.1875 C39.80406297 48.19072379 39.80406297 48.19072379 34.6875 46.6875 C34.6875 47.3475 34.6875 48.0075 34.6875 48.6875 C10.40761513 49.12130773 -13.72184736 48.97459637 -37.9375 47 C-38.91259521 46.92567749 -39.88769043 46.85135498 -40.89233398 46.77478027 C-51.35308722 45.95959346 -61.5422866 44.66242116 -71.7734375 42.29296875 C-72.63023102 42.09721756 -73.48702454 41.90146637 -74.36978149 41.69978333 C-79.59651153 40.40118352 -83.84809484 38.73468617 -88.3125 35.6875 C-90.37861102 29.48916693 -90.47281686 20.93871266 -88.375 14.6875 C-85.43740646 10.41463667 -81.76001357 8.23185976 -77.3125 5.6875 C-75.63414062 4.66462891 -75.63414062 4.66462891 -73.921875 3.62109375 C-54.05431068 -7.60828346 -21.8920508 -1.40300349 0 0 Z " fill="#7F7F7F" transform="translate(240.3125,288.3125)"/>
<path d="M0 0 C0.495 1.485 0.495 1.485 1 3 C1.61681641 2.25556641 1.61681641 2.25556641 2.24609375 1.49609375 C4 0 4 0 5.91015625 -0.21484375 C11.64059342 0.52356104 19.74678489 1.74678489 24 6 C24.39362593 9.4639082 24.22580208 11.53764336 22.6875 14.6875 C18.6480237 18.16332844 14.12261809 18.88507724 9 20 C8.36984482 20.17334366 7.73968964 20.34668732 7.09043884 20.52528381 C4.96287479 21.00843074 3.07549072 21.14389467 0.89672852 21.17358398 C0.09811905 21.18707382 -0.70049042 21.20056366 -1.52330017 21.21446228 C-2.80920799 21.23011986 -2.80920799 21.23011986 -4.12109375 21.24609375 C-5.9628947 21.27907013 -7.80469146 21.31228106 -9.64648438 21.34570312 C-12.52918224 21.39277654 -15.41186805 21.43714738 -18.29467773 21.47680664 C-28.11527224 21.6183724 -37.65938455 21.82962663 -47.35522461 23.5612793 C-50.97850995 24.16231721 -54.39040997 24.23070106 -58.0625 24.1875 C-59.29097656 24.18105469 -60.51945312 24.17460937 -61.78515625 24.16796875 C-64.42910179 24.02982822 -66.49586124 23.76486247 -69 23 C-69.76957031 22.79761719 -70.53914063 22.59523437 -71.33203125 22.38671875 C-76.73274712 20.86431223 -81.3870533 19.23887747 -86 16 C-86.84765625 14.13671875 -86.84765625 14.13671875 -87 12 C-85.40315777 8.49972182 -83.16777052 6.15449336 -80 4 C-75.58096425 3.19184949 -71.44816466 3.53315253 -67 4 C-65.4840625 4.12568359 -65.4840625 4.12568359 -63.9375 4.25390625 C-61.61752568 4.46151759 -59.31060456 4.70791455 -57 5 C-57 4.34 -57 3.68 -57 3 C-55.72882324 2.94465088 -54.45764648 2.88930176 -53.14794922 2.83227539 C-48.41780111 2.62534804 -43.68787837 2.41360925 -38.95800781 2.20043945 C-36.91346952 2.10896304 -34.86887294 2.01877985 -32.82421875 1.92993164 C-29.8800442 1.8017684 -26.9361128 1.66890835 -23.9921875 1.53515625 C-22.6277803 1.47727684 -22.6277803 1.47727684 -21.23580933 1.41822815 C-14.07209986 1.08548571 -7.18121442 -0.12381404 0 0 Z " fill="#7F7F7F" transform="translate(256,140)"/>
<path d="M0 0 C17.8312142 -0.58502989 35.23477908 -1.01410807 52.50939941 4.08209229 C53.53291504 4.30896729 54.55643066 4.53584229 55.61096191 4.76959229 C63.55327807 6.64388518 67.51779348 11.2526624 72.11364746 17.71392822 C72.56265915 18.34458191 73.01167084 18.9752356 73.47428894 19.625 C73.8158754 20.10584045 74.15746185 20.58668091 74.50939941 21.08209229 C73.246521 20.88510742 71.98364258 20.68812256 70.68249512 20.48516846 C57.70802591 18.51468694 44.79124254 17.21788041 31.69689941 16.39459229 C30.72882355 16.33238495 29.76074768 16.27017761 28.76333618 16.20608521 C-11.95355775 11.41842271 -11.95355775 11.41842271 -49.24060059 22.83209229 C-51.14859756 24.57055427 -51.14859756 24.57055427 -52.49060059 26.08209229 C-52.82060059 25.42209229 -53.15060059 24.76209229 -53.49060059 24.08209229 C-52.55700684 21.83209229 -52.55700684 21.83209229 -51.05310059 19.08209229 C-50.58001465 18.19521729 -50.10692871 17.30834229 -49.61950684 16.39459229 C-48.91696777 15.30146729 -48.21442871 14.20834229 -47.49060059 13.08209229 C-47.0221875 12.24694092 -46.55377441 11.41178955 -46.07116699 10.55133057 C-43.22841887 6.16273442 -41.05194657 3.56044927 -35.95568848 1.99908447 C-31.5735074 1.28495601 -27.17134951 1.11827112 -22.74060059 0.95709229 C-21.10128916 0.86594189 -19.46212736 0.77206372 -17.82312012 0.67559814 C-11.88457789 0.35209232 -5.94358718 0.19590562 0 0 Z " fill="#7F7F7F" transform="translate(209.4906005859375,269.91790771484375)"/>
<path d="M0 0 C0.66 0 1.32 0 2 0 C2.33 0.99 2.66 1.98 3 3 C17.51588681 11.18168166 35.92785637 11.92314099 52.1875 13.1875 C53.71117187 13.31215637 53.71117187 13.31215637 55.265625 13.43933105 C78.48353053 15.32452247 101.71453074 15.81438191 125 16 C125 15.34 125 14.68 125 14 C129.455 13.505 129.455 13.505 134 13 C133.625 15.3125 133.625 15.3125 132 18 C127.40134118 20.07263496 123.03117981 21 118 21 C118 20.34 118 19.68 118 19 C116.46859375 19.0314209 116.46859375 19.0314209 114.90625 19.06347656 C93.30239402 19.4635011 71.91228594 19.01319397 50.375 17.1875 C49.36969238 17.10463745 48.36438477 17.0217749 47.32861328 16.93640137 C9.03546131 13.7264881 9.03546131 13.7264881 -1 5 C-0.67 3.35 -0.34 1.7 0 0 Z " fill="#0A0A0A" transform="translate(150,321)"/>
<path d="M0 0 C-0.52734375 1.9375 -0.52734375 1.9375 -2 4 C-4.60904009 4.53085671 -6.92850237 4.82660859 -9.5625 5 C-16.04799887 5.63071441 -21.33509755 6.58830453 -27 10 C-27.84175781 10.50660156 -28.68351562 11.01320313 -29.55078125 11.53515625 C-36.86831586 16.29426395 -42.10687397 21.66606981 -45 30 C-46.75809338 46.62949499 -45.6178782 61.65925309 -36.90625 76.0546875 C-35.56779434 78.92775181 -36.02155245 81.06465735 -37 84 C-39.31 84 -41.62 84 -44 84 C-44 83.67 -44 83.34 -44 83 C-41.525 82.505 -41.525 82.505 -39 82 C-39.55429688 80.9378125 -40.10859375 79.875625 -40.6796875 78.78125 C-41.41189234 77.35438929 -42.14363873 75.92729327 -42.875 74.5 C-43.42220703 73.45585937 -43.42220703 73.45585937 -43.98046875 72.390625 C-48.64140546 63.2382402 -49.37309161 55.22666911 -49.37060547 45.01855469 C-49.37499193 43.00370486 -49.41144138 40.99102846 -49.44921875 38.9765625 C-49.48230198 27.92676534 -47.10772528 21.37943454 -39.51953125 13.2421875 C-28.43385774 3.37679743 -14.75741255 -0.89943598 0 0 Z " fill="#171717" transform="translate(222,57)"/>
<path d="M0 0 C-0.52734375 1.9375 -0.52734375 1.9375 -2 4 C-4.60904009 4.53085671 -6.92850237 4.82660859 -9.5625 5 C-20.57345069 6.07081434 -28.34991489 10.01098196 -37 17 C-38.35555293 18.64864545 -39.69631653 20.31003995 -41 22 C-43.75 23.3125 -43.75 23.3125 -46 24 C-44.81502418 17.16715241 -39.22872528 12.57868041 -33.8125 8.7421875 C-23.30058378 2.16273306 -12.4577364 -0.75927513 0 0 Z " fill="#181818" transform="translate(222,57)"/>
<path d="M0 0 C2.97 0.495 2.97 0.495 6 1 C4.54144353 4.68646141 2.69770955 6.16143971 -0.625 8.25 C-1.44226563 8.77078125 -2.25953125 9.2915625 -3.1015625 9.828125 C-4.04128906 10.40820312 -4.04128906 10.40820312 -5 11 C-3.77472971 6.94718288 -2.30119506 3.55639236 0 0 Z " fill="#828282" transform="translate(161,285)"/>
<path d="M0 0 C4.4571874 0.26218749 6.51522698 0.57711289 9.9375 3.5625 C10.618125 4.366875 11.29875 5.17125 12 6 C9.46100862 6.9435441 8.39090725 7.16906025 5.859375 6.07421875 C5.16328125 5.61660156 4.4671875 5.15898438 3.75 4.6875 C3.04359375 4.23761719 2.3371875 3.78773437 1.609375 3.32421875 C1.07828125 2.88722656 0.5471875 2.45023437 0 2 C0 1.34 0 0.68 0 0 Z " fill="#1B1B1B" transform="translate(252,62)"/>
<path d="M0 0 C0 0.66 0 1.32 0 2 C-1.609375 3.5859375 -1.609375 3.5859375 -3.75 5.375 C-6.6243732 7.81617866 -9.38543992 10.27649992 -12 13 C-12.66 12.67 -13.32 12.34 -14 12 C-12.56665422 10.37133456 -11.12817021 8.74719006 -9.6875 7.125 C-8.88699219 6.22007813 -8.08648437 5.31515625 -7.26171875 4.3828125 C-3.10163934 0 -3.10163934 0 0 0 Z " fill="#474747" transform="translate(190,66)"/>
<path d="M0 0 C0.33 0.66 0.66 1.32 1 2 C0.67 2.66 0.34 3.32 0 4 C-0.66 4 -1.32 4 -2 4 C-2 4.99 -2 5.98 -2 7 C-6.13043478 11.56521739 -6.13043478 11.56521739 -9 13 C-7.47987323 7.59510481 -3.72614782 4.01507372 0 0 Z " fill="#757575" transform="translate(187,71)"/>
<path d="M0 0 C4.875 4.75 4.875 4.75 6 7 C3.69 6.67 1.38 6.34 -1 6 C-1 2 -1 2 0 0 Z " fill="#888888" transform="translate(278,284)"/>
<path d="M0 0 C0.99 0.33 1.98 0.66 3 1 C1.75453595 4.73639216 0.36595047 5.18756513 -3 7 C-1.125 1.125 -1.125 1.125 0 0 Z " fill="#979797" transform="translate(159,289)"/>
<path d="M0 0 C0.66 0.66 1.32 1.32 2 2 C1.01 2.495 1.01 2.495 0 3 C0.33 3.99 0.66 4.98 1 6 C-0.98 6.33 -2.96 6.66 -5 7 C-3.35 4.69 -1.7 2.38 0 0 Z " fill="#767676" transform="translate(170,273)"/>
<path d="M0 0 C0.625 1.8125 0.625 1.8125 1 4 C0.01 5.485 0.01 5.485 -1 7 C-3 6 -3 6 -4 3 C-2.68 2.01 -1.36 1.02 0 0 Z " fill="#777777" transform="translate(198,64)"/>
</svg>
