<?xml version="1.0" encoding="UTF-8"?>
<svg version="1.1" xmlns="http://www.w3.org/2000/svg" width="491" height="394">
<path d="M0 0 C1.78168532 3.56337065 1.89993489 7.14223716 1 11 C-1.7628451 14.40478177 -5.07814787 17.03907394 -9 19 C-8.78085938 19.83015625 -8.56171875 20.6603125 -8.3359375 21.515625 C-4.80167367 35.25040638 -1.91916812 49.12371385 1 63 C3.15797538 60.84202462 3.61427138 59.63136671 4.55078125 56.78125 C4.83493896 55.93530273 5.11909668 55.08935547 5.41186523 54.21777344 C5.70907471 53.3209082 6.00628418 52.42404297 6.3125 51.5 C8.72706143 44.38246371 11.25954277 37.55010944 15 31 C14.34773438 30.56816406 13.69546875 30.13632812 13.0234375 29.69140625 C11 28 11 28 10.625 24.9375 C11 22 11 22 13 20 C16.51562267 20.19531237 19.26258273 20.64074543 22.4375 22.1875 C24 24 24 24 24.4375 26.9375 C24 30 24 30 22.4609375 31.625 C20.18144775 35.33069456 20.85494908 38.83339286 21.1875 43.0625 C21.23197266 43.87783203 21.27644531 44.69316406 21.32226562 45.53320312 C21.63876867 50.55165758 21.63876867 50.55165758 24 55 C24.32871094 54.53851563 24.65742188 54.07703125 24.99609375 53.6015625 C28.68641789 48.54111802 32.70478105 43.90051382 36.94921875 39.296875 C37.62597656 38.53890625 38.30273438 37.7809375 39 37 C39.59039062 36.360625 40.18078125 35.72125 40.7890625 35.0625 C42.44232349 32.24662322 42.10664391 30.45073534 41.6875 27.25 C41.56761719 26.26515625 41.44773437 25.2803125 41.32421875 24.265625 C41.16373047 23.14414062 41.16373047 23.14414062 41 22 C43 21 43 21 44.875 21.453125 C45.57625 21.71609375 46.2775 21.9790625 47 22.25 C47.70125 22.50265625 48.4025 22.7553125 49.125 23.015625 C51 24 51 24 53 27 C53.4375 29.4375 53.4375 29.4375 53 32 C52.2575 32.556875 51.515 33.11375 50.75 33.6875 C46.77185464 37.0327586 45.6494593 41.17141522 44 46 C43.34 46 42.68 46 42 46 C41.67 47.32 41.34 48.64 41 50 C40.34 50 39.68 50 39 50 C38.814375 51.3303125 38.814375 51.3303125 38.625 52.6875 C38.05587264 55.70387502 37.23385564 58.20326054 36 61 C36.66 61.33 37.32 61.66 38 62 C40.45411028 60.85062417 40.45411028 60.85062417 43.0625 59.1875 C43.96097656 58.64480469 44.85945312 58.10210937 45.78515625 57.54296875 C48.1045955 56.18936114 48.1045955 56.18936114 49 54 C51.25981826 52.6042299 53.51504608 51.24498708 55.88671875 50.046875 C57.97993971 48.84104386 59.4550179 47.86794446 61 46 C61.59611035 42.59066714 61.41884333 39.42387798 61 36 C63 35 63 35 65.3125 35.75 C72.46250411 39.07558331 72.46250411 39.07558331 74.1015625 41.89453125 C74.625 43.8125 74.625 43.8125 75 47 C72 49 72 49 68.875 49 C62.36801233 49.73065751 58.39233371 57.01458077 54.59765625 61.75 C52.28044038 64.62116309 49.87755118 67.01141929 47.0625 69.375 C43.08928803 72.79784295 39.47297124 76.32265739 37 81 C36.74996036 84.54178598 36.74996036 84.54178598 37 88 C36.29038455 89.64501764 35.57595349 91.2890633 34.796875 92.90234375 C33.39953178 96.58064429 32.99086092 100.44913679 32.4296875 104.328125 C32 107 32 107 31 110 C31.24549088 113.09809487 31.61041851 114.57984597 33.7421875 116.87890625 C34.44601562 117.43449219 35.14984375 117.99007812 35.875 118.5625 C42.75140213 124.05600945 42.75140213 124.05600945 43.43359375 129.390625 C43.44483852 140.50045768 41.26461635 146.49203546 34.3671875 155.140625 C27.78718165 164.08943295 29.39538041 177.62589322 30.91796875 188.01171875 C31.33048099 190.57205359 31.75409781 193.13061843 32.1875 195.6875 C32.41398797 197.05296388 32.64038648 198.41844261 32.86669922 199.78393555 C34.29844906 208.32405544 35.87519382 216.8313173 37.625 225.3125 C37.91540161 226.72245239 37.91540161 226.72245239 38.21166992 228.16088867 C42.358429 247.56912387 51.24153454 259.88325468 68.00390625 270.77734375 C70.08173412 272.08510687 70.08173412 272.08510687 72.6875 273.375 C79.55745328 278.20253474 81.9542826 284.63808861 83.53515625 292.6640625 C84.19810415 297.42168864 84.67032154 302.22069446 84 307 C78.82488226 312.17511774 71.05807642 312.59317585 64.125 313.125 C62.73982178 313.24391602 62.73982178 313.24391602 61.32666016 313.36523438 C54.97471967 313.8933806 48.61827094 314.28815373 42.25268555 314.60595703 C35.1399454 314.96647112 28.03987344 315.47581136 20.9375 316 C19.79522949 316.08314453 18.65295898 316.16628906 17.47607422 316.25195312 C12.84704603 316.59741314 8.23477526 316.95027143 3.62890625 317.53125 C-2.21099844 318.21149825 -8.08059241 318.29058041 -13.95349121 318.4458313 C-17.4327741 318.53792386 -20.91172085 318.64074449 -24.390625 318.74609375 C-25.40518768 318.776782 -25.40518768 318.776782 -26.44024658 318.80809021 C-31.22136114 318.95936934 -35.9790842 319.2224046 -40.75 319.5625 C-88.47709871 322.63380462 -88.47709871 322.63380462 -97 316 C-100.30296958 311.95422286 -100.45918071 308.09931243 -100.375 303.0625 C-100.38660156 302.37220703 -100.39820313 301.68191406 -100.41015625 300.97070312 C-100.37908843 295.5079439 -99.20751591 291.41911717 -95.4921875 287.34765625 C-94.95851562 286.92355469 -94.42484375 286.49945313 -93.875 286.0625 C-92.96234375 285.32386719 -92.96234375 285.32386719 -92.03125 284.5703125 C-89.81458409 282.85665924 -87.59496688 281.1468745 -85.375 279.4375 C-81.98780514 276.81700127 -78.91834633 274.14874209 -76 271 C-75.47978271 270.4755127 -74.95956543 269.95102539 -74.42358398 269.41064453 C-69.2666464 263.95631655 -66.45441279 258.24093231 -63.6875 251.3125 C-63.25381104 250.24757324 -62.82012207 249.18264648 -62.37329102 248.08544922 C-59.44662101 240.67860541 -57.49179457 233.97335022 -57 226 C-56.83212672 224.41247262 -56.66124997 222.82526154 -56.48828125 221.23828125 C-54.69810351 203.37964065 -56.615522 185.71142979 -59 168 C-59.13921875 166.90606934 -59.2784375 165.81213867 -59.421875 164.68505859 C-59.82998654 161.55478642 -60.28145962 158.43423922 -60.75 155.3125 C-60.87020508 154.38711426 -60.99041016 153.46172852 -61.11425781 152.50830078 C-62.1088563 146.42733009 -64.05193851 143.07777554 -68.48681641 138.78417969 C-70.24985121 136.70540293 -70.54476587 135.63465036 -70.625 132.9375 C-69.84461376 128.02106667 -69.00150722 123.85609858 -65.28613281 120.41064453 C-60.75399178 116.01042827 -59.56747381 112.13557477 -59.38368225 106.00370789 C-59.39859292 102.37475381 -59.50493705 98.75827226 -59.67944336 95.13354492 C-59.81264188 92.30949187 -59.88617262 89.48847305 -59.95117188 86.66210938 C-60.01213359 84.85404557 -60.07647063 83.04609175 -60.14453125 81.23828125 C-60.17931328 79.98184563 -60.17931328 79.98184563 -60.21479797 78.70002747 C-60.49851834 73.39375093 -61.51000893 70.22332175 -65 66 C-67.52906386 63.91966637 -67.52906386 63.91966637 -70.25 62.25 C-71.86469104 61.21398436 -73.45818521 60.14164912 -75 59 C-75 58.34 -75 57.68 -75 57 C-75.55429688 56.7628125 -76.10859375 56.525625 -76.6796875 56.28125 C-79.55148267 54.69547758 -81.71145652 52.71901908 -84.125 50.5 C-84.99382812 49.7059375 -85.86265625 48.911875 -86.7578125 48.09375 C-88.19408422 46.75256247 -89.61045683 45.38954317 -91 44 C-93.04573478 43.66330615 -95.05600952 43.55930828 -97.125 43.44140625 C-99 43 -99 43 -101 40 C-100.81989972 36.63812807 -100.58112046 34.00081858 -98.875 31.0625 C-95.82531829 29.33434703 -93.41481611 29.57314799 -90 30 C-87.61846232 32.13517171 -87.06627611 33.70999183 -86.35546875 36.8203125 C-84.5254244 41.11326955 -81.93658858 42.73481731 -78.125 45.25 C-77.49980469 45.683125 -76.87460938 46.11625 -76.23046875 46.5625 C-73.24907461 48.60472347 -70.30232184 50.50648761 -67 52 C-67 52.66 -67 53.32 -67 54 C-64.36095629 55.41377341 -61.92879371 56.37240135 -59 57 C-59 56.34 -59 55.68 -59 55 C-60.65 54.67 -62.3 54.34 -64 54 C-63.01 53.01 -62.02 52.02 -61 51 C-61.99 50.505 -61.99 50.505 -63 50 C-64.81159884 46.73912209 -66.29337199 43.67446567 -67 40 C-67.66 40 -68.32 40 -69 40 C-71.71391278 35.22642128 -73.56561146 31.65611463 -73 26 C-73.61875 25.71125 -74.2375 25.4225 -74.875 25.125 C-77 24 -77 24 -79 22 C-78.625 18.875 -78.625 18.875 -78 16 C-73.04653013 14.40210649 -68.86717585 15.71693186 -64 17 C-63.75957724 21.08718695 -64.57741188 24.17679443 -66 28 C-65.360625 28.61875 -64.72125 29.2375 -64.0625 29.875 C-61.68441708 32.24653172 -59.46678335 34.72760186 -57.25 37.25 C-52.69376986 42.3390774 -47.93432803 47.21267236 -43.125 52.0625 C-42.37508789 52.82530273 -41.62517578 53.58810547 -40.85253906 54.37402344 C-40.1406543 55.08719727 -39.42876953 55.80037109 -38.6953125 56.53515625 C-38.05609863 57.178479 -37.41688477 57.82180176 -36.75830078 58.48461914 C-34.96778049 60.22173952 -34.96778049 60.22173952 -32 61 C-31.64267766 55.99748728 -32.78464271 53.41466128 -35 49 C-35.74073117 46.70399699 -36.42728554 44.38990523 -37.0625 42.0625 C-37.38347656 40.89847656 -37.70445312 39.73445313 -38.03515625 38.53515625 C-38.70293186 36.08844806 -39.35559485 33.63758364 -39.99609375 31.18359375 C-40.74836774 27.94382063 -40.74836774 27.94382063 -43 26 C-42.44444444 21.44444444 -42.44444444 21.44444444 -41 20 C-36.78302258 19.51342568 -34.6375228 19.60154825 -31 21.875 C-28.43541871 25.88215826 -28.99887151 27.87555369 -29.734375 32.41796875 C-30.13496688 36.31195743 -29.16689488 39.29339274 -28 43 C-27.34 43 -26.68 43 -26 43 C-25.28385417 44.72526042 -24.56770833 46.45052083 -23.8515625 48.17578125 C-22.93193308 50.26533932 -22.93193308 50.26533932 -21 53 C-16.95924575 48.07330498 -17.48091175 42.55966526 -17.375 36.5 C-17.32375974 34.4478277 -17.26918741 32.3957353 -17.2109375 30.34375 C-17.19337402 29.43818359 -17.17581055 28.53261719 -17.15771484 27.59960938 C-17 25 -17 25 -16.40161133 22.28344727 C-16.26907959 21.52990967 -16.13654785 20.77637207 -16 20 C-17.32258172 18.02654255 -17.32258172 18.02654255 -19.3125 16.4375 C-23.38214699 12.86314473 -24.80886565 10.50518302 -25.5 5.0625 C-25.44479175 2.59653147 -25.29299578 1.38812428 -23.796875 -0.59375 C-16.05460921 -7.31935463 -7.87710977 -5.3049923 0 0 Z M46 28 C46.66 28.66 47.32 29.32 48 30 C48 29.34 48 28.68 48 28 C47.34 28 46.68 28 46 28 Z M-29 50 C-28 52 -28 52 -28 52 Z M-28 52 C-27.67 53.32 -27.34 54.64 -27 56 C-26.67 55.34 -26.34 54.68 -26 54 C-26.66 53.34 -27.32 52.68 -28 52 Z M20 52 C20 53.98 20 55.96 20 58 C20.33 58 20.66 58 21 58 C21 56.02 21 54.04 21 52 C20.67 52 20.34 52 20 52 Z " fill="#040404" transform="translate(236,22)"/>
<path d="M0 0 C2.59461827 1.02743096 5.17318142 2.07496282 7.734375 3.18359375 C21.63903431 8.96519432 35.78552264 10.51655771 50.72949219 10.39111328 C52.99995934 10.37500029 55.2686477 10.39109767 57.5390625 10.41015625 C67.9676218 10.42278366 77.79908637 9.12572836 88 7 C87.21875 10.25520833 86.4375 13.51041667 85.65625 16.765625 C83.73167561 27.21111794 85.42582395 37.6442299 87.125 48 C87.28906845 49.02732742 87.28906845 49.02732742 87.45645142 50.07540894 C90.13364726 66.81568452 93.08408842 83.76118307 98 100 C96.36467757 101.63532243 94.38808696 101.20279357 92.125 101.3125 C87.53404076 101.63536454 83.28721096 102.35930828 78.84300232 103.46748352 C66.52118736 106.46622996 54.55410352 106.49176095 41.9375 106.3125 C39.86394139 106.30096308 37.79037219 106.29119158 35.71679688 106.28320312 C23.78527431 106.21127312 11.90454386 105.79889337 0 105 C0.18175781 104.36835938 0.36351562 103.73671875 0.55078125 103.0859375 C4.30939493 89.70912778 6.52241701 77.19359959 6.375 63.3125 C6.3713443 62.55631378 6.3676886 61.80012756 6.36392212 61.02102661 C6.24816603 40.44261612 3.72697868 20.2208418 0 0 Z " fill="#FEFEFE" transform="translate(177,170)"/>
<path d="M0 0 C3.76698865 -0.00970998 7.53343143 -0.04083009 11.30029297 -0.07226562 C23.81778658 -0.12609767 35.87383586 0.25971245 48.20385742 2.50732422 C53.66208743 3.49777242 59.17119812 3.93208739 64.70635986 4.23883057 C68.31999862 4.54903704 70.42920365 5.16209119 73.39794922 7.28320312 C76.08476147 10.99473026 76.96017693 14.23867474 77.85107422 18.67773438 C78.01929688 19.41572266 78.18751953 20.15371094 78.36083984 20.9140625 C79.27495026 25.11150828 79.60734321 28.92546013 79.53857422 33.24023438 C68.01109525 37.28517567 56.85439342 38.19665094 44.72607422 38.86523438 C41.11495621 39.07968589 37.50444463 39.3031348 33.89404297 39.52929688 C33.01219833 39.58283325 32.1303537 39.63636963 31.2217865 39.69152832 C25.68608893 40.04471974 20.21037822 40.59710313 14.71044922 41.31054688 C6.64410099 42.34259892 -1.26655893 42.5393973 -9.39892578 42.49023438 C-10.74984088 42.49738982 -12.10075266 42.50520121 -13.45166016 42.51367188 C-15.3572168 42.50980469 -15.3572168 42.50980469 -17.30126953 42.50585938 C-18.43943115 42.50360352 -19.57759277 42.50134766 -20.75024414 42.49902344 C-23.46142578 42.24023438 -23.46142578 42.24023438 -25.46142578 40.24023438 C-27.65789341 40.53309673 -29.21649366 41.09013345 -31.10595703 42.24804688 C-34.43108472 43.64868109 -37.71601878 43.71643643 -41.27392578 43.86523438 C-42.05364746 43.90245605 -42.83336914 43.93967773 -43.63671875 43.97802734 C-59.18857 44.63909526 -74.95866644 44.83177241 -90.46142578 43.24023438 C-91.22068359 43.16675781 -91.97994141 43.09328125 -92.76220703 43.01757812 C-94.46142578 42.24023438 -94.46142578 42.24023438 -95.69189453 40.04882812 C-96.52102196 37.02272343 -96.76181865 34.43848157 -96.77392578 31.30273438 C-96.79068359 30.30371094 -96.80744141 29.3046875 -96.82470703 28.27539062 C-96.20829338 23.12535395 -94.34795779 19.74887126 -90.35986328 16.50195312 C-89.19434292 15.63175043 -88.0195982 14.77378016 -86.83642578 13.92773438 C-85.65658943 13.05684224 -84.47689453 12.18575845 -83.29736328 11.31445312 C-82.36150391 10.62996094 -81.42564453 9.94546875 -80.46142578 9.24023438 C-80.13142578 8.91023438 -79.80142578 8.58023437 -79.46142578 8.24023438 C-74.90340772 6.883429 -70.32253571 6.17604159 -65.58642578 5.86523438 C-59.60767168 5.41369211 -53.87800713 4.1223299 -48.06542969 2.69970703 C-32.49440973 -0.87764529 -15.86781354 0.0246618 0 0 Z " fill="#FEFEFE" transform="translate(236.46142578125,293.759765625)"/>
<path d="M0 0 C10.63965551 -0.02314874 21.27930505 -0.04092805 31.9189806 -0.05181217 C36.85916342 -0.05703544 41.79932903 -0.06412304 46.73950195 -0.07543945 C51.50515093 -0.08628802 56.27078334 -0.09228104 61.03644371 -0.09487724 C62.85654651 -0.09672793 64.67664839 -0.10034173 66.49674416 -0.10573006 C69.04187622 -0.11296658 71.58693942 -0.11398983 74.13208008 -0.11352539 C75.26604218 -0.1189183 75.26604218 -0.1189183 76.4229126 -0.12442017 C79.55728625 -0.1182124 82.00268577 0.00089526 85 1 C85.495 2.485 85.495 2.485 86 4 C86.99 4.495 86.99 4.495 88 5 C88.33 4.34 88.66 3.68 89 3 C89.8104109 22.06849172 85.40332959 46.31218242 74 62 C72.2890625 63.79296875 72.2890625 63.79296875 70.625 65.1875 C70.08101563 65.65542969 69.53703125 66.12335938 68.9765625 66.60546875 C61.44315291 71.92054231 53.86259029 71.89928028 45 71 C39.85288513 70.04645083 34.96680882 68.64125318 30 67 C28.84113281 66.63777344 27.68226563 66.27554688 26.48828125 65.90234375 C15.10349464 62.00163289 8.58286278 56.18889986 3.09375 45.515625 C1.551407 41.96823611 0.88237737 38.82460425 0.79467773 34.96582031 C0.77473251 34.18531311 0.75478729 33.40480591 0.73423767 32.60064697 C0.71752518 31.76821472 0.70081268 30.93578247 0.68359375 30.078125 C0.6524221 28.78814606 0.6524221 28.78814606 0.62062073 27.47210693 C0.55536261 24.73148402 0.49635083 21.99076725 0.4375 19.25 C0.39429219 17.3893133 0.35067718 15.52863602 0.30664062 13.66796875 C0.19970558 9.11207477 0.09837149 4.5560866 0 0 Z " fill="#FDFDFD" transform="translate(179,93)"/>
<path d="M0 0 C4.76824525 3.06576644 8.42047439 5.84094877 11 11 C11.65738594 17.68763775 11.05941813 23.95548159 8 30 C1.17995525 37.62240296 -12.12778291 38.64681286 -21.72631836 39.22412109 C-25.79924699 39.34012142 -29.86328761 39.38709693 -33.9375 39.375 C-34.65966705 39.37412384 -35.38183411 39.37324768 -36.12588501 39.37234497 C-55.19329734 39.29629531 -75.40999251 37.84329141 -90.3125 24.5 C-93.2491817 21.16928253 -94.16142569 18.51991933 -94 14 C-92.63305778 9.96752046 -91.10869455 5.98912937 -88 3 C-85.609375 2.64453125 -85.609375 2.64453125 -83 3 C-81.2265625 4.7578125 -81.2265625 4.7578125 -79.625 7.125 C-74.33761125 14.86073625 -68.39492187 18.76598505 -59.625 21.75 C-58.82578125 22.04003906 -58.0265625 22.33007812 -57.203125 22.62890625 C-45.28510099 26.85228369 -31.49306449 29.67147757 -19.015625 26.16015625 C-16.70282377 24.97584252 -14.93422687 23.73017657 -13 22 C-12.38253906 21.46503906 -11.76507813 20.93007812 -11.12890625 20.37890625 C-5.43184387 14.68184387 -2.83243312 7.38715158 0 0 Z " fill="#FAFAFA" transform="translate(264,139)"/>
<path d="M0 0 C1.6484375 1.890625 1.6484375 1.890625 3.375 4.25 C5.43397239 6.99966801 7.44444838 9.57229718 9.9375 11.9375 C10.618125 12.618125 11.29875 13.29875 12 14 C12 14.66 12 15.32 12 16 C12.5775 16.0825 13.155 16.165 13.75 16.25 C16.6159304 17.20531013 17.9990764 18.78469173 20 21 C14.68473154 21.12465605 9.82814987 20.91976273 4.60945129 19.94549561 C-8.47861217 17.51673836 -21.51282732 17.61193192 -34.7824707 17.71875 C-38.69166677 17.75003334 -42.60045632 17.75975333 -46.50976562 17.765625 C-70.81551193 17.44864891 -70.81551193 17.44864891 -94.75 21 C-102.19988782 22.72186098 -109.33949163 23.72493686 -117 24 C-115.7315625 22.6696875 -115.7315625 22.6696875 -114.4375 21.3125 C-111.46606179 17.88201974 -109.39942358 14.24028611 -107.28515625 10.23046875 C-106.9667981 9.62988647 -106.64843994 9.0293042 -106.32043457 8.41052246 C-105.54296485 6.94245523 -104.77092143 5.47151646 -104 4 C-103.16522629 4.00888245 -102.33045258 4.01776489 -101.47038269 4.0269165 C-93.51492483 4.10782897 -85.55960964 4.16834736 -77.60383129 4.20724869 C-73.51589772 4.22792212 -69.42831049 4.25585725 -65.34057617 4.30175781 C-41.74442854 4.80710834 -41.74442854 4.80710834 -18.56762695 0.94555664 C-12.62037097 -0.63069207 -5.93880114 -1.97960038 0 0 Z " fill="#FCFCFC" transform="translate(279,274)"/>
<path d="M0 0 C1.63030067 3.00214971 2.60046363 5.87534937 3.4375 9.18359375 C3.81914307 10.69083008 3.81914307 10.69083008 4.20849609 12.22851562 C4.46969238 13.28748047 4.73088867 14.34644531 5 15.4375 C5.2676416 16.51322266 5.5352832 17.58894531 5.81103516 18.69726562 C7.62367539 26.11800651 9.05195182 33.41561456 10 41 C5.38 41 0.76 41 -4 41 C-3.59591719 35.64276666 -3.18686568 30.28594477 -2.77319336 24.92944336 C-2.63315189 23.10695694 -2.49447168 21.28436538 -2.35717773 19.46166992 C-2.15966369 16.84264798 -1.95726636 14.22404243 -1.75390625 11.60546875 C-1.6934462 10.78974899 -1.63298615 9.97402924 -1.57069397 9.1335907 C-1.31670031 5.91324623 -1.02583431 3.07750294 0 0 Z " fill="#FAFAFA" transform="translate(224,49)"/>
<path d="M0 0 C0.66 0 1.32 0 2 0 C3.48046875 1.50390625 3.48046875 1.50390625 5.1875 3.5625 C7.53279758 6.3253868 9.90829405 8.96679757 12.5 11.5 C15.63256552 14.576376 18.50381295 17.82572731 21.37109375 21.1484375 C23.47723509 23.54246866 25.71524051 25.77699077 28 28 C29.33333333 29.33333333 30.66666667 30.66666667 32 32 C27.04781436 32.74977016 22.79568912 33.17581501 18.4765625 30.34765625 C13.20615878 25.2301482 9.46370531 19.43123244 6 13 C5.15888672 11.51113281 5.15888672 11.51113281 4.30078125 9.9921875 C0 2.31293706 0 2.31293706 0 0 Z " fill="#E5E5E5" transform="translate(171,58)"/>
<path d="M0 0 C3.0625 1.6875 3.0625 1.6875 5 4 C5.625 6.4375 5.625 6.4375 5 9 C1.49057189 13.57289118 -1.58297211 14.83162144 -7 16 C-12.77008232 10.19557196 -12.77008232 10.19557196 -13.625 5.75 C-13 3 -13 3 -11.5625 1.125 C-7.6947059 -0.57305595 -4.15295101 -0.66506333 0 0 Z " fill="#F6F6F6" transform="translate(228,22)"/>
<path d="M0 0 C2 2 2 2 2.22705078 4.52197266 C2.21134033 6.07730713 2.21134033 6.07730713 2.1953125 7.6640625 C2.18564453 9.34628906 2.18564453 9.34628906 2.17578125 11.0625 C2.15902344 12.238125 2.14226562 13.41375 2.125 14.625 C2.11597656 15.80835937 2.10695312 16.99171875 2.09765625 18.2109375 C2.07402905 21.14071057 2.03815713 24.07038014 2 27 C-1.96 27 -5.92 27 -10 27 C-9.33190093 24.99570278 -8.66316149 22.99161787 -7.9921875 20.98828125 C-7.23822833 18.71749871 -6.49471207 16.4442818 -5.7578125 14.16796875 C-5.3177173 12.82030957 -4.87761311 11.47265333 -4.4375 10.125 C-4.12292847 9.14358032 -4.12292847 9.14358032 -3.80200195 8.14233398 C-2.79591903 5.07642239 -1.80469817 2.70704726 0 0 Z " fill="#FDFDFD" transform="translate(251,63)"/>
<path d="M0 0 C0.66 0.33 1.32 0.66 2 1 C1.52949219 1.97839844 1.05898438 2.95679687 0.57421875 3.96484375 C-2.71972228 10.87815131 -5.80569075 17.64261017 -8 25 C-10.64 24.67 -13.28 24.34 -16 24 C-13.17856825 17.91885584 -9.84666238 12.79233896 -5.75 7.5 C-5.19570313 6.77296875 -4.64140625 6.0459375 -4.0703125 5.296875 C-2.71935782 3.52665853 -1.36260209 1.76125614 0 0 Z " fill="#F4F4F4" transform="translate(273,66)"/>
<path d="M0 0 C0.99 0 1.98 0 3 0 C4.65 3.96 6.3 7.92 8 12 C5.36 12 2.72 12 0 12 C0 8.04 0 4.08 0 0 Z " fill="#ECECEC" transform="translate(208,78)"/>
<path d="M0 0 C3.66610354 1.39724454 7.1061628 3.01944206 10.5625 4.875 C11.49191406 5.36742188 12.42132813 5.85984375 13.37890625 6.3671875 C15.994015 7.99627164 17.92086587 9.7398589 20 12 C15.01818934 12.58965286 12.67749355 11.51100152 8.90039062 8.54296875 C8.05250977 7.84107422 8.05250977 7.84107422 7.1875 7.125 C6.60291016 6.66480469 6.01832031 6.20460938 5.41601562 5.73046875 C1.16635497 2.33270994 1.16635497 2.33270994 0 0 Z " fill="#D4D4D4" transform="translate(165,78)"/>
<path d="M0 0 C0.66 0.33 1.32 0.66 2 1 C-0.14285892 3.16968191 -2.28908232 5.33583475 -4.4375 7.5 C-5.35499023 8.43005859 -5.35499023 8.43005859 -6.29101562 9.37890625 C-6.87431641 9.96542969 -7.45761719 10.55195312 -8.05859375 11.15625 C-8.59798584 11.70087891 -9.13737793 12.24550781 -9.69311523 12.80664062 C-11 14 -11 14 -12 14 C-12.234375 11.6953125 -12.234375 11.6953125 -12 9 C-10.390625 7.3046875 -10.390625 7.3046875 -8.25 5.875 C-7.20585937 5.15957031 -7.20585937 5.15957031 -6.140625 4.4296875 C-5.43421875 3.95789063 -4.7278125 3.48609375 -4 3 C-2.66114705 2.00740212 -1.3261308 1.00953201 0 0 Z " fill="#DBDBDB" transform="translate(283,83)"/>
</svg>
