<?xml version="1.0" encoding="UTF-8"?>
<svg version="1.1" xmlns="http://www.w3.org/2000/svg" width="491" height="394">
<path d="M0 0 C3.35871977 1.20703992 3.86130074 1.91775695 6 5 C6.64135608 8.83491266 6.76087402 12.47825196 5 16 C4.34 16 3.68 16 3 16 C2.505 17.485 2.505 17.485 2 19 C-0.5625 20.6875 -0.5625 20.6875 -3 22 C-1.60664048 29.40939414 0.128231 36.69824765 2 44 C3.871769 51.30175235 5.60664048 58.59060586 7 66 C9.15600276 63.84399724 9.59553725 62.66546585 10.515625 59.81640625 C10.79462646 58.97561523 11.07362793 58.13482422 11.36108398 57.26855469 C11.65442627 56.37555664 11.94776855 55.48255859 12.25 54.5625 C14.84238148 46.87801416 17.68109263 39.89759565 22 33 C20.35 32.34 18.7 31.68 17 31 C17.33 28.69 17.66 26.38 18 24 C21.49186021 23.79854653 24.19917389 23.65092195 27.4375 25.0625 C29.76643994 27.95038552 29.27050795 30.41576962 29 34 C27.68 34 26.36 34 25 34 C25.99 47.86 25.99 47.86 27 62 C28.423125 60.123125 29.84625 58.24625 31.3125 56.3125 C34.12760004 52.60336432 36.98272152 48.96913896 40.078125 45.48828125 C40.57658936 44.92391357 41.07505371 44.3595459 41.58862305 43.77807617 C42.54915933 42.70075446 43.52153989 41.63384205 44.50708008 40.5793457 C47.82153295 36.84839812 48.69650311 33.94266356 49 29 C48.34 29 47.68 29 47 29 C47 27.68 47 26.36 47 25 C51.31612964 25.50187554 54.64223849 26.13602695 58 29 C58.38692581 32.15989415 58.43060128 34.13879744 57 37 C56.01 37.33 55.02 37.66 54 38 C52.58000135 40.27556269 51.33383088 42.49090883 50.125 44.875 C49.77493896 45.55030762 49.42487793 46.22561523 49.06420898 46.92138672 C43.3787095 57.54185597 43.3787095 57.54185597 40 69 C40.67482422 68.48953125 40.67482422 68.48953125 41.36328125 67.96875 C46.30470238 64.24535452 51.29519471 60.59457406 56.30859375 56.96875 C59.39578853 54.7104827 62.42799273 52.38684976 65.44140625 50.03125 C67 49 67 49 69 49 C68.67 48.46375 68.34 47.9275 68 47.375 C66.77300796 44.4608939 66.85766714 42.13132292 67 39 C72.28137429 39.51525603 75.57221156 41.25477117 80 44 C80.04254356 45.99954746 80.04080783 48.00041636 80 50 C79 51 79 51 75.875 51.1875 C68.33913992 52.76759969 64.63291171 58.37108562 60.234375 64.29296875 C56.72986535 68.53881698 52.76596516 72.31596994 48.79858398 76.12695312 C48.20891846 76.69994141 47.61925293 77.27292969 47.01171875 77.86328125 C46.48022217 78.37157471 45.94872559 78.87986816 45.40112305 79.40356445 C42.91065924 82.24119171 42 84.27141492 42 88.0625 C42 91 42 91 40 94 C37.65863678 100.89502618 35.69740609 108.69108456 36 116 C38.53869164 120.47666407 41.64647367 122.43236295 46 125 C49.74039025 130.61058537 48.63943074 139.22789598 47.53515625 145.7421875 C46.12594382 150.56186079 43.81201496 153.61559559 40.42578125 157.25390625 C34.95377142 163.95524432 34.53566291 173.7277763 35 182 C35.59970464 187.02022338 36.38358847 192.00913121 37.1875 197 C37.29915497 197.70264984 37.41080994 198.40529968 37.52584839 199.12924194 C39.02837969 208.55812377 40.65633367 217.95564085 42.5625 227.3125 C42.74772217 228.23998047 42.93294434 229.16746094 43.1237793 230.12304688 C44.34562345 235.88699815 46.08163281 241.27986763 48.21069336 246.77416992 C49 249 49 249 49 251 C49.66 251 50.32 251 51 251 C52.26171875 252.72265625 52.26171875 252.72265625 53.6875 255.0625 C60.19572025 265.01898968 69.40589228 271.70294614 80 277 C80 277.66 80 278.32 80 279 C80.99 279.33 81.98 279.66 83 280 C88.30334005 288.85199475 89.63224768 299.83720397 89 310 C75.27846897 317.10209898 58.05001734 316.29319952 42.98120117 317.21533203 C37.15191925 317.58404313 31.36250169 318.0531408 25.56494141 318.75526428 C15.20204773 320.00703074 4.93098574 320.39638836 -5.5 320.5625 C-8.78134566 320.62189528 -12.06256336 320.68631527 -15.34375 320.75390625 C-16.14761139 320.76991882 -16.95147278 320.7859314 -17.7796936 320.8024292 C-23.31777302 320.92594268 -28.83809023 321.1855913 -34.3671875 321.51953125 C-41.79155987 321.96644331 -49.18531395 322.15739017 -56.625 322.125 C-57.77436035 322.12161621 -58.9237207 322.11823242 -60.10791016 322.11474609 C-85.86273433 321.9589198 -85.86273433 321.9589198 -91 319 C-93.5295216 314.87611327 -93.36676885 310.33322023 -93.375 305.625 C-93.39949219 304.89539063 -93.42398438 304.16578125 -93.44921875 303.4140625 C-93.47802772 298.03638882 -92.40022802 294.22234888 -89 290 C-86.16015625 287.48828125 -86.16015625 287.48828125 -83.0625 285.3125 C-82.04285156 284.58675781 -81.02320313 283.86101562 -79.97265625 283.11328125 C-78.50119141 282.06720703 -78.50119141 282.06720703 -77 281 C-60.7265089 268.64871259 -52.89389349 247.71850566 -50 228 C-48.97461797 208.86730342 -50.31291261 189.94152851 -53 171 C-53.14453613 169.91380371 -53.28907227 168.82760742 -53.43798828 167.70849609 C-53.86524221 164.55022367 -54.33067656 161.40036451 -54.8125 158.25 C-54.94108398 157.31551025 -55.06966797 156.38102051 -55.20214844 155.41821289 C-56.15107355 149.72832803 -57.70904746 146.65603071 -61.70141602 142.51074219 C-64.14942392 139.66278713 -63.62386638 136.96140668 -63.3984375 133.4296875 C-62.80671153 129.82131934 -61.7435501 127.22879648 -60 124 C-59.566875 123.195625 -59.13375 122.39125 -58.6875 121.5625 C-57 120 -57 120 -53.8125 119.75 C-52.884375 119.8325 -51.95625 119.915 -51 120 C-51.32597168 119.37005127 -51.65194336 118.74010254 -51.98779297 118.09106445 C-53.37401055 113.85785153 -53.24774964 109.96761431 -53.1953125 105.54296875 C-53.1924826 104.64000565 -53.18965271 103.73704254 -53.18673706 102.80671692 C-53.17557607 99.93350766 -53.15047897 97.06061445 -53.125 94.1875 C-53.11496493 92.23503056 -53.10584 90.28255621 -53.09765625 88.33007812 C-53.07565008 83.55326434 -53.04114831 78.77668569 -53 74 C-53.99 74 -54.98 74 -56 74 C-56.556875 72.9790625 -56.556875 72.9790625 -57.125 71.9375 C-59.37782264 68.40807787 -61.93196225 66.57995937 -65.2578125 64.09375 C-68.5054254 61.61409115 -71.63109902 59.01352464 -74.75 56.375 C-75.29253418 55.9197998 -75.83506836 55.46459961 -76.39404297 54.99560547 C-78.95896922 52.82286014 -81.30967562 50.67094081 -83.62109375 48.21484375 C-86.0852908 45.92059132 -87.0334322 45.35423226 -90.3125 45.1875 C-91.529375 45.125625 -92.74625 45.06375 -94 45 C-94.16702456 40.65736138 -94.12999997 37.79039366 -92 34 C-90.52093108 33.97310784 -89.04172517 33.95365379 -87.5625 33.9375 C-86.73878906 33.92589844 -85.91507813 33.91429687 -85.06640625 33.90234375 C-83 34 -83 34 -82 35 C-82.28730055 37.33944736 -82.61936779 39.6739143 -83 42 C-81.98679688 42.33064453 -81.98679688 42.33064453 -80.953125 42.66796875 C-77.12718268 44.39369141 -74.07112685 46.77202473 -70.75 49.3125 C-65.35939487 53.36089257 -60.02504447 56.9346265 -54 60 C-54.69059188 55.84598523 -56.85139816 52.43510864 -58.875 48.8125 C-66 35.76894947 -66 35.76894947 -66 29 C-66.804375 28.690625 -67.60875 28.38125 -68.4375 28.0625 C-71 27 -71 27 -72 26 C-72.04092937 23.66702567 -72.04241723 21.33294775 -72 19 C-67.71 19.33 -63.42 19.66 -59 20 C-59 26.75 -59 26.75 -61 30 C-60.57291748 30.45213867 -60.14583496 30.90427734 -59.70581055 31.37011719 C-57.69881262 33.49590267 -55.69300858 35.62280938 -53.6875 37.75 C-52.96071045 38.52045654 -52.2339209 39.29091309 -51.48510742 40.0847168 C-46.36448735 45.52300863 -41.31541806 51.0179033 -36.33203125 56.58203125 C-34.02834266 59.08142125 -34.02834266 59.08142125 -31.19921875 61.19921875 C-30.47347656 61.79347656 -29.74773437 62.38773438 -29 63 C-29 63.66 -29 64.32 -29 65 C-28.34 65 -27.68 65 -27 65 C-27 65.66 -27 66.32 -27 67 C-26.34 67 -25.68 67 -25 67 C-25.91747019 60.40870102 -27.18446977 54.12209573 -29.125 47.75 C-30.67464075 42.57305201 -31.43001823 38.37522792 -31 33 C-32.32 32.34 -33.64 31.68 -35 31 C-35 28.69 -35 26.38 -35 24 C-33.35369672 24.14042877 -31.70795821 24.28749329 -30.0625 24.4375 C-28.68771484 24.55931641 -28.68771484 24.55931641 -27.28515625 24.68359375 C-25 25 -25 25 -24 26 C-23.95919217 27.99958364 -23.95745644 30.00045254 -24 32 C-25.32 32 -26.64 32 -28 32 C-27.25556641 33.4540625 -27.25556641 33.4540625 -26.49609375 34.9375 C-21.64539556 44.48521089 -17.1929267 54.14662225 -13 64 C-11.95038786 60.45537234 -11.72431529 57.01030051 -11.5 53.328125 C-11.4175 52.02359375 -11.335 50.7190625 -11.25 49.375 C-11.16635098 48.00001917 -11.08302001 46.62501895 -11 45.25 C-10.01112953 29.04179493 -10.01112953 29.04179493 -9 22 C-9.556875 21.79375 -10.11375 21.5875 -10.6875 21.375 C-13.95478421 19.43229047 -16.30872515 17.39591947 -18 14 C-18.62596773 10.2548939 -18.84564636 6.71501193 -18 3 C-13.54134164 -2.00107422 -6.08118763 -0.7249564 0 0 Z " fill="#020202" transform="translate(230,19)"/>
<path d="M0 0 C2.37295023 0.91856138 4.71767277 1.86827 7.02392578 2.94433594 C21.58731716 9.72466897 37.05024858 10.38803586 52.875 10.4375 C53.98001862 10.44662415 53.98001862 10.44662415 55.10736084 10.45593262 C64.41133173 10.50616976 72.96552426 9.69862179 82.02783203 7.54321289 C85 7 85 7 88 8 C87.5359375 9.2684375 87.5359375 9.2684375 87.0625 10.5625 C83.23007569 22.96151984 85.11507124 35.69734674 87.1875 48.25 C87.41393877 49.65689476 87.64033798 51.06379589 87.86669922 52.47070312 C89.28554858 61.17976058 90.85396846 69.85501111 92.625 78.5 C92.91540161 79.92940918 92.91540161 79.92940918 93.21166992 81.38769531 C94.10074977 85.55452873 95.10790417 89.45416329 96.7109375 93.40625 C97.99586568 96.98847402 98.09900322 97.63921302 97 101 C96.35417969 101.02578125 95.70835937 101.0515625 95.04296875 101.078125 C89.47873427 101.41304472 84.23165879 102.12889442 78.83435059 103.47297668 C66.53421015 106.45900065 54.59330968 106.49186647 42 106.3125 C39.93490497 106.30096225 37.86979931 106.29119101 35.8046875 106.28320312 C23.51271809 106.20892146 11.26739634 105.7694247 -1 105 C-0.823479 104.42556152 -0.64695801 103.85112305 -0.46508789 103.25927734 C0.33970954 100.63237197 1.13864729 98.00371899 1.9375 95.375 C2.21529297 94.47136719 2.49308594 93.56773437 2.77929688 92.63671875 C3.18051758 91.31220703 3.18051758 91.31220703 3.58984375 89.9609375 C3.83597412 89.15446777 4.08210449 88.34799805 4.33569336 87.51708984 C6.44135993 79.53861783 6.24143904 71.49721929 6.25 63.3125 C6.25200912 62.18376465 6.25200912 62.18376465 6.25405884 61.03222656 C6.24615338 40.43659077 3.72999819 20.23722421 0 0 Z " fill="#7F7F7F" transform="translate(177,170)"/>
<path d="M0 0 C3.83941278 -0.0097102 7.67829008 -0.04082826 11.51757812 -0.07226562 C24.15730657 -0.125623 36.3440798 0.22955456 48.79418945 2.50732422 C54.24601953 3.50107453 59.74987643 3.93242571 65.27923584 4.23883057 C68.89282884 4.54905106 71.00199655 5.16211906 73.97070312 7.28320312 C76.65751537 10.99473026 77.53293084 14.23867474 78.42382812 18.67773438 C78.59205078 19.41572266 78.76027344 20.15371094 78.93359375 20.9140625 C79.84770416 25.11150828 80.18009712 28.92546013 80.11132812 33.24023438 C68.58384915 37.28517567 57.42714733 38.19665094 45.29882812 38.86523438 C41.68771002 39.07968589 38.07720193 39.3031885 34.46679688 39.52929688 C33.58449905 39.58274261 32.70220123 39.63618835 31.79316711 39.69125366 C26.2695424 40.04308342 20.80921425 40.6002565 15.32226562 41.31835938 C7.04359765 42.38464187 -1.11561925 42.47121597 -9.45117188 42.36523438 C-10.86718097 42.35515602 -12.28319724 42.34603898 -13.69921875 42.33789062 C-17.09585775 42.3163266 -20.49221468 42.28208249 -23.88867188 42.24023438 C-24.21867187 41.58023438 -24.54867187 40.92023438 -24.88867188 40.24023438 C-26.98962045 40.69043764 -28.69266205 41.12160904 -30.54101562 42.24023438 C-33.86100864 43.65440777 -37.14368049 43.71645381 -40.70117188 43.86523438 C-41.48089355 43.90245605 -42.26061523 43.93967773 -43.06396484 43.97802734 C-58.61581609 44.63909526 -74.38591254 44.83177241 -89.88867188 43.24023438 C-90.64792969 43.16675781 -91.4071875 43.09328125 -92.18945312 43.01757812 C-93.88867188 42.24023438 -93.88867188 42.24023438 -95.11914062 40.08007812 C-95.98470887 36.88582372 -96.18947967 34.11162897 -96.20117188 30.80273438 C-96.21792969 29.71089844 -96.2346875 28.6190625 -96.25195312 27.49414062 C-95.65942937 22.18691168 -94.02552106 19.23382208 -90.00585938 15.72070312 C-88.9359375 14.96402344 -87.86601562 14.20734375 -86.76367188 13.42773438 C-85.67754386 12.65065684 -84.591597 11.87332602 -83.50585938 11.09570312 C-82.6421875 10.48339844 -81.77851563 9.87109375 -80.88867188 9.24023438 C-80.55867187 8.91023438 -80.22867188 8.58023437 -79.88867188 8.24023438 C-75.33065382 6.883429 -70.74978181 6.17604159 -66.01367188 5.86523438 C-60.03491777 5.41369211 -54.30525322 4.1223299 -48.49267578 2.69970703 C-32.78563861 -0.90889446 -16.0045803 0.02440963 0 0 Z " fill="#7F7F7F" transform="translate(235.888671875,293.759765625)"/>
<path d="M0 0 C10.63965551 -0.02314874 21.27930505 -0.04092805 31.9189806 -0.05181217 C36.85916342 -0.05703544 41.79932903 -0.06412304 46.73950195 -0.07543945 C51.50515093 -0.08628802 56.27078334 -0.09228104 61.03644371 -0.09487724 C62.85654651 -0.09672793 64.67664839 -0.10034173 66.49674416 -0.10573006 C69.04187622 -0.11296658 71.58693942 -0.11398983 74.13208008 -0.11352539 C75.26604218 -0.1189183 75.26604218 -0.1189183 76.4229126 -0.12442017 C79.55728625 -0.1182124 82.00268577 0.00089526 85 1 C85.99 2.485 85.99 2.485 87 4 C87.66 3.34 88.32 2.68 89 2 C89.7147709 21.48801834 85.68567164 45.92375808 74 62 C72.2890625 63.79296875 72.2890625 63.79296875 70.625 65.1875 C70.08101563 65.65542969 69.53703125 66.12335938 68.9765625 66.60546875 C61.44315291 71.92054231 53.86259029 71.89928028 45 71 C39.85288513 70.04645083 34.96680882 68.64125318 30 67 C28.84113281 66.63777344 27.68226563 66.27554688 26.48828125 65.90234375 C15.10349464 62.00163289 8.58286278 56.18889986 3.09375 45.515625 C1.551407 41.96823611 0.88237737 38.82460425 0.79467773 34.96582031 C0.77473251 34.18531311 0.75478729 33.40480591 0.73423767 32.60064697 C0.71752518 31.76821472 0.70081268 30.93578247 0.68359375 30.078125 C0.6524221 28.78814606 0.6524221 28.78814606 0.62062073 27.47210693 C0.55536261 24.73148402 0.49635083 21.99076725 0.4375 19.25 C0.39429219 17.3893133 0.35067718 15.52863602 0.30664062 13.66796875 C0.19970558 9.11207477 0.09837149 4.5560866 0 0 Z " fill="#7F7F7F" transform="translate(179,93)"/>
<path d="M0 0 C3.35871977 1.20703992 3.86130074 1.91775695 6 5 C6.64135608 8.83491266 6.76087402 12.47825196 5 16 C4.34 16 3.68 16 3 16 C2.505 17.485 2.505 17.485 2 19 C-0.5625 20.6875 -0.5625 20.6875 -3 22 C-1.60664048 29.40939414 0.128231 36.69824765 2 44 C3.871769 51.30175235 5.60664048 58.59060586 7 66 C9.15600276 63.84399724 9.59553725 62.66546585 10.515625 59.81640625 C10.79462646 58.97561523 11.07362793 58.13482422 11.36108398 57.26855469 C11.65442627 56.37555664 11.94776855 55.48255859 12.25 54.5625 C14.84238148 46.87801416 17.68109263 39.89759565 22 33 C20.35 32.34 18.7 31.68 17 31 C17.33 28.69 17.66 26.38 18 24 C21.49186021 23.79854653 24.19917389 23.65092195 27.4375 25.0625 C29.76643994 27.95038552 29.27050795 30.41576962 29 34 C27.68 34 26.36 34 25 34 C25.99 47.86 25.99 47.86 27 62 C28.423125 60.123125 29.84625 58.24625 31.3125 56.3125 C34.12760004 52.60336432 36.98272152 48.96913896 40.078125 45.48828125 C40.57658936 44.92391357 41.07505371 44.3595459 41.58862305 43.77807617 C42.54915933 42.70075446 43.52153989 41.63384205 44.50708008 40.5793457 C47.82153295 36.84839812 48.69650311 33.94266356 49 29 C48.34 29 47.68 29 47 29 C47 27.68 47 26.36 47 25 C51.31612964 25.50187554 54.64223849 26.13602695 58 29 C58.38692581 32.15989415 58.43060128 34.13879744 57 37 C56.01 37.33 55.02 37.66 54 38 C52.58000135 40.27556269 51.33383088 42.49090883 50.125 44.875 C49.77493896 45.55030762 49.42487793 46.22561523 49.06420898 46.92138672 C43.3787095 57.54185597 43.3787095 57.54185597 40 69 C40.67482422 68.48953125 40.67482422 68.48953125 41.36328125 67.96875 C46.30470238 64.24535452 51.29519471 60.59457406 56.30859375 56.96875 C59.39578853 54.7104827 62.42799273 52.38684976 65.44140625 50.03125 C67 49 67 49 69 49 C68.67 48.46375 68.34 47.9275 68 47.375 C66.77300796 44.4608939 66.85766714 42.13132292 67 39 C72.28137429 39.51525603 75.57221156 41.25477117 80 44 C80.04254356 45.99954746 80.04080783 48.00041636 80 50 C79 51 79 51 75.875 51.1875 C68.33913992 52.76759969 64.63291171 58.37108562 60.234375 64.29296875 C56.72986535 68.53881698 52.76596516 72.31596994 48.79858398 76.12695312 C48.20891846 76.69994141 47.61925293 77.27292969 47.01171875 77.86328125 C46.48022217 78.37157471 45.94872559 78.87986816 45.40112305 79.40356445 C42.91065924 82.24119171 42 84.27141492 42 88.0625 C42 91 42 91 40 94 C39.45994087 95.92249447 39.45994087 95.92249447 39.1484375 98.01171875 C39.01953125 98.76904297 38.890625 99.52636719 38.7578125 100.30664062 C38.63148438 101.09232422 38.50515625 101.87800781 38.375 102.6875 C38.2409375 103.48478516 38.106875 104.28207031 37.96875 105.10351562 C37.6393854 107.0679402 37.31883687 109.03383927 37 111 C35.68 111 34.36 111 33 111 C33.18175781 109.87356079 33.18175781 109.87356079 33.3671875 108.72436523 C33.91707633 105.29628423 34.45860691 101.86693255 35 98.4375 C35.19078125 97.25607422 35.3815625 96.07464844 35.578125 94.85742188 C36.468456 89.18156175 37.27010492 83.74817031 37 78 C36.01 78 35.02 78 34 78 C34 77.01 34 76.02 34 75 C32.91671921 75.00222061 31.83343842 75.00444122 30.71733093 75.00672913 C20.51997853 75.02698045 10.32263019 75.04198177 0.12526226 75.05181217 C-5.11759083 75.05703592 -10.36042772 75.0641244 -15.60327148 75.07543945 C-20.66069384 75.08628631 -25.71810059 75.09228067 -30.77553368 75.09487724 C-32.7072798 75.09672824 -34.63902504 75.10034264 -36.57076454 75.10573006 C-39.27156054 75.1129643 -41.97229161 75.11398993 -44.6730957 75.11352539 C-45.87718834 75.1189183 -45.87718834 75.1189183 -47.10560608 75.12442017 C-50.3359513 75.11838796 -52.91264897 75.02911701 -56 74 C-56.37125 73.29875 -56.7425 72.5975 -57.125 71.875 C-59.38711965 68.40641654 -61.96595756 66.55454648 -65.2578125 64.09375 C-68.5054254 61.61409115 -71.63109902 59.01352464 -74.75 56.375 C-75.29253418 55.9197998 -75.83506836 55.46459961 -76.39404297 54.99560547 C-78.95896922 52.82286014 -81.30967562 50.67094081 -83.62109375 48.21484375 C-86.0852908 45.92059132 -87.0334322 45.35423226 -90.3125 45.1875 C-91.529375 45.125625 -92.74625 45.06375 -94 45 C-94.16702456 40.65736138 -94.12999997 37.79039366 -92 34 C-90.52093108 33.97310784 -89.04172517 33.95365379 -87.5625 33.9375 C-86.73878906 33.92589844 -85.91507813 33.91429687 -85.06640625 33.90234375 C-83 34 -83 34 -82 35 C-82.28730055 37.33944736 -82.61936779 39.6739143 -83 42 C-81.98679688 42.33064453 -81.98679688 42.33064453 -80.953125 42.66796875 C-77.12718268 44.39369141 -74.07112685 46.77202473 -70.75 49.3125 C-65.35939487 53.36089257 -60.02504447 56.9346265 -54 60 C-54.69059188 55.84598523 -56.85139816 52.43510864 -58.875 48.8125 C-66 35.76894947 -66 35.76894947 -66 29 C-66.804375 28.690625 -67.60875 28.38125 -68.4375 28.0625 C-71 27 -71 27 -72 26 C-72.04092937 23.66702567 -72.04241723 21.33294775 -72 19 C-67.71 19.33 -63.42 19.66 -59 20 C-59 26.75 -59 26.75 -61 30 C-60.57291748 30.45213867 -60.14583496 30.90427734 -59.70581055 31.37011719 C-57.69881262 33.49590267 -55.69300858 35.62280938 -53.6875 37.75 C-52.96071045 38.52045654 -52.2339209 39.29091309 -51.48510742 40.0847168 C-46.36448735 45.52300863 -41.31541806 51.0179033 -36.33203125 56.58203125 C-34.02834266 59.08142125 -34.02834266 59.08142125 -31.19921875 61.19921875 C-30.47347656 61.79347656 -29.74773437 62.38773438 -29 63 C-29 63.66 -29 64.32 -29 65 C-28.34 65 -27.68 65 -27 65 C-27 65.66 -27 66.32 -27 67 C-26.34 67 -25.68 67 -25 67 C-25.91747019 60.40870102 -27.18446977 54.12209573 -29.125 47.75 C-30.67464075 42.57305201 -31.43001823 38.37522792 -31 33 C-32.32 32.34 -33.64 31.68 -35 31 C-35 28.69 -35 26.38 -35 24 C-33.35369672 24.14042877 -31.70795821 24.28749329 -30.0625 24.4375 C-28.68771484 24.55931641 -28.68771484 24.55931641 -27.28515625 24.68359375 C-25 25 -25 25 -24 26 C-23.95919217 27.99958364 -23.95745644 30.00045254 -24 32 C-25.32 32 -26.64 32 -28 32 C-27.25556641 33.4540625 -27.25556641 33.4540625 -26.49609375 34.9375 C-21.64539556 44.48521089 -17.1929267 54.14662225 -13 64 C-11.95038786 60.45537234 -11.72431529 57.01030051 -11.5 53.328125 C-11.4175 52.02359375 -11.335 50.7190625 -11.25 49.375 C-11.16635098 48.00001917 -11.08302001 46.62501895 -11 45.25 C-10.01112953 29.04179493 -10.01112953 29.04179493 -9 22 C-9.556875 21.79375 -10.11375 21.5875 -10.6875 21.375 C-13.95478421 19.43229047 -16.30872515 17.39591947 -18 14 C-18.62596773 10.2548939 -18.84564636 6.71501193 -18 3 C-13.54134164 -2.00107422 -6.08118763 -0.7249564 0 0 Z " fill="#050505" transform="translate(230,19)"/>
<path d="M0 0 C4.33188379 2.61927857 8.73099878 5.30685218 11 10 C12.12477437 16.83353484 11.18190163 23.82942964 8 30 C1.17995525 37.62240296 -12.12778291 38.64681286 -21.72631836 39.22412109 C-25.79924699 39.34012142 -29.86328761 39.38709693 -33.9375 39.375 C-34.65966705 39.37412384 -35.38183411 39.37324768 -36.12588501 39.37234497 C-55.00643162 39.29704062 -75.94583265 38.06275217 -90.3125 24.1875 C-93.98975049 20.13974568 -93.98975049 20.13974568 -94.01953125 16.828125 C-93.5725097 11.26144155 -93.0002195 7.21644758 -89 3 C-85.75 2.125 -85.75 2.125 -83 2 C-82.64808594 2.58007812 -82.29617187 3.16015625 -81.93359375 3.7578125 C-73.03339175 17.84011645 -59.45706292 22.57290418 -43.69921875 26.5859375 C-34.79823297 27.95135645 -23.54241668 29.04410976 -15.87890625 23.66015625 C-8.10809657 16.79405622 -3.91422051 9.59280557 0 0 Z " fill="#7F7F7F" transform="translate(264,139)"/>
<path d="M0 0 C1.60546875 1.78515625 1.60546875 1.78515625 3.1875 4.0625 C6.35520356 8.34982293 9.82789383 11.73695445 13.88671875 15.17578125 C16.03029505 17.02615118 18.02077141 18.97609356 20 21 C14.68473154 21.12465605 9.82814987 20.91976273 4.60945129 19.94549561 C-8.47861217 17.51673836 -21.51282732 17.61193192 -34.7824707 17.71875 C-38.69166677 17.75003334 -42.60045632 17.75975333 -46.50976562 17.765625 C-70.81551193 17.44864891 -70.81551193 17.44864891 -94.75 21 C-102.19988782 22.72186098 -109.33949163 23.72493686 -117 24 C-115.70647285 21.17385775 -114.30607134 19.07640869 -112.1875 16.8125 C-109.8004549 14.12438615 -108.00771644 11.42346118 -106.30078125 8.26171875 C-105.86548096 7.46080811 -105.43018066 6.65989746 -104.98168945 5.8347168 C-104.65773193 5.22926025 -104.33377441 4.62380371 -104 4 C-103.17775436 4.00888245 -102.35550873 4.01776489 -101.50834656 4.0269165 C-93.67061879 4.10784352 -85.83303598 4.16835446 -77.99498272 4.20724869 C-73.96758045 4.22791837 -69.94052997 4.25584612 -65.91333008 4.30175781 C-42.54010572 4.78164838 -42.54010572 4.78164838 -19.57910156 0.94555664 C-13.69187089 -0.60978063 -5.88305995 -2.39228164 0 0 Z " fill="#7F7F7F" transform="translate(279,274)"/>
<path d="M0 0 C1.47906892 -0.02689216 2.95827483 -0.04634621 4.4375 -0.0625 C5.26121094 -0.07410156 6.08492187 -0.08570313 6.93359375 -0.09765625 C9 0 9 0 10 1 C9.71269945 3.33944736 9.38063221 5.6739143 9 8 C9.67546875 8.22042969 10.3509375 8.44085938 11.046875 8.66796875 C14.87284506 10.39370392 17.92880192 12.77209394 21.25 15.3125 C26.09154886 18.94720251 30.86477534 22.32396408 36.265625 25.09765625 C38 26 38 26 41 28 C40.67 29.32 40.34 30.64 40 32 C40.598125 32.268125 41.19625 32.53625 41.8125 32.8125 C43.97224808 33.98493467 45.35790256 35.19369282 47 37 C43.60637586 37.60911202 41.59064555 37.3917547 38.703125 35.4765625 C37.13218453 34.21878336 35.58040681 32.93661722 34.05078125 31.62890625 C32.00139471 29.81022899 32.00139471 29.81022899 29 29 C29 29.66 29 30.32 29 31 C26.24763696 29.72020546 24.01891622 28.33631792 21.72265625 26.35546875 C20.82836914 25.58686523 20.82836914 25.58686523 19.91601562 24.80273438 C19.30435547 24.26970703 18.69269531 23.73667969 18.0625 23.1875 C17.45470703 22.66607422 16.84691406 22.14464844 16.22070312 21.60742188 C13.4494355 19.21283141 10.84427183 16.83470958 8.328125 14.1640625 C5.89711382 11.90436419 4.92671917 11.35220606 1.6875 11.1875 C-0.1378125 11.0946875 -0.1378125 11.0946875 -2 11 C-2.16702456 6.65736138 -2.12999997 3.79039366 0 0 Z " fill="#090909" transform="translate(138,53)"/>
<path d="M0 0 C2.00913225 3.01369838 2.6226214 4.96538953 3.4375 8.4453125 C3.69273437 9.52296875 3.94796875 10.600625 4.2109375 11.7109375 C4.47132813 12.83757813 4.73171875 13.96421875 5 15.125 C5.39058594 16.78015625 5.39058594 16.78015625 5.7890625 18.46875 C6.5356623 21.64368449 7.26878914 24.82149213 8 28 C8.20882812 28.88139648 8.41765625 29.76279297 8.6328125 30.67089844 C8.81585938 31.45754883 8.99890625 32.24419922 9.1875 33.0546875 C9.34605469 33.72741699 9.50460938 34.40014648 9.66796875 35.09326172 C10 37 10 37 10 41 C5.05 41 0.1 41 -5 41 C-4.69191406 39.659375 -4.38382813 38.31875 -4.06640625 36.9375 C-2.67993314 30.00879914 -2.3420281 23.0423065 -1.9375 16 C-1.78520391 13.39545197 -1.62642595 10.79151068 -1.46484375 8.1875 C-1.399021 7.04667969 -1.33319824 5.90585937 -1.26538086 4.73046875 C-1 2 -1 2 0 0 Z " fill="#808080" transform="translate(224,49)"/>
<path d="M0 0 C1.05574219 1.05767578 1.05574219 1.05767578 2.1328125 2.13671875 C4.03751542 4.04209187 5.94953503 5.93969647 7.8671875 7.83203125 C12.89083203 12.8035873 17.76295496 17.78837543 22.3359375 23.18359375 C24.81400649 25.88852821 27.5790364 28.21425802 30.3984375 30.5546875 C32 32 32 32 33 34 C28.04781436 34.74977016 23.79568912 35.17581501 19.4765625 32.34765625 C14.20372998 27.22778986 10.45589557 21.43887911 7 15 C6.36578125 13.86046875 5.7315625 12.7209375 5.078125 11.546875 C0 2.34828629 0 2.34828629 0 0 Z " fill="#838383" transform="translate(170,56)"/>
<path d="M0 0 C3.125 1.6875 3.125 1.6875 5 4 C5.625 6.4375 5.625 6.4375 5 9 C1.49057189 13.57289118 -1.58297211 14.83162144 -7 16 C-10.54204665 12.53174599 -12.82135048 10.21084674 -13.5625 5.1875 C-13.376875 4.135625 -13.19125 3.08375 -13 2 C-8.75146218 -0.83235855 -4.98725185 -0.64326019 0 0 Z " fill="#818181" transform="translate(228,22)"/>
<path d="M0 0 C2.04173535 3.37698788 2.23525039 5.94546223 2.1953125 9.859375 C2.18564453 11.53193359 2.18564453 11.53193359 2.17578125 13.23828125 C2.15902344 14.39714844 2.14226562 15.55601563 2.125 16.75 C2.11597656 17.92433594 2.10695312 19.09867188 2.09765625 20.30859375 C2.0741016 23.20581629 2.03823108 26.10293396 2 29 C-2.29 29 -6.58 29 -11 29 C-7.62005381 19.19699457 -4.1420489 9.51205035 0 0 Z " fill="#7E7E7E" transform="translate(251,61)"/>
<path d="M0 0 C0.33 0.66 0.66 1.32 1 2 C-0.01450234 4.4139188 -1.08459675 6.72287547 -2.25 9.0625 C-4.94231601 14.62235574 -7.23023713 20.0660892 -9 26 C-11.64 25.67 -14.28 25.34 -17 25 C-15.65879558 20.02480595 -13.3801195 16.45903626 -10.1875 12.5 C-9.76146484 11.95730469 -9.33542969 11.41460937 -8.89648438 10.85546875 C-5.99804425 7.18089565 -3.00764221 3.5854119 0 0 Z " fill="#7F7F7F" transform="translate(274,65)"/>
<path d="M0 0 C3.29514279 3.77167113 4.86332688 8.15719669 6.6875 12.75 C7.00783203 13.54277344 7.32816406 14.33554688 7.65820312 15.15234375 C8.44407961 17.09944072 9.2227574 19.04944049 10 21 C7.36 21 4.72 21 2 21 C1.93941406 19.98679687 1.87882813 18.97359375 1.81640625 17.9296875 C1.73193296 16.57811486 1.64728843 15.22655291 1.5625 13.875 C1.50352539 12.87726563 1.50352539 12.87726563 1.44335938 11.859375 C1.187848 7.84981183 0.73217587 3.95005804 0 0 Z " fill="#898989" transform="translate(206,69)"/>
<path d="M0 0 C3.66610354 1.39724454 7.1061628 3.01944206 10.5625 4.875 C11.49191406 5.36742188 12.42132813 5.85984375 13.37890625 6.3671875 C15.994015 7.99627164 17.92086587 9.7398589 20 12 C15.01818934 12.58965286 12.67749355 11.51100152 8.90039062 8.54296875 C8.05250977 7.84107422 8.05250977 7.84107422 7.1875 7.125 C6.60291016 6.66480469 6.01832031 6.20460938 5.41601562 5.73046875 C1.16635497 2.33270994 1.16635497 2.33270994 0 0 Z " fill="#888888" transform="translate(165,78)"/>
<path d="M0 0 C0.66 0.33 1.32 0.66 2 1 C-0.14285892 3.16968191 -2.28908232 5.33583475 -4.4375 7.5 C-5.35499023 8.43005859 -5.35499023 8.43005859 -6.29101562 9.37890625 C-6.87431641 9.96542969 -7.45761719 10.55195312 -8.05859375 11.15625 C-8.59798584 11.70087891 -9.13737793 12.24550781 -9.69311523 12.80664062 C-11 14 -11 14 -12 14 C-12.4375 11.875 -12.4375 11.875 -12 9 C-8.72579269 5.30033072 -4.43088182 2.1521426 0 0 Z " fill="#878787" transform="translate(283,83)"/>
<path d="M0 0 C0.33 0.66 0.66 1.32 1 2 C0.00390625 4.3828125 0.00390625 4.3828125 -1.4375 7.125 C-1.91058594 8.03507812 -2.38367188 8.94515625 -2.87109375 9.8828125 C-3.24363281 10.58148438 -3.61617188 11.28015625 -4 12 C-5.32 11.34 -6.64 10.68 -8 10 C-5.36 6.7 -2.72 3.4 0 0 Z " fill="#9E9E9E" transform="translate(274,65)"/>
<path d="M0 0 C1.65 0 3.3 0 5 0 C5.66 1.65 6.32 3.3 7 5 C4.36 5 1.72 5 -1 5 C-0.67 3.35 -0.34 1.7 0 0 Z " fill="#7F7F7F" transform="translate(209,85)"/>
<path d="M0 0 C3.7910119 1.44950455 7.3874638 3.15172566 11 5 C10.01 6.485 10.01 6.485 9 8 C7.49712782 6.85793642 5.99776716 5.71125043 4.5 4.5625 C3.6646875 3.92441406 2.829375 3.28632812 1.96875 2.62890625 C1.3190625 2.09136719 0.669375 1.55382812 0 1 C0 0.67 0 0.34 0 0 Z " fill="#989898" transform="translate(165,78)"/>
<path d="M0 0 C1.0625 1.8125 1.0625 1.8125 2 4 C1.67 4.99 1.34 5.98 1 7 C-0.32 7 -1.64 7 -3 7 C-2.625 4.0625 -2.625 4.0625 -2 1 C-1.34 0.67 -0.68 0.34 0 0 Z " fill="#858585" transform="translate(268,245)"/>
<path d="M0 0 C1.32 0.33 2.64 0.66 4 1 C2.02 3.97 2.02 3.97 0 7 C-0.66 6.34 -1.32 5.68 -2 5 C-1.34 5 -0.68 5 0 5 C-0.33 4.01 -0.66 3.02 -1 2 C-0.67 1.34 -0.34 0.68 0 0 Z " fill="#8D8D8D" transform="translate(253,148)"/>
<path d="M0 0 C0.66 0.33 1.32 0.66 2 1 C-1.465 3.97 -1.465 3.97 -5 7 C-5 5.68 -5 4.36 -5 3 C-2.625 1.1875 -2.625 1.1875 0 0 Z " fill="#9C9C9C" transform="translate(283,83)"/>
<path d="M0 0 C4.875 4.75 4.875 4.75 6 7 C5.34 7.66 4.68 8.32 4 9 C0 2.25 0 2.25 0 0 Z " fill="#989898" transform="translate(170,56)"/>
</svg>
