<?xml version="1.0" encoding="UTF-8"?>
<svg version="1.1" xmlns="http://www.w3.org/2000/svg" width="491" height="394">
<path d="M0 0 C2.02588345 1.94302523 3.52564442 4.01135165 5.1640625 6.28515625 C6.90886747 8.25488071 6.90886747 8.25488071 9.6484375 8.30859375 C12.16661667 8.02997168 14.54793648 7.63151737 17 7 C17 6.34 17 5.68 17 5 C21.94201908 3.02319237 25.75149341 2.56979454 31 3 C33.44451012 4.46670607 33.94171339 5.88035907 35.1875 8.4375 C36.44406472 13.94705299 36.95499908 20.41151862 35.484375 25.9375 C34.52575629 30.01936032 35.04764102 34.32462341 35.16015625 38.4921875 C34.99847275 42.03345052 34.28164414 44.71295974 33 48 C32.34 48 31.68 48 31 48 C31 49.03125 31 50.0625 31 51.125 C30.49210724 54.69476056 29.17086884 56.15125876 26.375 58.375 C22.63633988 60.90547552 19.54496526 61.7326491 15 62 C14.01 62.33 13.02 62.66 12 63 C11.71125 63.7425 11.4225 64.485 11.125 65.25 C9.71665643 68.6926176 7.77942591 70.56800233 5 73 C4.34 73 3.68 73 3 73 C3.0309375 74.36125 3.0309375 74.36125 3.0625 75.75 C3 79 3 79 2.5 80.88012695 C1.91123874 83.37632518 1.90424308 85.60418379 1.9375 88.16796875 C1.94523438 89.14314453 1.95296875 90.11832031 1.9609375 91.12304688 C1.97382813 92.13431641 1.98671875 93.14558594 2 94.1875 C2.02538463 96.2017707 2.04645992 98.21610196 2.0625 100.23046875 C2.07410156 101.12145264 2.08570313 102.01243652 2.09765625 102.93041992 C2 105 2 105 1 106 C0.63239269 108.32817964 0.29758419 110.6618385 0 113 C-0.66 113 -1.32 113 -2 113 C-1.83757812 113.55558594 -1.67515625 114.11117187 -1.5078125 114.68359375 C-0.95424335 117.20872072 -0.86720766 119.47933839 -0.875 122.0625 C-0.87242187 122.91972656 -0.86984375 123.77695313 -0.8671875 124.66015625 C-1 127 -1 127 -2 130 C-2.08106686 131.55421729 -2.10756898 133.11167027 -2.09765625 134.66796875 C-2.09443359 135.56064453 -2.09121094 136.45332031 -2.08789062 137.37304688 C-2.07951172 138.30181641 -2.07113281 139.23058594 -2.0625 140.1875 C-2.05573242 141.59805664 -2.05573242 141.59805664 -2.04882812 143.03710938 C-2.03704626 145.35813712 -2.02059558 147.67903644 -2 150 C-1.34 150 -0.68 150 0 150 C0.99 153.3 1.98 156.6 3 160 C3.66 160 4.32 160 5 160 C7.29648649 162.5614657 8 163.47967572 8 167 C8.556875 167.226875 9.11375 167.45375 9.6875 167.6875 C12.66159588 169.37550036 14.72008865 171.46676517 17 174 C17 174.66 17 175.32 17 176 C17.66 176 18.32 176 19 176 C20.40234375 177.42578125 20.40234375 177.42578125 21.9375 179.3125 C24.10445533 181.96005146 24.10445533 181.96005146 26.5 184.39453125 C28.48317993 186.51715352 29.69244651 188.81709962 31.0625 191.375 C31.56910156 192.31085938 32.07570313 193.24671875 32.59765625 194.2109375 C35.90432211 200.78742614 36.3361336 205.8363981 36.3125 213.125 C36.32861328 214.12660156 36.34472656 215.12820313 36.36132812 216.16015625 C36.36197266 217.12050781 36.36261719 218.08085937 36.36328125 219.0703125 C36.36626221 219.94445801 36.36924316 220.81860352 36.37231445 221.71923828 C35.91846492 224.49947585 35.23861975 225.33400545 33 227 C30.68970915 227.74259349 28.354248 228.411438 26 229 C25.01 229.33 24.02 229.66 23 230 C20.16991412 230.09725381 17.36517997 230.139945 14.53515625 230.1328125 C13.70543808 230.13376923 12.87571991 230.13472595 12.02085876 230.13571167 C10.26659062 230.13639194 8.51231995 230.13454829 6.75805664 230.13037109 C4.07627688 230.12502745 1.39466512 230.13031775 -1.28710938 230.13671875 C-2.99218787 230.13605781 -4.69726626 230.13477632 -6.40234375 230.1328125 C-7.20349106 230.13483673 -8.00463837 230.13686096 -8.83006287 230.13894653 C-12.40510612 230.12393713 -15.55542265 229.89489764 -19 229 C-33.21412368 227.58955774 -47.49464184 228.03286527 -61.75 228.375 C-62.68951508 228.39632996 -63.62903015 228.41765991 -64.59701538 228.43963623 C-67.28884714 228.50287122 -69.98033362 228.57394128 -72.671875 228.6484375 C-73.49700089 228.6683374 -74.32212677 228.6882373 -75.17225647 228.70874023 C-78.89270596 228.47837647 -78.89270596 228.47837647 -82 230 C-84.92456395 230.13861852 -87.82370628 230.21324583 -90.75 230.23828125 C-92.08091675 230.25038887 -92.08091675 230.25038887 -93.4387207 230.26274109 C-95.32517532 230.2766066 -97.21165529 230.28731766 -99.09814453 230.29516602 C-101.96046105 230.31226382 -104.82158767 230.3561124 -107.68359375 230.40039062 C-109.51822068 230.41052752 -111.35285744 230.41904049 -113.1875 230.42578125 C-114.45835449 230.45204338 -114.45835449 230.45204338 -115.75488281 230.47883606 C-121.68113258 230.45761348 -128.5927602 229.4072398 -133 225 C-133.25423019 220.73534198 -133.18523163 216.45883273 -133.1875 212.1875 C-133.19974609 210.98544922 -133.21199219 209.78339844 -133.22460938 208.54492188 C-133.22654297 207.38927734 -133.22847656 206.23363281 -133.23046875 205.04296875 C-133.23457764 203.98102295 -133.23868652 202.91907715 -133.24291992 201.82495117 C-133.0018958 199.02204656 -132.44673099 197.38135433 -131 195 C-130.34 195 -129.68 195 -129 195 C-128.9175 194.2575 -128.835 193.515 -128.75 192.75 C-127.84243557 189.42226374 -126.44772771 188.37573572 -124 186 C-123.505 185.01 -123.01 184.02 -122.5 183 C-120.99352971 179.98705942 -119.56794041 178.15375647 -117 176 C-116.34 176 -115.68 176 -115 176 C-114.773125 175.2575 -114.54625 174.515 -114.3125 173.75 C-112.7410439 170.4574253 -111.00004284 169.02502891 -108 167 C-107.34 167 -106.68 167 -106 167 C-105.87625 166.401875 -105.7525 165.80375 -105.625 165.1875 C-105 163 -105 163 -103 160 C-102.34 160 -101.68 160 -101 160 C-100.505 157.03 -100.505 157.03 -100 154 C-99.34 154 -98.68 154 -98 154 C-98 152.68 -98 151.36 -98 150 C-97.34 150 -96.68 150 -96 150 C-96 137.79 -96 125.58 -96 113 C-96.66 113 -97.32 113 -98 113 C-99.35580863 105.22669717 -99.36722129 97.38661502 -99.60546875 89.515625 C-99.79187392 83.93632555 -100.04018958 78.50291308 -101 73 C-101.66 73 -102.32 73 -103 73 C-103.45375 72.030625 -103.9075 71.06125 -104.375 70.0625 C-105.65786221 66.92920418 -105.65786221 66.92920418 -108 66 C-108 65.34 -108 64.68 -108 64 C-108.66 64 -109.32 64 -110 64 C-110 63.34 -110 62.68 -110 62 C-110.94359375 61.99613281 -110.94359375 61.99613281 -111.90625 61.9921875 C-118.82906889 61.67940954 -123.04971718 59.87748454 -128 55 C-129.84903293 52.2264506 -130.31244844 51.09398201 -131 48 C-131.34675781 46.989375 -131.69351563 45.97875 -132.05078125 44.9375 C-133.32967428 40.48625784 -133.03625292 36.32503828 -132.6875 31.75 C-132.63916016 30.94820312 -132.59082031 30.14640625 -132.54101562 29.3203125 C-132.31940539 25.96530179 -132.07072414 23.21217243 -131 20 C-130.34 20 -129.68 20 -129 20 C-129.061875 18.948125 -129.12375 17.89625 -129.1875 16.8125 C-128.98949851 12.78646977 -128.42518953 11.14376421 -126 8 C-121.42319667 4.94879778 -117.35841247 5.12398269 -112 6 C-107.08916621 7.81575977 -102.53378851 10.40548161 -98 13 C-98 12.34 -98 11.68 -98 11 C-96.1875 8.875 -96.1875 8.875 -94 7 C-93.01 7 -92.02 7 -91 7 C-90.67 6.01 -90.34 5.02 -90 4 C-85.25282008 2.41760669 -79.73192059 1.86751426 -75.01171875 3.82421875 C-73.375 4.875 -73.375 4.875 -71 7 C-71 7.66 -71 8.32 -71 9 C-64.59140055 10.51475987 -61.48801194 9.73225813 -55.8828125 6.32421875 C-53.88568891 5.00008515 -53.88568891 5.00008515 -52 3 C-48.8380624 1.91590711 -45.76312275 1.80429588 -42.4375 1.75 C-41.01244141 1.71132812 -41.01244141 1.71132812 -39.55859375 1.671875 C-37 2 -37 2 -35.16015625 3.390625 C-34 5 -34 5 -34 7 C-32.58800422 7.39222105 -31.17007236 7.76311059 -29.75 8.125 C-28.56664062 8.43824219 -28.56664062 8.43824219 -27.359375 8.7578125 C-24.54789748 9.04640787 -23.35263967 8.50321834 -21 7 C-20.566875 6.54625 -20.13375 6.0925 -19.6875 5.625 C-14.1215788 0.26522403 -7.61524953 -1.95756043 0 0 Z " fill="#141414" transform="translate(289,89)"/>
<path d="M0 0 C23.92834359 0.32738908 47.79796034 1.06505988 71.6875 2.5 C72.79090729 2.56571198 73.89431458 2.63142395 75.03115845 2.6991272 C78.19161118 2.88911588 81.35172624 3.08376437 84.51171875 3.28125 C85.44128387 3.33854782 86.370849 3.39584564 87.32858276 3.45487976 C92.90965097 3.81506304 98.44591611 4.34255335 104 5 C103.67 6.65 103.34 8.3 103 10 C102.34 10 101.68 10 101 10 C100.96241577 11.3614917 100.96241577 11.3614917 100.92407227 12.75048828 C100.82856941 16.13878234 100.72935916 19.52692669 100.62768555 22.91503906 C100.58454663 24.37756148 100.54285805 25.84012747 100.50268555 27.30273438 C100.4444693 29.4128936 100.38092712 31.52283775 100.31640625 33.6328125 C100.27974854 34.90012207 100.24309082 36.16743164 100.20532227 37.47314453 C100.01628964 40.72019016 99.6037927 43.80698948 99 47 C98.34 47 97.68 47 97 47 C97 60.53 97 74.06 97 88 C97.66 88 98.32 88 99 88 C99 88.66 99 89.32 99 90 C97.58318366 89.68817931 96.16655349 89.37551263 94.75 89.0625 C93.96109375 88.88847656 93.1721875 88.71445313 92.359375 88.53515625 C91.00301524 88.22750511 89.65057912 87.89616745 88.31738281 87.5 C85.08810325 86.80324857 81.8521586 86.64717439 78.5625 86.46484375 C77.45087997 86.40024208 77.45087997 86.40024208 76.31680298 86.33433533 C73.87815694 86.1960733 71.43918734 86.06584081 69 85.9375 C68.16829285 85.89264465 67.33658569 85.84778931 66.47967529 85.80157471 C48.31617986 84.84038923 30.18327069 84.78638847 12 85 C11.37897682 72.32683275 10.81956703 59.69045192 11 47 C10.34 47 9.68 47 9 47 C8.15247886 42.51809107 7.81541891 38.19019652 7.68359375 33.6328125 C7.66281265 32.95322479 7.64203156 32.27363708 7.62062073 31.57345581 C7.5557637 29.42406334 7.49654059 27.2745593 7.4375 25.125 C7.39425388 23.6588431 7.35063775 22.19269706 7.30664062 20.7265625 C7.20014896 17.15115725 7.09870591 13.57562963 7 10 C6.34 10 5.68 10 5 10 C4.54625 8.865625 4.0925 7.73125 3.625 6.5625 C2.42904194 2.95278308 2.42904194 2.95278308 0 2 C0 1.34 0 0.68 0 0 Z " fill="#F9F9F9" transform="translate(186,153)"/>
<path d="M0 0 C0 0.99 0 1.98 0 3 C0.53625 3.226875 1.0725 3.45375 1.625 3.6875 C8.27810187 7.36421419 8.27810187 7.36421419 10 10 C11.62665297 18.96611116 9.52925646 29.32163381 7 38 C6.01 38.495 6.01 38.495 5 39 C4.67 39.99 4.34 40.98 4 42 C6.475 41.505 6.475 41.505 9 41 C9.33 39.35 9.66 37.7 10 36 C10.66 36 11.32 36 12 36 C12.66 27.09 13.32 18.18 14 9 C26.5 4 26.5 4 31 4 C32.99544337 8.11560195 33.26247139 11.45049584 33 16 C32.67 16.33 32.34 16.66 32 17 C31.93734463 18.38402916 31.94056235 19.77117513 31.97265625 21.15625 C31.98490234 22.01476562 31.99714844 22.87328125 32.00976562 23.7578125 C32.04432269 25.55477979 32.08322648 27.35166995 32.12695312 29.1484375 C32.19921173 34.87812017 32.01858482 40.56709189 30 46 C29.01 46.495 29.01 46.495 28 47 C27.54625 47.804375 27.0925 48.60875 26.625 49.4375 C24.83862214 52.25448048 24.00426182 52.77122985 21 54 C18.84291035 54.43062048 16.6908857 54.74953804 14.51171875 55.046875 C11.79408227 56.07813985 11.01267576 57.00960839 9.0625 59.08203125 C4.72768365 62.96512208 0.60645655 62.50303104 -4.98242188 62.22070312 C-6.20509766 62.12724609 -7.42777344 62.03378906 -8.6875 61.9375 C-9.89083984 61.87111328 -11.09417969 61.80472656 -12.33398438 61.73632812 C-19.8993225 61.29900172 -27.45125425 60.66098211 -35 60 C-35 59.34 -35 58.68 -35 58 C-36.5778125 58.01740234 -36.5778125 58.01740234 -38.1875 58.03515625 C-50.10581211 58.12185841 -62.02494944 57.96769837 -73.94091797 57.73654175 C-75.71687715 57.70409261 -77.49293129 57.67645051 -79.26904297 57.65383911 C-96.69608089 57.42308374 -96.69608089 57.42308374 -104.85375977 54.62597656 C-107.15474553 53.95486662 -108.93049044 53.92858286 -111.3125 54.0625 C-115.77865032 53.98680254 -117.63894971 52.86918927 -121 50 C-121.495 48.515 -121.495 48.515 -122 47 C-122.66 46.67 -123.32 46.34 -124 46 C-127.31708334 35.31162034 -127.00937494 23.72089823 -124 13 C-123.34 13 -122.68 13 -122 13 C-121.87625 12.21625 -121.7525 11.4325 -121.625 10.625 C-121 8 -121 8 -119 6 C-112.07794042 5.14992251 -107.65908917 7.03752139 -102 11 C-100.08618471 12.59591938 -99.11253315 13.4580442 -98.59936523 15.92944336 C-98.58591064 16.64237549 -98.57245605 17.35530762 -98.55859375 18.08984375 C-98.53216797 18.87423828 -98.50574219 19.65863281 -98.47851562 20.46679688 C-98.46498047 21.28212891 -98.45144531 22.09746094 -98.4375 22.9375 C-98.40289792 24.55098238 -98.36020006 26.1643157 -98.30859375 27.77734375 C-98.29626709 28.49140381 -98.28394043 29.20546387 -98.27124023 29.94116211 C-97.95209097 32.36365153 -97.3304268 33.95167101 -96 36 C-94.515 36.495 -94.515 36.495 -93 37 C-93.495 34.03 -93.495 34.03 -94 31 C-94.66 31 -95.32 31 -96 31 C-96 25.39 -96 19.78 -96 14 C-94.68 13.67 -93.36 13.34 -92 13 C-92 12.01 -92 11.02 -92 10 C-88.38468795 5.73909652 -85.72242643 4.19765549 -80.1875 3.5625 C-75.98231465 3.64022986 -73.97790633 5.22923478 -70.80859375 7.8203125 C-67.69995597 9.84797688 -64.65053639 9.80786651 -61 10 C-60.505 11.485 -60.505 11.485 -60 13 C-59.34 13 -58.68 13 -58 13 C-56.2958322 18.15946865 -55.77774395 22.4425333 -55.875 27.9375 C-55.88402344 28.62134766 -55.89304687 29.30519531 -55.90234375 30.00976562 C-55.92561042 31.67333287 -55.96146833 33.33671631 -56 35 C-54.02 35.495 -54.02 35.495 -52 36 C-52.33 29.4 -52.66 22.8 -53 16 C-53.66 16 -54.32 16 -55 16 C-55.99 12.535 -55.99 12.535 -57 9 C-56.34 9 -55.68 9 -55 9 C-55 8.34 -55 7.68 -55 7 C-53.1291122 6.32187886 -51.25305707 5.6580054 -49.375 5 C-48.33085937 4.62875 -47.28671875 4.2575 -46.2109375 3.875 C-42.92433565 2.979381 -40.38550368 2.66097213 -37 3 C-34.3125 5.4375 -34.3125 5.4375 -32 8 C-31.01 8.33 -30.02 8.66 -29 9 C-28.67 18.24 -28.34 27.48 -28 37 C-26.515 37.495 -26.515 37.495 -25 38 C-25 28.43 -25 18.86 -25 9 C-22.03 8.01 -19.06 7.02 -16 6 C-11.70919075 4.34852902 -11.70919075 4.34852902 -9 1 C-5.8035914 -0.06546953 -3.34252724 -0.07427838 0 0 Z " fill="#F8F8F8" transform="translate(287,93)"/>
<path d="M0 0 C0.66 0 1.32 0 2 0 C2.44601563 0.46277344 2.89203125 0.92554688 3.3515625 1.40234375 C11.48098409 9.28133292 30.35990908 8.30297924 40.86328125 8.4140625 C42.02127731 8.43342865 43.17927338 8.4527948 44.37236023 8.4727478 C48.01900194 8.53184279 51.66567643 8.57864514 55.3125 8.625 C57.8066533 8.66324444 60.30079431 8.70229977 62.79492188 8.7421875 C68.86317094 8.83748535 74.93149598 8.92273099 81 9 C81 9.66 81 10.32 81 11 C97.83 11 114.66 11 132 11 C132 10.34 132 9.68 132 9 C132.54527344 8.82984375 133.09054687 8.6596875 133.65234375 8.484375 C139.28384978 6.67459186 144.63939569 4.49654622 150 2 C153.48986762 4.69671589 154.11471944 7.78859389 155 12 C155.21452492 15.15296975 155.19116788 18.27925601 155.125 21.4375 C155.11597656 22.26443359 155.10695313 23.09136719 155.09765625 23.94335938 C155.07431512 25.96236708 155.03845288 27.98122356 155 30 C149.59169187 32.69435802 145.4469415 33.43542128 139.4453125 33.36328125 C138.63477921 33.36450485 137.82424591 33.36572845 136.989151 33.36698914 C134.36741756 33.36519117 131.74658041 33.33996892 129.125 33.3125 C127.31030362 33.303848 125.49560633 33.29538557 123.6809082 33.28710938 C112.79755703 33.20701347 102.04147091 32.73420207 91.20239258 31.72094727 C78.76853284 30.55921112 66.7205029 30.65032858 54.3125 32 C44.14922213 33.07806733 34.00211987 33.25314116 23.79110718 33.29956055 C21.98299069 33.3081349 20.17489055 33.32174478 18.36685181 33.34057617 C15.79770011 33.36452793 13.22940052 33.36712099 10.66015625 33.36328125 C9.89112976 33.37241043 9.12210327 33.38153961 8.32977295 33.39094543 C3.17788669 33.34755941 -0.38471025 32.30440781 -5 30 C-5.55353075 10.99544419 -5.55353075 10.99544419 -2 3 C-1.34 3 -0.68 3 0 3 C0 2.01 0 1.02 0 0 Z " fill="#F9F9F9" transform="translate(165,282)"/>
<path d="M0 0 C0.6511528 -0.00175232 1.3023056 -0.00350464 1.97319031 -0.00531006 C4.10617812 -0.00967961 6.23908179 -0.00680935 8.37207031 -0.00341797 C9.86086035 -0.00409209 11.34965028 -0.00506302 12.83843994 -0.00631714 C15.94845637 -0.00778719 19.05844397 -0.00566064 22.16845703 -0.00097656 C26.15888111 0.00474023 30.14923822 0.00142507 34.13965988 -0.00454903 C37.20907093 -0.00815642 40.27846599 -0.00701557 43.3478775 -0.00442123 C44.8199184 -0.00375349 46.29196073 -0.00457509 47.76399994 -0.00690079 C49.81536228 -0.00943238 51.86661464 -0.00558048 53.91796875 0 C55.66953278 0.00119339 55.66953278 0.00119339 57.45648193 0.00241089 C60.20019531 0.12939453 60.20019531 0.12939453 62.20019531 1.12939453 C64.30097984 1.42532094 66.40603938 1.69115795 68.51269531 1.94189453 C75.69935196 2.9154747 82.35106285 4.78567146 89.20019531 7.12939453 C89.20019531 7.78939453 89.20019531 8.44939453 89.20019531 9.12939453 C90.19019531 9.25314453 90.19019531 9.25314453 91.20019531 9.37939453 C95.19058694 10.37699244 98.58569174 12.20106136 102.20019531 14.12939453 C100.82519531 15.62939453 100.82519531 15.62939453 99.20019531 17.12939453 C98.54019531 17.12939453 97.88019531 17.12939453 97.20019531 17.12939453 C97.20019531 17.78939453 97.20019531 18.44939453 97.20019531 19.12939453 C90.63268276 24.05502894 82.9182952 24.42883853 75.03613281 24.35986328 C74.15034546 24.35985825 73.26455811 24.35985321 72.35192871 24.35984802 C69.42620839 24.35632774 66.50084316 24.33731718 63.57519531 24.31689453 C61.51285922 24.3086289 59.45052191 24.30065969 57.38818359 24.29296875 C50.65860403 24.26101205 43.92948026 24.1989283 37.20019531 24.12939453 C36.0068457 24.11737 34.81349609 24.10534546 33.58398438 24.09295654 C26.26557553 24.0165403 18.94762558 23.92269214 11.62969971 23.80899048 C9.27976184 23.77289625 6.92978406 23.73930412 4.57977295 23.70834351 C-23.93983136 23.31636259 -23.93983136 23.31636259 -36.79980469 19.12939453 C-36.79980469 18.46939453 -36.79980469 17.80939453 -36.79980469 17.12939453 C-37.72792969 16.91283203 -37.72792969 16.91283203 -38.67480469 16.69189453 C-40.79980469 16.12939453 -40.79980469 16.12939453 -42.79980469 15.12939453 C-42.79980469 14.46939453 -42.79980469 13.80939453 -42.79980469 13.12939453 C-42.13980469 13.12939453 -41.47980469 13.12939453 -40.79980469 13.12939453 C-40.53167969 12.18064453 -40.26355469 11.23189453 -39.98730469 10.25439453 C-38.79980469 7.12939453 -38.79980469 7.12939453 -35.79980469 5.12939453 C-33.44311523 4.55102539 -33.44311523 4.55102539 -30.68652344 4.09423828 C-29.68556641 3.92472656 -28.68460938 3.75521484 -27.65332031 3.58056641 C-26.60853516 3.41105469 -25.56375 3.24154297 -24.48730469 3.06689453 C-23.45412109 2.89351563 -22.4209375 2.72013672 -21.35644531 2.54150391 C-18.50527447 2.06417511 -15.65273899 1.59604455 -12.79980469 1.12939453 C-11.89343765 0.95780319 -10.98707062 0.78621185 -10.05323792 0.60942078 C-6.65249242 0.10765941 -3.43679083 0.00233522 0 0 Z " fill="#F9F9F9" transform="translate(210.7998046875,264.87060546875)"/>
<path d="M0 0 C1.08845215 -0.00580078 2.1769043 -0.01160156 3.29833984 -0.01757812 C5.06105225 0.00272461 5.06105225 0.00272461 6.859375 0.0234375 C8.08736816 0.02923828 9.31536133 0.03503906 10.58056641 0.04101562 C17.85196966 0.1427004 24.81912538 0.71285043 31.984375 1.8984375 C50.86843669 4.98816993 70.53740907 3.63954177 89.609375 3.3984375 C90.06296387 4.3476709 90.51655273 5.2969043 90.98388672 6.27490234 C92.62357974 9.4257333 93.97196449 10.87263079 96.734375 13.0234375 C99.77948815 15.39929501 100.83487049 16.63655844 101.609375 20.3984375 C103.57610415 21.5485206 103.57610415 21.5485206 105.609375 22.3984375 C106.104375 23.3884375 106.104375 23.3884375 106.609375 24.3984375 C106.01511719 24.21667969 105.42085938 24.03492188 104.80859375 23.84765625 C98.43850723 21.91582597 92.03879142 20.12191224 85.609375 18.3984375 C85.609375 17.7384375 85.609375 17.0784375 85.609375 16.3984375 C85.00609375 16.41003906 84.4028125 16.42164063 83.78125 16.43359375 C82.58242188 16.44712891 82.58242188 16.44712891 81.359375 16.4609375 C80.17601562 16.47833984 80.17601562 16.47833984 78.96875 16.49609375 C76.609375 16.3984375 76.609375 16.3984375 74.87228394 15.90042114 C71.89357427 15.23965062 69.09513985 15.27110985 66.04345703 15.26904297 C65.39236465 15.26729065 64.74127228 15.26553833 64.07044983 15.26373291 C61.91933516 15.25933601 59.76830301 15.26224822 57.6171875 15.265625 C56.10944605 15.26495053 54.6017047 15.26397931 53.09396362 15.26272583 C49.92819182 15.2612511 46.76244821 15.2633932 43.59667969 15.26806641 C39.57823451 15.27371468 35.55985686 15.27051472 31.54141426 15.26449394 C28.42175815 15.26084022 25.30211742 15.26204956 22.18246078 15.26462173 C20.70359158 15.26528034 19.22472089 15.26450071 17.74585342 15.26214218 C8.31943616 15.25042443 -0.99726244 15.59042241 -10.390625 16.3984375 C-10.390625 17.0584375 -10.390625 17.7184375 -10.390625 18.3984375 C-15.340625 18.8934375 -15.340625 18.8934375 -20.390625 19.3984375 C-18.56656526 15.75031802 -17.95674216 14.81006218 -14.953125 12.5234375 C-11.66505276 9.83443432 -10.12818623 7.30795026 -8.390625 3.3984375 C-5.92983713 0.1254541 -3.99403109 0.01394657 0 0 Z " fill="#F8F8F8" transform="translate(199.390625,246.6015625)"/>
<path d="M0 0 C2.02588345 1.94302523 3.52564442 4.01135165 5.1640625 6.28515625 C6.90886747 8.25488071 6.90886747 8.25488071 9.6484375 8.30859375 C12.16661667 8.02997168 14.54793648 7.63151737 17 7 C17 6.34 17 5.68 17 5 C21.94201908 3.02319237 25.75149341 2.56979454 31 3 C33.44451012 4.46670607 33.94171339 5.88035907 35.1875 8.4375 C36.44406472 13.94705299 36.95499908 20.41151862 35.484375 25.9375 C34.52575629 30.01936032 35.04764102 34.32462341 35.16015625 38.4921875 C34.99847275 42.03345052 34.28164414 44.71295974 33 48 C32.34 48 31.68 48 31 48 C30.9175 49.11375 30.835 50.2275 30.75 51.375 C30 55 30 55 27.9375 56.4375 C27.298125 56.623125 26.65875 56.80875 26 57 C25.505 54.03 25.505 54.03 25 51 C25.99 50.67 26.98 50.34 28 50 C28.8526962 43.44489797 29.09740827 37.10428037 29 30.5 C28.97462691 28.71880888 28.95354774 26.93754954 28.9375 25.15625 C28.92589844 24.38087891 28.91429687 23.60550781 28.90234375 22.80664062 C29 21 29 21 30 20 C30.16106858 15.81221687 29.88684593 12.08230666 29 8 C28.10796875 8.27714844 27.2159375 8.55429688 26.296875 8.83984375 C25.12640625 9.20207031 23.9559375 9.56429687 22.75 9.9375 C21.58984375 10.29714844 20.4296875 10.65679687 19.234375 11.02734375 C16.82910942 11.75066637 14.44345956 12.42542411 12 13 C12.02320313 14.02738281 12.04640625 15.05476563 12.0703125 16.11328125 C12.1972118 24.31414872 11.9060488 31.96736576 10 40 C9.34 40 8.68 40 8 40 C8.020625 40.804375 8.04125 41.60875 8.0625 42.4375 C8 45 8 45 7 46 C5.33382885 46.04063832 3.66611905 46.042721 2 46 C2.33 44.68 2.66 43.36 3 42 C3.66 42 4.32 42 5 42 C5.06058594 41.41992188 5.12117188 40.83984375 5.18359375 40.2421875 C5.30927734 39.07042969 5.30927734 39.07042969 5.4375 37.875 C5.55931641 36.72644531 5.55931641 36.72644531 5.68359375 35.5546875 C5.90964037 33.72957038 6.18623917 31.91042753 6.49609375 30.09765625 C7.38209829 24.6511322 8.10086958 19.45677945 7 14 C4.84453595 11.53840973 2.77197677 10.03701085 -0.03125 8.3671875 C-1.00578125 7.69042969 -1.00578125 7.69042969 -2 7 C-2 6.01 -2 5.02 -2 4 C-6.455 4.495 -6.455 4.495 -11 5 C-11.33 5.99 -11.66 6.98 -12 8 C-14.109375 9.38671875 -14.109375 9.38671875 -16.75 10.6875 C-17.61109375 11.12449219 -18.4721875 11.56148437 -19.359375 12.01171875 C-22 13 -22 13 -27 13 C-27 22.57 -27 32.14 -27 42 C-28.32 41.67 -29.64 41.34 -31 41 C-31 31.76 -31 22.52 -31 13 C-32.32 12.67 -33.64 12.34 -35 12 C-35.53625 11.29875 -36.0725 10.5975 -36.625 9.875 C-39.51930437 7.59002287 -40.4194448 7.80999514 -44 8.125 C-46.66369935 8.45796242 -48.66799537 8.8302249 -51.0625 10.0546875 C-53 11 -53 11 -57 11 C-57 12.32 -57 13.64 -57 15 C-57 16.66666667 -57 18.33333333 -57 20 C-56.34 20 -55.68 20 -55 20 C-54.09761253 22.70716242 -53.88148698 24.23776768 -53.90234375 27.01171875 C-53.90556641 27.76904297 -53.90878906 28.52636719 -53.91210938 29.30664062 C-53.92048828 30.09232422 -53.92886719 30.87800781 -53.9375 31.6875 C-53.94201172 32.48478516 -53.94652344 33.28207031 -53.95117188 34.10351562 C-53.9629415 36.06904257 -53.98087652 38.03453085 -54 40 C-55.65 39.67 -57.3 39.34 -59 39 C-58.98839844 37.99839844 -58.97679687 36.99679688 -58.96484375 35.96484375 C-58.95545602 34.62239772 -58.94635688 33.27994964 -58.9375 31.9375 C-58.92589844 30.62652344 -58.91429687 29.31554687 -58.90234375 27.96484375 C-58.99547665 24.1836481 -59.38551274 20.72079293 -60 17 C-60.66 17 -61.32 17 -62 17 C-62.33 16.34 -62.66 15.68 -63 15 C-66.02934491 14.34227572 -66.02934491 14.34227572 -69 14 C-68.67 13.01 -68.34 12.02 -68 11 C-66.14453125 10.19140625 -66.14453125 10.19140625 -63.8125 9.5625 C-59.64170457 8.3066345 -56.57642179 6.51975172 -53 4 C-49.35452509 2.26931999 -46.40256943 1.70414285 -42.375 1.6875 C-41.43398437 1.67074219 -40.49296875 1.65398437 -39.5234375 1.63671875 C-37 2 -37 2 -35.1640625 3.39453125 C-34 5 -34 5 -34 7 C-32.58800422 7.39222105 -31.17007236 7.76311059 -29.75 8.125 C-28.96109375 8.33382812 -28.1721875 8.54265625 -27.359375 8.7578125 C-24.54789748 9.04640787 -23.35263967 8.50321834 -21 7 C-20.566875 6.54625 -20.13375 6.0925 -19.6875 5.625 C-14.1215788 0.26522403 -7.61524953 -1.95756043 0 0 Z " fill="#191919" transform="translate(289,89)"/>
<path d="M0 0 C1.29035156 0.00080566 2.58070313 0.00161133 3.91015625 0.00244141 C15.32765301 0.05259446 26.72222423 0.5063938 38.125 1.0625 C38.97946716 1.10170563 39.83393433 1.14091125 40.71429443 1.18130493 C43.16430458 1.29605792 45.61333723 1.42319597 48.0625 1.5546875 C48.78946075 1.58812759 49.51642151 1.62156769 50.26541138 1.65602112 C54.51994192 1.90384478 58.14854903 2.65743759 62.125 4.1875 C62.125 4.8475 62.125 5.5075 62.125 6.1875 C63.775 6.1875 65.425 6.1875 67.125 6.1875 C67.62 7.1775 67.62 7.1775 68.125 8.1875 C62.98788814 8.23766334 57.85092486 8.27357287 52.71362305 8.29736328 C50.97303783 8.30730124 49.23246875 8.32085628 47.49194336 8.33837891 C36.50509593 8.44606205 25.97635319 8.00889281 15.125 6.1875 C15.125 5.5275 15.125 4.8675 15.125 4.1875 C3.575 3.8575 -7.975 3.5275 -19.875 3.1875 C-15.10816877 -1.57933123 -6.27772508 -0.00409132 0 0 Z " fill="#F8F8F8" transform="translate(214.875,239.8125)"/>
<path d="M0 0 C2.44451012 1.46670607 2.94171339 2.88035907 4.1875 5.4375 C5.44406472 10.94705299 5.95499908 17.41151862 4.484375 22.9375 C3.52575629 27.01936032 4.04764102 31.32462341 4.16015625 35.4921875 C3.99847275 39.03345052 3.28164414 41.71295974 2 45 C1.34 45 0.68 45 0 45 C-0.0825 46.11375 -0.165 47.2275 -0.25 48.375 C-1 52 -1 52 -3.0625 53.4375 C-3.701875 53.623125 -4.34125 53.80875 -5 54 C-5.33 52.02 -5.66 50.04 -6 48 C-4.515 47.505 -4.515 47.505 -3 47 C-2.1473038 40.44489797 -1.90259173 34.10428037 -2 27.5 C-2.02537309 25.71880888 -2.04645226 23.93754954 -2.0625 22.15625 C-2.07410156 21.38087891 -2.08570313 20.60550781 -2.09765625 19.80664062 C-2 18 -2 18 -1 17 C-0.83982118 12.83535074 -1.01751804 9.05273808 -2 5 C-2.92232422 5.14308594 -2.92232422 5.14308594 -3.86328125 5.2890625 C-4.67152344 5.39992188 -5.47976563 5.51078125 -6.3125 5.625 C-7.11300781 5.74101563 -7.91351563 5.85703125 -8.73828125 5.9765625 C-11 6 -11 6 -14 4 C-14 3.34 -14 2.68 -14 2 C-9.05798092 0.02319237 -5.24850659 -0.43020546 0 0 Z " fill="#282828" transform="translate(320,92)"/>
<path d="M0 0 C1.32 0.33 2.64 0.66 4 1 C3.99214478 1.83809204 3.99214478 1.83809204 3.98413086 2.69311523 C3.96308281 5.27456494 3.95025266 7.85599649 3.9375 10.4375 C3.92912109 11.31599609 3.92074219 12.19449219 3.91210938 13.09960938 C3.89100893 18.81783077 4.26719943 24.32800815 5 30 C5.99 30.33 6.98 30.66 8 31 C8.6875 33.0625 8.6875 33.0625 9 35 C7.68 35.66 6.36 36.32 5 37 C2.43298027 34.01894483 0.68511102 31.88229579 0 28 C-0.51626953 26.48792969 -0.51626953 26.48792969 -1.04296875 24.9453125 C-2.32888188 20.48971602 -2.03670315 16.3309446 -1.6875 11.75 C-1.63916016 10.94820312 -1.59082031 10.14640625 -1.54101562 9.3203125 C-1.31940539 5.96530179 -1.07072414 3.21217243 0 0 Z " fill="#202020" transform="translate(158,109)"/>
<path d="M0 0 C6.34257749 0.46982055 6.34257749 0.46982055 8.9375 2.5625 C9.288125 3.036875 9.63875 3.51125 10 4 C8.35 4.66 6.7 5.32 5 6 C5 6.66 5 7.32 5 8 C0.61538462 11 0.61538462 11 -2 11 C-1.85957123 9.35369672 -1.71250671 7.70795821 -1.5625 6.0625 C-1.48128906 5.14597656 -1.40007812 4.22945313 -1.31640625 3.28515625 C-1 1 -1 1 0 0 Z " fill="#E9E9E9" transform="translate(303,276)"/>
<path d="M0 0 C2.31 0.66 4.62 1.32 7 2 C7 2.66 7 3.32 7 4 C8.65 4 10.3 4 12 4 C12.33 4.66 12.66 5.32 13 6 C8.05 6 3.1 6 -2 6 C-2 3 -2 3 0 0 Z " fill="#F1F1F1" transform="translate(270,242)"/>
<path d="M0 0 C0 0.33 0 0.66 0 1 C-0.56847656 1.00257812 -1.13695312 1.00515625 -1.72265625 1.0078125 C-8.24386457 1.33441726 -11.53889116 3.30938074 -16 8 C-13.97533293 -1.09190118 -8.12374839 -0.50423266 0 0 Z " fill="#6C6C6C" transform="translate(177,95)"/>
<path d="M0 0 C0.66 0.33 1.32 0.66 2 1 C2 1.99 2 2.98 2 4 C2.66 4 3.32 4 4 4 C4 4.66 4 5.32 4 6 C2.35 5.67 0.7 5.34 -1 5 C-0.67 3.35 -0.34 1.7 0 0 Z " fill="#DEDEDE" transform="translate(281,237)"/>
</svg>
