<?xml version="1.0" encoding="UTF-8"?>
<svg version="1.1" xmlns="http://www.w3.org/2000/svg" width="491" height="394">
<path d="M0 0 C1.90447588 1.68740658 3.07189879 3.38536337 4.45703125 5.5078125 C5.9535953 7.26606465 5.9535953 7.26606465 8.57421875 7.2421875 C11.10281981 6.96710956 13.52513435 6.58203362 16 6 C16 5.34 16 4.68 16 4 C19.46222615 2.93276039 22.64039266 2.89826514 26.25 2.9375 C27.86648438 2.95103516 27.86648438 2.95103516 29.515625 2.96484375 C30.33546875 2.97644531 31.1553125 2.98804687 32 3 C34.38705049 9.55491642 34.29730128 15.82824618 34.25 22.75 C34.25773438 23.86632812 34.26546875 24.98265625 34.2734375 26.1328125 C34.24687143 37.52965496 33.48426852 48.8506783 25.4765625 57.6796875 C21.4130323 61.31321451 16.18297255 61.47291805 11 62 C10.731875 62.804375 10.46375 63.60875 10.1875 64.4375 C9.795625 65.283125 9.40375 66.12875 9 67 C8.01 67.33 7.02 67.66 6 68 C4.79117904 70.00016466 4.79117904 70.00016466 4 72 C3.34 72 2.68 72 2 72 C1.98018066 72.89195068 1.96036133 73.78390137 1.93994141 74.70288086 C1.86125546 78.05225032 1.7745467 81.4012218 1.68261719 84.75024414 C1.64463229 86.1922218 1.60972976 87.63428442 1.578125 89.07641602 C1.40348376 96.94891565 0.98779646 104.33611285 -1 112 C-3.03021036 126.63283693 -4.38420461 143.40506428 2 157 C2 157.66 2 158.32 2 159 C2.66 159 3.32 159 4 159 C6.29648649 161.5614657 7 162.47967572 7 166 C7.556875 166.226875 8.11375 166.45375 8.6875 166.6875 C11.66159588 168.37550036 13.72008865 170.46676517 16 173 C16 173.66 16 174.32 16 175 C16.66 175 17.32 175 18 175 C19.5078125 176.42578125 19.5078125 176.42578125 21.125 178.3125 C21.93324219 179.23482422 21.93324219 179.23482422 22.7578125 180.17578125 C24 182 24 182 24 185 C24.99 185 25.98 185 27 185 C27.98484108 186.74681293 28.96266187 188.4975851 29.9375 190.25 C30.48277344 191.22453125 31.02804687 192.1990625 31.58984375 193.203125 C34.67428216 199.32073692 34.18356685 205.39931334 34.1875 212.125 C34.19974609 213.23488281 34.21199219 214.34476563 34.22460938 215.48828125 C34.22654297 216.54660156 34.22847656 217.60492188 34.23046875 218.6953125 C34.23457764 219.66484863 34.23868652 220.63438477 34.24291992 221.63330078 C34 224 34 224 32 226 C26.29678478 228.10943378 21.0807071 228.27894568 15.04296875 228.23046875 C14.09996414 228.23001053 13.15695953 228.22955231 12.18537903 228.2290802 C10.19771053 228.22607084 8.21004412 228.21822418 6.22241211 228.20581055 C3.20743277 228.18762026 0.19276277 228.18530077 -2.82226562 228.18554688 C-4.76302344 228.18062793 -6.70377921 228.17479798 -8.64453125 228.16796875 C-9.5334053 228.16685593 -10.42227936 228.1657431 -11.33808899 228.16459656 C-15.60062755 228.13288538 -19.77929552 227.96016996 -24.01806641 227.49780273 C-29.0466192 226.9493837 -34.01144078 226.85529938 -39.06640625 226.8671875 C-39.98534164 226.86623077 -40.90427704 226.86527405 -41.85105896 226.86428833 C-43.77790394 226.86361304 -45.70475129 226.86542148 -47.6315918 226.86962891 C-50.55848353 226.87499264 -53.48522228 226.86965844 -56.41210938 226.86328125 C-58.29687533 226.86394203 -60.1816412 226.86522318 -62.06640625 226.8671875 C-62.92915665 226.86516327 -63.79190704 226.86313904 -64.68080139 226.86105347 C-68.6508412 226.87616841 -72.52374313 227.01300965 -76.46606445 227.49560547 C-81.47256718 228.10846213 -86.43690799 228.17974068 -91.4765625 228.203125 C-92.44604828 228.20882507 -93.41553406 228.21452515 -94.41439819 228.22039795 C-96.44975716 228.229784 -98.48513089 228.23635624 -100.52050781 228.24023438 C-103.62331406 228.2499947 -106.72547212 228.2811006 -109.828125 228.3125 C-111.81510027 228.31902642 -113.80208023 228.32427831 -115.7890625 228.328125 C-117.16899887 228.3466452 -117.16899887 228.3466452 -118.57681274 228.36553955 C-124.13311567 228.34640269 -128.1284731 227.76415836 -133 225 C-136.98468266 216.33764639 -135.27929497 204.95359411 -133 196 C-131.37410266 192.3586133 -129.3424667 189.21889982 -127 186 C-126.06994141 184.70449219 -126.06994141 184.70449219 -125.12109375 183.3828125 C-121.75990352 178.8778352 -121.75990352 178.8778352 -120 177 C-119.34 177 -118.68 177 -118 177 C-117.731875 176.41734375 -117.46375 175.8346875 -117.1875 175.234375 C-115.98519009 172.97213399 -114.66174087 171.19423682 -113 169.25 C-112.484375 168.63640625 -111.96875 168.0228125 -111.4375 167.390625 C-110 166 -110 166 -108 166 C-107.62875 165.195625 -107.62875 165.195625 -107.25 164.375 C-106 162 -106 162 -103.9375 158.9375 C-101.89527457 156.1164266 -101.89527457 156.1164266 -101 153 C-100.34 153 -99.68 153 -99 153 C-97.90930107 146.20176335 -97.81389528 139.52930071 -97.81469727 132.66674805 C-97.81250913 130.57124558 -97.7943036 128.4762692 -97.77539062 126.38085938 C-97.74687577 119.56438837 -98.08328989 113.54816577 -100 107 C-101.24788245 99.55818207 -101.30848982 91.96203121 -101.5625 84.4375 C-101.60568359 83.23802734 -101.64886719 82.03855469 -101.69335938 80.80273438 C-101.79856802 77.86858207 -101.90070883 74.9343575 -102 72 C-102.66 72 -103.32 72 -104 72 C-107 67.61538462 -107 67.61538462 -107 65 C-107.66 65 -108.32 65 -109 65 C-109 64.34 -109 63.68 -109 63 C-109.71285156 62.82984375 -110.42570312 62.6596875 -111.16015625 62.484375 C-124.81809423 59.02853067 -124.81809423 59.02853067 -128.5 53.91796875 C-132.80113475 46.54983166 -133.16105939 40.25279931 -133.125 31.875 C-133.12886719 30.96878906 -133.13273438 30.06257813 -133.13671875 29.12890625 C-133.13542969 28.25878906 -133.13414062 27.38867188 -133.1328125 26.4921875 C-133.13168457 25.70183105 -133.13055664 24.91147461 -133.12939453 24.09716797 C-133 22 -133 22 -132 19 C-131.34 19 -130.68 19 -130 19 C-130.061875 17.948125 -130.12375 16.89625 -130.1875 15.8125 C-129.9909572 11.81612976 -129.39429484 10.13100094 -127 7 C-122.27102437 4.63551218 -116.10870458 5.4237132 -111 6 C-106.72660222 7.59323417 -102.87986419 9.61239126 -99 12 C-99 11.34 -99 10.68 -99 10 C-95.58647065 6.10134373 -91.93135838 3.40622667 -86.82421875 2.33203125 C-79.62401403 2.01897887 -75.62770828 3.36515895 -69.984375 7.7109375 C-67.8865305 9.30919153 -67.8865305 9.30919153 -64.375 9.1875 C-60.86954868 7.95410046 -58.4503888 6.46479847 -55.578125 4.15625 C-51.91358823 1.47134187 -48.17161086 1.89750816 -43.8125 1.9375 C-42.54019531 1.94652344 -41.26789063 1.95554687 -39.95703125 1.96484375 C-38.49330078 1.98224609 -38.49330078 1.98224609 -37 2 C-36.01 3.98 -36.01 3.98 -35 6 C-34.34 6 -33.68 6 -33 6 C-33 6.66 -33 7.32 -33 8 C-27.17624838 8.30115186 -27.17624838 8.30115186 -22 6 C-21.67 5.34 -21.34 4.68 -21 4 C-14.42467503 -0.29925094 -7.78697684 -1.59627909 0 0 Z " fill="#0F0F0F" transform="translate(290,90)"/>
<path d="M0 0 C2 1 2 1 3.3125 3.3125 C4.84555687 6.14013203 4.84555687 6.14013203 7.57421875 7.8046875 C10 10 10 10 10.59375 12.70703125 C10.33462435 21.29056835 9.41002601 29.73073644 7 38 C6.01 38.495 6.01 38.495 5 39 C5 39.66 5 40.32 5 41 C5.99 41 6.98 41 8 41 C8.99 38.03 8.99 38.03 10 35 C10.66 35 11.32 35 12 35 C12.01869141 34.23333008 12.03738281 33.46666016 12.05664062 32.67675781 C12.16411583 29.19856525 12.33134592 25.72574064 12.5 22.25 C12.52835938 21.0434375 12.55671875 19.836875 12.5859375 18.59375 C13.0673787 9.92780846 13.0673787 9.92780846 15.703125 7.30566406 C19.24957864 5.45077548 23.00361121 4.4997743 27 4.25 C27.763125 4.19328125 28.52625 4.1365625 29.3125 4.078125 C29.869375 4.05234375 30.42625 4.0265625 31 4 C33.14161835 8.41708784 33.93868837 12.89948388 32.484375 17.703125 C31.75085929 21.18140918 31.98642975 24.65292257 32.0625 28.1875 C32.13010398 34.42297275 31.92682303 40.00543945 30 46 C29.01 46.495 29.01 46.495 28 47 C27.54625 47.804375 27.0925 48.60875 26.625 49.4375 C24.83539602 52.25956781 24.00811101 52.76548849 21 54 C19.5081715 54.33093379 18.00702214 54.6221093 16.5 54.875 C12.56602432 55.6902647 10.48065137 56.69246484 8 60 C7.67 60.66 7.34 61.32 7 62 C-2.29132679 62.15770286 -11.48568834 61.6649241 -20.75 61 C-22.14059879 60.90326834 -23.53122375 60.80691202 -24.921875 60.7109375 C-28.28152464 60.4776285 -31.64086441 60.24057809 -35 60 C-35 59.34 -35 58.68 -35 58 C-36.5778125 58.01740234 -36.5778125 58.01740234 -38.1875 58.03515625 C-50.10581211 58.12185841 -62.02494944 57.96769837 -73.94091797 57.73654175 C-75.71687715 57.70409261 -77.49293129 57.67645051 -79.26904297 57.65383911 C-96.69608089 57.42308374 -96.69608089 57.42308374 -104.85375977 54.62597656 C-107.15474553 53.95486662 -108.93049044 53.92858286 -111.3125 54.0625 C-115.77865032 53.98680254 -117.63894971 52.86918927 -121 50 C-121.495 48.515 -121.495 48.515 -122 47 C-122.66 46.67 -123.32 46.34 -124 46 C-127.51578561 35.06200032 -127.19268987 21.97487143 -124 11 C-123.34 11 -122.68 11 -122 11 C-121.34 9.35 -120.68 7.7 -120 6 C-112.48130488 5.40327817 -108.25968955 6.85647028 -102 11 C-102 11.66 -102 12.32 -102 13 C-101.01 13 -100.02 13 -99 13 C-98.98018066 13.55461914 -98.96036133 14.10923828 -98.93994141 14.68066406 C-98.84442349 17.20423693 -98.73485433 19.72701224 -98.625 22.25 C-98.5940625 23.12269531 -98.563125 23.99539062 -98.53125 24.89453125 C-98.49257812 25.73886719 -98.45390625 26.58320312 -98.4140625 27.453125 C-98.36693115 28.61569824 -98.36693115 28.61569824 -98.31884766 29.80175781 C-97.96973494 32.20865742 -97.19448896 33.89602295 -96 36 C-95.34 36 -94.68 36 -94 36 C-94 34.35 -94 32.7 -94 31 C-94.66 31 -95.32 31 -96 31 C-96 25.06 -96 19.12 -96 13 C-95.01 13 -94.02 13 -93 13 C-92.9071875 12.13375 -92.9071875 12.13375 -92.8125 11.25 C-91.48032055 7.56088769 -88.42181986 5.71090993 -85 4 C-78.56829966 3.04816274 -74.58096118 4.44293013 -69.15234375 7.8203125 C-66.07320491 9.50797118 -63.47553336 9.77815745 -60 10 C-60 10.99 -60 11.98 -60 13 C-59.34 13 -58.68 13 -58 13 C-56.2958322 18.15946865 -55.77774395 22.4425333 -55.875 27.9375 C-55.88402344 28.62134766 -55.89304687 29.30519531 -55.90234375 30.00976562 C-55.92561042 31.67333287 -55.96146833 33.33671631 -56 35 C-55.01 35 -54.02 35 -53 35 C-53 28.73 -53 22.46 -53 16 C-53.66 16 -54.32 16 -55 16 C-55.99 12.535 -55.99 12.535 -57 9 C-50.89017751 4.52939818 -44.74737946 1.99571007 -37 3 C-34.25 5.4375 -34.25 5.4375 -32 8 C-31.01 8.33 -30.02 8.66 -29 9 C-28.67 18.24 -28.34 27.48 -28 37 C-27.01 37 -26.02 37 -25 37 C-25 27.76 -25 18.52 -25 9 C-21.7 7.68 -18.4 6.36 -15 5 C-11 3.5 -11 3.5 -10 1 C-6.49852959 -0.1671568 -3.67329964 -0.13357453 0 0 Z " fill="#7F7F7F" transform="translate(287,93)"/>
<path d="M0 0 C25.71699766 0.43936255 51.34254533 1.14805808 77 3 C78.33983843 3.095615 79.67968225 3.19115443 81.01953125 3.28662109 C88.68146738 3.83468495 96.34155948 4.40507681 104 5 C103.67 6.65 103.34 8.3 103 10 C102.34 10 101.68 10 101 10 C100.96241577 11.3614917 100.96241577 11.3614917 100.92407227 12.75048828 C100.82856941 16.13878234 100.72935916 19.52692669 100.62768555 22.91503906 C100.58454663 24.37756148 100.54285805 25.84012747 100.50268555 27.30273438 C100.4444693 29.4128936 100.38092712 31.52283775 100.31640625 33.6328125 C100.27974854 34.90012207 100.24309082 36.16743164 100.20532227 37.47314453 C100.01628964 40.72019016 99.6037927 43.80698948 99 47 C98.34 47 97.68 47 97 47 C97 60.53 97 74.06 97 88 C97.66 88 98.32 88 99 88 C99 88.66 99 89.32 99 90 C97.58318366 89.68817931 96.16655349 89.37551263 94.75 89.0625 C93.96109375 88.88847656 93.1721875 88.71445313 92.359375 88.53515625 C91.00301524 88.22750511 89.65057912 87.89616745 88.31738281 87.5 C85.08810325 86.80324857 81.8521586 86.64717439 78.5625 86.46484375 C77.45087997 86.40024208 77.45087997 86.40024208 76.31680298 86.33433533 C73.87815694 86.1960733 71.43918734 86.06584081 69 85.9375 C68.16829285 85.89264465 67.33658569 85.84778931 66.47967529 85.80157471 C48.31617986 84.84038923 30.18327069 84.78638847 12 85 C11.37897682 72.32683275 10.81956703 59.69045192 11 47 C10.34 47 9.68 47 9 47 C8.15247886 42.51809107 7.81541891 38.19019652 7.68359375 33.6328125 C7.66281265 32.95322479 7.64203156 32.27363708 7.62062073 31.57345581 C7.5557637 29.42406334 7.49654059 27.2745593 7.4375 25.125 C7.39425388 23.6588431 7.35063775 22.19269706 7.30664062 20.7265625 C7.20014896 17.15115725 7.09870591 13.57562963 7 10 C6.34 10 5.68 10 5 10 C4.54625 8.865625 4.0925 7.73125 3.625 6.5625 C2.42904194 2.95278308 2.42904194 2.95278308 0 2 C0 1.34 0 0.68 0 0 Z " fill="#7F7F7F" transform="translate(186,153)"/>
<path d="M0 0 C0.66 0 1.32 0 2 0 C2.67095703 0.69416016 2.67095703 0.69416016 3.35546875 1.40234375 C14.38521877 12.1177066 42.9602026 8.45095172 56.875 8.625 C59.4127728 8.66324974 61.95053358 8.70230534 64.48828125 8.7421875 C70.6587463 8.83742327 76.82928574 8.92268434 83 9 C83 9.66 83 10.32 83 11 C98.84 11 114.68 11 131 11 C131 10.34 131 9.68 131 9 C131.556875 8.82984375 132.11375 8.6596875 132.6875 8.484375 C137.46102005 6.96845985 141.80256614 5.21743153 146.17578125 2.76953125 C148 2 148 2 152 2 C154.61736323 8.50652302 155.39871196 14.08167409 155.1875 21.0625 C155.17396484 21.92810547 155.16042969 22.79371094 155.14648438 23.68554688 C155.1115933 25.79064174 155.05780665 27.89540974 155 30 C149.57066715 32.70884672 145.40142253 33.43516496 139.375 33.36328125 C138.15201706 33.36504868 138.15201706 33.36504868 136.90432739 33.36685181 C134.26921105 33.36494441 131.63496713 33.3396883 129 33.3125 C127.16910913 33.30452328 125.33821716 33.2967935 123.50732422 33.28930664 C113.45359951 33.21922066 103.5647436 32.77914499 93.56982422 31.6484375 C84.74471048 30.75790478 75.97536196 31.02787221 67.125 31.3125 C66.38735413 31.33569305 65.64970825 31.35888611 64.88970947 31.38278198 C55.7350865 31.68066743 55.7350865 31.68066743 46.6171875 32.51147461 C41.94326439 33.05326305 37.31926798 33.17834847 32.6171875 33.203125 C31.32942917 33.21167511 31.32942917 33.21167511 30.01565552 33.22039795 C28.21569017 33.22977266 26.41570823 33.23635161 24.61572266 33.24023438 C21.87502359 33.24999992 19.13505697 33.28111806 16.39453125 33.3125 C14.63542106 33.31902627 12.87630559 33.32427822 11.1171875 33.328125 C9.90130447 33.3466452 9.90130447 33.3466452 8.66085815 33.36553955 C3.36774608 33.34494298 -0.26690564 32.38981435 -5 30 C-5.08184423 27.02026385 -5.14089764 24.04283168 -5.1875 21.0625 C-5.21263672 20.23169922 -5.23777344 19.40089844 -5.26367188 18.54492188 C-5.33425885 12.49797101 -4.25464398 7.60483651 -2 2 C-1.34 2 -0.68 2 0 2 C0 1.34 0 0.68 0 0 Z " fill="#7F7F7F" transform="translate(165,282)"/>
<path d="M0 0 C3.22458361 0.01923064 6.44911086 0.02316273 9.6737442 0.02671432 C13.52871776 0.03184958 17.38364012 0.04636728 21.23858643 0.06115723 C22.33572716 0.06397831 22.33572716 0.06397831 23.45503235 0.06685638 C25.5099088 0.07370282 27.56462143 0.08731701 29.6194458 0.10314941 C30.78649048 0.10997742 31.95353516 0.11680542 33.15594482 0.12384033 C35.89483643 0.26428223 35.89483643 0.26428223 37.89483643 1.26428223 C39.45597339 1.37012202 41.01898446 1.44885046 42.58233643 1.51428223 C50.09318178 2.10356398 56.87212157 4.69592092 63.89483643 7.26428223 C63.89483643 7.92428223 63.89483643 8.58428223 63.89483643 9.26428223 C64.88483643 9.41896973 64.88483643 9.41896973 65.89483643 9.57678223 C69.73324651 10.45641787 73.22580333 11.83398119 76.89483643 13.26428223 C76.56483643 14.25428223 76.23483643 15.24428223 75.89483643 16.26428223 C73.83233643 16.95178223 73.83233643 16.95178223 71.89483643 17.26428223 C71.89483643 17.92428223 71.89483643 18.58428223 71.89483643 19.26428223 C65.32732388 24.18991664 57.61293631 24.56372623 49.73077393 24.49475098 C48.84498657 24.49474594 47.95919922 24.49474091 47.04656982 24.49473572 C44.12084951 24.49121543 41.19548428 24.47220487 38.26983643 24.45178223 C36.20750033 24.4435166 34.14516303 24.43554738 32.08282471 24.42785645 C25.35324514 24.39589975 18.62412137 24.333816 11.89483643 24.26428223 C10.70148682 24.25225769 9.50813721 24.24023315 8.27862549 24.22784424 C0.96021665 24.151428 -6.3577333 24.05757984 -13.67565918 23.94387817 C-16.02559705 23.90778395 -18.37557482 23.87419181 -20.72558594 23.8432312 C-49.24519025 23.45125029 -49.24519025 23.45125029 -62.10516357 19.26428223 C-62.10516357 18.60428223 -62.10516357 17.94428223 -62.10516357 17.26428223 C-63.03328857 17.04771973 -63.03328857 17.04771973 -63.98016357 16.82678223 C-66.10516357 16.26428223 -66.10516357 16.26428223 -68.10516357 15.26428223 C-68.10516357 14.27428223 -68.10516357 13.28428223 -68.10516357 12.26428223 C-67.44516357 12.26428223 -66.78516357 12.26428223 -66.10516357 12.26428223 C-65.78031982 10.83148926 -65.78031982 10.83148926 -65.44891357 9.36975098 C-64.10516357 6.26428223 -64.10516357 6.26428223 -61.69891357 5.12756348 C-59.5058774 4.73713658 -57.31100067 4.35698455 -55.1149292 3.98400879 C-52.61210074 3.54995988 -50.16397876 3.05094432 -47.68328857 2.48864746 C-31.9678091 -0.7576815 -15.96587134 -0.11396288 0 0 Z " fill="#7F7F7F" transform="translate(236.10516357421875,264.7357177734375)"/>
<path d="M0 0 C1.13759766 -0.01611328 2.27519531 -0.03222656 3.44726562 -0.04882812 C11.02673579 -0.05297218 18.17927059 0.69076841 25.65625 1.83984375 C38.44870047 3.7671149 51.04588581 3.46746045 63.94360352 3.10009766 C66.90381188 3.02211659 69.86334828 2.97426944 72.82421875 2.9296875 C73.72403976 2.89446991 74.62386078 2.85925232 75.5509491 2.82296753 C77.86872871 2.79486266 79.92625709 2.80204728 82.1875 3.3125 C84.1472168 5.71899414 84.1472168 5.71899414 85.1875 8.3125 C87.1931581 10.18939017 89.29400276 11.86033095 91.4453125 13.56640625 C93.4037809 15.52926584 93.55632933 16.69369538 94.1875 19.3125 C95.6725 19.8075 95.6725 19.8075 97.1875 20.3125 C98.375 22.375 98.375 22.375 99.1875 24.3125 C98.59324219 24.13074219 97.99898438 23.94898438 97.38671875 23.76171875 C91.01663223 21.82988847 84.61691642 20.03597474 78.1875 18.3125 C78.1875 17.6525 78.1875 16.9925 78.1875 16.3125 C77.58421875 16.32410156 76.9809375 16.33570313 76.359375 16.34765625 C75.16054688 16.36119141 75.16054688 16.36119141 73.9375 16.375 C72.75414062 16.39240234 72.75414062 16.39240234 71.546875 16.41015625 C69.1875 16.3125 69.1875 16.3125 67.45040894 15.81448364 C64.47169927 15.15371312 61.67326485 15.18517235 58.62158203 15.18310547 C57.97048965 15.18135315 57.31939728 15.17960083 56.64857483 15.17779541 C54.49746016 15.17339851 52.34642801 15.17631072 50.1953125 15.1796875 C48.68757105 15.17901303 47.1798297 15.17804181 45.67208862 15.17678833 C42.50631682 15.1753136 39.34057321 15.1774557 36.17480469 15.18212891 C32.15635951 15.18777718 28.13798186 15.18457722 24.11953926 15.17855644 C20.99988315 15.17490272 17.88024242 15.17611206 14.76058578 15.17868423 C13.28171658 15.17934284 11.80284589 15.17856321 10.32397842 15.17620468 C0.89756116 15.16448693 -8.41913744 15.50448491 -17.8125 16.3125 C-17.8125 16.9725 -17.8125 17.6325 -17.8125 18.3125 C-21.7725 18.9725 -25.7325 19.6325 -29.8125 20.3125 C-29.1525 19.9825 -28.4925 19.6525 -27.8125 19.3125 C-27.709375 18.714375 -27.60625 18.11625 -27.5 17.5 C-26.50384202 14.33040643 -24.43965798 13.25159279 -21.8125 11.3125 C-19.51817729 9.37115002 -18.67111287 8.02383461 -17.3125 5.25 C-13.74866663 -1.72917369 -6.84995195 -0.01822765 0 0 Z " fill="#7F7F7F" transform="translate(206.8125,246.6875)"/>
<path d="M0 0 C1.90447588 1.68740658 3.07189879 3.38536337 4.45703125 5.5078125 C5.9535953 7.26606465 5.9535953 7.26606465 8.57421875 7.2421875 C11.10281981 6.96710956 13.52513435 6.58203362 16 6 C16 5.34 16 4.68 16 4 C19.46222615 2.93276039 22.64039266 2.89826514 26.25 2.9375 C27.86648438 2.95103516 27.86648438 2.95103516 29.515625 2.96484375 C30.33546875 2.97644531 31.1553125 2.98804687 32 3 C34.38705049 9.55491642 34.29730128 15.82824618 34.25 22.75 C34.25773438 23.86632812 34.26546875 24.98265625 34.2734375 26.1328125 C34.24660169 37.64537671 33.38866036 48.69150634 25.5078125 57.70703125 C23.4754902 59.44977395 21.61101938 59.64715954 19 60 C18.505 58.02 18.505 58.02 18 56 C18.78375 55.5875 19.5675 55.175 20.375 54.75 C23.05891656 52.9607223 23.88098949 51.95011861 25 49 C25.66 49 26.32 49 27 49 C27.8526962 42.44489797 28.09740827 36.10428037 28 29.5 C27.97462691 27.71880888 27.95354774 25.93754954 27.9375 24.15625 C27.92589844 23.38087891 27.91429687 22.60550781 27.90234375 21.80664062 C28 20 28 20 29 19 C29.16106858 14.81221687 28.88684593 11.08230666 28 7 C26.10307857 7.45380895 24.20750405 7.91324992 22.3125 8.375 C21.25675781 8.63023438 20.20101562 8.88546875 19.11328125 9.1484375 C16.29593234 9.91905489 13.68331675 10.85498543 11 12 C11.02320313 12.95519531 11.04640625 13.91039063 11.0703125 14.89453125 C11.1814732 22.85840169 10.81734706 30.19514341 9 38 C8.34 38 7.68 38 7 38 C6.67 39.98 6.34 41.96 6 44 C4.68 44.33 3.36 44.66 2 45 C2 43.68 2 42.36 2 41 C2.66 41 3.32 41 4 41 C4.06058594 40.41992188 4.12117188 39.83984375 4.18359375 39.2421875 C4.30927734 38.07042969 4.30927734 38.07042969 4.4375 36.875 C4.55931641 35.72644531 4.55931641 35.72644531 4.68359375 34.5546875 C4.90952946 32.73046583 5.18905678 30.91255711 5.50390625 29.1015625 C6.36806804 23.69885018 6.88375195 18.42678929 6 13 C4.35171772 10.81602597 2.84296562 9.58867303 0.53125 8.1484375 C0.0259375 7.76945312 -0.479375 7.39046875 -1 7 C-1 6.01 -1 5.02 -1 4 C-4.96 4 -8.92 4 -13 4 C-13.33 4.99 -13.66 5.98 -14 7 C-16.14453125 8.38671875 -16.14453125 8.38671875 -18.8125 9.6875 C-20.12154297 10.34298828 -20.12154297 10.34298828 -21.45703125 11.01171875 C-24 12 -24 12 -28 12 C-28 21.24 -28 30.48 -28 40 C-29.485 40.495 -29.485 40.495 -31 41 C-32 40 -32 40 -32.11352539 37.31616211 C-32.10567017 35.56444702 -32.10567017 35.56444702 -32.09765625 33.77734375 C-32.09282227 31.88725586 -32.09282227 31.88725586 -32.08789062 29.95898438 C-32.07953403 28.61848891 -32.07106907 27.27799412 -32.0625 25.9375 C-32.0574866 24.59310058 -32.05292342 23.2486994 -32.04882812 21.90429688 C-32.03699488 18.60282059 -32.02050971 15.30143197 -32 12 C-32.93392578 11.81630859 -32.93392578 11.81630859 -33.88671875 11.62890625 C-36 11 -36 11 -37.8125 8.9375 C-39.90648698 6.73557071 -39.90648698 6.73557071 -43.0625 6.5 C-48.38129347 7.17540235 -53.05025037 8.99503813 -58 11 C-58 11.99 -58 12.98 -58 14 C-58 15.66666667 -58 17.33333333 -58 19 C-57.34 19 -56.68 19 -56 19 C-54.74566542 22.76300374 -54.89304578 26.27210909 -54.9375 30.1875 C-54.94201172 30.93708984 -54.94652344 31.68667969 -54.95117188 32.45898438 C-54.96293646 34.30602383 -54.98087135 36.15302213 -55 38 C-56.98 38.495 -56.98 38.495 -59 39 C-60.10868109 35.67395672 -60.06504234 33.24602586 -60 29.75 C-59.95777836 25.02645375 -60.13706484 20.63827651 -61 16 C-61.66 16 -62.32 16 -63 16 C-63 15.01 -63 14.02 -63 13 C-64.4540625 13.1546875 -64.4540625 13.1546875 -65.9375 13.3125 C-69.44779351 13.34781482 -71.41974111 12.3437907 -74.375 10.5 C-79.7478122 7.24875979 -84.15326402 7.41239912 -90.19921875 8.3359375 C-91.09060547 8.66464844 -91.09060547 8.66464844 -92 9 C-92.33 9.99 -92.66 10.98 -93 12 C-95.97 11.505 -95.97 11.505 -99 11 C-90.7905945 2.56255546 -90.7905945 2.56255546 -83.8125 2.4375 C-77.72036853 2.53300934 -74.71156629 4.07065516 -69.984375 7.7109375 C-67.8865305 9.30919153 -67.8865305 9.30919153 -64.375 9.1875 C-60.86954868 7.95410046 -58.4503888 6.46479847 -55.578125 4.15625 C-51.91358823 1.47134187 -48.17161086 1.89750816 -43.8125 1.9375 C-42.54019531 1.94652344 -41.26789063 1.95554687 -39.95703125 1.96484375 C-38.49330078 1.98224609 -38.49330078 1.98224609 -37 2 C-36.34 3.32 -35.68 4.64 -35 6 C-34.34 6 -33.68 6 -33 6 C-33 6.66 -33 7.32 -33 8 C-27.17624838 8.30115186 -27.17624838 8.30115186 -22 6 C-21.67 5.34 -21.34 4.68 -21 4 C-14.42467503 -0.29925094 -7.78697684 -1.59627909 0 0 Z " fill="#141414" transform="translate(290,90)"/>
<path d="M0 0 C0 1.32 0 2.64 0 4 C-2.64 4.33 -5.28 4.66 -8 5 C-8.268125 5.804375 -8.53625 6.60875 -8.8125 7.4375 C-9.204375 8.283125 -9.59625 9.12875 -10 10 C-10.99 10.33 -11.98 10.66 -13 11 C-14.20882096 13.00016466 -14.20882096 13.00016466 -15 15 C-15.66 15 -16.32 15 -17 15 C-17.01981934 15.89195068 -17.03963867 16.78390137 -17.06005859 17.70288086 C-17.13874454 21.05225032 -17.2254533 24.4012218 -17.31738281 27.75024414 C-17.35536771 29.1922218 -17.39027024 30.63428442 -17.421875 32.07641602 C-17.59651624 39.94891565 -18.01220354 47.33611285 -20 55 C-21.10286106 62.94892313 -21.09606284 70.98854112 -21.125 79 C-21.12967285 79.9084668 -21.1343457 80.81693359 -21.13916016 81.75292969 C-21.12897592 85.95980389 -21.07609002 89.90060946 -20 94 C-23.75 95.125 -23.75 95.125 -26 94 C-26.96909928 91.09270217 -27.12881034 89.22761381 -27.1328125 86.203125 C-27.13474609 85.25058838 -27.13667969 84.29805176 -27.13867188 83.31665039 C-27.13416016 82.30465576 -27.12964844 81.29266113 -27.125 80.25 C-27.12306641 79.22189209 -27.12113281 78.19378418 -27.11914062 77.13452148 C-27.07365661 69.05416038 -26.71205322 61.04874445 -26 53 C-25.34 53 -24.68 53 -24 53 C-23.96241577 51.58521362 -23.96241577 51.58521362 -23.92407227 50.1418457 C-23.82870191 46.62871337 -23.72948275 43.11573292 -23.62768555 39.6027832 C-23.58448452 38.08492245 -23.54279952 36.56701774 -23.50268555 35.04907227 C-23.44462188 32.86200741 -23.38103344 30.67516082 -23.31640625 28.48828125 C-23.27974854 27.17384033 -23.24309082 25.85939941 -23.20532227 24.50512695 C-23.03239364 21.55300302 -22.67839286 18.87049504 -22 16 C-21.34 16 -20.68 16 -20 16 C-20 14.68 -20 13.36 -20 12 C-21.09501831 11.91697632 -21.09501831 11.91697632 -22.2121582 11.83227539 C-25.57900307 11.57652186 -28.9457514 11.31951762 -32.3125 11.0625 C-34.03436523 10.93198242 -34.03436523 10.93198242 -35.79101562 10.79882812 C-42.8666187 10.25763469 -49.93500439 9.66573136 -57 9 C-57.33 8.01 -57.66 7.02 -58 6 C-48.35157033 5.85173686 -38.80810082 6.30506871 -29.1875 7 C-27.80146088 7.09676459 -26.4153932 7.19312081 -25.02929688 7.2890625 C-21.68589633 7.52205209 -18.34283812 7.75909782 -15 8 C-14.57074219 6.81857422 -14.57074219 6.81857422 -14.1328125 5.61328125 C-11.38501022 -0.72561437 -6.02310363 -0.30625951 0 0 Z " fill="#222222" transform="translate(309,147)"/>
<path d="M0 0 C0.73294281 -0.00006042 1.46588562 -0.00012085 2.22103882 -0.00018311 C14.7887674 0.01438542 27.32411994 0.43012949 39.875 1.0625 C41.11659378 1.12130844 41.11659378 1.12130844 42.38327026 1.18130493 C44.74186121 1.29559659 47.0993708 1.42271117 49.45703125 1.5546875 C50.15456512 1.58812759 50.852099 1.62156769 51.57077026 1.65602112 C55.43551789 1.89242935 58.55883919 2.52544747 62.0625 4.1875 C62.0625 4.8475 62.0625 5.5075 62.0625 6.1875 C64.7025 6.5175 67.3425 6.8475 70.0625 7.1875 C70.0625 7.5175 70.0625 7.8475 70.0625 8.1875 C64.64055672 8.23761394 59.21875357 8.27355071 53.79663086 8.29736328 C51.95904181 8.3073092 50.1214681 8.32087073 48.28393555 8.33837891 C37.01485254 8.44292156 26.19011776 8.08106296 15.0625 6.1875 C15.0625 5.5275 15.0625 4.8675 15.0625 4.1875 C3.5125 3.8575 -8.0375 3.5275 -19.9375 3.1875 C-19.9375 2.5275 -19.9375 1.8675 -19.9375 1.1875 C-13.38379306 -0.34882438 -6.69123406 -0.00836555 0 0 Z " fill="#7F7F7F" transform="translate(214.9375,239.8125)"/>
<path d="M0 0 C1.32 0 2.64 0 4 0 C4.66 0.66 5.32 1.32 6 2 C6.66 2 7.32 2 8 2 C8.33 2.99 8.66 3.98 9 5 C8.01 5.33 7.02 5.66 6 6 C6 5.34 6 4.68 6 4 C5.071875 3.7834375 5.071875 3.7834375 4.125 3.5625 C2 3 2 3 0 2 C0 1.34 0 0.68 0 0 Z " fill="#868686" transform="translate(168,278)"/>
<path d="M0 0 C0.93423645 3.01031744 1.04449911 3.86650268 0 7 C-1.32 7 -2.64 7 -4 7 C-3.43628586 3.73045798 -2.50037734 2.17424117 0 0 Z " fill="#757575" transform="translate(198,99)"/>
</svg>
